%TF.GenerationSoftware,KiCad,Pcbnew,7.0.1*%
%TF.CreationDate,2023-03-28T11:43:35+02:00*%
%TF.ProjectId,OXS_RP2040_Full,4f58535f-5250-4323-9034-305f46756c6c,rev?*%
%TF.SameCoordinates,Original*%
%TF.FileFunction,Drillmap*%
%TF.FilePolarity,Positive*%
%FSLAX45Y45*%
G04 Gerber Fmt 4.5, Leading zero omitted, Abs format (unit mm)*
G04 Created by KiCad (PCBNEW 7.0.1) date 2023-03-28 11:43:35*
%MOMM*%
%LPD*%
G01*
G04 APERTURE LIST*
%ADD10C,0.050000*%
%ADD11C,0.200000*%
G04 APERTURE END LIST*
D10*
X11264900Y-11176000D02*
X6858000Y-11176000D01*
X6858000Y-11176000D02*
X6858000Y-7366000D01*
X6858000Y-7366000D02*
X11264900Y-7366000D01*
X11264900Y-7366000D02*
X11264900Y-11176000D01*
D11*
X7103119Y-11491024D02*
X7103119Y-11291024D01*
X7103119Y-11291024D02*
X7150738Y-11291024D01*
X7150738Y-11291024D02*
X7179309Y-11300548D01*
X7179309Y-11300548D02*
X7198357Y-11319595D01*
X7198357Y-11319595D02*
X7207881Y-11338643D01*
X7207881Y-11338643D02*
X7217405Y-11376738D01*
X7217405Y-11376738D02*
X7217405Y-11405309D01*
X7217405Y-11405309D02*
X7207881Y-11443405D01*
X7207881Y-11443405D02*
X7198357Y-11462452D01*
X7198357Y-11462452D02*
X7179309Y-11481500D01*
X7179309Y-11481500D02*
X7150738Y-11491024D01*
X7150738Y-11491024D02*
X7103119Y-11491024D01*
X7303119Y-11491024D02*
X7303119Y-11357690D01*
X7303119Y-11395786D02*
X7312643Y-11376738D01*
X7312643Y-11376738D02*
X7322167Y-11367214D01*
X7322167Y-11367214D02*
X7341214Y-11357690D01*
X7341214Y-11357690D02*
X7360262Y-11357690D01*
X7426928Y-11491024D02*
X7426928Y-11357690D01*
X7426928Y-11291024D02*
X7417405Y-11300548D01*
X7417405Y-11300548D02*
X7426928Y-11310071D01*
X7426928Y-11310071D02*
X7436452Y-11300548D01*
X7436452Y-11300548D02*
X7426928Y-11291024D01*
X7426928Y-11291024D02*
X7426928Y-11310071D01*
X7550738Y-11491024D02*
X7531690Y-11481500D01*
X7531690Y-11481500D02*
X7522167Y-11462452D01*
X7522167Y-11462452D02*
X7522167Y-11291024D01*
X7655500Y-11491024D02*
X7636452Y-11481500D01*
X7636452Y-11481500D02*
X7626928Y-11462452D01*
X7626928Y-11462452D02*
X7626928Y-11291024D01*
X7884071Y-11491024D02*
X7884071Y-11291024D01*
X7884071Y-11291024D02*
X7950738Y-11433881D01*
X7950738Y-11433881D02*
X8017405Y-11291024D01*
X8017405Y-11291024D02*
X8017405Y-11491024D01*
X8198357Y-11491024D02*
X8198357Y-11386262D01*
X8198357Y-11386262D02*
X8188833Y-11367214D01*
X8188833Y-11367214D02*
X8169786Y-11357690D01*
X8169786Y-11357690D02*
X8131690Y-11357690D01*
X8131690Y-11357690D02*
X8112643Y-11367214D01*
X8198357Y-11481500D02*
X8179309Y-11491024D01*
X8179309Y-11491024D02*
X8131690Y-11491024D01*
X8131690Y-11491024D02*
X8112643Y-11481500D01*
X8112643Y-11481500D02*
X8103119Y-11462452D01*
X8103119Y-11462452D02*
X8103119Y-11443405D01*
X8103119Y-11443405D02*
X8112643Y-11424357D01*
X8112643Y-11424357D02*
X8131690Y-11414833D01*
X8131690Y-11414833D02*
X8179309Y-11414833D01*
X8179309Y-11414833D02*
X8198357Y-11405309D01*
X8293595Y-11357690D02*
X8293595Y-11557690D01*
X8293595Y-11367214D02*
X8312643Y-11357690D01*
X8312643Y-11357690D02*
X8350738Y-11357690D01*
X8350738Y-11357690D02*
X8369786Y-11367214D01*
X8369786Y-11367214D02*
X8379309Y-11376738D01*
X8379309Y-11376738D02*
X8388833Y-11395786D01*
X8388833Y-11395786D02*
X8388833Y-11452928D01*
X8388833Y-11452928D02*
X8379309Y-11471976D01*
X8379309Y-11471976D02*
X8369786Y-11481500D01*
X8369786Y-11481500D02*
X8350738Y-11491024D01*
X8350738Y-11491024D02*
X8312643Y-11491024D01*
X8312643Y-11491024D02*
X8293595Y-11481500D01*
X8474548Y-11471976D02*
X8484071Y-11481500D01*
X8484071Y-11481500D02*
X8474548Y-11491024D01*
X8474548Y-11491024D02*
X8465024Y-11481500D01*
X8465024Y-11481500D02*
X8474548Y-11471976D01*
X8474548Y-11471976D02*
X8474548Y-11491024D01*
X8474548Y-11367214D02*
X8484071Y-11376738D01*
X8484071Y-11376738D02*
X8474548Y-11386262D01*
X8474548Y-11386262D02*
X8465024Y-11376738D01*
X8465024Y-11376738D02*
X8474548Y-11367214D01*
X8474548Y-11367214D02*
X8474548Y-11386262D01*
M02*
