G04 #@! TF.GenerationSoftware,KiCad,Pcbnew,7.0.1*
G04 #@! TF.CreationDate,2023-03-28T11:43:29+02:00*
G04 #@! TF.ProjectId,OXS_RP2040_Full,4f58535f-5250-4323-9034-305f46756c6c,rev?*
G04 #@! TF.SameCoordinates,Original*
G04 #@! TF.FileFunction,Paste,Top*
G04 #@! TF.FilePolarity,Positive*
%FSLAX46Y46*%
G04 Gerber Fmt 4.6, Leading zero omitted, Abs format (unit mm)*
G04 Created by KiCad (PCBNEW 7.0.1) date 2023-03-28 11:43:29*
%MOMM*%
%LPD*%
G01*
G04 APERTURE LIST*
G04 Aperture macros list*
%AMRoundRect*
0 Rectangle with rounded corners*
0 $1 Rounding radius*
0 $2 $3 $4 $5 $6 $7 $8 $9 X,Y pos of 4 corners*
0 Add a 4 corners polygon primitive as box body*
4,1,4,$2,$3,$4,$5,$6,$7,$8,$9,$2,$3,0*
0 Add four circle primitives for the rounded corners*
1,1,$1+$1,$2,$3*
1,1,$1+$1,$4,$5*
1,1,$1+$1,$6,$7*
1,1,$1+$1,$8,$9*
0 Add four rect primitives between the rounded corners*
20,1,$1+$1,$2,$3,$4,$5,0*
20,1,$1+$1,$4,$5,$6,$7,0*
20,1,$1+$1,$6,$7,$8,$9,0*
20,1,$1+$1,$8,$9,$2,$3,0*%
G04 Aperture macros list end*
%ADD10RoundRect,0.250000X-0.400000X-0.625000X0.400000X-0.625000X0.400000X0.625000X-0.400000X0.625000X0*%
%ADD11R,2.000000X1.700000*%
%ADD12R,0.250000X1.100000*%
%ADD13RoundRect,0.250000X0.412500X0.650000X-0.412500X0.650000X-0.412500X-0.650000X0.412500X-0.650000X0*%
%ADD14R,2.000000X1.800000*%
%ADD15RoundRect,0.250000X0.400000X0.625000X-0.400000X0.625000X-0.400000X-0.625000X0.400000X-0.625000X0*%
%ADD16RoundRect,0.250000X-0.650000X0.412500X-0.650000X-0.412500X0.650000X-0.412500X0.650000X0.412500X0*%
%ADD17RoundRect,0.250000X-0.412500X-0.650000X0.412500X-0.650000X0.412500X0.650000X-0.412500X0.650000X0*%
%ADD18R,2.310000X2.520000*%
%ADD19RoundRect,0.375000X-0.375000X0.625000X-0.375000X-0.625000X0.375000X-0.625000X0.375000X0.625000X0*%
%ADD20R,1.500000X2.000000*%
%ADD21R,3.800000X2.000000*%
%ADD22RoundRect,0.250000X0.650000X-0.412500X0.650000X0.412500X-0.650000X0.412500X-0.650000X-0.412500X0*%
%ADD23RoundRect,0.250000X-0.625000X0.400000X-0.625000X-0.400000X0.625000X-0.400000X0.625000X0.400000X0*%
G04 APERTURE END LIST*
D10*
X103733000Y-96266000D03*
X106833000Y-96266000D03*
X103707000Y-88773000D03*
X106807000Y-88773000D03*
D11*
X111018000Y-108585000D03*
D10*
X103707000Y-98806000D03*
X106807000Y-98806000D03*
D12*
X99417000Y-93472000D03*
X98917000Y-93472000D03*
X98417000Y-93472000D03*
X97917000Y-93472000D03*
X97417000Y-93472000D03*
X97417000Y-97772000D03*
X97917000Y-97772000D03*
X98417000Y-97772000D03*
X98917000Y-97772000D03*
X99417000Y-97772000D03*
D13*
X81661000Y-92202000D03*
X78536000Y-92202000D03*
D14*
X70866000Y-85725000D03*
X70866000Y-83185000D03*
X70866000Y-80645000D03*
X70866000Y-78105000D03*
D15*
X81635000Y-97028000D03*
X78535000Y-97028000D03*
D11*
X110998000Y-78867000D03*
D15*
X81635000Y-94488000D03*
X78535000Y-94488000D03*
D10*
X103707000Y-91313000D03*
X106807000Y-91313000D03*
X103707000Y-93853000D03*
X106807000Y-93853000D03*
D12*
X99314000Y-83159000D03*
X98814000Y-83159000D03*
X98314000Y-83159000D03*
X97814000Y-83159000D03*
X97314000Y-83159000D03*
X97314000Y-87459000D03*
X97814000Y-87459000D03*
X98314000Y-87459000D03*
X98814000Y-87459000D03*
X99314000Y-87459000D03*
D10*
X103733000Y-101346000D03*
X106833000Y-101346000D03*
D16*
X95250000Y-94030000D03*
X95250000Y-97155000D03*
D10*
X103733000Y-83820000D03*
X106833000Y-83820000D03*
D13*
X81635000Y-99314000D03*
X78510000Y-99314000D03*
D10*
X103707000Y-86360000D03*
X106807000Y-86360000D03*
D15*
X76734000Y-94488000D03*
X73634000Y-94488000D03*
D14*
X70840000Y-97028000D03*
X70840000Y-94488000D03*
X70840000Y-91948000D03*
X70840000Y-89408000D03*
D17*
X73367500Y-100711000D03*
X76492500Y-100711000D03*
D18*
X85523000Y-76454000D03*
X79323000Y-76454000D03*
D15*
X76734000Y-97028000D03*
X73634000Y-97028000D03*
D19*
X78627000Y-80670000D03*
D20*
X76327000Y-80670000D03*
D21*
X76327000Y-86970000D03*
D20*
X74027000Y-80670000D03*
D22*
X83566000Y-86652500D03*
X83566000Y-83527500D03*
D23*
X92329000Y-96722000D03*
X92329000Y-99822000D03*
D13*
X106718500Y-81534000D03*
X103593500Y-81534000D03*
D14*
X70739000Y-108331000D03*
X70739000Y-105791000D03*
X70739000Y-103251000D03*
X70739000Y-100711000D03*
D16*
X95250000Y-83794000D03*
X95250000Y-86919000D03*
D10*
X103707000Y-104521000D03*
X106807000Y-104521000D03*
M02*
