G04 #@! TF.GenerationSoftware,KiCad,Pcbnew,7.0.1*
G04 #@! TF.CreationDate,2023-03-28T11:43:29+02:00*
G04 #@! TF.ProjectId,OXS_RP2040_Full,4f58535f-5250-4323-9034-305f46756c6c,rev?*
G04 #@! TF.SameCoordinates,Original*
G04 #@! TF.FileFunction,Legend,Top*
G04 #@! TF.FilePolarity,Positive*
%FSLAX46Y46*%
G04 Gerber Fmt 4.6, Leading zero omitted, Abs format (unit mm)*
G04 Created by KiCad (PCBNEW 7.0.1) date 2023-03-28 11:43:29*
%MOMM*%
%LPD*%
G01*
G04 APERTURE LIST*
%ADD10C,0.150000*%
%ADD11C,0.120000*%
%ADD12C,0.127000*%
G04 APERTURE END LIST*
D10*
X94512095Y-107857000D02*
X94654952Y-107904619D01*
X94654952Y-107904619D02*
X94893047Y-107904619D01*
X94893047Y-107904619D02*
X94988285Y-107857000D01*
X94988285Y-107857000D02*
X95035904Y-107809380D01*
X95035904Y-107809380D02*
X95083523Y-107714142D01*
X95083523Y-107714142D02*
X95083523Y-107618904D01*
X95083523Y-107618904D02*
X95035904Y-107523666D01*
X95035904Y-107523666D02*
X94988285Y-107476047D01*
X94988285Y-107476047D02*
X94893047Y-107428428D01*
X94893047Y-107428428D02*
X94702571Y-107380809D01*
X94702571Y-107380809D02*
X94607333Y-107333190D01*
X94607333Y-107333190D02*
X94559714Y-107285571D01*
X94559714Y-107285571D02*
X94512095Y-107190333D01*
X94512095Y-107190333D02*
X94512095Y-107095095D01*
X94512095Y-107095095D02*
X94559714Y-106999857D01*
X94559714Y-106999857D02*
X94607333Y-106952238D01*
X94607333Y-106952238D02*
X94702571Y-106904619D01*
X94702571Y-106904619D02*
X94940666Y-106904619D01*
X94940666Y-106904619D02*
X95083523Y-106952238D01*
X95845428Y-107380809D02*
X95988285Y-107428428D01*
X95988285Y-107428428D02*
X96035904Y-107476047D01*
X96035904Y-107476047D02*
X96083523Y-107571285D01*
X96083523Y-107571285D02*
X96083523Y-107714142D01*
X96083523Y-107714142D02*
X96035904Y-107809380D01*
X96035904Y-107809380D02*
X95988285Y-107857000D01*
X95988285Y-107857000D02*
X95893047Y-107904619D01*
X95893047Y-107904619D02*
X95512095Y-107904619D01*
X95512095Y-107904619D02*
X95512095Y-106904619D01*
X95512095Y-106904619D02*
X95845428Y-106904619D01*
X95845428Y-106904619D02*
X95940666Y-106952238D01*
X95940666Y-106952238D02*
X95988285Y-106999857D01*
X95988285Y-106999857D02*
X96035904Y-107095095D01*
X96035904Y-107095095D02*
X96035904Y-107190333D01*
X96035904Y-107190333D02*
X95988285Y-107285571D01*
X95988285Y-107285571D02*
X95940666Y-107333190D01*
X95940666Y-107333190D02*
X95845428Y-107380809D01*
X95845428Y-107380809D02*
X95512095Y-107380809D01*
X96512095Y-106904619D02*
X96512095Y-107714142D01*
X96512095Y-107714142D02*
X96559714Y-107809380D01*
X96559714Y-107809380D02*
X96607333Y-107857000D01*
X96607333Y-107857000D02*
X96702571Y-107904619D01*
X96702571Y-107904619D02*
X96893047Y-107904619D01*
X96893047Y-107904619D02*
X96988285Y-107857000D01*
X96988285Y-107857000D02*
X97035904Y-107809380D01*
X97035904Y-107809380D02*
X97083523Y-107714142D01*
X97083523Y-107714142D02*
X97083523Y-106904619D01*
X97512095Y-107857000D02*
X97654952Y-107904619D01*
X97654952Y-107904619D02*
X97893047Y-107904619D01*
X97893047Y-107904619D02*
X97988285Y-107857000D01*
X97988285Y-107857000D02*
X98035904Y-107809380D01*
X98035904Y-107809380D02*
X98083523Y-107714142D01*
X98083523Y-107714142D02*
X98083523Y-107618904D01*
X98083523Y-107618904D02*
X98035904Y-107523666D01*
X98035904Y-107523666D02*
X97988285Y-107476047D01*
X97988285Y-107476047D02*
X97893047Y-107428428D01*
X97893047Y-107428428D02*
X97702571Y-107380809D01*
X97702571Y-107380809D02*
X97607333Y-107333190D01*
X97607333Y-107333190D02*
X97559714Y-107285571D01*
X97559714Y-107285571D02*
X97512095Y-107190333D01*
X97512095Y-107190333D02*
X97512095Y-107095095D01*
X97512095Y-107095095D02*
X97559714Y-106999857D01*
X97559714Y-106999857D02*
X97607333Y-106952238D01*
X97607333Y-106952238D02*
X97702571Y-106904619D01*
X97702571Y-106904619D02*
X97940666Y-106904619D01*
X97940666Y-106904619D02*
X98083523Y-106952238D01*
X98464476Y-106999857D02*
X98512095Y-106952238D01*
X98512095Y-106952238D02*
X98607333Y-106904619D01*
X98607333Y-106904619D02*
X98845428Y-106904619D01*
X98845428Y-106904619D02*
X98940666Y-106952238D01*
X98940666Y-106952238D02*
X98988285Y-106999857D01*
X98988285Y-106999857D02*
X99035904Y-107095095D01*
X99035904Y-107095095D02*
X99035904Y-107190333D01*
X99035904Y-107190333D02*
X98988285Y-107333190D01*
X98988285Y-107333190D02*
X98416857Y-107904619D01*
X98416857Y-107904619D02*
X99035904Y-107904619D01*
X78399095Y-108031619D02*
X78399095Y-107031619D01*
X78399095Y-107031619D02*
X78732428Y-107745904D01*
X78732428Y-107745904D02*
X79065761Y-107031619D01*
X79065761Y-107031619D02*
X79065761Y-108031619D01*
X79541952Y-108031619D02*
X79541952Y-107031619D01*
X79541952Y-107031619D02*
X79922904Y-107031619D01*
X79922904Y-107031619D02*
X80018142Y-107079238D01*
X80018142Y-107079238D02*
X80065761Y-107126857D01*
X80065761Y-107126857D02*
X80113380Y-107222095D01*
X80113380Y-107222095D02*
X80113380Y-107364952D01*
X80113380Y-107364952D02*
X80065761Y-107460190D01*
X80065761Y-107460190D02*
X80018142Y-107507809D01*
X80018142Y-107507809D02*
X79922904Y-107555428D01*
X79922904Y-107555428D02*
X79541952Y-107555428D01*
X80541952Y-107031619D02*
X80541952Y-107841142D01*
X80541952Y-107841142D02*
X80589571Y-107936380D01*
X80589571Y-107936380D02*
X80637190Y-107984000D01*
X80637190Y-107984000D02*
X80732428Y-108031619D01*
X80732428Y-108031619D02*
X80922904Y-108031619D01*
X80922904Y-108031619D02*
X81018142Y-107984000D01*
X81018142Y-107984000D02*
X81065761Y-107936380D01*
X81065761Y-107936380D02*
X81113380Y-107841142D01*
X81113380Y-107841142D02*
X81113380Y-107031619D01*
X82018142Y-107031619D02*
X81827666Y-107031619D01*
X81827666Y-107031619D02*
X81732428Y-107079238D01*
X81732428Y-107079238D02*
X81684809Y-107126857D01*
X81684809Y-107126857D02*
X81589571Y-107269714D01*
X81589571Y-107269714D02*
X81541952Y-107460190D01*
X81541952Y-107460190D02*
X81541952Y-107841142D01*
X81541952Y-107841142D02*
X81589571Y-107936380D01*
X81589571Y-107936380D02*
X81637190Y-107984000D01*
X81637190Y-107984000D02*
X81732428Y-108031619D01*
X81732428Y-108031619D02*
X81922904Y-108031619D01*
X81922904Y-108031619D02*
X82018142Y-107984000D01*
X82018142Y-107984000D02*
X82065761Y-107936380D01*
X82065761Y-107936380D02*
X82113380Y-107841142D01*
X82113380Y-107841142D02*
X82113380Y-107603047D01*
X82113380Y-107603047D02*
X82065761Y-107507809D01*
X82065761Y-107507809D02*
X82018142Y-107460190D01*
X82018142Y-107460190D02*
X81922904Y-107412571D01*
X81922904Y-107412571D02*
X81732428Y-107412571D01*
X81732428Y-107412571D02*
X81637190Y-107460190D01*
X81637190Y-107460190D02*
X81589571Y-107507809D01*
X81589571Y-107507809D02*
X81541952Y-107603047D01*
X82732428Y-107031619D02*
X82827666Y-107031619D01*
X82827666Y-107031619D02*
X82922904Y-107079238D01*
X82922904Y-107079238D02*
X82970523Y-107126857D01*
X82970523Y-107126857D02*
X83018142Y-107222095D01*
X83018142Y-107222095D02*
X83065761Y-107412571D01*
X83065761Y-107412571D02*
X83065761Y-107650666D01*
X83065761Y-107650666D02*
X83018142Y-107841142D01*
X83018142Y-107841142D02*
X82970523Y-107936380D01*
X82970523Y-107936380D02*
X82922904Y-107984000D01*
X82922904Y-107984000D02*
X82827666Y-108031619D01*
X82827666Y-108031619D02*
X82732428Y-108031619D01*
X82732428Y-108031619D02*
X82637190Y-107984000D01*
X82637190Y-107984000D02*
X82589571Y-107936380D01*
X82589571Y-107936380D02*
X82541952Y-107841142D01*
X82541952Y-107841142D02*
X82494333Y-107650666D01*
X82494333Y-107650666D02*
X82494333Y-107412571D01*
X82494333Y-107412571D02*
X82541952Y-107222095D01*
X82541952Y-107222095D02*
X82589571Y-107126857D01*
X82589571Y-107126857D02*
X82637190Y-107079238D01*
X82637190Y-107079238D02*
X82732428Y-107031619D01*
X83970523Y-107031619D02*
X83494333Y-107031619D01*
X83494333Y-107031619D02*
X83446714Y-107507809D01*
X83446714Y-107507809D02*
X83494333Y-107460190D01*
X83494333Y-107460190D02*
X83589571Y-107412571D01*
X83589571Y-107412571D02*
X83827666Y-107412571D01*
X83827666Y-107412571D02*
X83922904Y-107460190D01*
X83922904Y-107460190D02*
X83970523Y-107507809D01*
X83970523Y-107507809D02*
X84018142Y-107603047D01*
X84018142Y-107603047D02*
X84018142Y-107841142D01*
X84018142Y-107841142D02*
X83970523Y-107936380D01*
X83970523Y-107936380D02*
X83922904Y-107984000D01*
X83922904Y-107984000D02*
X83827666Y-108031619D01*
X83827666Y-108031619D02*
X83589571Y-108031619D01*
X83589571Y-108031619D02*
X83494333Y-107984000D01*
X83494333Y-107984000D02*
X83446714Y-107936380D01*
X84637190Y-107031619D02*
X84732428Y-107031619D01*
X84732428Y-107031619D02*
X84827666Y-107079238D01*
X84827666Y-107079238D02*
X84875285Y-107126857D01*
X84875285Y-107126857D02*
X84922904Y-107222095D01*
X84922904Y-107222095D02*
X84970523Y-107412571D01*
X84970523Y-107412571D02*
X84970523Y-107650666D01*
X84970523Y-107650666D02*
X84922904Y-107841142D01*
X84922904Y-107841142D02*
X84875285Y-107936380D01*
X84875285Y-107936380D02*
X84827666Y-107984000D01*
X84827666Y-107984000D02*
X84732428Y-108031619D01*
X84732428Y-108031619D02*
X84637190Y-108031619D01*
X84637190Y-108031619D02*
X84541952Y-107984000D01*
X84541952Y-107984000D02*
X84494333Y-107936380D01*
X84494333Y-107936380D02*
X84446714Y-107841142D01*
X84446714Y-107841142D02*
X84399095Y-107650666D01*
X84399095Y-107650666D02*
X84399095Y-107412571D01*
X84399095Y-107412571D02*
X84446714Y-107222095D01*
X84446714Y-107222095D02*
X84494333Y-107126857D01*
X84494333Y-107126857D02*
X84541952Y-107079238D01*
X84541952Y-107079238D02*
X84637190Y-107031619D01*
X80962523Y-87600619D02*
X80486333Y-87600619D01*
X80486333Y-87600619D02*
X80438714Y-88076809D01*
X80438714Y-88076809D02*
X80486333Y-88029190D01*
X80486333Y-88029190D02*
X80581571Y-87981571D01*
X80581571Y-87981571D02*
X80819666Y-87981571D01*
X80819666Y-87981571D02*
X80914904Y-88029190D01*
X80914904Y-88029190D02*
X80962523Y-88076809D01*
X80962523Y-88076809D02*
X81010142Y-88172047D01*
X81010142Y-88172047D02*
X81010142Y-88410142D01*
X81010142Y-88410142D02*
X80962523Y-88505380D01*
X80962523Y-88505380D02*
X80914904Y-88553000D01*
X80914904Y-88553000D02*
X80819666Y-88600619D01*
X80819666Y-88600619D02*
X80581571Y-88600619D01*
X80581571Y-88600619D02*
X80486333Y-88553000D01*
X80486333Y-88553000D02*
X80438714Y-88505380D01*
X81295857Y-87600619D02*
X81629190Y-88600619D01*
X81629190Y-88600619D02*
X81962523Y-87600619D01*
X107721380Y-75553000D02*
X107835666Y-75600619D01*
X107835666Y-75600619D02*
X108026142Y-75600619D01*
X108026142Y-75600619D02*
X108102333Y-75553000D01*
X108102333Y-75553000D02*
X108140428Y-75505380D01*
X108140428Y-75505380D02*
X108178523Y-75410142D01*
X108178523Y-75410142D02*
X108178523Y-75314904D01*
X108178523Y-75314904D02*
X108140428Y-75219666D01*
X108140428Y-75219666D02*
X108102333Y-75172047D01*
X108102333Y-75172047D02*
X108026142Y-75124428D01*
X108026142Y-75124428D02*
X107873761Y-75076809D01*
X107873761Y-75076809D02*
X107797571Y-75029190D01*
X107797571Y-75029190D02*
X107759476Y-74981571D01*
X107759476Y-74981571D02*
X107721380Y-74886333D01*
X107721380Y-74886333D02*
X107721380Y-74791095D01*
X107721380Y-74791095D02*
X107759476Y-74695857D01*
X107759476Y-74695857D02*
X107797571Y-74648238D01*
X107797571Y-74648238D02*
X107873761Y-74600619D01*
X107873761Y-74600619D02*
X108064238Y-74600619D01*
X108064238Y-74600619D02*
X108178523Y-74648238D01*
X108788047Y-75076809D02*
X108902333Y-75124428D01*
X108902333Y-75124428D02*
X108940428Y-75172047D01*
X108940428Y-75172047D02*
X108978524Y-75267285D01*
X108978524Y-75267285D02*
X108978524Y-75410142D01*
X108978524Y-75410142D02*
X108940428Y-75505380D01*
X108940428Y-75505380D02*
X108902333Y-75553000D01*
X108902333Y-75553000D02*
X108826143Y-75600619D01*
X108826143Y-75600619D02*
X108521381Y-75600619D01*
X108521381Y-75600619D02*
X108521381Y-74600619D01*
X108521381Y-74600619D02*
X108788047Y-74600619D01*
X108788047Y-74600619D02*
X108864238Y-74648238D01*
X108864238Y-74648238D02*
X108902333Y-74695857D01*
X108902333Y-74695857D02*
X108940428Y-74791095D01*
X108940428Y-74791095D02*
X108940428Y-74886333D01*
X108940428Y-74886333D02*
X108902333Y-74981571D01*
X108902333Y-74981571D02*
X108864238Y-75029190D01*
X108864238Y-75029190D02*
X108788047Y-75076809D01*
X108788047Y-75076809D02*
X108521381Y-75076809D01*
X109321381Y-74600619D02*
X109321381Y-75410142D01*
X109321381Y-75410142D02*
X109359476Y-75505380D01*
X109359476Y-75505380D02*
X109397571Y-75553000D01*
X109397571Y-75553000D02*
X109473762Y-75600619D01*
X109473762Y-75600619D02*
X109626143Y-75600619D01*
X109626143Y-75600619D02*
X109702333Y-75553000D01*
X109702333Y-75553000D02*
X109740428Y-75505380D01*
X109740428Y-75505380D02*
X109778524Y-75410142D01*
X109778524Y-75410142D02*
X109778524Y-74600619D01*
X110121380Y-75553000D02*
X110235666Y-75600619D01*
X110235666Y-75600619D02*
X110426142Y-75600619D01*
X110426142Y-75600619D02*
X110502333Y-75553000D01*
X110502333Y-75553000D02*
X110540428Y-75505380D01*
X110540428Y-75505380D02*
X110578523Y-75410142D01*
X110578523Y-75410142D02*
X110578523Y-75314904D01*
X110578523Y-75314904D02*
X110540428Y-75219666D01*
X110540428Y-75219666D02*
X110502333Y-75172047D01*
X110502333Y-75172047D02*
X110426142Y-75124428D01*
X110426142Y-75124428D02*
X110273761Y-75076809D01*
X110273761Y-75076809D02*
X110197571Y-75029190D01*
X110197571Y-75029190D02*
X110159476Y-74981571D01*
X110159476Y-74981571D02*
X110121380Y-74886333D01*
X110121380Y-74886333D02*
X110121380Y-74791095D01*
X110121380Y-74791095D02*
X110159476Y-74695857D01*
X110159476Y-74695857D02*
X110197571Y-74648238D01*
X110197571Y-74648238D02*
X110273761Y-74600619D01*
X110273761Y-74600619D02*
X110464238Y-74600619D01*
X110464238Y-74600619D02*
X110578523Y-74648238D01*
X107911857Y-76220619D02*
X108064238Y-76220619D01*
X108064238Y-76220619D02*
X108140428Y-76268238D01*
X108140428Y-76268238D02*
X108216619Y-76363476D01*
X108216619Y-76363476D02*
X108254714Y-76553952D01*
X108254714Y-76553952D02*
X108254714Y-76887285D01*
X108254714Y-76887285D02*
X108216619Y-77077761D01*
X108216619Y-77077761D02*
X108140428Y-77173000D01*
X108140428Y-77173000D02*
X108064238Y-77220619D01*
X108064238Y-77220619D02*
X107911857Y-77220619D01*
X107911857Y-77220619D02*
X107835666Y-77173000D01*
X107835666Y-77173000D02*
X107759476Y-77077761D01*
X107759476Y-77077761D02*
X107721380Y-76887285D01*
X107721380Y-76887285D02*
X107721380Y-76553952D01*
X107721380Y-76553952D02*
X107759476Y-76363476D01*
X107759476Y-76363476D02*
X107835666Y-76268238D01*
X107835666Y-76268238D02*
X107911857Y-76220619D01*
X108597571Y-76220619D02*
X108597571Y-77030142D01*
X108597571Y-77030142D02*
X108635666Y-77125380D01*
X108635666Y-77125380D02*
X108673761Y-77173000D01*
X108673761Y-77173000D02*
X108749952Y-77220619D01*
X108749952Y-77220619D02*
X108902333Y-77220619D01*
X108902333Y-77220619D02*
X108978523Y-77173000D01*
X108978523Y-77173000D02*
X109016618Y-77125380D01*
X109016618Y-77125380D02*
X109054714Y-77030142D01*
X109054714Y-77030142D02*
X109054714Y-76220619D01*
X109321380Y-76220619D02*
X109778523Y-76220619D01*
X109549951Y-77220619D02*
X109549951Y-76220619D01*
X82980952Y-81549713D02*
X83266666Y-80787809D01*
X83266666Y-80787809D02*
X83552380Y-81549713D01*
X82647619Y-79835428D02*
X82647619Y-80311618D01*
X82647619Y-80311618D02*
X83123809Y-80359237D01*
X83123809Y-80359237D02*
X83076190Y-80311618D01*
X83076190Y-80311618D02*
X83028571Y-80216380D01*
X83028571Y-80216380D02*
X83028571Y-79978285D01*
X83028571Y-79978285D02*
X83076190Y-79883047D01*
X83076190Y-79883047D02*
X83123809Y-79835428D01*
X83123809Y-79835428D02*
X83219047Y-79787809D01*
X83219047Y-79787809D02*
X83457142Y-79787809D01*
X83457142Y-79787809D02*
X83552380Y-79835428D01*
X83552380Y-79835428D02*
X83600000Y-79883047D01*
X83600000Y-79883047D02*
X83647619Y-79978285D01*
X83647619Y-79978285D02*
X83647619Y-80216380D01*
X83647619Y-80216380D02*
X83600000Y-80311618D01*
X83600000Y-80311618D02*
X83552380Y-80359237D01*
X82647619Y-79502094D02*
X83647619Y-79168761D01*
X83647619Y-79168761D02*
X82647619Y-78835428D01*
X107188095Y-111333619D02*
X106854762Y-110857428D01*
X106616667Y-111333619D02*
X106616667Y-110333619D01*
X106616667Y-110333619D02*
X106997619Y-110333619D01*
X106997619Y-110333619D02*
X107092857Y-110381238D01*
X107092857Y-110381238D02*
X107140476Y-110428857D01*
X107140476Y-110428857D02*
X107188095Y-110524095D01*
X107188095Y-110524095D02*
X107188095Y-110666952D01*
X107188095Y-110666952D02*
X107140476Y-110762190D01*
X107140476Y-110762190D02*
X107092857Y-110809809D01*
X107092857Y-110809809D02*
X106997619Y-110857428D01*
X106997619Y-110857428D02*
X106616667Y-110857428D01*
X107616667Y-111333619D02*
X107616667Y-110333619D01*
X107616667Y-110333619D02*
X107997619Y-110333619D01*
X107997619Y-110333619D02*
X108092857Y-110381238D01*
X108092857Y-110381238D02*
X108140476Y-110428857D01*
X108140476Y-110428857D02*
X108188095Y-110524095D01*
X108188095Y-110524095D02*
X108188095Y-110666952D01*
X108188095Y-110666952D02*
X108140476Y-110762190D01*
X108140476Y-110762190D02*
X108092857Y-110809809D01*
X108092857Y-110809809D02*
X107997619Y-110857428D01*
X107997619Y-110857428D02*
X107616667Y-110857428D01*
X108616667Y-111333619D02*
X108616667Y-110333619D01*
X108616667Y-110333619D02*
X108950000Y-111047904D01*
X108950000Y-111047904D02*
X109283333Y-110333619D01*
X109283333Y-110333619D02*
X109283333Y-111333619D01*
X108539619Y-96780285D02*
X108063428Y-97046952D01*
X108539619Y-97237428D02*
X107539619Y-97237428D01*
X107539619Y-97237428D02*
X107539619Y-96932666D01*
X107539619Y-96932666D02*
X107587238Y-96856476D01*
X107587238Y-96856476D02*
X107634857Y-96818381D01*
X107634857Y-96818381D02*
X107730095Y-96780285D01*
X107730095Y-96780285D02*
X107872952Y-96780285D01*
X107872952Y-96780285D02*
X107968190Y-96818381D01*
X107968190Y-96818381D02*
X108015809Y-96856476D01*
X108015809Y-96856476D02*
X108063428Y-96932666D01*
X108063428Y-96932666D02*
X108063428Y-97237428D01*
X107634857Y-96475524D02*
X107587238Y-96437428D01*
X107587238Y-96437428D02*
X107539619Y-96361238D01*
X107539619Y-96361238D02*
X107539619Y-96170762D01*
X107539619Y-96170762D02*
X107587238Y-96094571D01*
X107587238Y-96094571D02*
X107634857Y-96056476D01*
X107634857Y-96056476D02*
X107730095Y-96018381D01*
X107730095Y-96018381D02*
X107825333Y-96018381D01*
X107825333Y-96018381D02*
X107968190Y-96056476D01*
X107968190Y-96056476D02*
X108539619Y-96513619D01*
X108539619Y-96513619D02*
X108539619Y-96018381D01*
X107872952Y-95332666D02*
X108539619Y-95332666D01*
X107492000Y-95523142D02*
X108206285Y-95713619D01*
X108206285Y-95713619D02*
X108206285Y-95218380D01*
X108539619Y-89160285D02*
X108063428Y-89426952D01*
X108539619Y-89617428D02*
X107539619Y-89617428D01*
X107539619Y-89617428D02*
X107539619Y-89312666D01*
X107539619Y-89312666D02*
X107587238Y-89236476D01*
X107587238Y-89236476D02*
X107634857Y-89198381D01*
X107634857Y-89198381D02*
X107730095Y-89160285D01*
X107730095Y-89160285D02*
X107872952Y-89160285D01*
X107872952Y-89160285D02*
X107968190Y-89198381D01*
X107968190Y-89198381D02*
X108015809Y-89236476D01*
X108015809Y-89236476D02*
X108063428Y-89312666D01*
X108063428Y-89312666D02*
X108063428Y-89617428D01*
X107634857Y-88855524D02*
X107587238Y-88817428D01*
X107587238Y-88817428D02*
X107539619Y-88741238D01*
X107539619Y-88741238D02*
X107539619Y-88550762D01*
X107539619Y-88550762D02*
X107587238Y-88474571D01*
X107587238Y-88474571D02*
X107634857Y-88436476D01*
X107634857Y-88436476D02*
X107730095Y-88398381D01*
X107730095Y-88398381D02*
X107825333Y-88398381D01*
X107825333Y-88398381D02*
X107968190Y-88436476D01*
X107968190Y-88436476D02*
X108539619Y-88893619D01*
X108539619Y-88893619D02*
X108539619Y-88398381D01*
X108539619Y-87636476D02*
X108539619Y-88093619D01*
X108539619Y-87865047D02*
X107539619Y-87865047D01*
X107539619Y-87865047D02*
X107682476Y-87941238D01*
X107682476Y-87941238D02*
X107777714Y-88017428D01*
X107777714Y-88017428D02*
X107825333Y-88093619D01*
X110442476Y-110333619D02*
X110442476Y-111047904D01*
X110442476Y-111047904D02*
X110394857Y-111190761D01*
X110394857Y-111190761D02*
X110299619Y-111286000D01*
X110299619Y-111286000D02*
X110156762Y-111333619D01*
X110156762Y-111333619D02*
X110061524Y-111333619D01*
X111442476Y-111333619D02*
X110871048Y-111333619D01*
X111156762Y-111333619D02*
X111156762Y-110333619D01*
X111156762Y-110333619D02*
X111061524Y-110476476D01*
X111061524Y-110476476D02*
X110966286Y-110571714D01*
X110966286Y-110571714D02*
X110871048Y-110619333D01*
X112394857Y-111333619D02*
X111823429Y-111333619D01*
X112109143Y-111333619D02*
X112109143Y-110333619D01*
X112109143Y-110333619D02*
X112013905Y-110476476D01*
X112013905Y-110476476D02*
X111918667Y-110571714D01*
X111918667Y-110571714D02*
X111823429Y-110619333D01*
X107362666Y-106650619D02*
X107362666Y-107364904D01*
X107362666Y-107364904D02*
X107315047Y-107507761D01*
X107315047Y-107507761D02*
X107219809Y-107603000D01*
X107219809Y-107603000D02*
X107076952Y-107650619D01*
X107076952Y-107650619D02*
X106981714Y-107650619D01*
X107743619Y-106650619D02*
X108410285Y-106650619D01*
X108410285Y-106650619D02*
X107981714Y-107650619D01*
X88392095Y-83917619D02*
X88392095Y-84727142D01*
X88392095Y-84727142D02*
X88439714Y-84822380D01*
X88439714Y-84822380D02*
X88487333Y-84870000D01*
X88487333Y-84870000D02*
X88582571Y-84917619D01*
X88582571Y-84917619D02*
X88773047Y-84917619D01*
X88773047Y-84917619D02*
X88868285Y-84870000D01*
X88868285Y-84870000D02*
X88915904Y-84822380D01*
X88915904Y-84822380D02*
X88963523Y-84727142D01*
X88963523Y-84727142D02*
X88963523Y-83917619D01*
X89392095Y-84012857D02*
X89439714Y-83965238D01*
X89439714Y-83965238D02*
X89534952Y-83917619D01*
X89534952Y-83917619D02*
X89773047Y-83917619D01*
X89773047Y-83917619D02*
X89868285Y-83965238D01*
X89868285Y-83965238D02*
X89915904Y-84012857D01*
X89915904Y-84012857D02*
X89963523Y-84108095D01*
X89963523Y-84108095D02*
X89963523Y-84203333D01*
X89963523Y-84203333D02*
X89915904Y-84346190D01*
X89915904Y-84346190D02*
X89344476Y-84917619D01*
X89344476Y-84917619D02*
X89963523Y-84917619D01*
X108539619Y-99320285D02*
X108063428Y-99586952D01*
X108539619Y-99777428D02*
X107539619Y-99777428D01*
X107539619Y-99777428D02*
X107539619Y-99472666D01*
X107539619Y-99472666D02*
X107587238Y-99396476D01*
X107587238Y-99396476D02*
X107634857Y-99358381D01*
X107634857Y-99358381D02*
X107730095Y-99320285D01*
X107730095Y-99320285D02*
X107872952Y-99320285D01*
X107872952Y-99320285D02*
X107968190Y-99358381D01*
X107968190Y-99358381D02*
X108015809Y-99396476D01*
X108015809Y-99396476D02*
X108063428Y-99472666D01*
X108063428Y-99472666D02*
X108063428Y-99777428D01*
X107634857Y-99015524D02*
X107587238Y-98977428D01*
X107587238Y-98977428D02*
X107539619Y-98901238D01*
X107539619Y-98901238D02*
X107539619Y-98710762D01*
X107539619Y-98710762D02*
X107587238Y-98634571D01*
X107587238Y-98634571D02*
X107634857Y-98596476D01*
X107634857Y-98596476D02*
X107730095Y-98558381D01*
X107730095Y-98558381D02*
X107825333Y-98558381D01*
X107825333Y-98558381D02*
X107968190Y-98596476D01*
X107968190Y-98596476D02*
X108539619Y-99053619D01*
X108539619Y-99053619D02*
X108539619Y-98558381D01*
X107539619Y-97834571D02*
X107539619Y-98215523D01*
X107539619Y-98215523D02*
X108015809Y-98253619D01*
X108015809Y-98253619D02*
X107968190Y-98215523D01*
X107968190Y-98215523D02*
X107920571Y-98139333D01*
X107920571Y-98139333D02*
X107920571Y-97948857D01*
X107920571Y-97948857D02*
X107968190Y-97872666D01*
X107968190Y-97872666D02*
X108015809Y-97834571D01*
X108015809Y-97834571D02*
X108111047Y-97796476D01*
X108111047Y-97796476D02*
X108349142Y-97796476D01*
X108349142Y-97796476D02*
X108444380Y-97834571D01*
X108444380Y-97834571D02*
X108492000Y-97872666D01*
X108492000Y-97872666D02*
X108539619Y-97948857D01*
X108539619Y-97948857D02*
X108539619Y-98139333D01*
X108539619Y-98139333D02*
X108492000Y-98215523D01*
X108492000Y-98215523D02*
X108444380Y-98253619D01*
X99949095Y-78202619D02*
X99949095Y-79012142D01*
X99949095Y-79012142D02*
X99996714Y-79107380D01*
X99996714Y-79107380D02*
X100044333Y-79155000D01*
X100044333Y-79155000D02*
X100139571Y-79202619D01*
X100139571Y-79202619D02*
X100330047Y-79202619D01*
X100330047Y-79202619D02*
X100425285Y-79155000D01*
X100425285Y-79155000D02*
X100472904Y-79107380D01*
X100472904Y-79107380D02*
X100520523Y-79012142D01*
X100520523Y-79012142D02*
X100520523Y-78202619D01*
X101520523Y-79202619D02*
X100949095Y-79202619D01*
X101234809Y-79202619D02*
X101234809Y-78202619D01*
X101234809Y-78202619D02*
X101139571Y-78345476D01*
X101139571Y-78345476D02*
X101044333Y-78440714D01*
X101044333Y-78440714D02*
X100949095Y-78488333D01*
X98425095Y-91537619D02*
X98425095Y-92347142D01*
X98425095Y-92347142D02*
X98472714Y-92442380D01*
X98472714Y-92442380D02*
X98520333Y-92490000D01*
X98520333Y-92490000D02*
X98615571Y-92537619D01*
X98615571Y-92537619D02*
X98806047Y-92537619D01*
X98806047Y-92537619D02*
X98901285Y-92490000D01*
X98901285Y-92490000D02*
X98948904Y-92442380D01*
X98948904Y-92442380D02*
X98996523Y-92347142D01*
X98996523Y-92347142D02*
X98996523Y-91537619D01*
X99948904Y-91537619D02*
X99472714Y-91537619D01*
X99472714Y-91537619D02*
X99425095Y-92013809D01*
X99425095Y-92013809D02*
X99472714Y-91966190D01*
X99472714Y-91966190D02*
X99567952Y-91918571D01*
X99567952Y-91918571D02*
X99806047Y-91918571D01*
X99806047Y-91918571D02*
X99901285Y-91966190D01*
X99901285Y-91966190D02*
X99948904Y-92013809D01*
X99948904Y-92013809D02*
X99996523Y-92109047D01*
X99996523Y-92109047D02*
X99996523Y-92347142D01*
X99996523Y-92347142D02*
X99948904Y-92442380D01*
X99948904Y-92442380D02*
X99901285Y-92490000D01*
X99901285Y-92490000D02*
X99806047Y-92537619D01*
X99806047Y-92537619D02*
X99567952Y-92537619D01*
X99567952Y-92537619D02*
X99472714Y-92490000D01*
X99472714Y-92490000D02*
X99425095Y-92442380D01*
X81240333Y-90918380D02*
X81192714Y-90966000D01*
X81192714Y-90966000D02*
X81049857Y-91013619D01*
X81049857Y-91013619D02*
X80954619Y-91013619D01*
X80954619Y-91013619D02*
X80811762Y-90966000D01*
X80811762Y-90966000D02*
X80716524Y-90870761D01*
X80716524Y-90870761D02*
X80668905Y-90775523D01*
X80668905Y-90775523D02*
X80621286Y-90585047D01*
X80621286Y-90585047D02*
X80621286Y-90442190D01*
X80621286Y-90442190D02*
X80668905Y-90251714D01*
X80668905Y-90251714D02*
X80716524Y-90156476D01*
X80716524Y-90156476D02*
X80811762Y-90061238D01*
X80811762Y-90061238D02*
X80954619Y-90013619D01*
X80954619Y-90013619D02*
X81049857Y-90013619D01*
X81049857Y-90013619D02*
X81192714Y-90061238D01*
X81192714Y-90061238D02*
X81240333Y-90108857D01*
X81621286Y-90108857D02*
X81668905Y-90061238D01*
X81668905Y-90061238D02*
X81764143Y-90013619D01*
X81764143Y-90013619D02*
X82002238Y-90013619D01*
X82002238Y-90013619D02*
X82097476Y-90061238D01*
X82097476Y-90061238D02*
X82145095Y-90108857D01*
X82145095Y-90108857D02*
X82192714Y-90204095D01*
X82192714Y-90204095D02*
X82192714Y-90299333D01*
X82192714Y-90299333D02*
X82145095Y-90442190D01*
X82145095Y-90442190D02*
X81573667Y-91013619D01*
X81573667Y-91013619D02*
X82192714Y-91013619D01*
X71929666Y-75916619D02*
X71929666Y-76630904D01*
X71929666Y-76630904D02*
X71882047Y-76773761D01*
X71882047Y-76773761D02*
X71786809Y-76869000D01*
X71786809Y-76869000D02*
X71643952Y-76916619D01*
X71643952Y-76916619D02*
X71548714Y-76916619D01*
X72453476Y-76916619D02*
X72643952Y-76916619D01*
X72643952Y-76916619D02*
X72739190Y-76869000D01*
X72739190Y-76869000D02*
X72786809Y-76821380D01*
X72786809Y-76821380D02*
X72882047Y-76678523D01*
X72882047Y-76678523D02*
X72929666Y-76488047D01*
X72929666Y-76488047D02*
X72929666Y-76107095D01*
X72929666Y-76107095D02*
X72882047Y-76011857D01*
X72882047Y-76011857D02*
X72834428Y-75964238D01*
X72834428Y-75964238D02*
X72739190Y-75916619D01*
X72739190Y-75916619D02*
X72548714Y-75916619D01*
X72548714Y-75916619D02*
X72453476Y-75964238D01*
X72453476Y-75964238D02*
X72405857Y-76011857D01*
X72405857Y-76011857D02*
X72358238Y-76107095D01*
X72358238Y-76107095D02*
X72358238Y-76345190D01*
X72358238Y-76345190D02*
X72405857Y-76440428D01*
X72405857Y-76440428D02*
X72453476Y-76488047D01*
X72453476Y-76488047D02*
X72548714Y-76535666D01*
X72548714Y-76535666D02*
X72739190Y-76535666D01*
X72739190Y-76535666D02*
X72834428Y-76488047D01*
X72834428Y-76488047D02*
X72882047Y-76440428D01*
X72882047Y-76440428D02*
X72929666Y-76345190D01*
X84536619Y-97194666D02*
X84060428Y-97527999D01*
X84536619Y-97766094D02*
X83536619Y-97766094D01*
X83536619Y-97766094D02*
X83536619Y-97385142D01*
X83536619Y-97385142D02*
X83584238Y-97289904D01*
X83584238Y-97289904D02*
X83631857Y-97242285D01*
X83631857Y-97242285D02*
X83727095Y-97194666D01*
X83727095Y-97194666D02*
X83869952Y-97194666D01*
X83869952Y-97194666D02*
X83965190Y-97242285D01*
X83965190Y-97242285D02*
X84012809Y-97289904D01*
X84012809Y-97289904D02*
X84060428Y-97385142D01*
X84060428Y-97385142D02*
X84060428Y-97766094D01*
X83536619Y-96289904D02*
X83536619Y-96766094D01*
X83536619Y-96766094D02*
X84012809Y-96813713D01*
X84012809Y-96813713D02*
X83965190Y-96766094D01*
X83965190Y-96766094D02*
X83917571Y-96670856D01*
X83917571Y-96670856D02*
X83917571Y-96432761D01*
X83917571Y-96432761D02*
X83965190Y-96337523D01*
X83965190Y-96337523D02*
X84012809Y-96289904D01*
X84012809Y-96289904D02*
X84108047Y-96242285D01*
X84108047Y-96242285D02*
X84346142Y-96242285D01*
X84346142Y-96242285D02*
X84441380Y-96289904D01*
X84441380Y-96289904D02*
X84489000Y-96337523D01*
X84489000Y-96337523D02*
X84536619Y-96432761D01*
X84536619Y-96432761D02*
X84536619Y-96670856D01*
X84536619Y-96670856D02*
X84489000Y-96766094D01*
X84489000Y-96766094D02*
X84441380Y-96813713D01*
X111152666Y-76043619D02*
X111152666Y-76757904D01*
X111152666Y-76757904D02*
X111105047Y-76900761D01*
X111105047Y-76900761D02*
X111009809Y-76996000D01*
X111009809Y-76996000D02*
X110866952Y-77043619D01*
X110866952Y-77043619D02*
X110771714Y-77043619D01*
X112057428Y-76043619D02*
X111866952Y-76043619D01*
X111866952Y-76043619D02*
X111771714Y-76091238D01*
X111771714Y-76091238D02*
X111724095Y-76138857D01*
X111724095Y-76138857D02*
X111628857Y-76281714D01*
X111628857Y-76281714D02*
X111581238Y-76472190D01*
X111581238Y-76472190D02*
X111581238Y-76853142D01*
X111581238Y-76853142D02*
X111628857Y-76948380D01*
X111628857Y-76948380D02*
X111676476Y-76996000D01*
X111676476Y-76996000D02*
X111771714Y-77043619D01*
X111771714Y-77043619D02*
X111962190Y-77043619D01*
X111962190Y-77043619D02*
X112057428Y-76996000D01*
X112057428Y-76996000D02*
X112105047Y-76948380D01*
X112105047Y-76948380D02*
X112152666Y-76853142D01*
X112152666Y-76853142D02*
X112152666Y-76615047D01*
X112152666Y-76615047D02*
X112105047Y-76519809D01*
X112105047Y-76519809D02*
X112057428Y-76472190D01*
X112057428Y-76472190D02*
X111962190Y-76424571D01*
X111962190Y-76424571D02*
X111771714Y-76424571D01*
X111771714Y-76424571D02*
X111676476Y-76472190D01*
X111676476Y-76472190D02*
X111628857Y-76519809D01*
X111628857Y-76519809D02*
X111581238Y-76615047D01*
X84409619Y-94654666D02*
X83933428Y-94987999D01*
X84409619Y-95226094D02*
X83409619Y-95226094D01*
X83409619Y-95226094D02*
X83409619Y-94845142D01*
X83409619Y-94845142D02*
X83457238Y-94749904D01*
X83457238Y-94749904D02*
X83504857Y-94702285D01*
X83504857Y-94702285D02*
X83600095Y-94654666D01*
X83600095Y-94654666D02*
X83742952Y-94654666D01*
X83742952Y-94654666D02*
X83838190Y-94702285D01*
X83838190Y-94702285D02*
X83885809Y-94749904D01*
X83885809Y-94749904D02*
X83933428Y-94845142D01*
X83933428Y-94845142D02*
X83933428Y-95226094D01*
X83409619Y-93797523D02*
X83409619Y-93987999D01*
X83409619Y-93987999D02*
X83457238Y-94083237D01*
X83457238Y-94083237D02*
X83504857Y-94130856D01*
X83504857Y-94130856D02*
X83647714Y-94226094D01*
X83647714Y-94226094D02*
X83838190Y-94273713D01*
X83838190Y-94273713D02*
X84219142Y-94273713D01*
X84219142Y-94273713D02*
X84314380Y-94226094D01*
X84314380Y-94226094D02*
X84362000Y-94178475D01*
X84362000Y-94178475D02*
X84409619Y-94083237D01*
X84409619Y-94083237D02*
X84409619Y-93892761D01*
X84409619Y-93892761D02*
X84362000Y-93797523D01*
X84362000Y-93797523D02*
X84314380Y-93749904D01*
X84314380Y-93749904D02*
X84219142Y-93702285D01*
X84219142Y-93702285D02*
X83981047Y-93702285D01*
X83981047Y-93702285D02*
X83885809Y-93749904D01*
X83885809Y-93749904D02*
X83838190Y-93797523D01*
X83838190Y-93797523D02*
X83790571Y-93892761D01*
X83790571Y-93892761D02*
X83790571Y-94083237D01*
X83790571Y-94083237D02*
X83838190Y-94178475D01*
X83838190Y-94178475D02*
X83885809Y-94226094D01*
X83885809Y-94226094D02*
X83981047Y-94273713D01*
X108539619Y-91827285D02*
X108063428Y-92093952D01*
X108539619Y-92284428D02*
X107539619Y-92284428D01*
X107539619Y-92284428D02*
X107539619Y-91979666D01*
X107539619Y-91979666D02*
X107587238Y-91903476D01*
X107587238Y-91903476D02*
X107634857Y-91865381D01*
X107634857Y-91865381D02*
X107730095Y-91827285D01*
X107730095Y-91827285D02*
X107872952Y-91827285D01*
X107872952Y-91827285D02*
X107968190Y-91865381D01*
X107968190Y-91865381D02*
X108015809Y-91903476D01*
X108015809Y-91903476D02*
X108063428Y-91979666D01*
X108063428Y-91979666D02*
X108063428Y-92284428D01*
X107634857Y-91522524D02*
X107587238Y-91484428D01*
X107587238Y-91484428D02*
X107539619Y-91408238D01*
X107539619Y-91408238D02*
X107539619Y-91217762D01*
X107539619Y-91217762D02*
X107587238Y-91141571D01*
X107587238Y-91141571D02*
X107634857Y-91103476D01*
X107634857Y-91103476D02*
X107730095Y-91065381D01*
X107730095Y-91065381D02*
X107825333Y-91065381D01*
X107825333Y-91065381D02*
X107968190Y-91103476D01*
X107968190Y-91103476D02*
X108539619Y-91560619D01*
X108539619Y-91560619D02*
X108539619Y-91065381D01*
X107634857Y-90760619D02*
X107587238Y-90722523D01*
X107587238Y-90722523D02*
X107539619Y-90646333D01*
X107539619Y-90646333D02*
X107539619Y-90455857D01*
X107539619Y-90455857D02*
X107587238Y-90379666D01*
X107587238Y-90379666D02*
X107634857Y-90341571D01*
X107634857Y-90341571D02*
X107730095Y-90303476D01*
X107730095Y-90303476D02*
X107825333Y-90303476D01*
X107825333Y-90303476D02*
X107968190Y-90341571D01*
X107968190Y-90341571D02*
X108539619Y-90798714D01*
X108539619Y-90798714D02*
X108539619Y-90303476D01*
X108539619Y-94367285D02*
X108063428Y-94633952D01*
X108539619Y-94824428D02*
X107539619Y-94824428D01*
X107539619Y-94824428D02*
X107539619Y-94519666D01*
X107539619Y-94519666D02*
X107587238Y-94443476D01*
X107587238Y-94443476D02*
X107634857Y-94405381D01*
X107634857Y-94405381D02*
X107730095Y-94367285D01*
X107730095Y-94367285D02*
X107872952Y-94367285D01*
X107872952Y-94367285D02*
X107968190Y-94405381D01*
X107968190Y-94405381D02*
X108015809Y-94443476D01*
X108015809Y-94443476D02*
X108063428Y-94519666D01*
X108063428Y-94519666D02*
X108063428Y-94824428D01*
X107634857Y-94062524D02*
X107587238Y-94024428D01*
X107587238Y-94024428D02*
X107539619Y-93948238D01*
X107539619Y-93948238D02*
X107539619Y-93757762D01*
X107539619Y-93757762D02*
X107587238Y-93681571D01*
X107587238Y-93681571D02*
X107634857Y-93643476D01*
X107634857Y-93643476D02*
X107730095Y-93605381D01*
X107730095Y-93605381D02*
X107825333Y-93605381D01*
X107825333Y-93605381D02*
X107968190Y-93643476D01*
X107968190Y-93643476D02*
X108539619Y-94100619D01*
X108539619Y-94100619D02*
X108539619Y-93605381D01*
X107539619Y-93338714D02*
X107539619Y-92843476D01*
X107539619Y-92843476D02*
X107920571Y-93110142D01*
X107920571Y-93110142D02*
X107920571Y-92995857D01*
X107920571Y-92995857D02*
X107968190Y-92919666D01*
X107968190Y-92919666D02*
X108015809Y-92881571D01*
X108015809Y-92881571D02*
X108111047Y-92843476D01*
X108111047Y-92843476D02*
X108349142Y-92843476D01*
X108349142Y-92843476D02*
X108444380Y-92881571D01*
X108444380Y-92881571D02*
X108492000Y-92919666D01*
X108492000Y-92919666D02*
X108539619Y-92995857D01*
X108539619Y-92995857D02*
X108539619Y-93224428D01*
X108539619Y-93224428D02*
X108492000Y-93300619D01*
X108492000Y-93300619D02*
X108444380Y-93338714D01*
X97536095Y-81123619D02*
X97536095Y-81933142D01*
X97536095Y-81933142D02*
X97583714Y-82028380D01*
X97583714Y-82028380D02*
X97631333Y-82076000D01*
X97631333Y-82076000D02*
X97726571Y-82123619D01*
X97726571Y-82123619D02*
X97917047Y-82123619D01*
X97917047Y-82123619D02*
X98012285Y-82076000D01*
X98012285Y-82076000D02*
X98059904Y-82028380D01*
X98059904Y-82028380D02*
X98107523Y-81933142D01*
X98107523Y-81933142D02*
X98107523Y-81123619D01*
X99012285Y-81456952D02*
X99012285Y-82123619D01*
X98774190Y-81076000D02*
X98536095Y-81790285D01*
X98536095Y-81790285D02*
X99155142Y-81790285D01*
X108539619Y-102115857D02*
X108063428Y-102449190D01*
X108539619Y-102687285D02*
X107539619Y-102687285D01*
X107539619Y-102687285D02*
X107539619Y-102306333D01*
X107539619Y-102306333D02*
X107587238Y-102211095D01*
X107587238Y-102211095D02*
X107634857Y-102163476D01*
X107634857Y-102163476D02*
X107730095Y-102115857D01*
X107730095Y-102115857D02*
X107872952Y-102115857D01*
X107872952Y-102115857D02*
X107968190Y-102163476D01*
X107968190Y-102163476D02*
X108015809Y-102211095D01*
X108015809Y-102211095D02*
X108063428Y-102306333D01*
X108063428Y-102306333D02*
X108063428Y-102687285D01*
X107634857Y-101734904D02*
X107587238Y-101687285D01*
X107587238Y-101687285D02*
X107539619Y-101592047D01*
X107539619Y-101592047D02*
X107539619Y-101353952D01*
X107539619Y-101353952D02*
X107587238Y-101258714D01*
X107587238Y-101258714D02*
X107634857Y-101211095D01*
X107634857Y-101211095D02*
X107730095Y-101163476D01*
X107730095Y-101163476D02*
X107825333Y-101163476D01*
X107825333Y-101163476D02*
X107968190Y-101211095D01*
X107968190Y-101211095D02*
X108539619Y-101782523D01*
X108539619Y-101782523D02*
X108539619Y-101163476D01*
X107539619Y-100306333D02*
X107539619Y-100496809D01*
X107539619Y-100496809D02*
X107587238Y-100592047D01*
X107587238Y-100592047D02*
X107634857Y-100639666D01*
X107634857Y-100639666D02*
X107777714Y-100734904D01*
X107777714Y-100734904D02*
X107968190Y-100782523D01*
X107968190Y-100782523D02*
X108349142Y-100782523D01*
X108349142Y-100782523D02*
X108444380Y-100734904D01*
X108444380Y-100734904D02*
X108492000Y-100687285D01*
X108492000Y-100687285D02*
X108539619Y-100592047D01*
X108539619Y-100592047D02*
X108539619Y-100401571D01*
X108539619Y-100401571D02*
X108492000Y-100306333D01*
X108492000Y-100306333D02*
X108444380Y-100258714D01*
X108444380Y-100258714D02*
X108349142Y-100211095D01*
X108349142Y-100211095D02*
X108111047Y-100211095D01*
X108111047Y-100211095D02*
X108015809Y-100258714D01*
X108015809Y-100258714D02*
X107968190Y-100306333D01*
X107968190Y-100306333D02*
X107920571Y-100401571D01*
X107920571Y-100401571D02*
X107920571Y-100592047D01*
X107920571Y-100592047D02*
X107968190Y-100687285D01*
X107968190Y-100687285D02*
X108015809Y-100734904D01*
X108015809Y-100734904D02*
X108111047Y-100782523D01*
X94093380Y-93765666D02*
X94141000Y-93813285D01*
X94141000Y-93813285D02*
X94188619Y-93956142D01*
X94188619Y-93956142D02*
X94188619Y-94051380D01*
X94188619Y-94051380D02*
X94141000Y-94194237D01*
X94141000Y-94194237D02*
X94045761Y-94289475D01*
X94045761Y-94289475D02*
X93950523Y-94337094D01*
X93950523Y-94337094D02*
X93760047Y-94384713D01*
X93760047Y-94384713D02*
X93617190Y-94384713D01*
X93617190Y-94384713D02*
X93426714Y-94337094D01*
X93426714Y-94337094D02*
X93331476Y-94289475D01*
X93331476Y-94289475D02*
X93236238Y-94194237D01*
X93236238Y-94194237D02*
X93188619Y-94051380D01*
X93188619Y-94051380D02*
X93188619Y-93956142D01*
X93188619Y-93956142D02*
X93236238Y-93813285D01*
X93236238Y-93813285D02*
X93283857Y-93765666D01*
X94188619Y-93289475D02*
X94188619Y-93098999D01*
X94188619Y-93098999D02*
X94141000Y-93003761D01*
X94141000Y-93003761D02*
X94093380Y-92956142D01*
X94093380Y-92956142D02*
X93950523Y-92860904D01*
X93950523Y-92860904D02*
X93760047Y-92813285D01*
X93760047Y-92813285D02*
X93379095Y-92813285D01*
X93379095Y-92813285D02*
X93283857Y-92860904D01*
X93283857Y-92860904D02*
X93236238Y-92908523D01*
X93236238Y-92908523D02*
X93188619Y-93003761D01*
X93188619Y-93003761D02*
X93188619Y-93194237D01*
X93188619Y-93194237D02*
X93236238Y-93289475D01*
X93236238Y-93289475D02*
X93283857Y-93337094D01*
X93283857Y-93337094D02*
X93379095Y-93384713D01*
X93379095Y-93384713D02*
X93617190Y-93384713D01*
X93617190Y-93384713D02*
X93712428Y-93337094D01*
X93712428Y-93337094D02*
X93760047Y-93289475D01*
X93760047Y-93289475D02*
X93807666Y-93194237D01*
X93807666Y-93194237D02*
X93807666Y-93003761D01*
X93807666Y-93003761D02*
X93760047Y-92908523D01*
X93760047Y-92908523D02*
X93712428Y-92860904D01*
X93712428Y-92860904D02*
X93617190Y-92813285D01*
X108539619Y-84208857D02*
X108063428Y-84542190D01*
X108539619Y-84780285D02*
X107539619Y-84780285D01*
X107539619Y-84780285D02*
X107539619Y-84399333D01*
X107539619Y-84399333D02*
X107587238Y-84304095D01*
X107587238Y-84304095D02*
X107634857Y-84256476D01*
X107634857Y-84256476D02*
X107730095Y-84208857D01*
X107730095Y-84208857D02*
X107872952Y-84208857D01*
X107872952Y-84208857D02*
X107968190Y-84256476D01*
X107968190Y-84256476D02*
X108015809Y-84304095D01*
X108015809Y-84304095D02*
X108063428Y-84399333D01*
X108063428Y-84399333D02*
X108063428Y-84780285D01*
X108539619Y-83256476D02*
X108539619Y-83827904D01*
X108539619Y-83542190D02*
X107539619Y-83542190D01*
X107539619Y-83542190D02*
X107682476Y-83637428D01*
X107682476Y-83637428D02*
X107777714Y-83732666D01*
X107777714Y-83732666D02*
X107825333Y-83827904D01*
X107968190Y-82685047D02*
X107920571Y-82780285D01*
X107920571Y-82780285D02*
X107872952Y-82827904D01*
X107872952Y-82827904D02*
X107777714Y-82875523D01*
X107777714Y-82875523D02*
X107730095Y-82875523D01*
X107730095Y-82875523D02*
X107634857Y-82827904D01*
X107634857Y-82827904D02*
X107587238Y-82780285D01*
X107587238Y-82780285D02*
X107539619Y-82685047D01*
X107539619Y-82685047D02*
X107539619Y-82494571D01*
X107539619Y-82494571D02*
X107587238Y-82399333D01*
X107587238Y-82399333D02*
X107634857Y-82351714D01*
X107634857Y-82351714D02*
X107730095Y-82304095D01*
X107730095Y-82304095D02*
X107777714Y-82304095D01*
X107777714Y-82304095D02*
X107872952Y-82351714D01*
X107872952Y-82351714D02*
X107920571Y-82399333D01*
X107920571Y-82399333D02*
X107968190Y-82494571D01*
X107968190Y-82494571D02*
X107968190Y-82685047D01*
X107968190Y-82685047D02*
X108015809Y-82780285D01*
X108015809Y-82780285D02*
X108063428Y-82827904D01*
X108063428Y-82827904D02*
X108158666Y-82875523D01*
X108158666Y-82875523D02*
X108349142Y-82875523D01*
X108349142Y-82875523D02*
X108444380Y-82827904D01*
X108444380Y-82827904D02*
X108492000Y-82780285D01*
X108492000Y-82780285D02*
X108539619Y-82685047D01*
X108539619Y-82685047D02*
X108539619Y-82494571D01*
X108539619Y-82494571D02*
X108492000Y-82399333D01*
X108492000Y-82399333D02*
X108444380Y-82351714D01*
X108444380Y-82351714D02*
X108349142Y-82304095D01*
X108349142Y-82304095D02*
X108158666Y-82304095D01*
X108158666Y-82304095D02*
X108063428Y-82351714D01*
X108063428Y-82351714D02*
X108015809Y-82399333D01*
X108015809Y-82399333D02*
X107968190Y-82494571D01*
X79970333Y-101586380D02*
X79922714Y-101634000D01*
X79922714Y-101634000D02*
X79779857Y-101681619D01*
X79779857Y-101681619D02*
X79684619Y-101681619D01*
X79684619Y-101681619D02*
X79541762Y-101634000D01*
X79541762Y-101634000D02*
X79446524Y-101538761D01*
X79446524Y-101538761D02*
X79398905Y-101443523D01*
X79398905Y-101443523D02*
X79351286Y-101253047D01*
X79351286Y-101253047D02*
X79351286Y-101110190D01*
X79351286Y-101110190D02*
X79398905Y-100919714D01*
X79398905Y-100919714D02*
X79446524Y-100824476D01*
X79446524Y-100824476D02*
X79541762Y-100729238D01*
X79541762Y-100729238D02*
X79684619Y-100681619D01*
X79684619Y-100681619D02*
X79779857Y-100681619D01*
X79779857Y-100681619D02*
X79922714Y-100729238D01*
X79922714Y-100729238D02*
X79970333Y-100776857D01*
X80922714Y-101681619D02*
X80351286Y-101681619D01*
X80637000Y-101681619D02*
X80637000Y-100681619D01*
X80637000Y-100681619D02*
X80541762Y-100824476D01*
X80541762Y-100824476D02*
X80446524Y-100919714D01*
X80446524Y-100919714D02*
X80351286Y-100967333D01*
X108539619Y-86874285D02*
X108063428Y-87140952D01*
X108539619Y-87331428D02*
X107539619Y-87331428D01*
X107539619Y-87331428D02*
X107539619Y-87026666D01*
X107539619Y-87026666D02*
X107587238Y-86950476D01*
X107587238Y-86950476D02*
X107634857Y-86912381D01*
X107634857Y-86912381D02*
X107730095Y-86874285D01*
X107730095Y-86874285D02*
X107872952Y-86874285D01*
X107872952Y-86874285D02*
X107968190Y-86912381D01*
X107968190Y-86912381D02*
X108015809Y-86950476D01*
X108015809Y-86950476D02*
X108063428Y-87026666D01*
X108063428Y-87026666D02*
X108063428Y-87331428D01*
X107634857Y-86569524D02*
X107587238Y-86531428D01*
X107587238Y-86531428D02*
X107539619Y-86455238D01*
X107539619Y-86455238D02*
X107539619Y-86264762D01*
X107539619Y-86264762D02*
X107587238Y-86188571D01*
X107587238Y-86188571D02*
X107634857Y-86150476D01*
X107634857Y-86150476D02*
X107730095Y-86112381D01*
X107730095Y-86112381D02*
X107825333Y-86112381D01*
X107825333Y-86112381D02*
X107968190Y-86150476D01*
X107968190Y-86150476D02*
X108539619Y-86607619D01*
X108539619Y-86607619D02*
X108539619Y-86112381D01*
X107539619Y-85617142D02*
X107539619Y-85540952D01*
X107539619Y-85540952D02*
X107587238Y-85464761D01*
X107587238Y-85464761D02*
X107634857Y-85426666D01*
X107634857Y-85426666D02*
X107730095Y-85388571D01*
X107730095Y-85388571D02*
X107920571Y-85350476D01*
X107920571Y-85350476D02*
X108158666Y-85350476D01*
X108158666Y-85350476D02*
X108349142Y-85388571D01*
X108349142Y-85388571D02*
X108444380Y-85426666D01*
X108444380Y-85426666D02*
X108492000Y-85464761D01*
X108492000Y-85464761D02*
X108539619Y-85540952D01*
X108539619Y-85540952D02*
X108539619Y-85617142D01*
X108539619Y-85617142D02*
X108492000Y-85693333D01*
X108492000Y-85693333D02*
X108444380Y-85731428D01*
X108444380Y-85731428D02*
X108349142Y-85769523D01*
X108349142Y-85769523D02*
X108158666Y-85807619D01*
X108158666Y-85807619D02*
X107920571Y-85807619D01*
X107920571Y-85807619D02*
X107730095Y-85769523D01*
X107730095Y-85769523D02*
X107634857Y-85731428D01*
X107634857Y-85731428D02*
X107587238Y-85693333D01*
X107587238Y-85693333D02*
X107539619Y-85617142D01*
X75017333Y-93299619D02*
X74684000Y-92823428D01*
X74445905Y-93299619D02*
X74445905Y-92299619D01*
X74445905Y-92299619D02*
X74826857Y-92299619D01*
X74826857Y-92299619D02*
X74922095Y-92347238D01*
X74922095Y-92347238D02*
X74969714Y-92394857D01*
X74969714Y-92394857D02*
X75017333Y-92490095D01*
X75017333Y-92490095D02*
X75017333Y-92632952D01*
X75017333Y-92632952D02*
X74969714Y-92728190D01*
X74969714Y-92728190D02*
X74922095Y-92775809D01*
X74922095Y-92775809D02*
X74826857Y-92823428D01*
X74826857Y-92823428D02*
X74445905Y-92823428D01*
X75398286Y-92394857D02*
X75445905Y-92347238D01*
X75445905Y-92347238D02*
X75541143Y-92299619D01*
X75541143Y-92299619D02*
X75779238Y-92299619D01*
X75779238Y-92299619D02*
X75874476Y-92347238D01*
X75874476Y-92347238D02*
X75922095Y-92394857D01*
X75922095Y-92394857D02*
X75969714Y-92490095D01*
X75969714Y-92490095D02*
X75969714Y-92585333D01*
X75969714Y-92585333D02*
X75922095Y-92728190D01*
X75922095Y-92728190D02*
X75350667Y-93299619D01*
X75350667Y-93299619D02*
X75969714Y-93299619D01*
X72564666Y-87600619D02*
X72564666Y-88314904D01*
X72564666Y-88314904D02*
X72517047Y-88457761D01*
X72517047Y-88457761D02*
X72421809Y-88553000D01*
X72421809Y-88553000D02*
X72278952Y-88600619D01*
X72278952Y-88600619D02*
X72183714Y-88600619D01*
X72993238Y-87695857D02*
X73040857Y-87648238D01*
X73040857Y-87648238D02*
X73136095Y-87600619D01*
X73136095Y-87600619D02*
X73374190Y-87600619D01*
X73374190Y-87600619D02*
X73469428Y-87648238D01*
X73469428Y-87648238D02*
X73517047Y-87695857D01*
X73517047Y-87695857D02*
X73564666Y-87791095D01*
X73564666Y-87791095D02*
X73564666Y-87886333D01*
X73564666Y-87886333D02*
X73517047Y-88029190D01*
X73517047Y-88029190D02*
X72945619Y-88600619D01*
X72945619Y-88600619D02*
X73564666Y-88600619D01*
X74287142Y-102856380D02*
X74239523Y-102904000D01*
X74239523Y-102904000D02*
X74096666Y-102951619D01*
X74096666Y-102951619D02*
X74001428Y-102951619D01*
X74001428Y-102951619D02*
X73858571Y-102904000D01*
X73858571Y-102904000D02*
X73763333Y-102808761D01*
X73763333Y-102808761D02*
X73715714Y-102713523D01*
X73715714Y-102713523D02*
X73668095Y-102523047D01*
X73668095Y-102523047D02*
X73668095Y-102380190D01*
X73668095Y-102380190D02*
X73715714Y-102189714D01*
X73715714Y-102189714D02*
X73763333Y-102094476D01*
X73763333Y-102094476D02*
X73858571Y-101999238D01*
X73858571Y-101999238D02*
X74001428Y-101951619D01*
X74001428Y-101951619D02*
X74096666Y-101951619D01*
X74096666Y-101951619D02*
X74239523Y-101999238D01*
X74239523Y-101999238D02*
X74287142Y-102046857D01*
X75239523Y-102951619D02*
X74668095Y-102951619D01*
X74953809Y-102951619D02*
X74953809Y-101951619D01*
X74953809Y-101951619D02*
X74858571Y-102094476D01*
X74858571Y-102094476D02*
X74763333Y-102189714D01*
X74763333Y-102189714D02*
X74668095Y-102237333D01*
X75572857Y-101951619D02*
X76191904Y-101951619D01*
X76191904Y-101951619D02*
X75858571Y-102332571D01*
X75858571Y-102332571D02*
X76001428Y-102332571D01*
X76001428Y-102332571D02*
X76096666Y-102380190D01*
X76096666Y-102380190D02*
X76144285Y-102427809D01*
X76144285Y-102427809D02*
X76191904Y-102523047D01*
X76191904Y-102523047D02*
X76191904Y-102761142D01*
X76191904Y-102761142D02*
X76144285Y-102856380D01*
X76144285Y-102856380D02*
X76096666Y-102904000D01*
X76096666Y-102904000D02*
X76001428Y-102951619D01*
X76001428Y-102951619D02*
X75715714Y-102951619D01*
X75715714Y-102951619D02*
X75620476Y-102904000D01*
X75620476Y-102904000D02*
X75572857Y-102856380D01*
X88765142Y-76821380D02*
X88717523Y-76869000D01*
X88717523Y-76869000D02*
X88574666Y-76916619D01*
X88574666Y-76916619D02*
X88479428Y-76916619D01*
X88479428Y-76916619D02*
X88336571Y-76869000D01*
X88336571Y-76869000D02*
X88241333Y-76773761D01*
X88241333Y-76773761D02*
X88193714Y-76678523D01*
X88193714Y-76678523D02*
X88146095Y-76488047D01*
X88146095Y-76488047D02*
X88146095Y-76345190D01*
X88146095Y-76345190D02*
X88193714Y-76154714D01*
X88193714Y-76154714D02*
X88241333Y-76059476D01*
X88241333Y-76059476D02*
X88336571Y-75964238D01*
X88336571Y-75964238D02*
X88479428Y-75916619D01*
X88479428Y-75916619D02*
X88574666Y-75916619D01*
X88574666Y-75916619D02*
X88717523Y-75964238D01*
X88717523Y-75964238D02*
X88765142Y-76011857D01*
X89717523Y-76916619D02*
X89146095Y-76916619D01*
X89431809Y-76916619D02*
X89431809Y-75916619D01*
X89431809Y-75916619D02*
X89336571Y-76059476D01*
X89336571Y-76059476D02*
X89241333Y-76154714D01*
X89241333Y-76154714D02*
X89146095Y-76202333D01*
X90669904Y-76916619D02*
X90098476Y-76916619D01*
X90384190Y-76916619D02*
X90384190Y-75916619D01*
X90384190Y-75916619D02*
X90288952Y-76059476D01*
X90288952Y-76059476D02*
X90193714Y-76154714D01*
X90193714Y-76154714D02*
X90098476Y-76202333D01*
X88026904Y-78100333D02*
X87265000Y-78100333D01*
X87645952Y-77719380D02*
X87645952Y-78481285D01*
X78787666Y-86076619D02*
X78787666Y-86790904D01*
X78787666Y-86790904D02*
X78740047Y-86933761D01*
X78740047Y-86933761D02*
X78644809Y-87029000D01*
X78644809Y-87029000D02*
X78501952Y-87076619D01*
X78501952Y-87076619D02*
X78406714Y-87076619D01*
X79740047Y-86076619D02*
X79263857Y-86076619D01*
X79263857Y-86076619D02*
X79216238Y-86552809D01*
X79216238Y-86552809D02*
X79263857Y-86505190D01*
X79263857Y-86505190D02*
X79359095Y-86457571D01*
X79359095Y-86457571D02*
X79597190Y-86457571D01*
X79597190Y-86457571D02*
X79692428Y-86505190D01*
X79692428Y-86505190D02*
X79740047Y-86552809D01*
X79740047Y-86552809D02*
X79787666Y-86648047D01*
X79787666Y-86648047D02*
X79787666Y-86886142D01*
X79787666Y-86886142D02*
X79740047Y-86981380D01*
X79740047Y-86981380D02*
X79692428Y-87029000D01*
X79692428Y-87029000D02*
X79597190Y-87076619D01*
X79597190Y-87076619D02*
X79359095Y-87076619D01*
X79359095Y-87076619D02*
X79263857Y-87029000D01*
X79263857Y-87029000D02*
X79216238Y-86981380D01*
X75017333Y-99310619D02*
X74684000Y-98834428D01*
X74445905Y-99310619D02*
X74445905Y-98310619D01*
X74445905Y-98310619D02*
X74826857Y-98310619D01*
X74826857Y-98310619D02*
X74922095Y-98358238D01*
X74922095Y-98358238D02*
X74969714Y-98405857D01*
X74969714Y-98405857D02*
X75017333Y-98501095D01*
X75017333Y-98501095D02*
X75017333Y-98643952D01*
X75017333Y-98643952D02*
X74969714Y-98739190D01*
X74969714Y-98739190D02*
X74922095Y-98786809D01*
X74922095Y-98786809D02*
X74826857Y-98834428D01*
X74826857Y-98834428D02*
X74445905Y-98834428D01*
X75969714Y-99310619D02*
X75398286Y-99310619D01*
X75684000Y-99310619D02*
X75684000Y-98310619D01*
X75684000Y-98310619D02*
X75588762Y-98453476D01*
X75588762Y-98453476D02*
X75493524Y-98548714D01*
X75493524Y-98548714D02*
X75398286Y-98596333D01*
X75438095Y-88489619D02*
X75438095Y-89299142D01*
X75438095Y-89299142D02*
X75485714Y-89394380D01*
X75485714Y-89394380D02*
X75533333Y-89442000D01*
X75533333Y-89442000D02*
X75628571Y-89489619D01*
X75628571Y-89489619D02*
X75819047Y-89489619D01*
X75819047Y-89489619D02*
X75914285Y-89442000D01*
X75914285Y-89442000D02*
X75961904Y-89394380D01*
X75961904Y-89394380D02*
X76009523Y-89299142D01*
X76009523Y-89299142D02*
X76009523Y-88489619D01*
X76390476Y-88489619D02*
X77009523Y-88489619D01*
X77009523Y-88489619D02*
X76676190Y-88870571D01*
X76676190Y-88870571D02*
X76819047Y-88870571D01*
X76819047Y-88870571D02*
X76914285Y-88918190D01*
X76914285Y-88918190D02*
X76961904Y-88965809D01*
X76961904Y-88965809D02*
X77009523Y-89061047D01*
X77009523Y-89061047D02*
X77009523Y-89299142D01*
X77009523Y-89299142D02*
X76961904Y-89394380D01*
X76961904Y-89394380D02*
X76914285Y-89442000D01*
X76914285Y-89442000D02*
X76819047Y-89489619D01*
X76819047Y-89489619D02*
X76533333Y-89489619D01*
X76533333Y-89489619D02*
X76438095Y-89442000D01*
X76438095Y-89442000D02*
X76390476Y-89394380D01*
X83806380Y-89415857D02*
X83854000Y-89463476D01*
X83854000Y-89463476D02*
X83901619Y-89606333D01*
X83901619Y-89606333D02*
X83901619Y-89701571D01*
X83901619Y-89701571D02*
X83854000Y-89844428D01*
X83854000Y-89844428D02*
X83758761Y-89939666D01*
X83758761Y-89939666D02*
X83663523Y-89987285D01*
X83663523Y-89987285D02*
X83473047Y-90034904D01*
X83473047Y-90034904D02*
X83330190Y-90034904D01*
X83330190Y-90034904D02*
X83139714Y-89987285D01*
X83139714Y-89987285D02*
X83044476Y-89939666D01*
X83044476Y-89939666D02*
X82949238Y-89844428D01*
X82949238Y-89844428D02*
X82901619Y-89701571D01*
X82901619Y-89701571D02*
X82901619Y-89606333D01*
X82901619Y-89606333D02*
X82949238Y-89463476D01*
X82949238Y-89463476D02*
X82996857Y-89415857D01*
X83901619Y-88463476D02*
X83901619Y-89034904D01*
X83901619Y-88749190D02*
X82901619Y-88749190D01*
X82901619Y-88749190D02*
X83044476Y-88844428D01*
X83044476Y-88844428D02*
X83139714Y-88939666D01*
X83139714Y-88939666D02*
X83187333Y-89034904D01*
X82901619Y-87558714D02*
X82901619Y-88034904D01*
X82901619Y-88034904D02*
X83377809Y-88082523D01*
X83377809Y-88082523D02*
X83330190Y-88034904D01*
X83330190Y-88034904D02*
X83282571Y-87939666D01*
X83282571Y-87939666D02*
X83282571Y-87701571D01*
X83282571Y-87701571D02*
X83330190Y-87606333D01*
X83330190Y-87606333D02*
X83377809Y-87558714D01*
X83377809Y-87558714D02*
X83473047Y-87511095D01*
X83473047Y-87511095D02*
X83711142Y-87511095D01*
X83711142Y-87511095D02*
X83806380Y-87558714D01*
X83806380Y-87558714D02*
X83854000Y-87606333D01*
X83854000Y-87606333D02*
X83901619Y-87701571D01*
X83901619Y-87701571D02*
X83901619Y-87939666D01*
X83901619Y-87939666D02*
X83854000Y-88034904D01*
X83854000Y-88034904D02*
X83806380Y-88082523D01*
X91140619Y-97067666D02*
X90664428Y-97400999D01*
X91140619Y-97639094D02*
X90140619Y-97639094D01*
X90140619Y-97639094D02*
X90140619Y-97258142D01*
X90140619Y-97258142D02*
X90188238Y-97162904D01*
X90188238Y-97162904D02*
X90235857Y-97115285D01*
X90235857Y-97115285D02*
X90331095Y-97067666D01*
X90331095Y-97067666D02*
X90473952Y-97067666D01*
X90473952Y-97067666D02*
X90569190Y-97115285D01*
X90569190Y-97115285D02*
X90616809Y-97162904D01*
X90616809Y-97162904D02*
X90664428Y-97258142D01*
X90664428Y-97258142D02*
X90664428Y-97639094D01*
X91140619Y-96591475D02*
X91140619Y-96400999D01*
X91140619Y-96400999D02*
X91093000Y-96305761D01*
X91093000Y-96305761D02*
X91045380Y-96258142D01*
X91045380Y-96258142D02*
X90902523Y-96162904D01*
X90902523Y-96162904D02*
X90712047Y-96115285D01*
X90712047Y-96115285D02*
X90331095Y-96115285D01*
X90331095Y-96115285D02*
X90235857Y-96162904D01*
X90235857Y-96162904D02*
X90188238Y-96210523D01*
X90188238Y-96210523D02*
X90140619Y-96305761D01*
X90140619Y-96305761D02*
X90140619Y-96496237D01*
X90140619Y-96496237D02*
X90188238Y-96591475D01*
X90188238Y-96591475D02*
X90235857Y-96639094D01*
X90235857Y-96639094D02*
X90331095Y-96686713D01*
X90331095Y-96686713D02*
X90569190Y-96686713D01*
X90569190Y-96686713D02*
X90664428Y-96639094D01*
X90664428Y-96639094D02*
X90712047Y-96591475D01*
X90712047Y-96591475D02*
X90759666Y-96496237D01*
X90759666Y-96496237D02*
X90759666Y-96305761D01*
X90759666Y-96305761D02*
X90712047Y-96210523D01*
X90712047Y-96210523D02*
X90664428Y-96162904D01*
X90664428Y-96162904D02*
X90569190Y-96115285D01*
X103878142Y-80250380D02*
X103830523Y-80298000D01*
X103830523Y-80298000D02*
X103687666Y-80345619D01*
X103687666Y-80345619D02*
X103592428Y-80345619D01*
X103592428Y-80345619D02*
X103449571Y-80298000D01*
X103449571Y-80298000D02*
X103354333Y-80202761D01*
X103354333Y-80202761D02*
X103306714Y-80107523D01*
X103306714Y-80107523D02*
X103259095Y-79917047D01*
X103259095Y-79917047D02*
X103259095Y-79774190D01*
X103259095Y-79774190D02*
X103306714Y-79583714D01*
X103306714Y-79583714D02*
X103354333Y-79488476D01*
X103354333Y-79488476D02*
X103449571Y-79393238D01*
X103449571Y-79393238D02*
X103592428Y-79345619D01*
X103592428Y-79345619D02*
X103687666Y-79345619D01*
X103687666Y-79345619D02*
X103830523Y-79393238D01*
X103830523Y-79393238D02*
X103878142Y-79440857D01*
X104830523Y-80345619D02*
X104259095Y-80345619D01*
X104544809Y-80345619D02*
X104544809Y-79345619D01*
X104544809Y-79345619D02*
X104449571Y-79488476D01*
X104449571Y-79488476D02*
X104354333Y-79583714D01*
X104354333Y-79583714D02*
X104259095Y-79631333D01*
X105449571Y-79345619D02*
X105544809Y-79345619D01*
X105544809Y-79345619D02*
X105640047Y-79393238D01*
X105640047Y-79393238D02*
X105687666Y-79440857D01*
X105687666Y-79440857D02*
X105735285Y-79536095D01*
X105735285Y-79536095D02*
X105782904Y-79726571D01*
X105782904Y-79726571D02*
X105782904Y-79964666D01*
X105782904Y-79964666D02*
X105735285Y-80155142D01*
X105735285Y-80155142D02*
X105687666Y-80250380D01*
X105687666Y-80250380D02*
X105640047Y-80298000D01*
X105640047Y-80298000D02*
X105544809Y-80345619D01*
X105544809Y-80345619D02*
X105449571Y-80345619D01*
X105449571Y-80345619D02*
X105354333Y-80298000D01*
X105354333Y-80298000D02*
X105306714Y-80250380D01*
X105306714Y-80250380D02*
X105259095Y-80155142D01*
X105259095Y-80155142D02*
X105211476Y-79964666D01*
X105211476Y-79964666D02*
X105211476Y-79726571D01*
X105211476Y-79726571D02*
X105259095Y-79536095D01*
X105259095Y-79536095D02*
X105306714Y-79440857D01*
X105306714Y-79440857D02*
X105354333Y-79393238D01*
X105354333Y-79393238D02*
X105449571Y-79345619D01*
X91741666Y-106904619D02*
X91741666Y-107618904D01*
X91741666Y-107618904D02*
X91694047Y-107761761D01*
X91694047Y-107761761D02*
X91598809Y-107857000D01*
X91598809Y-107857000D02*
X91455952Y-107904619D01*
X91455952Y-107904619D02*
X91360714Y-107904619D01*
X92360714Y-107333190D02*
X92265476Y-107285571D01*
X92265476Y-107285571D02*
X92217857Y-107237952D01*
X92217857Y-107237952D02*
X92170238Y-107142714D01*
X92170238Y-107142714D02*
X92170238Y-107095095D01*
X92170238Y-107095095D02*
X92217857Y-106999857D01*
X92217857Y-106999857D02*
X92265476Y-106952238D01*
X92265476Y-106952238D02*
X92360714Y-106904619D01*
X92360714Y-106904619D02*
X92551190Y-106904619D01*
X92551190Y-106904619D02*
X92646428Y-106952238D01*
X92646428Y-106952238D02*
X92694047Y-106999857D01*
X92694047Y-106999857D02*
X92741666Y-107095095D01*
X92741666Y-107095095D02*
X92741666Y-107142714D01*
X92741666Y-107142714D02*
X92694047Y-107237952D01*
X92694047Y-107237952D02*
X92646428Y-107285571D01*
X92646428Y-107285571D02*
X92551190Y-107333190D01*
X92551190Y-107333190D02*
X92360714Y-107333190D01*
X92360714Y-107333190D02*
X92265476Y-107380809D01*
X92265476Y-107380809D02*
X92217857Y-107428428D01*
X92217857Y-107428428D02*
X92170238Y-107523666D01*
X92170238Y-107523666D02*
X92170238Y-107714142D01*
X92170238Y-107714142D02*
X92217857Y-107809380D01*
X92217857Y-107809380D02*
X92265476Y-107857000D01*
X92265476Y-107857000D02*
X92360714Y-107904619D01*
X92360714Y-107904619D02*
X92551190Y-107904619D01*
X92551190Y-107904619D02*
X92646428Y-107857000D01*
X92646428Y-107857000D02*
X92694047Y-107809380D01*
X92694047Y-107809380D02*
X92741666Y-107714142D01*
X92741666Y-107714142D02*
X92741666Y-107523666D01*
X92741666Y-107523666D02*
X92694047Y-107428428D01*
X92694047Y-107428428D02*
X92646428Y-107380809D01*
X92646428Y-107380809D02*
X92551190Y-107333190D01*
X100893666Y-106904619D02*
X100893666Y-107618904D01*
X100893666Y-107618904D02*
X100846047Y-107761761D01*
X100846047Y-107761761D02*
X100750809Y-107857000D01*
X100750809Y-107857000D02*
X100607952Y-107904619D01*
X100607952Y-107904619D02*
X100512714Y-107904619D01*
X101369857Y-107904619D02*
X101369857Y-106904619D01*
X101369857Y-106904619D02*
X101750809Y-106904619D01*
X101750809Y-106904619D02*
X101846047Y-106952238D01*
X101846047Y-106952238D02*
X101893666Y-106999857D01*
X101893666Y-106999857D02*
X101941285Y-107095095D01*
X101941285Y-107095095D02*
X101941285Y-107237952D01*
X101941285Y-107237952D02*
X101893666Y-107333190D01*
X101893666Y-107333190D02*
X101846047Y-107380809D01*
X101846047Y-107380809D02*
X101750809Y-107428428D01*
X101750809Y-107428428D02*
X101369857Y-107428428D01*
X102893666Y-107904619D02*
X102322238Y-107904619D01*
X102607952Y-107904619D02*
X102607952Y-106904619D01*
X102607952Y-106904619D02*
X102512714Y-107047476D01*
X102512714Y-107047476D02*
X102417476Y-107142714D01*
X102417476Y-107142714D02*
X102322238Y-107190333D01*
X70278666Y-109952619D02*
X70278666Y-110666904D01*
X70278666Y-110666904D02*
X70231047Y-110809761D01*
X70231047Y-110809761D02*
X70135809Y-110905000D01*
X70135809Y-110905000D02*
X69992952Y-110952619D01*
X69992952Y-110952619D02*
X69897714Y-110952619D01*
X71183428Y-110285952D02*
X71183428Y-110952619D01*
X70945333Y-109905000D02*
X70707238Y-110619285D01*
X70707238Y-110619285D02*
X71326285Y-110619285D01*
X93966380Y-84113666D02*
X94014000Y-84161285D01*
X94014000Y-84161285D02*
X94061619Y-84304142D01*
X94061619Y-84304142D02*
X94061619Y-84399380D01*
X94061619Y-84399380D02*
X94014000Y-84542237D01*
X94014000Y-84542237D02*
X93918761Y-84637475D01*
X93918761Y-84637475D02*
X93823523Y-84685094D01*
X93823523Y-84685094D02*
X93633047Y-84732713D01*
X93633047Y-84732713D02*
X93490190Y-84732713D01*
X93490190Y-84732713D02*
X93299714Y-84685094D01*
X93299714Y-84685094D02*
X93204476Y-84637475D01*
X93204476Y-84637475D02*
X93109238Y-84542237D01*
X93109238Y-84542237D02*
X93061619Y-84399380D01*
X93061619Y-84399380D02*
X93061619Y-84304142D01*
X93061619Y-84304142D02*
X93109238Y-84161285D01*
X93109238Y-84161285D02*
X93156857Y-84113666D01*
X93061619Y-83256523D02*
X93061619Y-83446999D01*
X93061619Y-83446999D02*
X93109238Y-83542237D01*
X93109238Y-83542237D02*
X93156857Y-83589856D01*
X93156857Y-83589856D02*
X93299714Y-83685094D01*
X93299714Y-83685094D02*
X93490190Y-83732713D01*
X93490190Y-83732713D02*
X93871142Y-83732713D01*
X93871142Y-83732713D02*
X93966380Y-83685094D01*
X93966380Y-83685094D02*
X94014000Y-83637475D01*
X94014000Y-83637475D02*
X94061619Y-83542237D01*
X94061619Y-83542237D02*
X94061619Y-83351761D01*
X94061619Y-83351761D02*
X94014000Y-83256523D01*
X94014000Y-83256523D02*
X93966380Y-83208904D01*
X93966380Y-83208904D02*
X93871142Y-83161285D01*
X93871142Y-83161285D02*
X93633047Y-83161285D01*
X93633047Y-83161285D02*
X93537809Y-83208904D01*
X93537809Y-83208904D02*
X93490190Y-83256523D01*
X93490190Y-83256523D02*
X93442571Y-83351761D01*
X93442571Y-83351761D02*
X93442571Y-83542237D01*
X93442571Y-83542237D02*
X93490190Y-83637475D01*
X93490190Y-83637475D02*
X93537809Y-83685094D01*
X93537809Y-83685094D02*
X93633047Y-83732713D01*
X108539619Y-105163857D02*
X108063428Y-105497190D01*
X108539619Y-105735285D02*
X107539619Y-105735285D01*
X107539619Y-105735285D02*
X107539619Y-105354333D01*
X107539619Y-105354333D02*
X107587238Y-105259095D01*
X107587238Y-105259095D02*
X107634857Y-105211476D01*
X107634857Y-105211476D02*
X107730095Y-105163857D01*
X107730095Y-105163857D02*
X107872952Y-105163857D01*
X107872952Y-105163857D02*
X107968190Y-105211476D01*
X107968190Y-105211476D02*
X108015809Y-105259095D01*
X108015809Y-105259095D02*
X108063428Y-105354333D01*
X108063428Y-105354333D02*
X108063428Y-105735285D01*
X108539619Y-104211476D02*
X108539619Y-104782904D01*
X108539619Y-104497190D02*
X107539619Y-104497190D01*
X107539619Y-104497190D02*
X107682476Y-104592428D01*
X107682476Y-104592428D02*
X107777714Y-104687666D01*
X107777714Y-104687666D02*
X107825333Y-104782904D01*
X108539619Y-103735285D02*
X108539619Y-103544809D01*
X108539619Y-103544809D02*
X108492000Y-103449571D01*
X108492000Y-103449571D02*
X108444380Y-103401952D01*
X108444380Y-103401952D02*
X108301523Y-103306714D01*
X108301523Y-103306714D02*
X108111047Y-103259095D01*
X108111047Y-103259095D02*
X107730095Y-103259095D01*
X107730095Y-103259095D02*
X107634857Y-103306714D01*
X107634857Y-103306714D02*
X107587238Y-103354333D01*
X107587238Y-103354333D02*
X107539619Y-103449571D01*
X107539619Y-103449571D02*
X107539619Y-103640047D01*
X107539619Y-103640047D02*
X107587238Y-103735285D01*
X107587238Y-103735285D02*
X107634857Y-103782904D01*
X107634857Y-103782904D02*
X107730095Y-103830523D01*
X107730095Y-103830523D02*
X107968190Y-103830523D01*
X107968190Y-103830523D02*
X108063428Y-103782904D01*
X108063428Y-103782904D02*
X108111047Y-103735285D01*
X108111047Y-103735285D02*
X108158666Y-103640047D01*
X108158666Y-103640047D02*
X108158666Y-103449571D01*
X108158666Y-103449571D02*
X108111047Y-103354333D01*
X108111047Y-103354333D02*
X108063428Y-103306714D01*
X108063428Y-103306714D02*
X107968190Y-103259095D01*
D11*
X104555936Y-95356000D02*
X106010064Y-95356000D01*
X104555936Y-97176000D02*
X106010064Y-97176000D01*
X104529936Y-87863000D02*
X105984064Y-87863000D01*
X104529936Y-89683000D02*
X105984064Y-89683000D01*
X107088000Y-109975000D02*
X107088000Y-108585000D01*
X108478000Y-109975000D02*
X107088000Y-109975000D01*
X109748000Y-109975000D02*
X112348000Y-109975000D01*
X112348000Y-109975000D02*
X112348000Y-107195000D01*
X109748000Y-107195000D02*
X109748000Y-109975000D01*
X112348000Y-107195000D02*
X109748000Y-107195000D01*
X112581000Y-81210000D02*
X108561000Y-81210000D01*
X110871000Y-81210000D02*
X110871000Y-81710000D01*
X110061000Y-81210000D02*
X110061000Y-82210000D01*
X108561000Y-81210000D02*
X108561000Y-106430000D01*
X112081000Y-81710000D02*
X112081000Y-105930000D01*
X110871000Y-81710000D02*
X112081000Y-81710000D01*
X110061000Y-82210000D02*
X108561000Y-82210000D01*
X110061000Y-105430000D02*
X108561000Y-105430000D01*
X112081000Y-105930000D02*
X110871000Y-105930000D01*
X110871000Y-105930000D02*
X110871000Y-106430000D01*
X112581000Y-106430000D02*
X112581000Y-81210000D01*
X110061000Y-106430000D02*
X110061000Y-105430000D01*
X108561000Y-106430000D02*
X112581000Y-106430000D01*
X98044000Y-85344000D02*
X87884000Y-85344000D01*
X87884000Y-85344000D02*
X87884000Y-100584000D01*
X98044000Y-100584000D02*
X98044000Y-85344000D01*
X87884000Y-100584000D02*
X98044000Y-100584000D01*
X96774000Y-87884000D02*
G75*
G03*
X96774000Y-87884000I-1270000J0D01*
G01*
X96774000Y-98044000D02*
G75*
G03*
X96774000Y-98044000I-1270000J0D01*
G01*
X104529936Y-97896000D02*
X105984064Y-97896000D01*
X104529936Y-99716000D02*
X105984064Y-99716000D01*
X84709000Y-79629000D02*
X84709000Y-103124000D01*
X84709000Y-79629000D02*
X102489000Y-79629000D01*
X84709000Y-103124000D02*
X102489000Y-103124000D01*
X102489000Y-80264000D02*
X102489000Y-79629000D01*
X102489000Y-103124000D02*
X102489000Y-80264000D01*
D10*
X100042000Y-93997000D02*
X99867000Y-93997000D01*
X100042000Y-93997000D02*
X100042000Y-97247000D01*
X99867000Y-93997000D02*
X99867000Y-92922000D01*
X96792000Y-93997000D02*
X97067000Y-93997000D01*
X96792000Y-93997000D02*
X96792000Y-97247000D01*
X100042000Y-97247000D02*
X99767000Y-97247000D01*
X96792000Y-97247000D02*
X97067000Y-97247000D01*
D11*
X80809752Y-93112000D02*
X79387248Y-93112000D01*
X80809752Y-91292000D02*
X79387248Y-91292000D01*
X72363071Y-83565000D02*
X71908929Y-83565000D01*
X72363071Y-82805000D02*
X71908929Y-82805000D01*
X72363071Y-81025000D02*
X71908929Y-81025000D01*
X72363071Y-80265000D02*
X71908929Y-80265000D01*
X72363071Y-78485000D02*
X71908929Y-78485000D01*
X72363071Y-77725000D02*
X71908929Y-77725000D01*
X72296000Y-86105000D02*
X71908929Y-86105000D01*
X72296000Y-85345000D02*
X71908929Y-85345000D01*
X72136000Y-86995000D02*
X70866000Y-86995000D01*
X72136000Y-85725000D02*
X72136000Y-86995000D01*
X69823071Y-86105000D02*
X69426000Y-86105000D01*
X69823071Y-85345000D02*
X69426000Y-85345000D01*
X69823071Y-83565000D02*
X69426000Y-83565000D01*
X69823071Y-82805000D02*
X69426000Y-82805000D01*
X69823071Y-81025000D02*
X69426000Y-81025000D01*
X69823071Y-80265000D02*
X69426000Y-80265000D01*
X69823071Y-78485000D02*
X69426000Y-78485000D01*
X69823071Y-77725000D02*
X69426000Y-77725000D01*
X69426000Y-87055000D02*
X69426000Y-76775000D01*
X69426000Y-84455000D02*
X66766000Y-84455000D01*
X69426000Y-81915000D02*
X66766000Y-81915000D01*
X69426000Y-79375000D02*
X66766000Y-79375000D01*
X69426000Y-76775000D02*
X66766000Y-76775000D01*
X66766000Y-87055000D02*
X69426000Y-87055000D01*
X66766000Y-86105000D02*
X60766000Y-86105000D01*
X66766000Y-86045000D02*
X60766000Y-86045000D01*
X66766000Y-85925000D02*
X60766000Y-85925000D01*
X66766000Y-85805000D02*
X60766000Y-85805000D01*
X66766000Y-85685000D02*
X60766000Y-85685000D01*
X66766000Y-85565000D02*
X60766000Y-85565000D01*
X66766000Y-85445000D02*
X60766000Y-85445000D01*
X66766000Y-83565000D02*
X60766000Y-83565000D01*
X66766000Y-81025000D02*
X60766000Y-81025000D01*
X66766000Y-78485000D02*
X60766000Y-78485000D01*
X66766000Y-76775000D02*
X66766000Y-87055000D01*
X60766000Y-86105000D02*
X60766000Y-85345000D01*
X60766000Y-85345000D02*
X66766000Y-85345000D01*
X60766000Y-83565000D02*
X60766000Y-82805000D01*
X60766000Y-82805000D02*
X66766000Y-82805000D01*
X60766000Y-81025000D02*
X60766000Y-80265000D01*
X60766000Y-80265000D02*
X66766000Y-80265000D01*
X60766000Y-78485000D02*
X60766000Y-77725000D01*
X60766000Y-77725000D02*
X66766000Y-77725000D01*
X80812064Y-97938000D02*
X79357936Y-97938000D01*
X80812064Y-96118000D02*
X79357936Y-96118000D01*
X107068000Y-80257000D02*
X107068000Y-78867000D01*
X108458000Y-80257000D02*
X107068000Y-80257000D01*
X109728000Y-80257000D02*
X112328000Y-80257000D01*
X112328000Y-80257000D02*
X112328000Y-77477000D01*
X109728000Y-77477000D02*
X109728000Y-80257000D01*
X112328000Y-77477000D02*
X109728000Y-77477000D01*
X80812064Y-95398000D02*
X79357936Y-95398000D01*
X80812064Y-93578000D02*
X79357936Y-93578000D01*
X104529936Y-90403000D02*
X105984064Y-90403000D01*
X104529936Y-92223000D02*
X105984064Y-92223000D01*
X104529936Y-92943000D02*
X105984064Y-92943000D01*
X104529936Y-94763000D02*
X105984064Y-94763000D01*
D10*
X99939000Y-83684000D02*
X99764000Y-83684000D01*
X99939000Y-83684000D02*
X99939000Y-86934000D01*
X99764000Y-83684000D02*
X99764000Y-82609000D01*
X96689000Y-83684000D02*
X96964000Y-83684000D01*
X96689000Y-83684000D02*
X96689000Y-86934000D01*
X99939000Y-86934000D02*
X99664000Y-86934000D01*
X96689000Y-86934000D02*
X96964000Y-86934000D01*
D11*
X104555936Y-100436000D02*
X106010064Y-100436000D01*
X104555936Y-102256000D02*
X106010064Y-102256000D01*
X96160000Y-94881248D02*
X96160000Y-96303752D01*
X94340000Y-94881248D02*
X94340000Y-96303752D01*
X104555936Y-82910000D02*
X106010064Y-82910000D01*
X104555936Y-84730000D02*
X106010064Y-84730000D01*
X80783752Y-100224000D02*
X79361248Y-100224000D01*
X80783752Y-98404000D02*
X79361248Y-98404000D01*
X104529936Y-85450000D02*
X105984064Y-85450000D01*
X104529936Y-87270000D02*
X105984064Y-87270000D01*
X75911064Y-95398000D02*
X74456936Y-95398000D01*
X75911064Y-93578000D02*
X74456936Y-93578000D01*
X72337071Y-94868000D02*
X71882929Y-94868000D01*
X72337071Y-94108000D02*
X71882929Y-94108000D01*
X72337071Y-92328000D02*
X71882929Y-92328000D01*
X72337071Y-91568000D02*
X71882929Y-91568000D01*
X72337071Y-89788000D02*
X71882929Y-89788000D01*
X72337071Y-89028000D02*
X71882929Y-89028000D01*
X72270000Y-97408000D02*
X71882929Y-97408000D01*
X72270000Y-96648000D02*
X71882929Y-96648000D01*
X72110000Y-98298000D02*
X70840000Y-98298000D01*
X72110000Y-97028000D02*
X72110000Y-98298000D01*
X69797071Y-97408000D02*
X69400000Y-97408000D01*
X69797071Y-96648000D02*
X69400000Y-96648000D01*
X69797071Y-94868000D02*
X69400000Y-94868000D01*
X69797071Y-94108000D02*
X69400000Y-94108000D01*
X69797071Y-92328000D02*
X69400000Y-92328000D01*
X69797071Y-91568000D02*
X69400000Y-91568000D01*
X69797071Y-89788000D02*
X69400000Y-89788000D01*
X69797071Y-89028000D02*
X69400000Y-89028000D01*
X69400000Y-98358000D02*
X69400000Y-88078000D01*
X69400000Y-95758000D02*
X66740000Y-95758000D01*
X69400000Y-93218000D02*
X66740000Y-93218000D01*
X69400000Y-90678000D02*
X66740000Y-90678000D01*
X69400000Y-88078000D02*
X66740000Y-88078000D01*
X66740000Y-98358000D02*
X69400000Y-98358000D01*
X66740000Y-97408000D02*
X60740000Y-97408000D01*
X66740000Y-97348000D02*
X60740000Y-97348000D01*
X66740000Y-97228000D02*
X60740000Y-97228000D01*
X66740000Y-97108000D02*
X60740000Y-97108000D01*
X66740000Y-96988000D02*
X60740000Y-96988000D01*
X66740000Y-96868000D02*
X60740000Y-96868000D01*
X66740000Y-96748000D02*
X60740000Y-96748000D01*
X66740000Y-94868000D02*
X60740000Y-94868000D01*
X66740000Y-92328000D02*
X60740000Y-92328000D01*
X66740000Y-89788000D02*
X60740000Y-89788000D01*
X66740000Y-88078000D02*
X66740000Y-98358000D01*
X60740000Y-97408000D02*
X60740000Y-96648000D01*
X60740000Y-96648000D02*
X66740000Y-96648000D01*
X60740000Y-94868000D02*
X60740000Y-94108000D01*
X60740000Y-94108000D02*
X66740000Y-94108000D01*
X60740000Y-92328000D02*
X60740000Y-91568000D01*
X60740000Y-91568000D02*
X66740000Y-91568000D01*
X60740000Y-89788000D02*
X60740000Y-89028000D01*
X60740000Y-89028000D02*
X66740000Y-89028000D01*
X74218748Y-99801000D02*
X75641252Y-99801000D01*
X74218748Y-101621000D02*
X75641252Y-101621000D01*
D12*
X86173000Y-78704000D02*
X78673000Y-78704000D01*
X86173000Y-74204000D02*
X78673000Y-74204000D01*
D11*
X82356000Y-87182000D02*
X81026000Y-87182000D01*
X82356000Y-85852000D02*
X82356000Y-87182000D01*
X82356000Y-84582000D02*
X82356000Y-79442000D01*
X82356000Y-84582000D02*
X79696000Y-84582000D01*
X82356000Y-79442000D02*
X79696000Y-79442000D01*
X79696000Y-84582000D02*
X79696000Y-79442000D01*
X75911064Y-97938000D02*
X74456936Y-97938000D01*
X75911064Y-96118000D02*
X74456936Y-96118000D01*
X79737000Y-79720000D02*
X79737000Y-85730000D01*
X72917000Y-81970000D02*
X72917000Y-85730000D01*
X79737000Y-85730000D02*
X78477000Y-85730000D01*
X72917000Y-85730000D02*
X74177000Y-85730000D01*
X82656000Y-85801252D02*
X82656000Y-84378748D01*
X84476000Y-85801252D02*
X84476000Y-84378748D01*
X93239000Y-97544936D02*
X93239000Y-98999064D01*
X91419000Y-97544936D02*
X91419000Y-98999064D01*
X105867252Y-82444000D02*
X104444748Y-82444000D01*
X105867252Y-80624000D02*
X104444748Y-80624000D01*
X93405000Y-103953000D02*
X93405000Y-105283000D01*
X92075000Y-103953000D02*
X93405000Y-103953000D01*
X90805000Y-103953000D02*
X72965000Y-103953000D01*
X90805000Y-103953000D02*
X90805000Y-106613000D01*
X72965000Y-103953000D02*
X72965000Y-106613000D01*
X90805000Y-106613000D02*
X72965000Y-106613000D01*
X94555000Y-106613000D02*
X94555000Y-105283000D01*
X95885000Y-106613000D02*
X94555000Y-106613000D01*
X97155000Y-106613000D02*
X102295000Y-106613000D01*
X97155000Y-106613000D02*
X97155000Y-103953000D01*
X102295000Y-106613000D02*
X102295000Y-103953000D01*
X97155000Y-103953000D02*
X102295000Y-103953000D01*
X72236071Y-106171000D02*
X71781929Y-106171000D01*
X72236071Y-105411000D02*
X71781929Y-105411000D01*
X72236071Y-103631000D02*
X71781929Y-103631000D01*
X72236071Y-102871000D02*
X71781929Y-102871000D01*
X72236071Y-101091000D02*
X71781929Y-101091000D01*
X72236071Y-100331000D02*
X71781929Y-100331000D01*
X72169000Y-108711000D02*
X71781929Y-108711000D01*
X72169000Y-107951000D02*
X71781929Y-107951000D01*
X72009000Y-109601000D02*
X70739000Y-109601000D01*
X72009000Y-108331000D02*
X72009000Y-109601000D01*
X69696071Y-108711000D02*
X69299000Y-108711000D01*
X69696071Y-107951000D02*
X69299000Y-107951000D01*
X69696071Y-106171000D02*
X69299000Y-106171000D01*
X69696071Y-105411000D02*
X69299000Y-105411000D01*
X69696071Y-103631000D02*
X69299000Y-103631000D01*
X69696071Y-102871000D02*
X69299000Y-102871000D01*
X69696071Y-101091000D02*
X69299000Y-101091000D01*
X69696071Y-100331000D02*
X69299000Y-100331000D01*
X69299000Y-109661000D02*
X69299000Y-99381000D01*
X69299000Y-107061000D02*
X66639000Y-107061000D01*
X69299000Y-104521000D02*
X66639000Y-104521000D01*
X69299000Y-101981000D02*
X66639000Y-101981000D01*
X69299000Y-99381000D02*
X66639000Y-99381000D01*
X66639000Y-109661000D02*
X69299000Y-109661000D01*
X66639000Y-108711000D02*
X60639000Y-108711000D01*
X66639000Y-108651000D02*
X60639000Y-108651000D01*
X66639000Y-108531000D02*
X60639000Y-108531000D01*
X66639000Y-108411000D02*
X60639000Y-108411000D01*
X66639000Y-108291000D02*
X60639000Y-108291000D01*
X66639000Y-108171000D02*
X60639000Y-108171000D01*
X66639000Y-108051000D02*
X60639000Y-108051000D01*
X66639000Y-106171000D02*
X60639000Y-106171000D01*
X66639000Y-103631000D02*
X60639000Y-103631000D01*
X66639000Y-101091000D02*
X60639000Y-101091000D01*
X66639000Y-99381000D02*
X66639000Y-109661000D01*
X60639000Y-108711000D02*
X60639000Y-107951000D01*
X60639000Y-107951000D02*
X66639000Y-107951000D01*
X60639000Y-106171000D02*
X60639000Y-105411000D01*
X60639000Y-105411000D02*
X66639000Y-105411000D01*
X60639000Y-103631000D02*
X60639000Y-102871000D01*
X60639000Y-102871000D02*
X66639000Y-102871000D01*
X60639000Y-101091000D02*
X60639000Y-100331000D01*
X60639000Y-100331000D02*
X66639000Y-100331000D01*
X96160000Y-84645248D02*
X96160000Y-86067752D01*
X94340000Y-84645248D02*
X94340000Y-86067752D01*
X104529936Y-103611000D02*
X105984064Y-103611000D01*
X104529936Y-105431000D02*
X105984064Y-105431000D01*
M02*
