G04 #@! TF.GenerationSoftware,KiCad,Pcbnew,7.0.1*
G04 #@! TF.CreationDate,2023-04-02T17:09:09+02:00*
G04 #@! TF.ProjectId,OXS_RP2040_Full,4f58535f-5250-4323-9034-305f46756c6c,rev?*
G04 #@! TF.SameCoordinates,Original*
G04 #@! TF.FileFunction,Soldermask,Bot*
G04 #@! TF.FilePolarity,Negative*
%FSLAX46Y46*%
G04 Gerber Fmt 4.6, Leading zero omitted, Abs format (unit mm)*
G04 Created by KiCad (PCBNEW 7.0.1) date 2023-04-02 17:09:09*
%MOMM*%
%LPD*%
G01*
G04 APERTURE LIST*
G04 Aperture macros list*
%AMRoundRect*
0 Rectangle with rounded corners*
0 $1 Rounding radius*
0 $2 $3 $4 $5 $6 $7 $8 $9 X,Y pos of 4 corners*
0 Add a 4 corners polygon primitive as box body*
4,1,4,$2,$3,$4,$5,$6,$7,$8,$9,$2,$3,0*
0 Add four circle primitives for the rounded corners*
1,1,$1+$1,$2,$3*
1,1,$1+$1,$4,$5*
1,1,$1+$1,$6,$7*
1,1,$1+$1,$8,$9*
0 Add four rect primitives between the rounded corners*
20,1,$1+$1,$2,$3,$4,$5,0*
20,1,$1+$1,$4,$5,$6,$7,0*
20,1,$1+$1,$6,$7,$8,$9,0*
20,1,$1+$1,$8,$9,$2,$3,0*%
G04 Aperture macros list end*
%ADD10C,0.500000*%
%ADD11C,1.700000*%
%ADD12R,2.000000X1.700000*%
%ADD13RoundRect,0.250000X-0.725000X0.600000X-0.725000X-0.600000X0.725000X-0.600000X0.725000X0.600000X0*%
%ADD14O,1.950000X1.700000*%
%ADD15R,1.600000X1.600000*%
%ADD16C,1.600000*%
%ADD17C,3.800000*%
%ADD18R,1.700000X1.700000*%
%ADD19O,1.700000X1.700000*%
%ADD20R,2.000000X1.800000*%
%ADD21RoundRect,0.250000X-0.625000X0.400000X-0.625000X-0.400000X0.625000X-0.400000X0.625000X0.400000X0*%
%ADD22RoundRect,0.250000X-0.400000X-0.625000X0.400000X-0.625000X0.400000X0.625000X-0.400000X0.625000X0*%
%ADD23RoundRect,0.250000X0.400000X0.625000X-0.400000X0.625000X-0.400000X-0.625000X0.400000X-0.625000X0*%
%ADD24RoundRect,0.250000X0.412500X0.650000X-0.412500X0.650000X-0.412500X-0.650000X0.412500X-0.650000X0*%
%ADD25RoundRect,0.250000X0.625000X-0.400000X0.625000X0.400000X-0.625000X0.400000X-0.625000X-0.400000X0*%
%ADD26RoundRect,0.250000X0.650000X-0.412500X0.650000X0.412500X-0.650000X0.412500X-0.650000X-0.412500X0*%
%ADD27RoundRect,0.250000X-0.650000X0.412500X-0.650000X-0.412500X0.650000X-0.412500X0.650000X0.412500X0*%
G04 APERTURE END LIST*
D10*
X112649000Y-73660000D02*
X112649000Y-111760000D01*
X68580000Y-111760000D02*
X68580000Y-73660000D01*
X68580000Y-73660000D02*
X112649000Y-73660000D01*
X112649000Y-111760000D02*
X68580000Y-111760000D01*
D11*
X108478000Y-108585000D03*
D12*
X111018000Y-108585000D03*
D13*
X110871000Y-83820000D03*
D14*
X110871000Y-86320000D03*
X110871000Y-88820000D03*
X110871000Y-91320000D03*
X110871000Y-93820000D03*
X110871000Y-96320000D03*
X110871000Y-98820000D03*
X110871000Y-101320000D03*
X110871000Y-103820000D03*
D15*
X89154000Y-86614000D03*
D16*
X89154000Y-89154000D03*
X89154000Y-91694000D03*
X89154000Y-94234000D03*
X89154000Y-96774000D03*
X89154000Y-99314000D03*
D17*
X104902000Y-109347000D03*
X75057000Y-76200000D03*
D16*
X101219000Y-81534000D03*
X101219000Y-84074000D03*
X101219000Y-86614000D03*
X101219000Y-89154000D03*
X101219000Y-91694000D03*
X101219000Y-94234000D03*
X101219000Y-96774000D03*
X101219000Y-99314000D03*
X101219000Y-101854000D03*
X98679000Y-101854000D03*
X96139000Y-101854000D03*
X93599000Y-101854000D03*
X91059000Y-101854000D03*
X88519000Y-101854000D03*
X85979000Y-101854000D03*
X85979000Y-99314000D03*
X85979000Y-96774000D03*
X85979000Y-94234000D03*
X85979000Y-91694000D03*
X85979000Y-89154000D03*
X85979000Y-86614000D03*
X85979000Y-84074000D03*
X85979000Y-81534000D03*
D11*
X108458000Y-78867000D03*
D12*
X110998000Y-78867000D03*
D18*
X81026000Y-85852000D03*
D19*
X81026000Y-83312000D03*
X81026000Y-80772000D03*
D17*
X75057000Y-109347000D03*
D18*
X92075000Y-105283000D03*
D19*
X89535000Y-105283000D03*
X86995000Y-105283000D03*
X84455000Y-105283000D03*
D18*
X95885000Y-105283000D03*
D19*
X98425000Y-105283000D03*
X100965000Y-105283000D03*
D17*
X104902000Y-76200000D03*
D20*
X70739000Y-100711000D03*
X70739000Y-103251000D03*
X70739000Y-105791000D03*
X70739000Y-108331000D03*
D21*
X94107000Y-96621000D03*
X94107000Y-99721000D03*
D22*
X103733000Y-81534000D03*
X106833000Y-81534000D03*
D23*
X76708000Y-97028000D03*
X73608000Y-97028000D03*
D24*
X81661000Y-92202000D03*
X78536000Y-92202000D03*
D20*
X70866000Y-89408000D03*
X70866000Y-91948000D03*
X70866000Y-94488000D03*
X70866000Y-97028000D03*
D25*
X99314000Y-97181000D03*
X99314000Y-94081000D03*
D23*
X106833000Y-93853000D03*
X103733000Y-93853000D03*
D26*
X89154000Y-84493500D03*
X89154000Y-81368500D03*
D23*
X106859000Y-86360000D03*
X103759000Y-86360000D03*
X81661000Y-97028000D03*
X78561000Y-97028000D03*
D24*
X81661000Y-99314000D03*
X78536000Y-99314000D03*
D27*
X74803000Y-80606500D03*
X74803000Y-83731500D03*
D25*
X97028000Y-86868000D03*
X97028000Y-83768000D03*
D20*
X70866000Y-78105000D03*
X70866000Y-80645000D03*
X70866000Y-83185000D03*
X70866000Y-85725000D03*
D25*
X97028000Y-97181000D03*
X97028000Y-94081000D03*
D23*
X106833000Y-98806000D03*
X103733000Y-98806000D03*
D22*
X103733000Y-104521000D03*
X106833000Y-104521000D03*
D23*
X106807000Y-83820000D03*
X103707000Y-83820000D03*
D21*
X99314000Y-83794000D03*
X99314000Y-86894000D03*
D23*
X81661000Y-94488000D03*
X78561000Y-94488000D03*
D26*
X83566000Y-82931000D03*
X83566000Y-79806000D03*
D23*
X106807000Y-88773000D03*
X103707000Y-88773000D03*
X106833000Y-96266000D03*
X103733000Y-96266000D03*
X106833000Y-101346000D03*
X103733000Y-101346000D03*
X106807000Y-91313000D03*
X103707000Y-91313000D03*
X76708000Y-94488000D03*
X73608000Y-94488000D03*
M02*
