%TF.GenerationSoftware,KiCad,Pcbnew,7.0.1*%
%TF.CreationDate,2023-04-02T18:11:22+02:00*%
%TF.ProjectId,OXS_RP2040_Full,4f58535f-5250-4323-9034-305f46756c6c,rev?*%
%TF.SameCoordinates,Original*%
%TF.FileFunction,Drillmap*%
%TF.FilePolarity,Positive*%
%FSLAX45Y45*%
G04 Gerber Fmt 4.5, Leading zero omitted, Abs format (unit mm)*
G04 Created by KiCad (PCBNEW 7.0.1) date 2023-04-02 18:11:22*
%MOMM*%
%LPD*%
G01*
G04 APERTURE LIST*
%ADD10C,0.050000*%
%ADD11C,0.200000*%
%ADD12C,0.040000*%
%ADD13C,0.060000*%
%ADD14C,0.080000*%
%ADD15C,0.095000*%
%ADD16C,0.100000*%
%ADD17C,0.220000*%
G04 APERTURE END LIST*
D10*
X11264900Y-11176000D02*
X6858000Y-11176000D01*
X6858000Y-11176000D02*
X6858000Y-7366000D01*
X6858000Y-7366000D02*
X11264900Y-7366000D01*
X11264900Y-7366000D02*
X11264900Y-11176000D01*
D11*
D12*
X7066600Y-7625400D02*
X7106600Y-7665400D01*
X7106600Y-7625400D02*
X7066600Y-7665400D01*
X7206300Y-10813100D02*
X7246300Y-10853100D01*
X7246300Y-10813100D02*
X7206300Y-10853100D01*
X7244400Y-8920800D02*
X7284400Y-8960800D01*
X7284400Y-8920800D02*
X7244400Y-8960800D01*
X7244400Y-9174800D02*
X7284400Y-9214800D01*
X7284400Y-9174800D02*
X7244400Y-9214800D01*
X7257100Y-8298500D02*
X7297100Y-8338500D01*
X7297100Y-8298500D02*
X7257100Y-8338500D01*
X7257100Y-8628700D02*
X7297100Y-8668700D01*
X7297100Y-8628700D02*
X7257100Y-8668700D01*
X7257100Y-10597200D02*
X7297100Y-10637200D01*
X7297100Y-10597200D02*
X7257100Y-10637200D01*
X7879400Y-9047800D02*
X7919400Y-9087800D01*
X7919400Y-9047800D02*
X7879400Y-9087800D01*
X7981000Y-8997000D02*
X8021000Y-9037000D01*
X8021000Y-8997000D02*
X7981000Y-9037000D01*
X8273100Y-9200200D02*
X8313100Y-9240200D01*
X8313100Y-9200200D02*
X8273100Y-9240200D01*
X8273100Y-9428800D02*
X8313100Y-9468800D01*
X8313100Y-9428800D02*
X8273100Y-9468800D01*
X8273100Y-9682800D02*
X8313100Y-9722800D01*
X8313100Y-9682800D02*
X8273100Y-9722800D01*
X8273100Y-9847900D02*
X8313100Y-9887900D01*
X8313100Y-9847900D02*
X8273100Y-9887900D01*
X8362000Y-9022400D02*
X8402000Y-9062400D01*
X8402000Y-9022400D02*
X8362000Y-9062400D01*
X8374700Y-8819200D02*
X8414700Y-8859200D01*
X8414700Y-8819200D02*
X8374700Y-8859200D01*
X8374700Y-9276400D02*
X8414700Y-9316400D01*
X8414700Y-9276400D02*
X8374700Y-9316400D01*
X8984300Y-9022400D02*
X9024300Y-9062400D01*
X9024300Y-9022400D02*
X8984300Y-9062400D01*
X9026637Y-9812915D02*
X9066637Y-9852915D01*
X9066637Y-9812915D02*
X9026637Y-9852915D01*
X9051500Y-10390300D02*
X9091500Y-10430300D01*
X9091500Y-10390300D02*
X9051500Y-10430300D01*
X9102350Y-9060500D02*
X9142350Y-9100500D01*
X9142350Y-9060500D02*
X9102350Y-9100500D01*
X9102350Y-9403400D02*
X9142350Y-9443400D01*
X9142350Y-9403400D02*
X9102350Y-9443400D01*
X9149400Y-8844600D02*
X9189400Y-8884600D01*
X9189400Y-8844600D02*
X9149400Y-8884600D01*
X9187500Y-10317800D02*
X9227500Y-10357800D01*
X9227500Y-10317800D02*
X9187500Y-10357800D01*
X9251000Y-9098600D02*
X9291000Y-9138600D01*
X9291000Y-9098600D02*
X9251000Y-9138600D01*
X9352600Y-8666800D02*
X9392600Y-8706800D01*
X9392600Y-8666800D02*
X9352600Y-8706800D01*
X9352600Y-9492300D02*
X9392600Y-9532300D01*
X9392600Y-9492300D02*
X9352600Y-9532300D01*
X9390700Y-9822500D02*
X9430700Y-9862500D01*
X9430700Y-9822500D02*
X9390700Y-9862500D01*
X9505000Y-8232400D02*
X9545000Y-8272400D01*
X9545000Y-8232400D02*
X9505000Y-8272400D01*
X9505000Y-9263700D02*
X9545000Y-9303700D01*
X9545000Y-9263700D02*
X9505000Y-9303700D01*
X9568500Y-9924100D02*
X9608500Y-9964100D01*
X9608500Y-9924100D02*
X9568500Y-9964100D01*
X9632000Y-8933500D02*
X9672000Y-8973500D01*
X9672000Y-8933500D02*
X9632000Y-8973500D01*
X9657400Y-8194300D02*
X9697400Y-8234300D01*
X9697400Y-8194300D02*
X9657400Y-8234300D01*
X9682800Y-8549900D02*
X9722800Y-8589900D01*
X9722800Y-8549900D02*
X9682800Y-8589900D01*
X9682800Y-9251000D02*
X9722800Y-9291000D01*
X9722800Y-9251000D02*
X9682800Y-9291000D01*
X9682800Y-9581200D02*
X9722800Y-9621200D01*
X9722800Y-9581200D02*
X9682800Y-9621200D01*
X9682800Y-9924100D02*
X9722800Y-9964100D01*
X9722800Y-9924100D02*
X9682800Y-9964100D01*
X9708200Y-8857300D02*
X9748200Y-8897300D01*
X9748200Y-8857300D02*
X9708200Y-8897300D01*
X9708200Y-9009700D02*
X9748200Y-9049700D01*
X9748200Y-9009700D02*
X9708200Y-9049700D01*
X9799683Y-9525020D02*
X9839683Y-9565020D01*
X9839683Y-9525020D02*
X9799683Y-9565020D01*
X9843430Y-9970430D02*
X9883430Y-10010430D01*
X9883430Y-9970430D02*
X9843430Y-10010430D01*
X9860600Y-8486400D02*
X9900600Y-8526400D01*
X9900600Y-8486400D02*
X9860600Y-8526400D01*
X9860600Y-8857300D02*
X9900600Y-8897300D01*
X9900600Y-8857300D02*
X9860600Y-8897300D01*
X9913049Y-8573430D02*
X9953049Y-8613430D01*
X9953049Y-8573430D02*
X9913049Y-8613430D01*
X9924100Y-9523993D02*
X9964100Y-9563993D01*
X9964100Y-9523993D02*
X9924100Y-9563993D01*
X9962200Y-8486400D02*
X10002200Y-8526400D01*
X10002200Y-8486400D02*
X9962200Y-8526400D01*
X10228900Y-10432100D02*
X10268900Y-10472100D01*
X10268900Y-10432100D02*
X10228900Y-10472100D01*
X10232680Y-8256620D02*
X10272680Y-8296620D01*
X10272680Y-8256620D02*
X10232680Y-8296620D01*
X10241600Y-8616000D02*
X10281600Y-8656000D01*
X10281600Y-8616000D02*
X10241600Y-8656000D01*
X10241600Y-8857300D02*
X10281600Y-8897300D01*
X10281600Y-8857300D02*
X10241600Y-8897300D01*
X10241600Y-9111300D02*
X10281600Y-9151300D01*
X10281600Y-9111300D02*
X10241600Y-9151300D01*
X10241600Y-9251000D02*
X10281600Y-9291000D01*
X10281600Y-9251000D02*
X10241600Y-9291000D01*
X10241600Y-9606600D02*
X10281600Y-9646600D01*
X10281600Y-9606600D02*
X10241600Y-9646600D01*
X10241600Y-9860600D02*
X10281600Y-9900600D01*
X10281600Y-9860600D02*
X10241600Y-9900600D01*
X10241600Y-10114600D02*
X10281600Y-10154600D01*
X10281600Y-10114600D02*
X10241600Y-10154600D01*
X10495600Y-8133400D02*
X10535600Y-8173400D01*
X10535600Y-8133400D02*
X10495600Y-8173400D01*
D13*
X7103900Y-9918700D02*
G75*
G03*
X7103900Y-9918700I-30000J0D01*
G01*
X7275350Y-10267950D02*
G75*
G03*
X7275350Y-10267950I-30000J0D01*
G01*
X7303250Y-8060650D02*
G75*
G03*
X7303250Y-8060650I-30000J0D01*
G01*
X7827800Y-10109200D02*
G75*
G03*
X7827800Y-10109200I-30000J0D01*
G01*
X7891300Y-7899400D02*
G75*
G03*
X7891300Y-7899400I-30000J0D01*
G01*
X8158000Y-7645400D02*
G75*
G03*
X8158000Y-7645400I-30000J0D01*
G01*
D14*
X8597900Y-8113400D02*
X8597900Y-8193400D01*
X8557900Y-8153400D02*
X8637900Y-8153400D01*
X8597900Y-8367400D02*
X8597900Y-8447400D01*
X8557900Y-8407400D02*
X8637900Y-8407400D01*
X8597900Y-8621400D02*
X8597900Y-8701400D01*
X8557900Y-8661400D02*
X8637900Y-8661400D01*
X8597900Y-8875400D02*
X8597900Y-8955400D01*
X8557900Y-8915400D02*
X8637900Y-8915400D01*
X8597900Y-9129400D02*
X8597900Y-9209400D01*
X8557900Y-9169400D02*
X8637900Y-9169400D01*
X8597900Y-9383400D02*
X8597900Y-9463400D01*
X8557900Y-9423400D02*
X8637900Y-9423400D01*
X8597900Y-9637400D02*
X8597900Y-9717400D01*
X8557900Y-9677400D02*
X8637900Y-9677400D01*
X8597900Y-9891400D02*
X8597900Y-9971400D01*
X8557900Y-9931400D02*
X8637900Y-9931400D01*
X8597900Y-10145400D02*
X8597900Y-10225400D01*
X8557900Y-10185400D02*
X8637900Y-10185400D01*
X8851900Y-10145400D02*
X8851900Y-10225400D01*
X8811900Y-10185400D02*
X8891900Y-10185400D01*
X8915400Y-8621400D02*
X8915400Y-8701400D01*
X8875400Y-8661400D02*
X8955400Y-8661400D01*
X8915400Y-8875400D02*
X8915400Y-8955400D01*
X8875400Y-8915400D02*
X8955400Y-8915400D01*
X8915400Y-9129400D02*
X8915400Y-9209400D01*
X8875400Y-9169400D02*
X8955400Y-9169400D01*
X8915400Y-9383400D02*
X8915400Y-9463400D01*
X8875400Y-9423400D02*
X8955400Y-9423400D01*
X8915400Y-9637400D02*
X8915400Y-9717400D01*
X8875400Y-9677400D02*
X8955400Y-9677400D01*
X8915400Y-9891400D02*
X8915400Y-9971400D01*
X8875400Y-9931400D02*
X8955400Y-9931400D01*
X9105900Y-10145400D02*
X9105900Y-10225400D01*
X9065900Y-10185400D02*
X9145900Y-10185400D01*
X9359900Y-10145400D02*
X9359900Y-10225400D01*
X9319900Y-10185400D02*
X9399900Y-10185400D01*
X9613900Y-10145400D02*
X9613900Y-10225400D01*
X9573900Y-10185400D02*
X9653900Y-10185400D01*
X9867900Y-10145400D02*
X9867900Y-10225400D01*
X9827900Y-10185400D02*
X9907900Y-10185400D01*
X10121900Y-8113400D02*
X10121900Y-8193400D01*
X10081900Y-8153400D02*
X10161900Y-8153400D01*
X10121900Y-8367400D02*
X10121900Y-8447400D01*
X10081900Y-8407400D02*
X10161900Y-8407400D01*
X10121900Y-8621400D02*
X10121900Y-8701400D01*
X10081900Y-8661400D02*
X10161900Y-8661400D01*
X10121900Y-8875400D02*
X10121900Y-8955400D01*
X10081900Y-8915400D02*
X10161900Y-8915400D01*
X10121900Y-9129400D02*
X10121900Y-9209400D01*
X10081900Y-9169400D02*
X10161900Y-9169400D01*
X10121900Y-9383400D02*
X10121900Y-9463400D01*
X10081900Y-9423400D02*
X10161900Y-9423400D01*
X10121900Y-9637400D02*
X10121900Y-9717400D01*
X10081900Y-9677400D02*
X10161900Y-9677400D01*
X10121900Y-9891400D02*
X10121900Y-9971400D01*
X10081900Y-9931400D02*
X10161900Y-9931400D01*
X10121900Y-10145400D02*
X10121900Y-10225400D01*
X10081900Y-10185400D02*
X10161900Y-10185400D01*
D15*
X11120688Y-8415588D02*
X11120688Y-8348412D01*
X11053512Y-8348412D01*
X11053512Y-8415588D01*
X11120688Y-8415588D01*
X11120688Y-8665588D02*
X11120688Y-8598412D01*
X11053512Y-8598412D01*
X11053512Y-8665588D01*
X11120688Y-8665588D01*
X11120688Y-8915588D02*
X11120688Y-8848412D01*
X11053512Y-8848412D01*
X11053512Y-8915588D01*
X11120688Y-8915588D01*
X11120688Y-9165588D02*
X11120688Y-9098412D01*
X11053512Y-9098412D01*
X11053512Y-9165588D01*
X11120688Y-9165588D01*
X11120688Y-9415588D02*
X11120688Y-9348412D01*
X11053512Y-9348412D01*
X11053512Y-9415588D01*
X11120688Y-9415588D01*
X11120688Y-9665588D02*
X11120688Y-9598412D01*
X11053512Y-9598412D01*
X11053512Y-9665588D01*
X11120688Y-9665588D01*
X11120688Y-9915588D02*
X11120688Y-9848412D01*
X11053512Y-9848412D01*
X11053512Y-9915588D01*
X11120688Y-9915588D01*
X11120688Y-10165588D02*
X11120688Y-10098412D01*
X11053512Y-10098412D01*
X11053512Y-10165588D01*
X11120688Y-10165588D01*
X11120688Y-10415588D02*
X11120688Y-10348412D01*
X11053512Y-10348412D01*
X11053512Y-10415588D01*
X11120688Y-10415588D01*
D16*
X8102600Y-8127200D02*
X8152600Y-8077200D01*
X8102600Y-8027200D01*
X8052600Y-8077200D01*
X8102600Y-8127200D01*
X8102600Y-8381200D02*
X8152600Y-8331200D01*
X8102600Y-8281200D01*
X8052600Y-8331200D01*
X8102600Y-8381200D01*
X8102600Y-8635200D02*
X8152600Y-8585200D01*
X8102600Y-8535200D01*
X8052600Y-8585200D01*
X8102600Y-8635200D01*
X8445500Y-10578300D02*
X8495500Y-10528300D01*
X8445500Y-10478300D01*
X8395500Y-10528300D01*
X8445500Y-10578300D01*
X8699500Y-10578300D02*
X8749500Y-10528300D01*
X8699500Y-10478300D01*
X8649500Y-10528300D01*
X8699500Y-10578300D01*
X8953500Y-10578300D02*
X9003500Y-10528300D01*
X8953500Y-10478300D01*
X8903500Y-10528300D01*
X8953500Y-10578300D01*
X9207500Y-10578300D02*
X9257500Y-10528300D01*
X9207500Y-10478300D01*
X9157500Y-10528300D01*
X9207500Y-10578300D01*
X9588500Y-10578300D02*
X9638500Y-10528300D01*
X9588500Y-10478300D01*
X9538500Y-10528300D01*
X9588500Y-10578300D01*
X9842500Y-10578300D02*
X9892500Y-10528300D01*
X9842500Y-10478300D01*
X9792500Y-10528300D01*
X9842500Y-10578300D01*
X10096500Y-10578300D02*
X10146500Y-10528300D01*
X10096500Y-10478300D01*
X10046500Y-10528300D01*
X10096500Y-10578300D01*
X10845800Y-7936700D02*
X10895800Y-7886700D01*
X10845800Y-7836700D01*
X10795800Y-7886700D01*
X10845800Y-7936700D01*
X10847800Y-10908500D02*
X10897800Y-10858500D01*
X10847800Y-10808500D01*
X10797800Y-10858500D01*
X10847800Y-10908500D01*
D17*
X7395700Y-7510000D02*
X7615700Y-7730000D01*
X7615700Y-7510000D02*
X7395700Y-7730000D01*
X7615700Y-7620000D02*
G75*
G03*
X7615700Y-7620000I-110000J0D01*
G01*
X7395700Y-10824700D02*
X7615700Y-11044700D01*
X7615700Y-10824700D02*
X7395700Y-11044700D01*
X7615700Y-10934700D02*
G75*
G03*
X7615700Y-10934700I-110000J0D01*
G01*
X10380200Y-7510000D02*
X10600200Y-7730000D01*
X10600200Y-7510000D02*
X10380200Y-7730000D01*
X10600200Y-7620000D02*
G75*
G03*
X10600200Y-7620000I-110000J0D01*
G01*
X10380200Y-10824700D02*
X10600200Y-11044700D01*
X10600200Y-10824700D02*
X10380200Y-11044700D01*
X10600200Y-10934700D02*
G75*
G03*
X10600200Y-10934700I-110000J0D01*
G01*
D11*
X7103119Y-11491024D02*
X7103119Y-11291024D01*
X7103119Y-11291024D02*
X7150738Y-11291024D01*
X7150738Y-11291024D02*
X7179309Y-11300548D01*
X7179309Y-11300548D02*
X7198357Y-11319595D01*
X7198357Y-11319595D02*
X7207881Y-11338643D01*
X7207881Y-11338643D02*
X7217405Y-11376738D01*
X7217405Y-11376738D02*
X7217405Y-11405309D01*
X7217405Y-11405309D02*
X7207881Y-11443405D01*
X7207881Y-11443405D02*
X7198357Y-11462452D01*
X7198357Y-11462452D02*
X7179309Y-11481500D01*
X7179309Y-11481500D02*
X7150738Y-11491024D01*
X7150738Y-11491024D02*
X7103119Y-11491024D01*
X7303119Y-11491024D02*
X7303119Y-11357690D01*
X7303119Y-11395786D02*
X7312643Y-11376738D01*
X7312643Y-11376738D02*
X7322167Y-11367214D01*
X7322167Y-11367214D02*
X7341214Y-11357690D01*
X7341214Y-11357690D02*
X7360262Y-11357690D01*
X7426928Y-11491024D02*
X7426928Y-11357690D01*
X7426928Y-11291024D02*
X7417405Y-11300548D01*
X7417405Y-11300548D02*
X7426928Y-11310071D01*
X7426928Y-11310071D02*
X7436452Y-11300548D01*
X7436452Y-11300548D02*
X7426928Y-11291024D01*
X7426928Y-11291024D02*
X7426928Y-11310071D01*
X7550738Y-11491024D02*
X7531690Y-11481500D01*
X7531690Y-11481500D02*
X7522167Y-11462452D01*
X7522167Y-11462452D02*
X7522167Y-11291024D01*
X7655500Y-11491024D02*
X7636452Y-11481500D01*
X7636452Y-11481500D02*
X7626928Y-11462452D01*
X7626928Y-11462452D02*
X7626928Y-11291024D01*
X7884071Y-11491024D02*
X7884071Y-11291024D01*
X7884071Y-11291024D02*
X7950738Y-11433881D01*
X7950738Y-11433881D02*
X8017405Y-11291024D01*
X8017405Y-11291024D02*
X8017405Y-11491024D01*
X8198357Y-11491024D02*
X8198357Y-11386262D01*
X8198357Y-11386262D02*
X8188833Y-11367214D01*
X8188833Y-11367214D02*
X8169786Y-11357690D01*
X8169786Y-11357690D02*
X8131690Y-11357690D01*
X8131690Y-11357690D02*
X8112643Y-11367214D01*
X8198357Y-11481500D02*
X8179309Y-11491024D01*
X8179309Y-11491024D02*
X8131690Y-11491024D01*
X8131690Y-11491024D02*
X8112643Y-11481500D01*
X8112643Y-11481500D02*
X8103119Y-11462452D01*
X8103119Y-11462452D02*
X8103119Y-11443405D01*
X8103119Y-11443405D02*
X8112643Y-11424357D01*
X8112643Y-11424357D02*
X8131690Y-11414833D01*
X8131690Y-11414833D02*
X8179309Y-11414833D01*
X8179309Y-11414833D02*
X8198357Y-11405309D01*
X8293595Y-11357690D02*
X8293595Y-11557690D01*
X8293595Y-11367214D02*
X8312643Y-11357690D01*
X8312643Y-11357690D02*
X8350738Y-11357690D01*
X8350738Y-11357690D02*
X8369786Y-11367214D01*
X8369786Y-11367214D02*
X8379309Y-11376738D01*
X8379309Y-11376738D02*
X8388833Y-11395786D01*
X8388833Y-11395786D02*
X8388833Y-11452928D01*
X8388833Y-11452928D02*
X8379309Y-11471976D01*
X8379309Y-11471976D02*
X8369786Y-11481500D01*
X8369786Y-11481500D02*
X8350738Y-11491024D01*
X8350738Y-11491024D02*
X8312643Y-11491024D01*
X8312643Y-11491024D02*
X8293595Y-11481500D01*
X8474548Y-11471976D02*
X8484071Y-11481500D01*
X8484071Y-11481500D02*
X8474548Y-11491024D01*
X8474548Y-11491024D02*
X8465024Y-11481500D01*
X8465024Y-11481500D02*
X8474548Y-11471976D01*
X8474548Y-11471976D02*
X8474548Y-11491024D01*
X8474548Y-11367214D02*
X8484071Y-11376738D01*
X8484071Y-11376738D02*
X8474548Y-11386262D01*
X8474548Y-11386262D02*
X8465024Y-11376738D01*
X8465024Y-11376738D02*
X8474548Y-11367214D01*
X8474548Y-11367214D02*
X8474548Y-11386262D01*
D12*
X6815500Y-11798500D02*
X6855500Y-11838500D01*
X6855500Y-11798500D02*
X6815500Y-11838500D01*
D11*
X7141214Y-11711024D02*
X7160262Y-11711024D01*
X7160262Y-11711024D02*
X7179309Y-11720548D01*
X7179309Y-11720548D02*
X7188833Y-11730071D01*
X7188833Y-11730071D02*
X7198357Y-11749119D01*
X7198357Y-11749119D02*
X7207881Y-11787214D01*
X7207881Y-11787214D02*
X7207881Y-11834833D01*
X7207881Y-11834833D02*
X7198357Y-11872928D01*
X7198357Y-11872928D02*
X7188833Y-11891976D01*
X7188833Y-11891976D02*
X7179309Y-11901500D01*
X7179309Y-11901500D02*
X7160262Y-11911024D01*
X7160262Y-11911024D02*
X7141214Y-11911024D01*
X7141214Y-11911024D02*
X7122167Y-11901500D01*
X7122167Y-11901500D02*
X7112643Y-11891976D01*
X7112643Y-11891976D02*
X7103119Y-11872928D01*
X7103119Y-11872928D02*
X7093595Y-11834833D01*
X7093595Y-11834833D02*
X7093595Y-11787214D01*
X7093595Y-11787214D02*
X7103119Y-11749119D01*
X7103119Y-11749119D02*
X7112643Y-11730071D01*
X7112643Y-11730071D02*
X7122167Y-11720548D01*
X7122167Y-11720548D02*
X7141214Y-11711024D01*
X7293595Y-11891976D02*
X7303119Y-11901500D01*
X7303119Y-11901500D02*
X7293595Y-11911024D01*
X7293595Y-11911024D02*
X7284071Y-11901500D01*
X7284071Y-11901500D02*
X7293595Y-11891976D01*
X7293595Y-11891976D02*
X7293595Y-11911024D01*
X7474548Y-11777690D02*
X7474548Y-11911024D01*
X7426928Y-11701500D02*
X7379309Y-11844357D01*
X7379309Y-11844357D02*
X7503119Y-11844357D01*
X7617405Y-11711024D02*
X7636452Y-11711024D01*
X7636452Y-11711024D02*
X7655500Y-11720548D01*
X7655500Y-11720548D02*
X7665024Y-11730071D01*
X7665024Y-11730071D02*
X7674548Y-11749119D01*
X7674548Y-11749119D02*
X7684071Y-11787214D01*
X7684071Y-11787214D02*
X7684071Y-11834833D01*
X7684071Y-11834833D02*
X7674548Y-11872928D01*
X7674548Y-11872928D02*
X7665024Y-11891976D01*
X7665024Y-11891976D02*
X7655500Y-11901500D01*
X7655500Y-11901500D02*
X7636452Y-11911024D01*
X7636452Y-11911024D02*
X7617405Y-11911024D01*
X7617405Y-11911024D02*
X7598357Y-11901500D01*
X7598357Y-11901500D02*
X7588833Y-11891976D01*
X7588833Y-11891976D02*
X7579309Y-11872928D01*
X7579309Y-11872928D02*
X7569786Y-11834833D01*
X7569786Y-11834833D02*
X7569786Y-11787214D01*
X7569786Y-11787214D02*
X7579309Y-11749119D01*
X7579309Y-11749119D02*
X7588833Y-11730071D01*
X7588833Y-11730071D02*
X7598357Y-11720548D01*
X7598357Y-11720548D02*
X7617405Y-11711024D01*
X7807881Y-11711024D02*
X7826929Y-11711024D01*
X7826929Y-11711024D02*
X7845976Y-11720548D01*
X7845976Y-11720548D02*
X7855500Y-11730071D01*
X7855500Y-11730071D02*
X7865024Y-11749119D01*
X7865024Y-11749119D02*
X7874548Y-11787214D01*
X7874548Y-11787214D02*
X7874548Y-11834833D01*
X7874548Y-11834833D02*
X7865024Y-11872928D01*
X7865024Y-11872928D02*
X7855500Y-11891976D01*
X7855500Y-11891976D02*
X7845976Y-11901500D01*
X7845976Y-11901500D02*
X7826929Y-11911024D01*
X7826929Y-11911024D02*
X7807881Y-11911024D01*
X7807881Y-11911024D02*
X7788833Y-11901500D01*
X7788833Y-11901500D02*
X7779309Y-11891976D01*
X7779309Y-11891976D02*
X7769786Y-11872928D01*
X7769786Y-11872928D02*
X7760262Y-11834833D01*
X7760262Y-11834833D02*
X7760262Y-11787214D01*
X7760262Y-11787214D02*
X7769786Y-11749119D01*
X7769786Y-11749119D02*
X7779309Y-11730071D01*
X7779309Y-11730071D02*
X7788833Y-11720548D01*
X7788833Y-11720548D02*
X7807881Y-11711024D01*
X7960262Y-11911024D02*
X7960262Y-11777690D01*
X7960262Y-11796738D02*
X7969786Y-11787214D01*
X7969786Y-11787214D02*
X7988833Y-11777690D01*
X7988833Y-11777690D02*
X8017405Y-11777690D01*
X8017405Y-11777690D02*
X8036452Y-11787214D01*
X8036452Y-11787214D02*
X8045976Y-11806262D01*
X8045976Y-11806262D02*
X8045976Y-11911024D01*
X8045976Y-11806262D02*
X8055500Y-11787214D01*
X8055500Y-11787214D02*
X8074548Y-11777690D01*
X8074548Y-11777690D02*
X8103119Y-11777690D01*
X8103119Y-11777690D02*
X8122167Y-11787214D01*
X8122167Y-11787214D02*
X8131690Y-11806262D01*
X8131690Y-11806262D02*
X8131690Y-11911024D01*
X8226929Y-11911024D02*
X8226929Y-11777690D01*
X8226929Y-11796738D02*
X8236452Y-11787214D01*
X8236452Y-11787214D02*
X8255500Y-11777690D01*
X8255500Y-11777690D02*
X8284071Y-11777690D01*
X8284071Y-11777690D02*
X8303119Y-11787214D01*
X8303119Y-11787214D02*
X8312643Y-11806262D01*
X8312643Y-11806262D02*
X8312643Y-11911024D01*
X8312643Y-11806262D02*
X8322167Y-11787214D01*
X8322167Y-11787214D02*
X8341214Y-11777690D01*
X8341214Y-11777690D02*
X8369786Y-11777690D01*
X8369786Y-11777690D02*
X8388833Y-11787214D01*
X8388833Y-11787214D02*
X8398357Y-11806262D01*
X8398357Y-11806262D02*
X8398357Y-11911024D01*
X8788833Y-11701500D02*
X8617405Y-11958643D01*
X9045976Y-11711024D02*
X9065024Y-11711024D01*
X9065024Y-11711024D02*
X9084072Y-11720548D01*
X9084072Y-11720548D02*
X9093595Y-11730071D01*
X9093595Y-11730071D02*
X9103119Y-11749119D01*
X9103119Y-11749119D02*
X9112643Y-11787214D01*
X9112643Y-11787214D02*
X9112643Y-11834833D01*
X9112643Y-11834833D02*
X9103119Y-11872928D01*
X9103119Y-11872928D02*
X9093595Y-11891976D01*
X9093595Y-11891976D02*
X9084072Y-11901500D01*
X9084072Y-11901500D02*
X9065024Y-11911024D01*
X9065024Y-11911024D02*
X9045976Y-11911024D01*
X9045976Y-11911024D02*
X9026929Y-11901500D01*
X9026929Y-11901500D02*
X9017405Y-11891976D01*
X9017405Y-11891976D02*
X9007881Y-11872928D01*
X9007881Y-11872928D02*
X8998357Y-11834833D01*
X8998357Y-11834833D02*
X8998357Y-11787214D01*
X8998357Y-11787214D02*
X9007881Y-11749119D01*
X9007881Y-11749119D02*
X9017405Y-11730071D01*
X9017405Y-11730071D02*
X9026929Y-11720548D01*
X9026929Y-11720548D02*
X9045976Y-11711024D01*
X9198357Y-11891976D02*
X9207881Y-11901500D01*
X9207881Y-11901500D02*
X9198357Y-11911024D01*
X9198357Y-11911024D02*
X9188834Y-11901500D01*
X9188834Y-11901500D02*
X9198357Y-11891976D01*
X9198357Y-11891976D02*
X9198357Y-11911024D01*
X9331691Y-11711024D02*
X9350738Y-11711024D01*
X9350738Y-11711024D02*
X9369786Y-11720548D01*
X9369786Y-11720548D02*
X9379310Y-11730071D01*
X9379310Y-11730071D02*
X9388834Y-11749119D01*
X9388834Y-11749119D02*
X9398357Y-11787214D01*
X9398357Y-11787214D02*
X9398357Y-11834833D01*
X9398357Y-11834833D02*
X9388834Y-11872928D01*
X9388834Y-11872928D02*
X9379310Y-11891976D01*
X9379310Y-11891976D02*
X9369786Y-11901500D01*
X9369786Y-11901500D02*
X9350738Y-11911024D01*
X9350738Y-11911024D02*
X9331691Y-11911024D01*
X9331691Y-11911024D02*
X9312643Y-11901500D01*
X9312643Y-11901500D02*
X9303119Y-11891976D01*
X9303119Y-11891976D02*
X9293595Y-11872928D01*
X9293595Y-11872928D02*
X9284072Y-11834833D01*
X9284072Y-11834833D02*
X9284072Y-11787214D01*
X9284072Y-11787214D02*
X9293595Y-11749119D01*
X9293595Y-11749119D02*
X9303119Y-11730071D01*
X9303119Y-11730071D02*
X9312643Y-11720548D01*
X9312643Y-11720548D02*
X9331691Y-11711024D01*
X9588834Y-11911024D02*
X9474548Y-11911024D01*
X9531691Y-11911024D02*
X9531691Y-11711024D01*
X9531691Y-11711024D02*
X9512643Y-11739595D01*
X9512643Y-11739595D02*
X9493595Y-11758643D01*
X9493595Y-11758643D02*
X9474548Y-11768167D01*
X9769786Y-11711024D02*
X9674548Y-11711024D01*
X9674548Y-11711024D02*
X9665024Y-11806262D01*
X9665024Y-11806262D02*
X9674548Y-11796738D01*
X9674548Y-11796738D02*
X9693595Y-11787214D01*
X9693595Y-11787214D02*
X9741215Y-11787214D01*
X9741215Y-11787214D02*
X9760262Y-11796738D01*
X9760262Y-11796738D02*
X9769786Y-11806262D01*
X9769786Y-11806262D02*
X9779310Y-11825309D01*
X9779310Y-11825309D02*
X9779310Y-11872928D01*
X9779310Y-11872928D02*
X9769786Y-11891976D01*
X9769786Y-11891976D02*
X9760262Y-11901500D01*
X9760262Y-11901500D02*
X9741215Y-11911024D01*
X9741215Y-11911024D02*
X9693595Y-11911024D01*
X9693595Y-11911024D02*
X9674548Y-11901500D01*
X9674548Y-11901500D02*
X9665024Y-11891976D01*
X9845976Y-11711024D02*
X9979310Y-11711024D01*
X9979310Y-11711024D02*
X9893595Y-11911024D01*
X10045976Y-11711024D02*
X10045976Y-11749119D01*
X10122167Y-11711024D02*
X10122167Y-11749119D01*
X10417405Y-11987214D02*
X10407881Y-11977690D01*
X10407881Y-11977690D02*
X10388834Y-11949119D01*
X10388834Y-11949119D02*
X10379310Y-11930071D01*
X10379310Y-11930071D02*
X10369786Y-11901500D01*
X10369786Y-11901500D02*
X10360262Y-11853881D01*
X10360262Y-11853881D02*
X10360262Y-11815786D01*
X10360262Y-11815786D02*
X10369786Y-11768167D01*
X10369786Y-11768167D02*
X10379310Y-11739595D01*
X10379310Y-11739595D02*
X10388834Y-11720548D01*
X10388834Y-11720548D02*
X10407881Y-11691976D01*
X10407881Y-11691976D02*
X10417405Y-11682452D01*
X10588834Y-11711024D02*
X10493596Y-11711024D01*
X10493596Y-11711024D02*
X10484072Y-11806262D01*
X10484072Y-11806262D02*
X10493596Y-11796738D01*
X10493596Y-11796738D02*
X10512643Y-11787214D01*
X10512643Y-11787214D02*
X10560262Y-11787214D01*
X10560262Y-11787214D02*
X10579310Y-11796738D01*
X10579310Y-11796738D02*
X10588834Y-11806262D01*
X10588834Y-11806262D02*
X10598357Y-11825309D01*
X10598357Y-11825309D02*
X10598357Y-11872928D01*
X10598357Y-11872928D02*
X10588834Y-11891976D01*
X10588834Y-11891976D02*
X10579310Y-11901500D01*
X10579310Y-11901500D02*
X10560262Y-11911024D01*
X10560262Y-11911024D02*
X10512643Y-11911024D01*
X10512643Y-11911024D02*
X10493596Y-11901500D01*
X10493596Y-11901500D02*
X10484072Y-11891976D01*
X10779310Y-11711024D02*
X10684072Y-11711024D01*
X10684072Y-11711024D02*
X10674548Y-11806262D01*
X10674548Y-11806262D02*
X10684072Y-11796738D01*
X10684072Y-11796738D02*
X10703119Y-11787214D01*
X10703119Y-11787214D02*
X10750738Y-11787214D01*
X10750738Y-11787214D02*
X10769786Y-11796738D01*
X10769786Y-11796738D02*
X10779310Y-11806262D01*
X10779310Y-11806262D02*
X10788834Y-11825309D01*
X10788834Y-11825309D02*
X10788834Y-11872928D01*
X10788834Y-11872928D02*
X10779310Y-11891976D01*
X10779310Y-11891976D02*
X10769786Y-11901500D01*
X10769786Y-11901500D02*
X10750738Y-11911024D01*
X10750738Y-11911024D02*
X10703119Y-11911024D01*
X10703119Y-11911024D02*
X10684072Y-11901500D01*
X10684072Y-11901500D02*
X10674548Y-11891976D01*
X11026929Y-11911024D02*
X11026929Y-11711024D01*
X11112643Y-11911024D02*
X11112643Y-11806262D01*
X11112643Y-11806262D02*
X11103119Y-11787214D01*
X11103119Y-11787214D02*
X11084072Y-11777690D01*
X11084072Y-11777690D02*
X11055500Y-11777690D01*
X11055500Y-11777690D02*
X11036453Y-11787214D01*
X11036453Y-11787214D02*
X11026929Y-11796738D01*
X11236453Y-11911024D02*
X11217405Y-11901500D01*
X11217405Y-11901500D02*
X11207881Y-11891976D01*
X11207881Y-11891976D02*
X11198357Y-11872928D01*
X11198357Y-11872928D02*
X11198357Y-11815786D01*
X11198357Y-11815786D02*
X11207881Y-11796738D01*
X11207881Y-11796738D02*
X11217405Y-11787214D01*
X11217405Y-11787214D02*
X11236453Y-11777690D01*
X11236453Y-11777690D02*
X11265024Y-11777690D01*
X11265024Y-11777690D02*
X11284072Y-11787214D01*
X11284072Y-11787214D02*
X11293596Y-11796738D01*
X11293596Y-11796738D02*
X11303119Y-11815786D01*
X11303119Y-11815786D02*
X11303119Y-11872928D01*
X11303119Y-11872928D02*
X11293596Y-11891976D01*
X11293596Y-11891976D02*
X11284072Y-11901500D01*
X11284072Y-11901500D02*
X11265024Y-11911024D01*
X11265024Y-11911024D02*
X11236453Y-11911024D01*
X11417405Y-11911024D02*
X11398357Y-11901500D01*
X11398357Y-11901500D02*
X11388834Y-11882452D01*
X11388834Y-11882452D02*
X11388834Y-11711024D01*
X11569786Y-11901500D02*
X11550738Y-11911024D01*
X11550738Y-11911024D02*
X11512643Y-11911024D01*
X11512643Y-11911024D02*
X11493596Y-11901500D01*
X11493596Y-11901500D02*
X11484072Y-11882452D01*
X11484072Y-11882452D02*
X11484072Y-11806262D01*
X11484072Y-11806262D02*
X11493596Y-11787214D01*
X11493596Y-11787214D02*
X11512643Y-11777690D01*
X11512643Y-11777690D02*
X11550738Y-11777690D01*
X11550738Y-11777690D02*
X11569786Y-11787214D01*
X11569786Y-11787214D02*
X11579310Y-11806262D01*
X11579310Y-11806262D02*
X11579310Y-11825309D01*
X11579310Y-11825309D02*
X11484072Y-11844357D01*
X11655500Y-11901500D02*
X11674548Y-11911024D01*
X11674548Y-11911024D02*
X11712643Y-11911024D01*
X11712643Y-11911024D02*
X11731691Y-11901500D01*
X11731691Y-11901500D02*
X11741215Y-11882452D01*
X11741215Y-11882452D02*
X11741215Y-11872928D01*
X11741215Y-11872928D02*
X11731691Y-11853881D01*
X11731691Y-11853881D02*
X11712643Y-11844357D01*
X11712643Y-11844357D02*
X11684072Y-11844357D01*
X11684072Y-11844357D02*
X11665024Y-11834833D01*
X11665024Y-11834833D02*
X11655500Y-11815786D01*
X11655500Y-11815786D02*
X11655500Y-11806262D01*
X11655500Y-11806262D02*
X11665024Y-11787214D01*
X11665024Y-11787214D02*
X11684072Y-11777690D01*
X11684072Y-11777690D02*
X11712643Y-11777690D01*
X11712643Y-11777690D02*
X11731691Y-11787214D01*
X11807881Y-11987214D02*
X11817405Y-11977690D01*
X11817405Y-11977690D02*
X11836453Y-11949119D01*
X11836453Y-11949119D02*
X11845977Y-11930071D01*
X11845977Y-11930071D02*
X11855500Y-11901500D01*
X11855500Y-11901500D02*
X11865024Y-11853881D01*
X11865024Y-11853881D02*
X11865024Y-11815786D01*
X11865024Y-11815786D02*
X11855500Y-11768167D01*
X11855500Y-11768167D02*
X11845977Y-11739595D01*
X11845977Y-11739595D02*
X11836453Y-11720548D01*
X11836453Y-11720548D02*
X11817405Y-11691976D01*
X11817405Y-11691976D02*
X11807881Y-11682452D01*
D13*
X6855500Y-12082500D02*
G75*
G03*
X6855500Y-12082500I-30000J0D01*
G01*
D11*
X7141214Y-11975024D02*
X7160262Y-11975024D01*
X7160262Y-11975024D02*
X7179309Y-11984548D01*
X7179309Y-11984548D02*
X7188833Y-11994071D01*
X7188833Y-11994071D02*
X7198357Y-12013119D01*
X7198357Y-12013119D02*
X7207881Y-12051214D01*
X7207881Y-12051214D02*
X7207881Y-12098833D01*
X7207881Y-12098833D02*
X7198357Y-12136928D01*
X7198357Y-12136928D02*
X7188833Y-12155976D01*
X7188833Y-12155976D02*
X7179309Y-12165500D01*
X7179309Y-12165500D02*
X7160262Y-12175024D01*
X7160262Y-12175024D02*
X7141214Y-12175024D01*
X7141214Y-12175024D02*
X7122167Y-12165500D01*
X7122167Y-12165500D02*
X7112643Y-12155976D01*
X7112643Y-12155976D02*
X7103119Y-12136928D01*
X7103119Y-12136928D02*
X7093595Y-12098833D01*
X7093595Y-12098833D02*
X7093595Y-12051214D01*
X7093595Y-12051214D02*
X7103119Y-12013119D01*
X7103119Y-12013119D02*
X7112643Y-11994071D01*
X7112643Y-11994071D02*
X7122167Y-11984548D01*
X7122167Y-11984548D02*
X7141214Y-11975024D01*
X7293595Y-12155976D02*
X7303119Y-12165500D01*
X7303119Y-12165500D02*
X7293595Y-12175024D01*
X7293595Y-12175024D02*
X7284071Y-12165500D01*
X7284071Y-12165500D02*
X7293595Y-12155976D01*
X7293595Y-12155976D02*
X7293595Y-12175024D01*
X7474548Y-11975024D02*
X7436452Y-11975024D01*
X7436452Y-11975024D02*
X7417405Y-11984548D01*
X7417405Y-11984548D02*
X7407881Y-11994071D01*
X7407881Y-11994071D02*
X7388833Y-12022643D01*
X7388833Y-12022643D02*
X7379309Y-12060738D01*
X7379309Y-12060738D02*
X7379309Y-12136928D01*
X7379309Y-12136928D02*
X7388833Y-12155976D01*
X7388833Y-12155976D02*
X7398357Y-12165500D01*
X7398357Y-12165500D02*
X7417405Y-12175024D01*
X7417405Y-12175024D02*
X7455500Y-12175024D01*
X7455500Y-12175024D02*
X7474548Y-12165500D01*
X7474548Y-12165500D02*
X7484071Y-12155976D01*
X7484071Y-12155976D02*
X7493595Y-12136928D01*
X7493595Y-12136928D02*
X7493595Y-12089309D01*
X7493595Y-12089309D02*
X7484071Y-12070262D01*
X7484071Y-12070262D02*
X7474548Y-12060738D01*
X7474548Y-12060738D02*
X7455500Y-12051214D01*
X7455500Y-12051214D02*
X7417405Y-12051214D01*
X7417405Y-12051214D02*
X7398357Y-12060738D01*
X7398357Y-12060738D02*
X7388833Y-12070262D01*
X7388833Y-12070262D02*
X7379309Y-12089309D01*
X7617405Y-11975024D02*
X7636452Y-11975024D01*
X7636452Y-11975024D02*
X7655500Y-11984548D01*
X7655500Y-11984548D02*
X7665024Y-11994071D01*
X7665024Y-11994071D02*
X7674548Y-12013119D01*
X7674548Y-12013119D02*
X7684071Y-12051214D01*
X7684071Y-12051214D02*
X7684071Y-12098833D01*
X7684071Y-12098833D02*
X7674548Y-12136928D01*
X7674548Y-12136928D02*
X7665024Y-12155976D01*
X7665024Y-12155976D02*
X7655500Y-12165500D01*
X7655500Y-12165500D02*
X7636452Y-12175024D01*
X7636452Y-12175024D02*
X7617405Y-12175024D01*
X7617405Y-12175024D02*
X7598357Y-12165500D01*
X7598357Y-12165500D02*
X7588833Y-12155976D01*
X7588833Y-12155976D02*
X7579309Y-12136928D01*
X7579309Y-12136928D02*
X7569786Y-12098833D01*
X7569786Y-12098833D02*
X7569786Y-12051214D01*
X7569786Y-12051214D02*
X7579309Y-12013119D01*
X7579309Y-12013119D02*
X7588833Y-11994071D01*
X7588833Y-11994071D02*
X7598357Y-11984548D01*
X7598357Y-11984548D02*
X7617405Y-11975024D01*
X7807881Y-11975024D02*
X7826929Y-11975024D01*
X7826929Y-11975024D02*
X7845976Y-11984548D01*
X7845976Y-11984548D02*
X7855500Y-11994071D01*
X7855500Y-11994071D02*
X7865024Y-12013119D01*
X7865024Y-12013119D02*
X7874548Y-12051214D01*
X7874548Y-12051214D02*
X7874548Y-12098833D01*
X7874548Y-12098833D02*
X7865024Y-12136928D01*
X7865024Y-12136928D02*
X7855500Y-12155976D01*
X7855500Y-12155976D02*
X7845976Y-12165500D01*
X7845976Y-12165500D02*
X7826929Y-12175024D01*
X7826929Y-12175024D02*
X7807881Y-12175024D01*
X7807881Y-12175024D02*
X7788833Y-12165500D01*
X7788833Y-12165500D02*
X7779309Y-12155976D01*
X7779309Y-12155976D02*
X7769786Y-12136928D01*
X7769786Y-12136928D02*
X7760262Y-12098833D01*
X7760262Y-12098833D02*
X7760262Y-12051214D01*
X7760262Y-12051214D02*
X7769786Y-12013119D01*
X7769786Y-12013119D02*
X7779309Y-11994071D01*
X7779309Y-11994071D02*
X7788833Y-11984548D01*
X7788833Y-11984548D02*
X7807881Y-11975024D01*
X7960262Y-12175024D02*
X7960262Y-12041690D01*
X7960262Y-12060738D02*
X7969786Y-12051214D01*
X7969786Y-12051214D02*
X7988833Y-12041690D01*
X7988833Y-12041690D02*
X8017405Y-12041690D01*
X8017405Y-12041690D02*
X8036452Y-12051214D01*
X8036452Y-12051214D02*
X8045976Y-12070262D01*
X8045976Y-12070262D02*
X8045976Y-12175024D01*
X8045976Y-12070262D02*
X8055500Y-12051214D01*
X8055500Y-12051214D02*
X8074548Y-12041690D01*
X8074548Y-12041690D02*
X8103119Y-12041690D01*
X8103119Y-12041690D02*
X8122167Y-12051214D01*
X8122167Y-12051214D02*
X8131690Y-12070262D01*
X8131690Y-12070262D02*
X8131690Y-12175024D01*
X8226929Y-12175024D02*
X8226929Y-12041690D01*
X8226929Y-12060738D02*
X8236452Y-12051214D01*
X8236452Y-12051214D02*
X8255500Y-12041690D01*
X8255500Y-12041690D02*
X8284071Y-12041690D01*
X8284071Y-12041690D02*
X8303119Y-12051214D01*
X8303119Y-12051214D02*
X8312643Y-12070262D01*
X8312643Y-12070262D02*
X8312643Y-12175024D01*
X8312643Y-12070262D02*
X8322167Y-12051214D01*
X8322167Y-12051214D02*
X8341214Y-12041690D01*
X8341214Y-12041690D02*
X8369786Y-12041690D01*
X8369786Y-12041690D02*
X8388833Y-12051214D01*
X8388833Y-12051214D02*
X8398357Y-12070262D01*
X8398357Y-12070262D02*
X8398357Y-12175024D01*
X8788833Y-11965500D02*
X8617405Y-12222643D01*
X9045976Y-11975024D02*
X9065024Y-11975024D01*
X9065024Y-11975024D02*
X9084072Y-11984548D01*
X9084072Y-11984548D02*
X9093595Y-11994071D01*
X9093595Y-11994071D02*
X9103119Y-12013119D01*
X9103119Y-12013119D02*
X9112643Y-12051214D01*
X9112643Y-12051214D02*
X9112643Y-12098833D01*
X9112643Y-12098833D02*
X9103119Y-12136928D01*
X9103119Y-12136928D02*
X9093595Y-12155976D01*
X9093595Y-12155976D02*
X9084072Y-12165500D01*
X9084072Y-12165500D02*
X9065024Y-12175024D01*
X9065024Y-12175024D02*
X9045976Y-12175024D01*
X9045976Y-12175024D02*
X9026929Y-12165500D01*
X9026929Y-12165500D02*
X9017405Y-12155976D01*
X9017405Y-12155976D02*
X9007881Y-12136928D01*
X9007881Y-12136928D02*
X8998357Y-12098833D01*
X8998357Y-12098833D02*
X8998357Y-12051214D01*
X8998357Y-12051214D02*
X9007881Y-12013119D01*
X9007881Y-12013119D02*
X9017405Y-11994071D01*
X9017405Y-11994071D02*
X9026929Y-11984548D01*
X9026929Y-11984548D02*
X9045976Y-11975024D01*
X9198357Y-12155976D02*
X9207881Y-12165500D01*
X9207881Y-12165500D02*
X9198357Y-12175024D01*
X9198357Y-12175024D02*
X9188834Y-12165500D01*
X9188834Y-12165500D02*
X9198357Y-12155976D01*
X9198357Y-12155976D02*
X9198357Y-12175024D01*
X9331691Y-11975024D02*
X9350738Y-11975024D01*
X9350738Y-11975024D02*
X9369786Y-11984548D01*
X9369786Y-11984548D02*
X9379310Y-11994071D01*
X9379310Y-11994071D02*
X9388834Y-12013119D01*
X9388834Y-12013119D02*
X9398357Y-12051214D01*
X9398357Y-12051214D02*
X9398357Y-12098833D01*
X9398357Y-12098833D02*
X9388834Y-12136928D01*
X9388834Y-12136928D02*
X9379310Y-12155976D01*
X9379310Y-12155976D02*
X9369786Y-12165500D01*
X9369786Y-12165500D02*
X9350738Y-12175024D01*
X9350738Y-12175024D02*
X9331691Y-12175024D01*
X9331691Y-12175024D02*
X9312643Y-12165500D01*
X9312643Y-12165500D02*
X9303119Y-12155976D01*
X9303119Y-12155976D02*
X9293595Y-12136928D01*
X9293595Y-12136928D02*
X9284072Y-12098833D01*
X9284072Y-12098833D02*
X9284072Y-12051214D01*
X9284072Y-12051214D02*
X9293595Y-12013119D01*
X9293595Y-12013119D02*
X9303119Y-11994071D01*
X9303119Y-11994071D02*
X9312643Y-11984548D01*
X9312643Y-11984548D02*
X9331691Y-11975024D01*
X9474548Y-11994071D02*
X9484072Y-11984548D01*
X9484072Y-11984548D02*
X9503119Y-11975024D01*
X9503119Y-11975024D02*
X9550738Y-11975024D01*
X9550738Y-11975024D02*
X9569786Y-11984548D01*
X9569786Y-11984548D02*
X9579310Y-11994071D01*
X9579310Y-11994071D02*
X9588834Y-12013119D01*
X9588834Y-12013119D02*
X9588834Y-12032167D01*
X9588834Y-12032167D02*
X9579310Y-12060738D01*
X9579310Y-12060738D02*
X9465024Y-12175024D01*
X9465024Y-12175024D02*
X9588834Y-12175024D01*
X9655500Y-11975024D02*
X9779310Y-11975024D01*
X9779310Y-11975024D02*
X9712643Y-12051214D01*
X9712643Y-12051214D02*
X9741215Y-12051214D01*
X9741215Y-12051214D02*
X9760262Y-12060738D01*
X9760262Y-12060738D02*
X9769786Y-12070262D01*
X9769786Y-12070262D02*
X9779310Y-12089309D01*
X9779310Y-12089309D02*
X9779310Y-12136928D01*
X9779310Y-12136928D02*
X9769786Y-12155976D01*
X9769786Y-12155976D02*
X9760262Y-12165500D01*
X9760262Y-12165500D02*
X9741215Y-12175024D01*
X9741215Y-12175024D02*
X9684072Y-12175024D01*
X9684072Y-12175024D02*
X9665024Y-12165500D01*
X9665024Y-12165500D02*
X9655500Y-12155976D01*
X9950738Y-11975024D02*
X9912643Y-11975024D01*
X9912643Y-11975024D02*
X9893595Y-11984548D01*
X9893595Y-11984548D02*
X9884072Y-11994071D01*
X9884072Y-11994071D02*
X9865024Y-12022643D01*
X9865024Y-12022643D02*
X9855500Y-12060738D01*
X9855500Y-12060738D02*
X9855500Y-12136928D01*
X9855500Y-12136928D02*
X9865024Y-12155976D01*
X9865024Y-12155976D02*
X9874548Y-12165500D01*
X9874548Y-12165500D02*
X9893595Y-12175024D01*
X9893595Y-12175024D02*
X9931691Y-12175024D01*
X9931691Y-12175024D02*
X9950738Y-12165500D01*
X9950738Y-12165500D02*
X9960262Y-12155976D01*
X9960262Y-12155976D02*
X9969786Y-12136928D01*
X9969786Y-12136928D02*
X9969786Y-12089309D01*
X9969786Y-12089309D02*
X9960262Y-12070262D01*
X9960262Y-12070262D02*
X9950738Y-12060738D01*
X9950738Y-12060738D02*
X9931691Y-12051214D01*
X9931691Y-12051214D02*
X9893595Y-12051214D01*
X9893595Y-12051214D02*
X9874548Y-12060738D01*
X9874548Y-12060738D02*
X9865024Y-12070262D01*
X9865024Y-12070262D02*
X9855500Y-12089309D01*
X10045976Y-11975024D02*
X10045976Y-12013119D01*
X10122167Y-11975024D02*
X10122167Y-12013119D01*
X10417405Y-12251214D02*
X10407881Y-12241690D01*
X10407881Y-12241690D02*
X10388834Y-12213119D01*
X10388834Y-12213119D02*
X10379310Y-12194071D01*
X10379310Y-12194071D02*
X10369786Y-12165500D01*
X10369786Y-12165500D02*
X10360262Y-12117881D01*
X10360262Y-12117881D02*
X10360262Y-12079786D01*
X10360262Y-12079786D02*
X10369786Y-12032167D01*
X10369786Y-12032167D02*
X10379310Y-12003595D01*
X10379310Y-12003595D02*
X10388834Y-11984548D01*
X10388834Y-11984548D02*
X10407881Y-11955976D01*
X10407881Y-11955976D02*
X10417405Y-11946452D01*
X10579310Y-11975024D02*
X10541215Y-11975024D01*
X10541215Y-11975024D02*
X10522167Y-11984548D01*
X10522167Y-11984548D02*
X10512643Y-11994071D01*
X10512643Y-11994071D02*
X10493596Y-12022643D01*
X10493596Y-12022643D02*
X10484072Y-12060738D01*
X10484072Y-12060738D02*
X10484072Y-12136928D01*
X10484072Y-12136928D02*
X10493596Y-12155976D01*
X10493596Y-12155976D02*
X10503119Y-12165500D01*
X10503119Y-12165500D02*
X10522167Y-12175024D01*
X10522167Y-12175024D02*
X10560262Y-12175024D01*
X10560262Y-12175024D02*
X10579310Y-12165500D01*
X10579310Y-12165500D02*
X10588834Y-12155976D01*
X10588834Y-12155976D02*
X10598357Y-12136928D01*
X10598357Y-12136928D02*
X10598357Y-12089309D01*
X10598357Y-12089309D02*
X10588834Y-12070262D01*
X10588834Y-12070262D02*
X10579310Y-12060738D01*
X10579310Y-12060738D02*
X10560262Y-12051214D01*
X10560262Y-12051214D02*
X10522167Y-12051214D01*
X10522167Y-12051214D02*
X10503119Y-12060738D01*
X10503119Y-12060738D02*
X10493596Y-12070262D01*
X10493596Y-12070262D02*
X10484072Y-12089309D01*
X10836453Y-12175024D02*
X10836453Y-11975024D01*
X10922167Y-12175024D02*
X10922167Y-12070262D01*
X10922167Y-12070262D02*
X10912643Y-12051214D01*
X10912643Y-12051214D02*
X10893596Y-12041690D01*
X10893596Y-12041690D02*
X10865024Y-12041690D01*
X10865024Y-12041690D02*
X10845977Y-12051214D01*
X10845977Y-12051214D02*
X10836453Y-12060738D01*
X11045977Y-12175024D02*
X11026929Y-12165500D01*
X11026929Y-12165500D02*
X11017405Y-12155976D01*
X11017405Y-12155976D02*
X11007881Y-12136928D01*
X11007881Y-12136928D02*
X11007881Y-12079786D01*
X11007881Y-12079786D02*
X11017405Y-12060738D01*
X11017405Y-12060738D02*
X11026929Y-12051214D01*
X11026929Y-12051214D02*
X11045977Y-12041690D01*
X11045977Y-12041690D02*
X11074548Y-12041690D01*
X11074548Y-12041690D02*
X11093596Y-12051214D01*
X11093596Y-12051214D02*
X11103119Y-12060738D01*
X11103119Y-12060738D02*
X11112643Y-12079786D01*
X11112643Y-12079786D02*
X11112643Y-12136928D01*
X11112643Y-12136928D02*
X11103119Y-12155976D01*
X11103119Y-12155976D02*
X11093596Y-12165500D01*
X11093596Y-12165500D02*
X11074548Y-12175024D01*
X11074548Y-12175024D02*
X11045977Y-12175024D01*
X11226929Y-12175024D02*
X11207881Y-12165500D01*
X11207881Y-12165500D02*
X11198357Y-12146452D01*
X11198357Y-12146452D02*
X11198357Y-11975024D01*
X11379310Y-12165500D02*
X11360262Y-12175024D01*
X11360262Y-12175024D02*
X11322167Y-12175024D01*
X11322167Y-12175024D02*
X11303119Y-12165500D01*
X11303119Y-12165500D02*
X11293596Y-12146452D01*
X11293596Y-12146452D02*
X11293596Y-12070262D01*
X11293596Y-12070262D02*
X11303119Y-12051214D01*
X11303119Y-12051214D02*
X11322167Y-12041690D01*
X11322167Y-12041690D02*
X11360262Y-12041690D01*
X11360262Y-12041690D02*
X11379310Y-12051214D01*
X11379310Y-12051214D02*
X11388834Y-12070262D01*
X11388834Y-12070262D02*
X11388834Y-12089309D01*
X11388834Y-12089309D02*
X11293596Y-12108357D01*
X11465024Y-12165500D02*
X11484072Y-12175024D01*
X11484072Y-12175024D02*
X11522167Y-12175024D01*
X11522167Y-12175024D02*
X11541215Y-12165500D01*
X11541215Y-12165500D02*
X11550738Y-12146452D01*
X11550738Y-12146452D02*
X11550738Y-12136928D01*
X11550738Y-12136928D02*
X11541215Y-12117881D01*
X11541215Y-12117881D02*
X11522167Y-12108357D01*
X11522167Y-12108357D02*
X11493596Y-12108357D01*
X11493596Y-12108357D02*
X11474548Y-12098833D01*
X11474548Y-12098833D02*
X11465024Y-12079786D01*
X11465024Y-12079786D02*
X11465024Y-12070262D01*
X11465024Y-12070262D02*
X11474548Y-12051214D01*
X11474548Y-12051214D02*
X11493596Y-12041690D01*
X11493596Y-12041690D02*
X11522167Y-12041690D01*
X11522167Y-12041690D02*
X11541215Y-12051214D01*
X11617405Y-12251214D02*
X11626929Y-12241690D01*
X11626929Y-12241690D02*
X11645977Y-12213119D01*
X11645977Y-12213119D02*
X11655500Y-12194071D01*
X11655500Y-12194071D02*
X11665024Y-12165500D01*
X11665024Y-12165500D02*
X11674548Y-12117881D01*
X11674548Y-12117881D02*
X11674548Y-12079786D01*
X11674548Y-12079786D02*
X11665024Y-12032167D01*
X11665024Y-12032167D02*
X11655500Y-12003595D01*
X11655500Y-12003595D02*
X11645977Y-11984548D01*
X11645977Y-11984548D02*
X11626929Y-11955976D01*
X11626929Y-11955976D02*
X11617405Y-11946452D01*
D14*
X6815500Y-12306500D02*
X6815500Y-12386500D01*
X6775500Y-12346500D02*
X6855500Y-12346500D01*
D11*
X7141214Y-12239024D02*
X7160262Y-12239024D01*
X7160262Y-12239024D02*
X7179309Y-12248548D01*
X7179309Y-12248548D02*
X7188833Y-12258071D01*
X7188833Y-12258071D02*
X7198357Y-12277119D01*
X7198357Y-12277119D02*
X7207881Y-12315214D01*
X7207881Y-12315214D02*
X7207881Y-12362833D01*
X7207881Y-12362833D02*
X7198357Y-12400928D01*
X7198357Y-12400928D02*
X7188833Y-12419976D01*
X7188833Y-12419976D02*
X7179309Y-12429500D01*
X7179309Y-12429500D02*
X7160262Y-12439024D01*
X7160262Y-12439024D02*
X7141214Y-12439024D01*
X7141214Y-12439024D02*
X7122167Y-12429500D01*
X7122167Y-12429500D02*
X7112643Y-12419976D01*
X7112643Y-12419976D02*
X7103119Y-12400928D01*
X7103119Y-12400928D02*
X7093595Y-12362833D01*
X7093595Y-12362833D02*
X7093595Y-12315214D01*
X7093595Y-12315214D02*
X7103119Y-12277119D01*
X7103119Y-12277119D02*
X7112643Y-12258071D01*
X7112643Y-12258071D02*
X7122167Y-12248548D01*
X7122167Y-12248548D02*
X7141214Y-12239024D01*
X7293595Y-12419976D02*
X7303119Y-12429500D01*
X7303119Y-12429500D02*
X7293595Y-12439024D01*
X7293595Y-12439024D02*
X7284071Y-12429500D01*
X7284071Y-12429500D02*
X7293595Y-12419976D01*
X7293595Y-12419976D02*
X7293595Y-12439024D01*
X7417405Y-12324738D02*
X7398357Y-12315214D01*
X7398357Y-12315214D02*
X7388833Y-12305690D01*
X7388833Y-12305690D02*
X7379309Y-12286643D01*
X7379309Y-12286643D02*
X7379309Y-12277119D01*
X7379309Y-12277119D02*
X7388833Y-12258071D01*
X7388833Y-12258071D02*
X7398357Y-12248548D01*
X7398357Y-12248548D02*
X7417405Y-12239024D01*
X7417405Y-12239024D02*
X7455500Y-12239024D01*
X7455500Y-12239024D02*
X7474548Y-12248548D01*
X7474548Y-12248548D02*
X7484071Y-12258071D01*
X7484071Y-12258071D02*
X7493595Y-12277119D01*
X7493595Y-12277119D02*
X7493595Y-12286643D01*
X7493595Y-12286643D02*
X7484071Y-12305690D01*
X7484071Y-12305690D02*
X7474548Y-12315214D01*
X7474548Y-12315214D02*
X7455500Y-12324738D01*
X7455500Y-12324738D02*
X7417405Y-12324738D01*
X7417405Y-12324738D02*
X7398357Y-12334262D01*
X7398357Y-12334262D02*
X7388833Y-12343786D01*
X7388833Y-12343786D02*
X7379309Y-12362833D01*
X7379309Y-12362833D02*
X7379309Y-12400928D01*
X7379309Y-12400928D02*
X7388833Y-12419976D01*
X7388833Y-12419976D02*
X7398357Y-12429500D01*
X7398357Y-12429500D02*
X7417405Y-12439024D01*
X7417405Y-12439024D02*
X7455500Y-12439024D01*
X7455500Y-12439024D02*
X7474548Y-12429500D01*
X7474548Y-12429500D02*
X7484071Y-12419976D01*
X7484071Y-12419976D02*
X7493595Y-12400928D01*
X7493595Y-12400928D02*
X7493595Y-12362833D01*
X7493595Y-12362833D02*
X7484071Y-12343786D01*
X7484071Y-12343786D02*
X7474548Y-12334262D01*
X7474548Y-12334262D02*
X7455500Y-12324738D01*
X7617405Y-12239024D02*
X7636452Y-12239024D01*
X7636452Y-12239024D02*
X7655500Y-12248548D01*
X7655500Y-12248548D02*
X7665024Y-12258071D01*
X7665024Y-12258071D02*
X7674548Y-12277119D01*
X7674548Y-12277119D02*
X7684071Y-12315214D01*
X7684071Y-12315214D02*
X7684071Y-12362833D01*
X7684071Y-12362833D02*
X7674548Y-12400928D01*
X7674548Y-12400928D02*
X7665024Y-12419976D01*
X7665024Y-12419976D02*
X7655500Y-12429500D01*
X7655500Y-12429500D02*
X7636452Y-12439024D01*
X7636452Y-12439024D02*
X7617405Y-12439024D01*
X7617405Y-12439024D02*
X7598357Y-12429500D01*
X7598357Y-12429500D02*
X7588833Y-12419976D01*
X7588833Y-12419976D02*
X7579309Y-12400928D01*
X7579309Y-12400928D02*
X7569786Y-12362833D01*
X7569786Y-12362833D02*
X7569786Y-12315214D01*
X7569786Y-12315214D02*
X7579309Y-12277119D01*
X7579309Y-12277119D02*
X7588833Y-12258071D01*
X7588833Y-12258071D02*
X7598357Y-12248548D01*
X7598357Y-12248548D02*
X7617405Y-12239024D01*
X7807881Y-12239024D02*
X7826929Y-12239024D01*
X7826929Y-12239024D02*
X7845976Y-12248548D01*
X7845976Y-12248548D02*
X7855500Y-12258071D01*
X7855500Y-12258071D02*
X7865024Y-12277119D01*
X7865024Y-12277119D02*
X7874548Y-12315214D01*
X7874548Y-12315214D02*
X7874548Y-12362833D01*
X7874548Y-12362833D02*
X7865024Y-12400928D01*
X7865024Y-12400928D02*
X7855500Y-12419976D01*
X7855500Y-12419976D02*
X7845976Y-12429500D01*
X7845976Y-12429500D02*
X7826929Y-12439024D01*
X7826929Y-12439024D02*
X7807881Y-12439024D01*
X7807881Y-12439024D02*
X7788833Y-12429500D01*
X7788833Y-12429500D02*
X7779309Y-12419976D01*
X7779309Y-12419976D02*
X7769786Y-12400928D01*
X7769786Y-12400928D02*
X7760262Y-12362833D01*
X7760262Y-12362833D02*
X7760262Y-12315214D01*
X7760262Y-12315214D02*
X7769786Y-12277119D01*
X7769786Y-12277119D02*
X7779309Y-12258071D01*
X7779309Y-12258071D02*
X7788833Y-12248548D01*
X7788833Y-12248548D02*
X7807881Y-12239024D01*
X7960262Y-12439024D02*
X7960262Y-12305690D01*
X7960262Y-12324738D02*
X7969786Y-12315214D01*
X7969786Y-12315214D02*
X7988833Y-12305690D01*
X7988833Y-12305690D02*
X8017405Y-12305690D01*
X8017405Y-12305690D02*
X8036452Y-12315214D01*
X8036452Y-12315214D02*
X8045976Y-12334262D01*
X8045976Y-12334262D02*
X8045976Y-12439024D01*
X8045976Y-12334262D02*
X8055500Y-12315214D01*
X8055500Y-12315214D02*
X8074548Y-12305690D01*
X8074548Y-12305690D02*
X8103119Y-12305690D01*
X8103119Y-12305690D02*
X8122167Y-12315214D01*
X8122167Y-12315214D02*
X8131690Y-12334262D01*
X8131690Y-12334262D02*
X8131690Y-12439024D01*
X8226929Y-12439024D02*
X8226929Y-12305690D01*
X8226929Y-12324738D02*
X8236452Y-12315214D01*
X8236452Y-12315214D02*
X8255500Y-12305690D01*
X8255500Y-12305690D02*
X8284071Y-12305690D01*
X8284071Y-12305690D02*
X8303119Y-12315214D01*
X8303119Y-12315214D02*
X8312643Y-12334262D01*
X8312643Y-12334262D02*
X8312643Y-12439024D01*
X8312643Y-12334262D02*
X8322167Y-12315214D01*
X8322167Y-12315214D02*
X8341214Y-12305690D01*
X8341214Y-12305690D02*
X8369786Y-12305690D01*
X8369786Y-12305690D02*
X8388833Y-12315214D01*
X8388833Y-12315214D02*
X8398357Y-12334262D01*
X8398357Y-12334262D02*
X8398357Y-12439024D01*
X8788833Y-12229500D02*
X8617405Y-12486643D01*
X9045976Y-12239024D02*
X9065024Y-12239024D01*
X9065024Y-12239024D02*
X9084072Y-12248548D01*
X9084072Y-12248548D02*
X9093595Y-12258071D01*
X9093595Y-12258071D02*
X9103119Y-12277119D01*
X9103119Y-12277119D02*
X9112643Y-12315214D01*
X9112643Y-12315214D02*
X9112643Y-12362833D01*
X9112643Y-12362833D02*
X9103119Y-12400928D01*
X9103119Y-12400928D02*
X9093595Y-12419976D01*
X9093595Y-12419976D02*
X9084072Y-12429500D01*
X9084072Y-12429500D02*
X9065024Y-12439024D01*
X9065024Y-12439024D02*
X9045976Y-12439024D01*
X9045976Y-12439024D02*
X9026929Y-12429500D01*
X9026929Y-12429500D02*
X9017405Y-12419976D01*
X9017405Y-12419976D02*
X9007881Y-12400928D01*
X9007881Y-12400928D02*
X8998357Y-12362833D01*
X8998357Y-12362833D02*
X8998357Y-12315214D01*
X8998357Y-12315214D02*
X9007881Y-12277119D01*
X9007881Y-12277119D02*
X9017405Y-12258071D01*
X9017405Y-12258071D02*
X9026929Y-12248548D01*
X9026929Y-12248548D02*
X9045976Y-12239024D01*
X9198357Y-12419976D02*
X9207881Y-12429500D01*
X9207881Y-12429500D02*
X9198357Y-12439024D01*
X9198357Y-12439024D02*
X9188834Y-12429500D01*
X9188834Y-12429500D02*
X9198357Y-12419976D01*
X9198357Y-12419976D02*
X9198357Y-12439024D01*
X9331691Y-12239024D02*
X9350738Y-12239024D01*
X9350738Y-12239024D02*
X9369786Y-12248548D01*
X9369786Y-12248548D02*
X9379310Y-12258071D01*
X9379310Y-12258071D02*
X9388834Y-12277119D01*
X9388834Y-12277119D02*
X9398357Y-12315214D01*
X9398357Y-12315214D02*
X9398357Y-12362833D01*
X9398357Y-12362833D02*
X9388834Y-12400928D01*
X9388834Y-12400928D02*
X9379310Y-12419976D01*
X9379310Y-12419976D02*
X9369786Y-12429500D01*
X9369786Y-12429500D02*
X9350738Y-12439024D01*
X9350738Y-12439024D02*
X9331691Y-12439024D01*
X9331691Y-12439024D02*
X9312643Y-12429500D01*
X9312643Y-12429500D02*
X9303119Y-12419976D01*
X9303119Y-12419976D02*
X9293595Y-12400928D01*
X9293595Y-12400928D02*
X9284072Y-12362833D01*
X9284072Y-12362833D02*
X9284072Y-12315214D01*
X9284072Y-12315214D02*
X9293595Y-12277119D01*
X9293595Y-12277119D02*
X9303119Y-12258071D01*
X9303119Y-12258071D02*
X9312643Y-12248548D01*
X9312643Y-12248548D02*
X9331691Y-12239024D01*
X9465024Y-12239024D02*
X9588834Y-12239024D01*
X9588834Y-12239024D02*
X9522167Y-12315214D01*
X9522167Y-12315214D02*
X9550738Y-12315214D01*
X9550738Y-12315214D02*
X9569786Y-12324738D01*
X9569786Y-12324738D02*
X9579310Y-12334262D01*
X9579310Y-12334262D02*
X9588834Y-12353309D01*
X9588834Y-12353309D02*
X9588834Y-12400928D01*
X9588834Y-12400928D02*
X9579310Y-12419976D01*
X9579310Y-12419976D02*
X9569786Y-12429500D01*
X9569786Y-12429500D02*
X9550738Y-12439024D01*
X9550738Y-12439024D02*
X9493595Y-12439024D01*
X9493595Y-12439024D02*
X9474548Y-12429500D01*
X9474548Y-12429500D02*
X9465024Y-12419976D01*
X9779310Y-12439024D02*
X9665024Y-12439024D01*
X9722167Y-12439024D02*
X9722167Y-12239024D01*
X9722167Y-12239024D02*
X9703119Y-12267595D01*
X9703119Y-12267595D02*
X9684072Y-12286643D01*
X9684072Y-12286643D02*
X9665024Y-12296167D01*
X9960262Y-12239024D02*
X9865024Y-12239024D01*
X9865024Y-12239024D02*
X9855500Y-12334262D01*
X9855500Y-12334262D02*
X9865024Y-12324738D01*
X9865024Y-12324738D02*
X9884072Y-12315214D01*
X9884072Y-12315214D02*
X9931691Y-12315214D01*
X9931691Y-12315214D02*
X9950738Y-12324738D01*
X9950738Y-12324738D02*
X9960262Y-12334262D01*
X9960262Y-12334262D02*
X9969786Y-12353309D01*
X9969786Y-12353309D02*
X9969786Y-12400928D01*
X9969786Y-12400928D02*
X9960262Y-12419976D01*
X9960262Y-12419976D02*
X9950738Y-12429500D01*
X9950738Y-12429500D02*
X9931691Y-12439024D01*
X9931691Y-12439024D02*
X9884072Y-12439024D01*
X9884072Y-12439024D02*
X9865024Y-12429500D01*
X9865024Y-12429500D02*
X9855500Y-12419976D01*
X10045976Y-12239024D02*
X10045976Y-12277119D01*
X10122167Y-12239024D02*
X10122167Y-12277119D01*
X10417405Y-12515214D02*
X10407881Y-12505690D01*
X10407881Y-12505690D02*
X10388834Y-12477119D01*
X10388834Y-12477119D02*
X10379310Y-12458071D01*
X10379310Y-12458071D02*
X10369786Y-12429500D01*
X10369786Y-12429500D02*
X10360262Y-12381881D01*
X10360262Y-12381881D02*
X10360262Y-12343786D01*
X10360262Y-12343786D02*
X10369786Y-12296167D01*
X10369786Y-12296167D02*
X10379310Y-12267595D01*
X10379310Y-12267595D02*
X10388834Y-12248548D01*
X10388834Y-12248548D02*
X10407881Y-12219976D01*
X10407881Y-12219976D02*
X10417405Y-12210452D01*
X10484072Y-12258071D02*
X10493596Y-12248548D01*
X10493596Y-12248548D02*
X10512643Y-12239024D01*
X10512643Y-12239024D02*
X10560262Y-12239024D01*
X10560262Y-12239024D02*
X10579310Y-12248548D01*
X10579310Y-12248548D02*
X10588834Y-12258071D01*
X10588834Y-12258071D02*
X10598357Y-12277119D01*
X10598357Y-12277119D02*
X10598357Y-12296167D01*
X10598357Y-12296167D02*
X10588834Y-12324738D01*
X10588834Y-12324738D02*
X10474548Y-12439024D01*
X10474548Y-12439024D02*
X10598357Y-12439024D01*
X10693596Y-12439024D02*
X10731691Y-12439024D01*
X10731691Y-12439024D02*
X10750738Y-12429500D01*
X10750738Y-12429500D02*
X10760262Y-12419976D01*
X10760262Y-12419976D02*
X10779310Y-12391405D01*
X10779310Y-12391405D02*
X10788834Y-12353309D01*
X10788834Y-12353309D02*
X10788834Y-12277119D01*
X10788834Y-12277119D02*
X10779310Y-12258071D01*
X10779310Y-12258071D02*
X10769786Y-12248548D01*
X10769786Y-12248548D02*
X10750738Y-12239024D01*
X10750738Y-12239024D02*
X10712643Y-12239024D01*
X10712643Y-12239024D02*
X10693596Y-12248548D01*
X10693596Y-12248548D02*
X10684072Y-12258071D01*
X10684072Y-12258071D02*
X10674548Y-12277119D01*
X10674548Y-12277119D02*
X10674548Y-12324738D01*
X10674548Y-12324738D02*
X10684072Y-12343786D01*
X10684072Y-12343786D02*
X10693596Y-12353309D01*
X10693596Y-12353309D02*
X10712643Y-12362833D01*
X10712643Y-12362833D02*
X10750738Y-12362833D01*
X10750738Y-12362833D02*
X10769786Y-12353309D01*
X10769786Y-12353309D02*
X10779310Y-12343786D01*
X10779310Y-12343786D02*
X10788834Y-12324738D01*
X11026929Y-12439024D02*
X11026929Y-12239024D01*
X11112643Y-12439024D02*
X11112643Y-12334262D01*
X11112643Y-12334262D02*
X11103119Y-12315214D01*
X11103119Y-12315214D02*
X11084072Y-12305690D01*
X11084072Y-12305690D02*
X11055500Y-12305690D01*
X11055500Y-12305690D02*
X11036453Y-12315214D01*
X11036453Y-12315214D02*
X11026929Y-12324738D01*
X11236453Y-12439024D02*
X11217405Y-12429500D01*
X11217405Y-12429500D02*
X11207881Y-12419976D01*
X11207881Y-12419976D02*
X11198357Y-12400928D01*
X11198357Y-12400928D02*
X11198357Y-12343786D01*
X11198357Y-12343786D02*
X11207881Y-12324738D01*
X11207881Y-12324738D02*
X11217405Y-12315214D01*
X11217405Y-12315214D02*
X11236453Y-12305690D01*
X11236453Y-12305690D02*
X11265024Y-12305690D01*
X11265024Y-12305690D02*
X11284072Y-12315214D01*
X11284072Y-12315214D02*
X11293596Y-12324738D01*
X11293596Y-12324738D02*
X11303119Y-12343786D01*
X11303119Y-12343786D02*
X11303119Y-12400928D01*
X11303119Y-12400928D02*
X11293596Y-12419976D01*
X11293596Y-12419976D02*
X11284072Y-12429500D01*
X11284072Y-12429500D02*
X11265024Y-12439024D01*
X11265024Y-12439024D02*
X11236453Y-12439024D01*
X11417405Y-12439024D02*
X11398357Y-12429500D01*
X11398357Y-12429500D02*
X11388834Y-12410452D01*
X11388834Y-12410452D02*
X11388834Y-12239024D01*
X11569786Y-12429500D02*
X11550738Y-12439024D01*
X11550738Y-12439024D02*
X11512643Y-12439024D01*
X11512643Y-12439024D02*
X11493596Y-12429500D01*
X11493596Y-12429500D02*
X11484072Y-12410452D01*
X11484072Y-12410452D02*
X11484072Y-12334262D01*
X11484072Y-12334262D02*
X11493596Y-12315214D01*
X11493596Y-12315214D02*
X11512643Y-12305690D01*
X11512643Y-12305690D02*
X11550738Y-12305690D01*
X11550738Y-12305690D02*
X11569786Y-12315214D01*
X11569786Y-12315214D02*
X11579310Y-12334262D01*
X11579310Y-12334262D02*
X11579310Y-12353309D01*
X11579310Y-12353309D02*
X11484072Y-12372357D01*
X11655500Y-12429500D02*
X11674548Y-12439024D01*
X11674548Y-12439024D02*
X11712643Y-12439024D01*
X11712643Y-12439024D02*
X11731691Y-12429500D01*
X11731691Y-12429500D02*
X11741215Y-12410452D01*
X11741215Y-12410452D02*
X11741215Y-12400928D01*
X11741215Y-12400928D02*
X11731691Y-12381881D01*
X11731691Y-12381881D02*
X11712643Y-12372357D01*
X11712643Y-12372357D02*
X11684072Y-12372357D01*
X11684072Y-12372357D02*
X11665024Y-12362833D01*
X11665024Y-12362833D02*
X11655500Y-12343786D01*
X11655500Y-12343786D02*
X11655500Y-12334262D01*
X11655500Y-12334262D02*
X11665024Y-12315214D01*
X11665024Y-12315214D02*
X11684072Y-12305690D01*
X11684072Y-12305690D02*
X11712643Y-12305690D01*
X11712643Y-12305690D02*
X11731691Y-12315214D01*
X11807881Y-12515214D02*
X11817405Y-12505690D01*
X11817405Y-12505690D02*
X11836453Y-12477119D01*
X11836453Y-12477119D02*
X11845977Y-12458071D01*
X11845977Y-12458071D02*
X11855500Y-12429500D01*
X11855500Y-12429500D02*
X11865024Y-12381881D01*
X11865024Y-12381881D02*
X11865024Y-12343786D01*
X11865024Y-12343786D02*
X11855500Y-12296167D01*
X11855500Y-12296167D02*
X11845977Y-12267595D01*
X11845977Y-12267595D02*
X11836453Y-12248548D01*
X11836453Y-12248548D02*
X11817405Y-12219976D01*
X11817405Y-12219976D02*
X11807881Y-12210452D01*
D15*
X6841588Y-12644088D02*
X6841588Y-12576912D01*
X6774412Y-12576912D01*
X6774412Y-12644088D01*
X6841588Y-12644088D01*
D11*
X7141214Y-12503024D02*
X7160262Y-12503024D01*
X7160262Y-12503024D02*
X7179309Y-12512548D01*
X7179309Y-12512548D02*
X7188833Y-12522071D01*
X7188833Y-12522071D02*
X7198357Y-12541119D01*
X7198357Y-12541119D02*
X7207881Y-12579214D01*
X7207881Y-12579214D02*
X7207881Y-12626833D01*
X7207881Y-12626833D02*
X7198357Y-12664928D01*
X7198357Y-12664928D02*
X7188833Y-12683976D01*
X7188833Y-12683976D02*
X7179309Y-12693500D01*
X7179309Y-12693500D02*
X7160262Y-12703024D01*
X7160262Y-12703024D02*
X7141214Y-12703024D01*
X7141214Y-12703024D02*
X7122167Y-12693500D01*
X7122167Y-12693500D02*
X7112643Y-12683976D01*
X7112643Y-12683976D02*
X7103119Y-12664928D01*
X7103119Y-12664928D02*
X7093595Y-12626833D01*
X7093595Y-12626833D02*
X7093595Y-12579214D01*
X7093595Y-12579214D02*
X7103119Y-12541119D01*
X7103119Y-12541119D02*
X7112643Y-12522071D01*
X7112643Y-12522071D02*
X7122167Y-12512548D01*
X7122167Y-12512548D02*
X7141214Y-12503024D01*
X7293595Y-12683976D02*
X7303119Y-12693500D01*
X7303119Y-12693500D02*
X7293595Y-12703024D01*
X7293595Y-12703024D02*
X7284071Y-12693500D01*
X7284071Y-12693500D02*
X7293595Y-12683976D01*
X7293595Y-12683976D02*
X7293595Y-12703024D01*
X7398357Y-12703024D02*
X7436452Y-12703024D01*
X7436452Y-12703024D02*
X7455500Y-12693500D01*
X7455500Y-12693500D02*
X7465024Y-12683976D01*
X7465024Y-12683976D02*
X7484071Y-12655405D01*
X7484071Y-12655405D02*
X7493595Y-12617309D01*
X7493595Y-12617309D02*
X7493595Y-12541119D01*
X7493595Y-12541119D02*
X7484071Y-12522071D01*
X7484071Y-12522071D02*
X7474548Y-12512548D01*
X7474548Y-12512548D02*
X7455500Y-12503024D01*
X7455500Y-12503024D02*
X7417405Y-12503024D01*
X7417405Y-12503024D02*
X7398357Y-12512548D01*
X7398357Y-12512548D02*
X7388833Y-12522071D01*
X7388833Y-12522071D02*
X7379309Y-12541119D01*
X7379309Y-12541119D02*
X7379309Y-12588738D01*
X7379309Y-12588738D02*
X7388833Y-12607786D01*
X7388833Y-12607786D02*
X7398357Y-12617309D01*
X7398357Y-12617309D02*
X7417405Y-12626833D01*
X7417405Y-12626833D02*
X7455500Y-12626833D01*
X7455500Y-12626833D02*
X7474548Y-12617309D01*
X7474548Y-12617309D02*
X7484071Y-12607786D01*
X7484071Y-12607786D02*
X7493595Y-12588738D01*
X7674548Y-12503024D02*
X7579309Y-12503024D01*
X7579309Y-12503024D02*
X7569786Y-12598262D01*
X7569786Y-12598262D02*
X7579309Y-12588738D01*
X7579309Y-12588738D02*
X7598357Y-12579214D01*
X7598357Y-12579214D02*
X7645976Y-12579214D01*
X7645976Y-12579214D02*
X7665024Y-12588738D01*
X7665024Y-12588738D02*
X7674548Y-12598262D01*
X7674548Y-12598262D02*
X7684071Y-12617309D01*
X7684071Y-12617309D02*
X7684071Y-12664928D01*
X7684071Y-12664928D02*
X7674548Y-12683976D01*
X7674548Y-12683976D02*
X7665024Y-12693500D01*
X7665024Y-12693500D02*
X7645976Y-12703024D01*
X7645976Y-12703024D02*
X7598357Y-12703024D01*
X7598357Y-12703024D02*
X7579309Y-12693500D01*
X7579309Y-12693500D02*
X7569786Y-12683976D01*
X7807881Y-12503024D02*
X7826929Y-12503024D01*
X7826929Y-12503024D02*
X7845976Y-12512548D01*
X7845976Y-12512548D02*
X7855500Y-12522071D01*
X7855500Y-12522071D02*
X7865024Y-12541119D01*
X7865024Y-12541119D02*
X7874548Y-12579214D01*
X7874548Y-12579214D02*
X7874548Y-12626833D01*
X7874548Y-12626833D02*
X7865024Y-12664928D01*
X7865024Y-12664928D02*
X7855500Y-12683976D01*
X7855500Y-12683976D02*
X7845976Y-12693500D01*
X7845976Y-12693500D02*
X7826929Y-12703024D01*
X7826929Y-12703024D02*
X7807881Y-12703024D01*
X7807881Y-12703024D02*
X7788833Y-12693500D01*
X7788833Y-12693500D02*
X7779309Y-12683976D01*
X7779309Y-12683976D02*
X7769786Y-12664928D01*
X7769786Y-12664928D02*
X7760262Y-12626833D01*
X7760262Y-12626833D02*
X7760262Y-12579214D01*
X7760262Y-12579214D02*
X7769786Y-12541119D01*
X7769786Y-12541119D02*
X7779309Y-12522071D01*
X7779309Y-12522071D02*
X7788833Y-12512548D01*
X7788833Y-12512548D02*
X7807881Y-12503024D01*
X7960262Y-12703024D02*
X7960262Y-12569690D01*
X7960262Y-12588738D02*
X7969786Y-12579214D01*
X7969786Y-12579214D02*
X7988833Y-12569690D01*
X7988833Y-12569690D02*
X8017405Y-12569690D01*
X8017405Y-12569690D02*
X8036452Y-12579214D01*
X8036452Y-12579214D02*
X8045976Y-12598262D01*
X8045976Y-12598262D02*
X8045976Y-12703024D01*
X8045976Y-12598262D02*
X8055500Y-12579214D01*
X8055500Y-12579214D02*
X8074548Y-12569690D01*
X8074548Y-12569690D02*
X8103119Y-12569690D01*
X8103119Y-12569690D02*
X8122167Y-12579214D01*
X8122167Y-12579214D02*
X8131690Y-12598262D01*
X8131690Y-12598262D02*
X8131690Y-12703024D01*
X8226929Y-12703024D02*
X8226929Y-12569690D01*
X8226929Y-12588738D02*
X8236452Y-12579214D01*
X8236452Y-12579214D02*
X8255500Y-12569690D01*
X8255500Y-12569690D02*
X8284071Y-12569690D01*
X8284071Y-12569690D02*
X8303119Y-12579214D01*
X8303119Y-12579214D02*
X8312643Y-12598262D01*
X8312643Y-12598262D02*
X8312643Y-12703024D01*
X8312643Y-12598262D02*
X8322167Y-12579214D01*
X8322167Y-12579214D02*
X8341214Y-12569690D01*
X8341214Y-12569690D02*
X8369786Y-12569690D01*
X8369786Y-12569690D02*
X8388833Y-12579214D01*
X8388833Y-12579214D02*
X8398357Y-12598262D01*
X8398357Y-12598262D02*
X8398357Y-12703024D01*
X8788833Y-12493500D02*
X8617405Y-12750643D01*
X9045976Y-12503024D02*
X9065024Y-12503024D01*
X9065024Y-12503024D02*
X9084072Y-12512548D01*
X9084072Y-12512548D02*
X9093595Y-12522071D01*
X9093595Y-12522071D02*
X9103119Y-12541119D01*
X9103119Y-12541119D02*
X9112643Y-12579214D01*
X9112643Y-12579214D02*
X9112643Y-12626833D01*
X9112643Y-12626833D02*
X9103119Y-12664928D01*
X9103119Y-12664928D02*
X9093595Y-12683976D01*
X9093595Y-12683976D02*
X9084072Y-12693500D01*
X9084072Y-12693500D02*
X9065024Y-12703024D01*
X9065024Y-12703024D02*
X9045976Y-12703024D01*
X9045976Y-12703024D02*
X9026929Y-12693500D01*
X9026929Y-12693500D02*
X9017405Y-12683976D01*
X9017405Y-12683976D02*
X9007881Y-12664928D01*
X9007881Y-12664928D02*
X8998357Y-12626833D01*
X8998357Y-12626833D02*
X8998357Y-12579214D01*
X8998357Y-12579214D02*
X9007881Y-12541119D01*
X9007881Y-12541119D02*
X9017405Y-12522071D01*
X9017405Y-12522071D02*
X9026929Y-12512548D01*
X9026929Y-12512548D02*
X9045976Y-12503024D01*
X9198357Y-12683976D02*
X9207881Y-12693500D01*
X9207881Y-12693500D02*
X9198357Y-12703024D01*
X9198357Y-12703024D02*
X9188834Y-12693500D01*
X9188834Y-12693500D02*
X9198357Y-12683976D01*
X9198357Y-12683976D02*
X9198357Y-12703024D01*
X9331691Y-12503024D02*
X9350738Y-12503024D01*
X9350738Y-12503024D02*
X9369786Y-12512548D01*
X9369786Y-12512548D02*
X9379310Y-12522071D01*
X9379310Y-12522071D02*
X9388834Y-12541119D01*
X9388834Y-12541119D02*
X9398357Y-12579214D01*
X9398357Y-12579214D02*
X9398357Y-12626833D01*
X9398357Y-12626833D02*
X9388834Y-12664928D01*
X9388834Y-12664928D02*
X9379310Y-12683976D01*
X9379310Y-12683976D02*
X9369786Y-12693500D01*
X9369786Y-12693500D02*
X9350738Y-12703024D01*
X9350738Y-12703024D02*
X9331691Y-12703024D01*
X9331691Y-12703024D02*
X9312643Y-12693500D01*
X9312643Y-12693500D02*
X9303119Y-12683976D01*
X9303119Y-12683976D02*
X9293595Y-12664928D01*
X9293595Y-12664928D02*
X9284072Y-12626833D01*
X9284072Y-12626833D02*
X9284072Y-12579214D01*
X9284072Y-12579214D02*
X9293595Y-12541119D01*
X9293595Y-12541119D02*
X9303119Y-12522071D01*
X9303119Y-12522071D02*
X9312643Y-12512548D01*
X9312643Y-12512548D02*
X9331691Y-12503024D01*
X9465024Y-12503024D02*
X9588834Y-12503024D01*
X9588834Y-12503024D02*
X9522167Y-12579214D01*
X9522167Y-12579214D02*
X9550738Y-12579214D01*
X9550738Y-12579214D02*
X9569786Y-12588738D01*
X9569786Y-12588738D02*
X9579310Y-12598262D01*
X9579310Y-12598262D02*
X9588834Y-12617309D01*
X9588834Y-12617309D02*
X9588834Y-12664928D01*
X9588834Y-12664928D02*
X9579310Y-12683976D01*
X9579310Y-12683976D02*
X9569786Y-12693500D01*
X9569786Y-12693500D02*
X9550738Y-12703024D01*
X9550738Y-12703024D02*
X9493595Y-12703024D01*
X9493595Y-12703024D02*
X9474548Y-12693500D01*
X9474548Y-12693500D02*
X9465024Y-12683976D01*
X9655500Y-12503024D02*
X9788834Y-12503024D01*
X9788834Y-12503024D02*
X9703119Y-12703024D01*
X9950738Y-12569690D02*
X9950738Y-12703024D01*
X9903119Y-12493500D02*
X9855500Y-12636357D01*
X9855500Y-12636357D02*
X9979310Y-12636357D01*
X10045976Y-12503024D02*
X10045976Y-12541119D01*
X10122167Y-12503024D02*
X10122167Y-12541119D01*
X10417405Y-12779214D02*
X10407881Y-12769690D01*
X10407881Y-12769690D02*
X10388834Y-12741119D01*
X10388834Y-12741119D02*
X10379310Y-12722071D01*
X10379310Y-12722071D02*
X10369786Y-12693500D01*
X10369786Y-12693500D02*
X10360262Y-12645881D01*
X10360262Y-12645881D02*
X10360262Y-12607786D01*
X10360262Y-12607786D02*
X10369786Y-12560167D01*
X10369786Y-12560167D02*
X10379310Y-12531595D01*
X10379310Y-12531595D02*
X10388834Y-12512548D01*
X10388834Y-12512548D02*
X10407881Y-12483976D01*
X10407881Y-12483976D02*
X10417405Y-12474452D01*
X10503119Y-12703024D02*
X10541215Y-12703024D01*
X10541215Y-12703024D02*
X10560262Y-12693500D01*
X10560262Y-12693500D02*
X10569786Y-12683976D01*
X10569786Y-12683976D02*
X10588834Y-12655405D01*
X10588834Y-12655405D02*
X10598357Y-12617309D01*
X10598357Y-12617309D02*
X10598357Y-12541119D01*
X10598357Y-12541119D02*
X10588834Y-12522071D01*
X10588834Y-12522071D02*
X10579310Y-12512548D01*
X10579310Y-12512548D02*
X10560262Y-12503024D01*
X10560262Y-12503024D02*
X10522167Y-12503024D01*
X10522167Y-12503024D02*
X10503119Y-12512548D01*
X10503119Y-12512548D02*
X10493596Y-12522071D01*
X10493596Y-12522071D02*
X10484072Y-12541119D01*
X10484072Y-12541119D02*
X10484072Y-12588738D01*
X10484072Y-12588738D02*
X10493596Y-12607786D01*
X10493596Y-12607786D02*
X10503119Y-12617309D01*
X10503119Y-12617309D02*
X10522167Y-12626833D01*
X10522167Y-12626833D02*
X10560262Y-12626833D01*
X10560262Y-12626833D02*
X10579310Y-12617309D01*
X10579310Y-12617309D02*
X10588834Y-12607786D01*
X10588834Y-12607786D02*
X10598357Y-12588738D01*
X10836453Y-12703024D02*
X10836453Y-12503024D01*
X10922167Y-12703024D02*
X10922167Y-12598262D01*
X10922167Y-12598262D02*
X10912643Y-12579214D01*
X10912643Y-12579214D02*
X10893596Y-12569690D01*
X10893596Y-12569690D02*
X10865024Y-12569690D01*
X10865024Y-12569690D02*
X10845977Y-12579214D01*
X10845977Y-12579214D02*
X10836453Y-12588738D01*
X11045977Y-12703024D02*
X11026929Y-12693500D01*
X11026929Y-12693500D02*
X11017405Y-12683976D01*
X11017405Y-12683976D02*
X11007881Y-12664928D01*
X11007881Y-12664928D02*
X11007881Y-12607786D01*
X11007881Y-12607786D02*
X11017405Y-12588738D01*
X11017405Y-12588738D02*
X11026929Y-12579214D01*
X11026929Y-12579214D02*
X11045977Y-12569690D01*
X11045977Y-12569690D02*
X11074548Y-12569690D01*
X11074548Y-12569690D02*
X11093596Y-12579214D01*
X11093596Y-12579214D02*
X11103119Y-12588738D01*
X11103119Y-12588738D02*
X11112643Y-12607786D01*
X11112643Y-12607786D02*
X11112643Y-12664928D01*
X11112643Y-12664928D02*
X11103119Y-12683976D01*
X11103119Y-12683976D02*
X11093596Y-12693500D01*
X11093596Y-12693500D02*
X11074548Y-12703024D01*
X11074548Y-12703024D02*
X11045977Y-12703024D01*
X11226929Y-12703024D02*
X11207881Y-12693500D01*
X11207881Y-12693500D02*
X11198357Y-12674452D01*
X11198357Y-12674452D02*
X11198357Y-12503024D01*
X11379310Y-12693500D02*
X11360262Y-12703024D01*
X11360262Y-12703024D02*
X11322167Y-12703024D01*
X11322167Y-12703024D02*
X11303119Y-12693500D01*
X11303119Y-12693500D02*
X11293596Y-12674452D01*
X11293596Y-12674452D02*
X11293596Y-12598262D01*
X11293596Y-12598262D02*
X11303119Y-12579214D01*
X11303119Y-12579214D02*
X11322167Y-12569690D01*
X11322167Y-12569690D02*
X11360262Y-12569690D01*
X11360262Y-12569690D02*
X11379310Y-12579214D01*
X11379310Y-12579214D02*
X11388834Y-12598262D01*
X11388834Y-12598262D02*
X11388834Y-12617309D01*
X11388834Y-12617309D02*
X11293596Y-12636357D01*
X11465024Y-12693500D02*
X11484072Y-12703024D01*
X11484072Y-12703024D02*
X11522167Y-12703024D01*
X11522167Y-12703024D02*
X11541215Y-12693500D01*
X11541215Y-12693500D02*
X11550738Y-12674452D01*
X11550738Y-12674452D02*
X11550738Y-12664928D01*
X11550738Y-12664928D02*
X11541215Y-12645881D01*
X11541215Y-12645881D02*
X11522167Y-12636357D01*
X11522167Y-12636357D02*
X11493596Y-12636357D01*
X11493596Y-12636357D02*
X11474548Y-12626833D01*
X11474548Y-12626833D02*
X11465024Y-12607786D01*
X11465024Y-12607786D02*
X11465024Y-12598262D01*
X11465024Y-12598262D02*
X11474548Y-12579214D01*
X11474548Y-12579214D02*
X11493596Y-12569690D01*
X11493596Y-12569690D02*
X11522167Y-12569690D01*
X11522167Y-12569690D02*
X11541215Y-12579214D01*
X11617405Y-12779214D02*
X11626929Y-12769690D01*
X11626929Y-12769690D02*
X11645977Y-12741119D01*
X11645977Y-12741119D02*
X11655500Y-12722071D01*
X11655500Y-12722071D02*
X11665024Y-12693500D01*
X11665024Y-12693500D02*
X11674548Y-12645881D01*
X11674548Y-12645881D02*
X11674548Y-12607786D01*
X11674548Y-12607786D02*
X11665024Y-12560167D01*
X11665024Y-12560167D02*
X11655500Y-12531595D01*
X11655500Y-12531595D02*
X11645977Y-12512548D01*
X11645977Y-12512548D02*
X11626929Y-12483976D01*
X11626929Y-12483976D02*
X11617405Y-12474452D01*
D16*
X6805500Y-12924500D02*
X6855500Y-12874500D01*
X6805500Y-12824500D01*
X6755500Y-12874500D01*
X6805500Y-12924500D01*
D11*
X7207881Y-12967024D02*
X7093595Y-12967024D01*
X7150738Y-12967024D02*
X7150738Y-12767024D01*
X7150738Y-12767024D02*
X7131690Y-12795595D01*
X7131690Y-12795595D02*
X7112643Y-12814643D01*
X7112643Y-12814643D02*
X7093595Y-12824167D01*
X7293595Y-12947976D02*
X7303119Y-12957500D01*
X7303119Y-12957500D02*
X7293595Y-12967024D01*
X7293595Y-12967024D02*
X7284071Y-12957500D01*
X7284071Y-12957500D02*
X7293595Y-12947976D01*
X7293595Y-12947976D02*
X7293595Y-12967024D01*
X7426928Y-12767024D02*
X7445976Y-12767024D01*
X7445976Y-12767024D02*
X7465024Y-12776548D01*
X7465024Y-12776548D02*
X7474548Y-12786071D01*
X7474548Y-12786071D02*
X7484071Y-12805119D01*
X7484071Y-12805119D02*
X7493595Y-12843214D01*
X7493595Y-12843214D02*
X7493595Y-12890833D01*
X7493595Y-12890833D02*
X7484071Y-12928928D01*
X7484071Y-12928928D02*
X7474548Y-12947976D01*
X7474548Y-12947976D02*
X7465024Y-12957500D01*
X7465024Y-12957500D02*
X7445976Y-12967024D01*
X7445976Y-12967024D02*
X7426928Y-12967024D01*
X7426928Y-12967024D02*
X7407881Y-12957500D01*
X7407881Y-12957500D02*
X7398357Y-12947976D01*
X7398357Y-12947976D02*
X7388833Y-12928928D01*
X7388833Y-12928928D02*
X7379309Y-12890833D01*
X7379309Y-12890833D02*
X7379309Y-12843214D01*
X7379309Y-12843214D02*
X7388833Y-12805119D01*
X7388833Y-12805119D02*
X7398357Y-12786071D01*
X7398357Y-12786071D02*
X7407881Y-12776548D01*
X7407881Y-12776548D02*
X7426928Y-12767024D01*
X7617405Y-12767024D02*
X7636452Y-12767024D01*
X7636452Y-12767024D02*
X7655500Y-12776548D01*
X7655500Y-12776548D02*
X7665024Y-12786071D01*
X7665024Y-12786071D02*
X7674548Y-12805119D01*
X7674548Y-12805119D02*
X7684071Y-12843214D01*
X7684071Y-12843214D02*
X7684071Y-12890833D01*
X7684071Y-12890833D02*
X7674548Y-12928928D01*
X7674548Y-12928928D02*
X7665024Y-12947976D01*
X7665024Y-12947976D02*
X7655500Y-12957500D01*
X7655500Y-12957500D02*
X7636452Y-12967024D01*
X7636452Y-12967024D02*
X7617405Y-12967024D01*
X7617405Y-12967024D02*
X7598357Y-12957500D01*
X7598357Y-12957500D02*
X7588833Y-12947976D01*
X7588833Y-12947976D02*
X7579309Y-12928928D01*
X7579309Y-12928928D02*
X7569786Y-12890833D01*
X7569786Y-12890833D02*
X7569786Y-12843214D01*
X7569786Y-12843214D02*
X7579309Y-12805119D01*
X7579309Y-12805119D02*
X7588833Y-12786071D01*
X7588833Y-12786071D02*
X7598357Y-12776548D01*
X7598357Y-12776548D02*
X7617405Y-12767024D01*
X7807881Y-12767024D02*
X7826929Y-12767024D01*
X7826929Y-12767024D02*
X7845976Y-12776548D01*
X7845976Y-12776548D02*
X7855500Y-12786071D01*
X7855500Y-12786071D02*
X7865024Y-12805119D01*
X7865024Y-12805119D02*
X7874548Y-12843214D01*
X7874548Y-12843214D02*
X7874548Y-12890833D01*
X7874548Y-12890833D02*
X7865024Y-12928928D01*
X7865024Y-12928928D02*
X7855500Y-12947976D01*
X7855500Y-12947976D02*
X7845976Y-12957500D01*
X7845976Y-12957500D02*
X7826929Y-12967024D01*
X7826929Y-12967024D02*
X7807881Y-12967024D01*
X7807881Y-12967024D02*
X7788833Y-12957500D01*
X7788833Y-12957500D02*
X7779309Y-12947976D01*
X7779309Y-12947976D02*
X7769786Y-12928928D01*
X7769786Y-12928928D02*
X7760262Y-12890833D01*
X7760262Y-12890833D02*
X7760262Y-12843214D01*
X7760262Y-12843214D02*
X7769786Y-12805119D01*
X7769786Y-12805119D02*
X7779309Y-12786071D01*
X7779309Y-12786071D02*
X7788833Y-12776548D01*
X7788833Y-12776548D02*
X7807881Y-12767024D01*
X7960262Y-12967024D02*
X7960262Y-12833690D01*
X7960262Y-12852738D02*
X7969786Y-12843214D01*
X7969786Y-12843214D02*
X7988833Y-12833690D01*
X7988833Y-12833690D02*
X8017405Y-12833690D01*
X8017405Y-12833690D02*
X8036452Y-12843214D01*
X8036452Y-12843214D02*
X8045976Y-12862262D01*
X8045976Y-12862262D02*
X8045976Y-12967024D01*
X8045976Y-12862262D02*
X8055500Y-12843214D01*
X8055500Y-12843214D02*
X8074548Y-12833690D01*
X8074548Y-12833690D02*
X8103119Y-12833690D01*
X8103119Y-12833690D02*
X8122167Y-12843214D01*
X8122167Y-12843214D02*
X8131690Y-12862262D01*
X8131690Y-12862262D02*
X8131690Y-12967024D01*
X8226929Y-12967024D02*
X8226929Y-12833690D01*
X8226929Y-12852738D02*
X8236452Y-12843214D01*
X8236452Y-12843214D02*
X8255500Y-12833690D01*
X8255500Y-12833690D02*
X8284071Y-12833690D01*
X8284071Y-12833690D02*
X8303119Y-12843214D01*
X8303119Y-12843214D02*
X8312643Y-12862262D01*
X8312643Y-12862262D02*
X8312643Y-12967024D01*
X8312643Y-12862262D02*
X8322167Y-12843214D01*
X8322167Y-12843214D02*
X8341214Y-12833690D01*
X8341214Y-12833690D02*
X8369786Y-12833690D01*
X8369786Y-12833690D02*
X8388833Y-12843214D01*
X8388833Y-12843214D02*
X8398357Y-12862262D01*
X8398357Y-12862262D02*
X8398357Y-12967024D01*
X8788833Y-12757500D02*
X8617405Y-13014643D01*
X9045976Y-12767024D02*
X9065024Y-12767024D01*
X9065024Y-12767024D02*
X9084072Y-12776548D01*
X9084072Y-12776548D02*
X9093595Y-12786071D01*
X9093595Y-12786071D02*
X9103119Y-12805119D01*
X9103119Y-12805119D02*
X9112643Y-12843214D01*
X9112643Y-12843214D02*
X9112643Y-12890833D01*
X9112643Y-12890833D02*
X9103119Y-12928928D01*
X9103119Y-12928928D02*
X9093595Y-12947976D01*
X9093595Y-12947976D02*
X9084072Y-12957500D01*
X9084072Y-12957500D02*
X9065024Y-12967024D01*
X9065024Y-12967024D02*
X9045976Y-12967024D01*
X9045976Y-12967024D02*
X9026929Y-12957500D01*
X9026929Y-12957500D02*
X9017405Y-12947976D01*
X9017405Y-12947976D02*
X9007881Y-12928928D01*
X9007881Y-12928928D02*
X8998357Y-12890833D01*
X8998357Y-12890833D02*
X8998357Y-12843214D01*
X8998357Y-12843214D02*
X9007881Y-12805119D01*
X9007881Y-12805119D02*
X9017405Y-12786071D01*
X9017405Y-12786071D02*
X9026929Y-12776548D01*
X9026929Y-12776548D02*
X9045976Y-12767024D01*
X9198357Y-12947976D02*
X9207881Y-12957500D01*
X9207881Y-12957500D02*
X9198357Y-12967024D01*
X9198357Y-12967024D02*
X9188834Y-12957500D01*
X9188834Y-12957500D02*
X9198357Y-12947976D01*
X9198357Y-12947976D02*
X9198357Y-12967024D01*
X9331691Y-12767024D02*
X9350738Y-12767024D01*
X9350738Y-12767024D02*
X9369786Y-12776548D01*
X9369786Y-12776548D02*
X9379310Y-12786071D01*
X9379310Y-12786071D02*
X9388834Y-12805119D01*
X9388834Y-12805119D02*
X9398357Y-12843214D01*
X9398357Y-12843214D02*
X9398357Y-12890833D01*
X9398357Y-12890833D02*
X9388834Y-12928928D01*
X9388834Y-12928928D02*
X9379310Y-12947976D01*
X9379310Y-12947976D02*
X9369786Y-12957500D01*
X9369786Y-12957500D02*
X9350738Y-12967024D01*
X9350738Y-12967024D02*
X9331691Y-12967024D01*
X9331691Y-12967024D02*
X9312643Y-12957500D01*
X9312643Y-12957500D02*
X9303119Y-12947976D01*
X9303119Y-12947976D02*
X9293595Y-12928928D01*
X9293595Y-12928928D02*
X9284072Y-12890833D01*
X9284072Y-12890833D02*
X9284072Y-12843214D01*
X9284072Y-12843214D02*
X9293595Y-12805119D01*
X9293595Y-12805119D02*
X9303119Y-12786071D01*
X9303119Y-12786071D02*
X9312643Y-12776548D01*
X9312643Y-12776548D02*
X9331691Y-12767024D01*
X9465024Y-12767024D02*
X9588834Y-12767024D01*
X9588834Y-12767024D02*
X9522167Y-12843214D01*
X9522167Y-12843214D02*
X9550738Y-12843214D01*
X9550738Y-12843214D02*
X9569786Y-12852738D01*
X9569786Y-12852738D02*
X9579310Y-12862262D01*
X9579310Y-12862262D02*
X9588834Y-12881309D01*
X9588834Y-12881309D02*
X9588834Y-12928928D01*
X9588834Y-12928928D02*
X9579310Y-12947976D01*
X9579310Y-12947976D02*
X9569786Y-12957500D01*
X9569786Y-12957500D02*
X9550738Y-12967024D01*
X9550738Y-12967024D02*
X9493595Y-12967024D01*
X9493595Y-12967024D02*
X9474548Y-12957500D01*
X9474548Y-12957500D02*
X9465024Y-12947976D01*
X9684072Y-12967024D02*
X9722167Y-12967024D01*
X9722167Y-12967024D02*
X9741215Y-12957500D01*
X9741215Y-12957500D02*
X9750738Y-12947976D01*
X9750738Y-12947976D02*
X9769786Y-12919405D01*
X9769786Y-12919405D02*
X9779310Y-12881309D01*
X9779310Y-12881309D02*
X9779310Y-12805119D01*
X9779310Y-12805119D02*
X9769786Y-12786071D01*
X9769786Y-12786071D02*
X9760262Y-12776548D01*
X9760262Y-12776548D02*
X9741215Y-12767024D01*
X9741215Y-12767024D02*
X9703119Y-12767024D01*
X9703119Y-12767024D02*
X9684072Y-12776548D01*
X9684072Y-12776548D02*
X9674548Y-12786071D01*
X9674548Y-12786071D02*
X9665024Y-12805119D01*
X9665024Y-12805119D02*
X9665024Y-12852738D01*
X9665024Y-12852738D02*
X9674548Y-12871786D01*
X9674548Y-12871786D02*
X9684072Y-12881309D01*
X9684072Y-12881309D02*
X9703119Y-12890833D01*
X9703119Y-12890833D02*
X9741215Y-12890833D01*
X9741215Y-12890833D02*
X9760262Y-12881309D01*
X9760262Y-12881309D02*
X9769786Y-12871786D01*
X9769786Y-12871786D02*
X9779310Y-12852738D01*
X9950738Y-12833690D02*
X9950738Y-12967024D01*
X9903119Y-12757500D02*
X9855500Y-12900357D01*
X9855500Y-12900357D02*
X9979310Y-12900357D01*
X10045976Y-12767024D02*
X10045976Y-12805119D01*
X10122167Y-12767024D02*
X10122167Y-12805119D01*
X10417405Y-13043214D02*
X10407881Y-13033690D01*
X10407881Y-13033690D02*
X10388834Y-13005119D01*
X10388834Y-13005119D02*
X10379310Y-12986071D01*
X10379310Y-12986071D02*
X10369786Y-12957500D01*
X10369786Y-12957500D02*
X10360262Y-12909881D01*
X10360262Y-12909881D02*
X10360262Y-12871786D01*
X10360262Y-12871786D02*
X10369786Y-12824167D01*
X10369786Y-12824167D02*
X10379310Y-12795595D01*
X10379310Y-12795595D02*
X10388834Y-12776548D01*
X10388834Y-12776548D02*
X10407881Y-12747976D01*
X10407881Y-12747976D02*
X10417405Y-12738452D01*
X10598357Y-12967024D02*
X10484072Y-12967024D01*
X10541215Y-12967024D02*
X10541215Y-12767024D01*
X10541215Y-12767024D02*
X10522167Y-12795595D01*
X10522167Y-12795595D02*
X10503119Y-12814643D01*
X10503119Y-12814643D02*
X10484072Y-12824167D01*
X10674548Y-12786071D02*
X10684072Y-12776548D01*
X10684072Y-12776548D02*
X10703119Y-12767024D01*
X10703119Y-12767024D02*
X10750738Y-12767024D01*
X10750738Y-12767024D02*
X10769786Y-12776548D01*
X10769786Y-12776548D02*
X10779310Y-12786071D01*
X10779310Y-12786071D02*
X10788834Y-12805119D01*
X10788834Y-12805119D02*
X10788834Y-12824167D01*
X10788834Y-12824167D02*
X10779310Y-12852738D01*
X10779310Y-12852738D02*
X10665024Y-12967024D01*
X10665024Y-12967024D02*
X10788834Y-12967024D01*
X11026929Y-12967024D02*
X11026929Y-12767024D01*
X11112643Y-12967024D02*
X11112643Y-12862262D01*
X11112643Y-12862262D02*
X11103119Y-12843214D01*
X11103119Y-12843214D02*
X11084072Y-12833690D01*
X11084072Y-12833690D02*
X11055500Y-12833690D01*
X11055500Y-12833690D02*
X11036453Y-12843214D01*
X11036453Y-12843214D02*
X11026929Y-12852738D01*
X11236453Y-12967024D02*
X11217405Y-12957500D01*
X11217405Y-12957500D02*
X11207881Y-12947976D01*
X11207881Y-12947976D02*
X11198357Y-12928928D01*
X11198357Y-12928928D02*
X11198357Y-12871786D01*
X11198357Y-12871786D02*
X11207881Y-12852738D01*
X11207881Y-12852738D02*
X11217405Y-12843214D01*
X11217405Y-12843214D02*
X11236453Y-12833690D01*
X11236453Y-12833690D02*
X11265024Y-12833690D01*
X11265024Y-12833690D02*
X11284072Y-12843214D01*
X11284072Y-12843214D02*
X11293596Y-12852738D01*
X11293596Y-12852738D02*
X11303119Y-12871786D01*
X11303119Y-12871786D02*
X11303119Y-12928928D01*
X11303119Y-12928928D02*
X11293596Y-12947976D01*
X11293596Y-12947976D02*
X11284072Y-12957500D01*
X11284072Y-12957500D02*
X11265024Y-12967024D01*
X11265024Y-12967024D02*
X11236453Y-12967024D01*
X11417405Y-12967024D02*
X11398357Y-12957500D01*
X11398357Y-12957500D02*
X11388834Y-12938452D01*
X11388834Y-12938452D02*
X11388834Y-12767024D01*
X11569786Y-12957500D02*
X11550738Y-12967024D01*
X11550738Y-12967024D02*
X11512643Y-12967024D01*
X11512643Y-12967024D02*
X11493596Y-12957500D01*
X11493596Y-12957500D02*
X11484072Y-12938452D01*
X11484072Y-12938452D02*
X11484072Y-12862262D01*
X11484072Y-12862262D02*
X11493596Y-12843214D01*
X11493596Y-12843214D02*
X11512643Y-12833690D01*
X11512643Y-12833690D02*
X11550738Y-12833690D01*
X11550738Y-12833690D02*
X11569786Y-12843214D01*
X11569786Y-12843214D02*
X11579310Y-12862262D01*
X11579310Y-12862262D02*
X11579310Y-12881309D01*
X11579310Y-12881309D02*
X11484072Y-12900357D01*
X11655500Y-12957500D02*
X11674548Y-12967024D01*
X11674548Y-12967024D02*
X11712643Y-12967024D01*
X11712643Y-12967024D02*
X11731691Y-12957500D01*
X11731691Y-12957500D02*
X11741215Y-12938452D01*
X11741215Y-12938452D02*
X11741215Y-12928928D01*
X11741215Y-12928928D02*
X11731691Y-12909881D01*
X11731691Y-12909881D02*
X11712643Y-12900357D01*
X11712643Y-12900357D02*
X11684072Y-12900357D01*
X11684072Y-12900357D02*
X11665024Y-12890833D01*
X11665024Y-12890833D02*
X11655500Y-12871786D01*
X11655500Y-12871786D02*
X11655500Y-12862262D01*
X11655500Y-12862262D02*
X11665024Y-12843214D01*
X11665024Y-12843214D02*
X11684072Y-12833690D01*
X11684072Y-12833690D02*
X11712643Y-12833690D01*
X11712643Y-12833690D02*
X11731691Y-12843214D01*
X11807881Y-13043214D02*
X11817405Y-13033690D01*
X11817405Y-13033690D02*
X11836453Y-13005119D01*
X11836453Y-13005119D02*
X11845977Y-12986071D01*
X11845977Y-12986071D02*
X11855500Y-12957500D01*
X11855500Y-12957500D02*
X11865024Y-12909881D01*
X11865024Y-12909881D02*
X11865024Y-12871786D01*
X11865024Y-12871786D02*
X11855500Y-12824167D01*
X11855500Y-12824167D02*
X11845977Y-12795595D01*
X11845977Y-12795595D02*
X11836453Y-12776548D01*
X11836453Y-12776548D02*
X11817405Y-12747976D01*
X11817405Y-12747976D02*
X11807881Y-12738452D01*
X6655500Y-13038500D02*
X6855500Y-13238500D01*
X6855500Y-13038500D02*
X6655500Y-13238500D01*
X6855500Y-13138500D02*
G75*
G03*
X6855500Y-13138500I-100000J0D01*
G01*
X7093595Y-13050071D02*
X7103119Y-13040548D01*
X7103119Y-13040548D02*
X7122167Y-13031024D01*
X7122167Y-13031024D02*
X7169786Y-13031024D01*
X7169786Y-13031024D02*
X7188833Y-13040548D01*
X7188833Y-13040548D02*
X7198357Y-13050071D01*
X7198357Y-13050071D02*
X7207881Y-13069119D01*
X7207881Y-13069119D02*
X7207881Y-13088167D01*
X7207881Y-13088167D02*
X7198357Y-13116738D01*
X7198357Y-13116738D02*
X7084071Y-13231024D01*
X7084071Y-13231024D02*
X7207881Y-13231024D01*
X7293595Y-13211976D02*
X7303119Y-13221500D01*
X7303119Y-13221500D02*
X7293595Y-13231024D01*
X7293595Y-13231024D02*
X7284071Y-13221500D01*
X7284071Y-13221500D02*
X7293595Y-13211976D01*
X7293595Y-13211976D02*
X7293595Y-13231024D01*
X7379309Y-13050071D02*
X7388833Y-13040548D01*
X7388833Y-13040548D02*
X7407881Y-13031024D01*
X7407881Y-13031024D02*
X7455500Y-13031024D01*
X7455500Y-13031024D02*
X7474548Y-13040548D01*
X7474548Y-13040548D02*
X7484071Y-13050071D01*
X7484071Y-13050071D02*
X7493595Y-13069119D01*
X7493595Y-13069119D02*
X7493595Y-13088167D01*
X7493595Y-13088167D02*
X7484071Y-13116738D01*
X7484071Y-13116738D02*
X7369786Y-13231024D01*
X7369786Y-13231024D02*
X7493595Y-13231024D01*
X7617405Y-13031024D02*
X7636452Y-13031024D01*
X7636452Y-13031024D02*
X7655500Y-13040548D01*
X7655500Y-13040548D02*
X7665024Y-13050071D01*
X7665024Y-13050071D02*
X7674548Y-13069119D01*
X7674548Y-13069119D02*
X7684071Y-13107214D01*
X7684071Y-13107214D02*
X7684071Y-13154833D01*
X7684071Y-13154833D02*
X7674548Y-13192928D01*
X7674548Y-13192928D02*
X7665024Y-13211976D01*
X7665024Y-13211976D02*
X7655500Y-13221500D01*
X7655500Y-13221500D02*
X7636452Y-13231024D01*
X7636452Y-13231024D02*
X7617405Y-13231024D01*
X7617405Y-13231024D02*
X7598357Y-13221500D01*
X7598357Y-13221500D02*
X7588833Y-13211976D01*
X7588833Y-13211976D02*
X7579309Y-13192928D01*
X7579309Y-13192928D02*
X7569786Y-13154833D01*
X7569786Y-13154833D02*
X7569786Y-13107214D01*
X7569786Y-13107214D02*
X7579309Y-13069119D01*
X7579309Y-13069119D02*
X7588833Y-13050071D01*
X7588833Y-13050071D02*
X7598357Y-13040548D01*
X7598357Y-13040548D02*
X7617405Y-13031024D01*
X7807881Y-13031024D02*
X7826929Y-13031024D01*
X7826929Y-13031024D02*
X7845976Y-13040548D01*
X7845976Y-13040548D02*
X7855500Y-13050071D01*
X7855500Y-13050071D02*
X7865024Y-13069119D01*
X7865024Y-13069119D02*
X7874548Y-13107214D01*
X7874548Y-13107214D02*
X7874548Y-13154833D01*
X7874548Y-13154833D02*
X7865024Y-13192928D01*
X7865024Y-13192928D02*
X7855500Y-13211976D01*
X7855500Y-13211976D02*
X7845976Y-13221500D01*
X7845976Y-13221500D02*
X7826929Y-13231024D01*
X7826929Y-13231024D02*
X7807881Y-13231024D01*
X7807881Y-13231024D02*
X7788833Y-13221500D01*
X7788833Y-13221500D02*
X7779309Y-13211976D01*
X7779309Y-13211976D02*
X7769786Y-13192928D01*
X7769786Y-13192928D02*
X7760262Y-13154833D01*
X7760262Y-13154833D02*
X7760262Y-13107214D01*
X7760262Y-13107214D02*
X7769786Y-13069119D01*
X7769786Y-13069119D02*
X7779309Y-13050071D01*
X7779309Y-13050071D02*
X7788833Y-13040548D01*
X7788833Y-13040548D02*
X7807881Y-13031024D01*
X7960262Y-13231024D02*
X7960262Y-13097690D01*
X7960262Y-13116738D02*
X7969786Y-13107214D01*
X7969786Y-13107214D02*
X7988833Y-13097690D01*
X7988833Y-13097690D02*
X8017405Y-13097690D01*
X8017405Y-13097690D02*
X8036452Y-13107214D01*
X8036452Y-13107214D02*
X8045976Y-13126262D01*
X8045976Y-13126262D02*
X8045976Y-13231024D01*
X8045976Y-13126262D02*
X8055500Y-13107214D01*
X8055500Y-13107214D02*
X8074548Y-13097690D01*
X8074548Y-13097690D02*
X8103119Y-13097690D01*
X8103119Y-13097690D02*
X8122167Y-13107214D01*
X8122167Y-13107214D02*
X8131690Y-13126262D01*
X8131690Y-13126262D02*
X8131690Y-13231024D01*
X8226929Y-13231024D02*
X8226929Y-13097690D01*
X8226929Y-13116738D02*
X8236452Y-13107214D01*
X8236452Y-13107214D02*
X8255500Y-13097690D01*
X8255500Y-13097690D02*
X8284071Y-13097690D01*
X8284071Y-13097690D02*
X8303119Y-13107214D01*
X8303119Y-13107214D02*
X8312643Y-13126262D01*
X8312643Y-13126262D02*
X8312643Y-13231024D01*
X8312643Y-13126262D02*
X8322167Y-13107214D01*
X8322167Y-13107214D02*
X8341214Y-13097690D01*
X8341214Y-13097690D02*
X8369786Y-13097690D01*
X8369786Y-13097690D02*
X8388833Y-13107214D01*
X8388833Y-13107214D02*
X8398357Y-13126262D01*
X8398357Y-13126262D02*
X8398357Y-13231024D01*
X8788833Y-13021500D02*
X8617405Y-13278643D01*
X9045976Y-13031024D02*
X9065024Y-13031024D01*
X9065024Y-13031024D02*
X9084072Y-13040548D01*
X9084072Y-13040548D02*
X9093595Y-13050071D01*
X9093595Y-13050071D02*
X9103119Y-13069119D01*
X9103119Y-13069119D02*
X9112643Y-13107214D01*
X9112643Y-13107214D02*
X9112643Y-13154833D01*
X9112643Y-13154833D02*
X9103119Y-13192928D01*
X9103119Y-13192928D02*
X9093595Y-13211976D01*
X9093595Y-13211976D02*
X9084072Y-13221500D01*
X9084072Y-13221500D02*
X9065024Y-13231024D01*
X9065024Y-13231024D02*
X9045976Y-13231024D01*
X9045976Y-13231024D02*
X9026929Y-13221500D01*
X9026929Y-13221500D02*
X9017405Y-13211976D01*
X9017405Y-13211976D02*
X9007881Y-13192928D01*
X9007881Y-13192928D02*
X8998357Y-13154833D01*
X8998357Y-13154833D02*
X8998357Y-13107214D01*
X8998357Y-13107214D02*
X9007881Y-13069119D01*
X9007881Y-13069119D02*
X9017405Y-13050071D01*
X9017405Y-13050071D02*
X9026929Y-13040548D01*
X9026929Y-13040548D02*
X9045976Y-13031024D01*
X9198357Y-13211976D02*
X9207881Y-13221500D01*
X9207881Y-13221500D02*
X9198357Y-13231024D01*
X9198357Y-13231024D02*
X9188834Y-13221500D01*
X9188834Y-13221500D02*
X9198357Y-13211976D01*
X9198357Y-13211976D02*
X9198357Y-13231024D01*
X9331691Y-13031024D02*
X9350738Y-13031024D01*
X9350738Y-13031024D02*
X9369786Y-13040548D01*
X9369786Y-13040548D02*
X9379310Y-13050071D01*
X9379310Y-13050071D02*
X9388834Y-13069119D01*
X9388834Y-13069119D02*
X9398357Y-13107214D01*
X9398357Y-13107214D02*
X9398357Y-13154833D01*
X9398357Y-13154833D02*
X9388834Y-13192928D01*
X9388834Y-13192928D02*
X9379310Y-13211976D01*
X9379310Y-13211976D02*
X9369786Y-13221500D01*
X9369786Y-13221500D02*
X9350738Y-13231024D01*
X9350738Y-13231024D02*
X9331691Y-13231024D01*
X9331691Y-13231024D02*
X9312643Y-13221500D01*
X9312643Y-13221500D02*
X9303119Y-13211976D01*
X9303119Y-13211976D02*
X9293595Y-13192928D01*
X9293595Y-13192928D02*
X9284072Y-13154833D01*
X9284072Y-13154833D02*
X9284072Y-13107214D01*
X9284072Y-13107214D02*
X9293595Y-13069119D01*
X9293595Y-13069119D02*
X9303119Y-13050071D01*
X9303119Y-13050071D02*
X9312643Y-13040548D01*
X9312643Y-13040548D02*
X9331691Y-13031024D01*
X9512643Y-13116738D02*
X9493595Y-13107214D01*
X9493595Y-13107214D02*
X9484072Y-13097690D01*
X9484072Y-13097690D02*
X9474548Y-13078643D01*
X9474548Y-13078643D02*
X9474548Y-13069119D01*
X9474548Y-13069119D02*
X9484072Y-13050071D01*
X9484072Y-13050071D02*
X9493595Y-13040548D01*
X9493595Y-13040548D02*
X9512643Y-13031024D01*
X9512643Y-13031024D02*
X9550738Y-13031024D01*
X9550738Y-13031024D02*
X9569786Y-13040548D01*
X9569786Y-13040548D02*
X9579310Y-13050071D01*
X9579310Y-13050071D02*
X9588834Y-13069119D01*
X9588834Y-13069119D02*
X9588834Y-13078643D01*
X9588834Y-13078643D02*
X9579310Y-13097690D01*
X9579310Y-13097690D02*
X9569786Y-13107214D01*
X9569786Y-13107214D02*
X9550738Y-13116738D01*
X9550738Y-13116738D02*
X9512643Y-13116738D01*
X9512643Y-13116738D02*
X9493595Y-13126262D01*
X9493595Y-13126262D02*
X9484072Y-13135786D01*
X9484072Y-13135786D02*
X9474548Y-13154833D01*
X9474548Y-13154833D02*
X9474548Y-13192928D01*
X9474548Y-13192928D02*
X9484072Y-13211976D01*
X9484072Y-13211976D02*
X9493595Y-13221500D01*
X9493595Y-13221500D02*
X9512643Y-13231024D01*
X9512643Y-13231024D02*
X9550738Y-13231024D01*
X9550738Y-13231024D02*
X9569786Y-13221500D01*
X9569786Y-13221500D02*
X9579310Y-13211976D01*
X9579310Y-13211976D02*
X9588834Y-13192928D01*
X9588834Y-13192928D02*
X9588834Y-13154833D01*
X9588834Y-13154833D02*
X9579310Y-13135786D01*
X9579310Y-13135786D02*
X9569786Y-13126262D01*
X9569786Y-13126262D02*
X9550738Y-13116738D01*
X9760262Y-13031024D02*
X9722167Y-13031024D01*
X9722167Y-13031024D02*
X9703119Y-13040548D01*
X9703119Y-13040548D02*
X9693595Y-13050071D01*
X9693595Y-13050071D02*
X9674548Y-13078643D01*
X9674548Y-13078643D02*
X9665024Y-13116738D01*
X9665024Y-13116738D02*
X9665024Y-13192928D01*
X9665024Y-13192928D02*
X9674548Y-13211976D01*
X9674548Y-13211976D02*
X9684072Y-13221500D01*
X9684072Y-13221500D02*
X9703119Y-13231024D01*
X9703119Y-13231024D02*
X9741215Y-13231024D01*
X9741215Y-13231024D02*
X9760262Y-13221500D01*
X9760262Y-13221500D02*
X9769786Y-13211976D01*
X9769786Y-13211976D02*
X9779310Y-13192928D01*
X9779310Y-13192928D02*
X9779310Y-13145309D01*
X9779310Y-13145309D02*
X9769786Y-13126262D01*
X9769786Y-13126262D02*
X9760262Y-13116738D01*
X9760262Y-13116738D02*
X9741215Y-13107214D01*
X9741215Y-13107214D02*
X9703119Y-13107214D01*
X9703119Y-13107214D02*
X9684072Y-13116738D01*
X9684072Y-13116738D02*
X9674548Y-13126262D01*
X9674548Y-13126262D02*
X9665024Y-13145309D01*
X9950738Y-13031024D02*
X9912643Y-13031024D01*
X9912643Y-13031024D02*
X9893595Y-13040548D01*
X9893595Y-13040548D02*
X9884072Y-13050071D01*
X9884072Y-13050071D02*
X9865024Y-13078643D01*
X9865024Y-13078643D02*
X9855500Y-13116738D01*
X9855500Y-13116738D02*
X9855500Y-13192928D01*
X9855500Y-13192928D02*
X9865024Y-13211976D01*
X9865024Y-13211976D02*
X9874548Y-13221500D01*
X9874548Y-13221500D02*
X9893595Y-13231024D01*
X9893595Y-13231024D02*
X9931691Y-13231024D01*
X9931691Y-13231024D02*
X9950738Y-13221500D01*
X9950738Y-13221500D02*
X9960262Y-13211976D01*
X9960262Y-13211976D02*
X9969786Y-13192928D01*
X9969786Y-13192928D02*
X9969786Y-13145309D01*
X9969786Y-13145309D02*
X9960262Y-13126262D01*
X9960262Y-13126262D02*
X9950738Y-13116738D01*
X9950738Y-13116738D02*
X9931691Y-13107214D01*
X9931691Y-13107214D02*
X9893595Y-13107214D01*
X9893595Y-13107214D02*
X9874548Y-13116738D01*
X9874548Y-13116738D02*
X9865024Y-13126262D01*
X9865024Y-13126262D02*
X9855500Y-13145309D01*
X10045976Y-13031024D02*
X10045976Y-13069119D01*
X10122167Y-13031024D02*
X10122167Y-13069119D01*
X10417405Y-13307214D02*
X10407881Y-13297690D01*
X10407881Y-13297690D02*
X10388834Y-13269119D01*
X10388834Y-13269119D02*
X10379310Y-13250071D01*
X10379310Y-13250071D02*
X10369786Y-13221500D01*
X10369786Y-13221500D02*
X10360262Y-13173881D01*
X10360262Y-13173881D02*
X10360262Y-13135786D01*
X10360262Y-13135786D02*
X10369786Y-13088167D01*
X10369786Y-13088167D02*
X10379310Y-13059595D01*
X10379310Y-13059595D02*
X10388834Y-13040548D01*
X10388834Y-13040548D02*
X10407881Y-13011976D01*
X10407881Y-13011976D02*
X10417405Y-13002452D01*
X10579310Y-13097690D02*
X10579310Y-13231024D01*
X10531691Y-13021500D02*
X10484072Y-13164357D01*
X10484072Y-13164357D02*
X10607881Y-13164357D01*
X10836453Y-13231024D02*
X10836453Y-13031024D01*
X10922167Y-13231024D02*
X10922167Y-13126262D01*
X10922167Y-13126262D02*
X10912643Y-13107214D01*
X10912643Y-13107214D02*
X10893596Y-13097690D01*
X10893596Y-13097690D02*
X10865024Y-13097690D01*
X10865024Y-13097690D02*
X10845977Y-13107214D01*
X10845977Y-13107214D02*
X10836453Y-13116738D01*
X11045977Y-13231024D02*
X11026929Y-13221500D01*
X11026929Y-13221500D02*
X11017405Y-13211976D01*
X11017405Y-13211976D02*
X11007881Y-13192928D01*
X11007881Y-13192928D02*
X11007881Y-13135786D01*
X11007881Y-13135786D02*
X11017405Y-13116738D01*
X11017405Y-13116738D02*
X11026929Y-13107214D01*
X11026929Y-13107214D02*
X11045977Y-13097690D01*
X11045977Y-13097690D02*
X11074548Y-13097690D01*
X11074548Y-13097690D02*
X11093596Y-13107214D01*
X11093596Y-13107214D02*
X11103119Y-13116738D01*
X11103119Y-13116738D02*
X11112643Y-13135786D01*
X11112643Y-13135786D02*
X11112643Y-13192928D01*
X11112643Y-13192928D02*
X11103119Y-13211976D01*
X11103119Y-13211976D02*
X11093596Y-13221500D01*
X11093596Y-13221500D02*
X11074548Y-13231024D01*
X11074548Y-13231024D02*
X11045977Y-13231024D01*
X11226929Y-13231024D02*
X11207881Y-13221500D01*
X11207881Y-13221500D02*
X11198357Y-13202452D01*
X11198357Y-13202452D02*
X11198357Y-13031024D01*
X11379310Y-13221500D02*
X11360262Y-13231024D01*
X11360262Y-13231024D02*
X11322167Y-13231024D01*
X11322167Y-13231024D02*
X11303119Y-13221500D01*
X11303119Y-13221500D02*
X11293596Y-13202452D01*
X11293596Y-13202452D02*
X11293596Y-13126262D01*
X11293596Y-13126262D02*
X11303119Y-13107214D01*
X11303119Y-13107214D02*
X11322167Y-13097690D01*
X11322167Y-13097690D02*
X11360262Y-13097690D01*
X11360262Y-13097690D02*
X11379310Y-13107214D01*
X11379310Y-13107214D02*
X11388834Y-13126262D01*
X11388834Y-13126262D02*
X11388834Y-13145309D01*
X11388834Y-13145309D02*
X11293596Y-13164357D01*
X11465024Y-13221500D02*
X11484072Y-13231024D01*
X11484072Y-13231024D02*
X11522167Y-13231024D01*
X11522167Y-13231024D02*
X11541215Y-13221500D01*
X11541215Y-13221500D02*
X11550738Y-13202452D01*
X11550738Y-13202452D02*
X11550738Y-13192928D01*
X11550738Y-13192928D02*
X11541215Y-13173881D01*
X11541215Y-13173881D02*
X11522167Y-13164357D01*
X11522167Y-13164357D02*
X11493596Y-13164357D01*
X11493596Y-13164357D02*
X11474548Y-13154833D01*
X11474548Y-13154833D02*
X11465024Y-13135786D01*
X11465024Y-13135786D02*
X11465024Y-13126262D01*
X11465024Y-13126262D02*
X11474548Y-13107214D01*
X11474548Y-13107214D02*
X11493596Y-13097690D01*
X11493596Y-13097690D02*
X11522167Y-13097690D01*
X11522167Y-13097690D02*
X11541215Y-13107214D01*
X11617405Y-13307214D02*
X11626929Y-13297690D01*
X11626929Y-13297690D02*
X11645977Y-13269119D01*
X11645977Y-13269119D02*
X11655500Y-13250071D01*
X11655500Y-13250071D02*
X11665024Y-13221500D01*
X11665024Y-13221500D02*
X11674548Y-13173881D01*
X11674548Y-13173881D02*
X11674548Y-13135786D01*
X11674548Y-13135786D02*
X11665024Y-13088167D01*
X11665024Y-13088167D02*
X11655500Y-13059595D01*
X11655500Y-13059595D02*
X11645977Y-13040548D01*
X11645977Y-13040548D02*
X11626929Y-13011976D01*
X11626929Y-13011976D02*
X11617405Y-13002452D01*
M02*
