G04 #@! TF.GenerationSoftware,KiCad,Pcbnew,7.0.1*
G04 #@! TF.CreationDate,2023-04-02T18:11:19+02:00*
G04 #@! TF.ProjectId,OXS_RP2040_Full,4f58535f-5250-4323-9034-305f46756c6c,rev?*
G04 #@! TF.SameCoordinates,Original*
G04 #@! TF.FileFunction,Copper,L1,Top*
G04 #@! TF.FilePolarity,Positive*
%FSLAX46Y46*%
G04 Gerber Fmt 4.6, Leading zero omitted, Abs format (unit mm)*
G04 Created by KiCad (PCBNEW 7.0.1) date 2023-04-02 18:11:19*
%MOMM*%
%LPD*%
G01*
G04 APERTURE LIST*
G04 Aperture macros list*
%AMRoundRect*
0 Rectangle with rounded corners*
0 $1 Rounding radius*
0 $2 $3 $4 $5 $6 $7 $8 $9 X,Y pos of 4 corners*
0 Add a 4 corners polygon primitive as box body*
4,1,4,$2,$3,$4,$5,$6,$7,$8,$9,$2,$3,0*
0 Add four circle primitives for the rounded corners*
1,1,$1+$1,$2,$3*
1,1,$1+$1,$4,$5*
1,1,$1+$1,$6,$7*
1,1,$1+$1,$8,$9*
0 Add four rect primitives between the rounded corners*
20,1,$1+$1,$2,$3,$4,$5,0*
20,1,$1+$1,$4,$5,$6,$7,0*
20,1,$1+$1,$6,$7,$8,$9,0*
20,1,$1+$1,$8,$9,$2,$3,0*%
G04 Aperture macros list end*
%ADD10C,0.310000*%
G04 #@! TA.AperFunction,NonConductor*
%ADD11C,0.310000*%
G04 #@! TD*
G04 #@! TA.AperFunction,SMDPad,CuDef*
%ADD12RoundRect,0.250000X-0.400000X-0.625000X0.400000X-0.625000X0.400000X0.625000X-0.400000X0.625000X0*%
G04 #@! TD*
G04 #@! TA.AperFunction,ComponentPad*
%ADD13C,1.700000*%
G04 #@! TD*
G04 #@! TA.AperFunction,SMDPad,CuDef*
%ADD14R,2.000000X1.700000*%
G04 #@! TD*
G04 #@! TA.AperFunction,ComponentPad*
%ADD15RoundRect,0.250000X-0.725000X0.600000X-0.725000X-0.600000X0.725000X-0.600000X0.725000X0.600000X0*%
G04 #@! TD*
G04 #@! TA.AperFunction,ComponentPad*
%ADD16O,1.950000X1.700000*%
G04 #@! TD*
G04 #@! TA.AperFunction,ComponentPad*
%ADD17R,1.600000X1.600000*%
G04 #@! TD*
G04 #@! TA.AperFunction,ComponentPad*
%ADD18C,1.600000*%
G04 #@! TD*
G04 #@! TA.AperFunction,ComponentPad*
%ADD19C,3.800000*%
G04 #@! TD*
G04 #@! TA.AperFunction,SMDPad,CuDef*
%ADD20R,0.250000X1.100000*%
G04 #@! TD*
G04 #@! TA.AperFunction,SMDPad,CuDef*
%ADD21RoundRect,0.250000X0.412500X0.650000X-0.412500X0.650000X-0.412500X-0.650000X0.412500X-0.650000X0*%
G04 #@! TD*
G04 #@! TA.AperFunction,SMDPad,CuDef*
%ADD22R,2.000000X1.800000*%
G04 #@! TD*
G04 #@! TA.AperFunction,SMDPad,CuDef*
%ADD23RoundRect,0.250000X0.400000X0.625000X-0.400000X0.625000X-0.400000X-0.625000X0.400000X-0.625000X0*%
G04 #@! TD*
G04 #@! TA.AperFunction,SMDPad,CuDef*
%ADD24RoundRect,0.250000X-0.650000X0.412500X-0.650000X-0.412500X0.650000X-0.412500X0.650000X0.412500X0*%
G04 #@! TD*
G04 #@! TA.AperFunction,SMDPad,CuDef*
%ADD25RoundRect,0.250000X-0.412500X-0.650000X0.412500X-0.650000X0.412500X0.650000X-0.412500X0.650000X0*%
G04 #@! TD*
G04 #@! TA.AperFunction,SMDPad,CuDef*
%ADD26R,2.310000X2.520000*%
G04 #@! TD*
G04 #@! TA.AperFunction,ComponentPad*
%ADD27R,1.700000X1.700000*%
G04 #@! TD*
G04 #@! TA.AperFunction,ComponentPad*
%ADD28O,1.700000X1.700000*%
G04 #@! TD*
G04 #@! TA.AperFunction,SMDPad,CuDef*
%ADD29RoundRect,0.375000X-0.375000X0.625000X-0.375000X-0.625000X0.375000X-0.625000X0.375000X0.625000X0*%
G04 #@! TD*
G04 #@! TA.AperFunction,SMDPad,CuDef*
%ADD30R,1.500000X2.000000*%
G04 #@! TD*
G04 #@! TA.AperFunction,SMDPad,CuDef*
%ADD31R,3.800000X2.000000*%
G04 #@! TD*
G04 #@! TA.AperFunction,SMDPad,CuDef*
%ADD32RoundRect,0.250000X0.650000X-0.412500X0.650000X0.412500X-0.650000X0.412500X-0.650000X-0.412500X0*%
G04 #@! TD*
G04 #@! TA.AperFunction,SMDPad,CuDef*
%ADD33RoundRect,0.250000X-0.625000X0.400000X-0.625000X-0.400000X0.625000X-0.400000X0.625000X0.400000X0*%
G04 #@! TD*
G04 #@! TA.AperFunction,ViaPad*
%ADD34C,0.800000*%
G04 #@! TD*
G04 #@! TA.AperFunction,ViaPad*
%ADD35C,1.000000*%
G04 #@! TD*
G04 #@! TA.AperFunction,Conductor*
%ADD36C,0.500000*%
G04 #@! TD*
G04 #@! TA.AperFunction,Conductor*
%ADD37C,0.250000*%
G04 #@! TD*
G04 #@! TA.AperFunction,Conductor*
%ADD38C,1.000000*%
G04 #@! TD*
G04 #@! TA.AperFunction,Conductor*
%ADD39C,0.310000*%
G04 #@! TD*
G04 APERTURE END LIST*
D10*
D11*
X80256858Y-110421928D02*
X80114001Y-110350500D01*
X80114001Y-110350500D02*
X80042572Y-110279071D01*
X80042572Y-110279071D02*
X79971144Y-110136214D01*
X79971144Y-110136214D02*
X79971144Y-109707642D01*
X79971144Y-109707642D02*
X80042572Y-109564785D01*
X80042572Y-109564785D02*
X80114001Y-109493357D01*
X80114001Y-109493357D02*
X80256858Y-109421928D01*
X80256858Y-109421928D02*
X80471144Y-109421928D01*
X80471144Y-109421928D02*
X80614001Y-109493357D01*
X80614001Y-109493357D02*
X80685430Y-109564785D01*
X80685430Y-109564785D02*
X80756858Y-109707642D01*
X80756858Y-109707642D02*
X80756858Y-110136214D01*
X80756858Y-110136214D02*
X80685430Y-110279071D01*
X80685430Y-110279071D02*
X80614001Y-110350500D01*
X80614001Y-110350500D02*
X80471144Y-110421928D01*
X80471144Y-110421928D02*
X80256858Y-110421928D01*
X81256858Y-108921928D02*
X82256858Y-110421928D01*
X82256858Y-108921928D02*
X81256858Y-110421928D01*
X82756858Y-110350500D02*
X82899715Y-110421928D01*
X82899715Y-110421928D02*
X83185429Y-110421928D01*
X83185429Y-110421928D02*
X83328286Y-110350500D01*
X83328286Y-110350500D02*
X83399715Y-110207642D01*
X83399715Y-110207642D02*
X83399715Y-110136214D01*
X83399715Y-110136214D02*
X83328286Y-109993357D01*
X83328286Y-109993357D02*
X83185429Y-109921928D01*
X83185429Y-109921928D02*
X82971144Y-109921928D01*
X82971144Y-109921928D02*
X82828286Y-109850500D01*
X82828286Y-109850500D02*
X82756858Y-109707642D01*
X82756858Y-109707642D02*
X82756858Y-109636214D01*
X82756858Y-109636214D02*
X82828286Y-109493357D01*
X82828286Y-109493357D02*
X82971144Y-109421928D01*
X82971144Y-109421928D02*
X83185429Y-109421928D01*
X83185429Y-109421928D02*
X83328286Y-109493357D01*
X86042572Y-110421928D02*
X85542572Y-109707642D01*
X85185429Y-110421928D02*
X85185429Y-108921928D01*
X85185429Y-108921928D02*
X85756858Y-108921928D01*
X85756858Y-108921928D02*
X85899715Y-108993357D01*
X85899715Y-108993357D02*
X85971144Y-109064785D01*
X85971144Y-109064785D02*
X86042572Y-109207642D01*
X86042572Y-109207642D02*
X86042572Y-109421928D01*
X86042572Y-109421928D02*
X85971144Y-109564785D01*
X85971144Y-109564785D02*
X85899715Y-109636214D01*
X85899715Y-109636214D02*
X85756858Y-109707642D01*
X85756858Y-109707642D02*
X85185429Y-109707642D01*
X86685429Y-110421928D02*
X86685429Y-108921928D01*
X86685429Y-108921928D02*
X87256858Y-108921928D01*
X87256858Y-108921928D02*
X87399715Y-108993357D01*
X87399715Y-108993357D02*
X87471144Y-109064785D01*
X87471144Y-109064785D02*
X87542572Y-109207642D01*
X87542572Y-109207642D02*
X87542572Y-109421928D01*
X87542572Y-109421928D02*
X87471144Y-109564785D01*
X87471144Y-109564785D02*
X87399715Y-109636214D01*
X87399715Y-109636214D02*
X87256858Y-109707642D01*
X87256858Y-109707642D02*
X86685429Y-109707642D01*
X88114001Y-109064785D02*
X88185429Y-108993357D01*
X88185429Y-108993357D02*
X88328287Y-108921928D01*
X88328287Y-108921928D02*
X88685429Y-108921928D01*
X88685429Y-108921928D02*
X88828287Y-108993357D01*
X88828287Y-108993357D02*
X88899715Y-109064785D01*
X88899715Y-109064785D02*
X88971144Y-109207642D01*
X88971144Y-109207642D02*
X88971144Y-109350500D01*
X88971144Y-109350500D02*
X88899715Y-109564785D01*
X88899715Y-109564785D02*
X88042572Y-110421928D01*
X88042572Y-110421928D02*
X88971144Y-110421928D01*
X89899715Y-108921928D02*
X90042572Y-108921928D01*
X90042572Y-108921928D02*
X90185429Y-108993357D01*
X90185429Y-108993357D02*
X90256858Y-109064785D01*
X90256858Y-109064785D02*
X90328286Y-109207642D01*
X90328286Y-109207642D02*
X90399715Y-109493357D01*
X90399715Y-109493357D02*
X90399715Y-109850500D01*
X90399715Y-109850500D02*
X90328286Y-110136214D01*
X90328286Y-110136214D02*
X90256858Y-110279071D01*
X90256858Y-110279071D02*
X90185429Y-110350500D01*
X90185429Y-110350500D02*
X90042572Y-110421928D01*
X90042572Y-110421928D02*
X89899715Y-110421928D01*
X89899715Y-110421928D02*
X89756858Y-110350500D01*
X89756858Y-110350500D02*
X89685429Y-110279071D01*
X89685429Y-110279071D02*
X89614000Y-110136214D01*
X89614000Y-110136214D02*
X89542572Y-109850500D01*
X89542572Y-109850500D02*
X89542572Y-109493357D01*
X89542572Y-109493357D02*
X89614000Y-109207642D01*
X89614000Y-109207642D02*
X89685429Y-109064785D01*
X89685429Y-109064785D02*
X89756858Y-108993357D01*
X89756858Y-108993357D02*
X89899715Y-108921928D01*
X91685429Y-109421928D02*
X91685429Y-110421928D01*
X91328286Y-108850500D02*
X90971143Y-109921928D01*
X90971143Y-109921928D02*
X91899714Y-109921928D01*
X92756857Y-108921928D02*
X92899714Y-108921928D01*
X92899714Y-108921928D02*
X93042571Y-108993357D01*
X93042571Y-108993357D02*
X93114000Y-109064785D01*
X93114000Y-109064785D02*
X93185428Y-109207642D01*
X93185428Y-109207642D02*
X93256857Y-109493357D01*
X93256857Y-109493357D02*
X93256857Y-109850500D01*
X93256857Y-109850500D02*
X93185428Y-110136214D01*
X93185428Y-110136214D02*
X93114000Y-110279071D01*
X93114000Y-110279071D02*
X93042571Y-110350500D01*
X93042571Y-110350500D02*
X92899714Y-110421928D01*
X92899714Y-110421928D02*
X92756857Y-110421928D01*
X92756857Y-110421928D02*
X92614000Y-110350500D01*
X92614000Y-110350500D02*
X92542571Y-110279071D01*
X92542571Y-110279071D02*
X92471142Y-110136214D01*
X92471142Y-110136214D02*
X92399714Y-109850500D01*
X92399714Y-109850500D02*
X92399714Y-109493357D01*
X92399714Y-109493357D02*
X92471142Y-109207642D01*
X92471142Y-109207642D02*
X92542571Y-109064785D01*
X92542571Y-109064785D02*
X92614000Y-108993357D01*
X92614000Y-108993357D02*
X92756857Y-108921928D01*
D12*
X103733000Y-96266000D03*
X106833000Y-96266000D03*
X103707000Y-88773000D03*
X106807000Y-88773000D03*
D13*
X108478000Y-108585000D03*
D14*
X111018000Y-108585000D03*
D15*
X110871000Y-83820000D03*
D16*
X110871000Y-86320000D03*
X110871000Y-88820000D03*
X110871000Y-91320000D03*
X110871000Y-93820000D03*
X110871000Y-96320000D03*
X110871000Y-98820000D03*
X110871000Y-101320000D03*
X110871000Y-103820000D03*
D17*
X89154000Y-86614000D03*
D18*
X89154000Y-89154000D03*
X89154000Y-91694000D03*
X89154000Y-94234000D03*
X89154000Y-96774000D03*
X89154000Y-99314000D03*
D19*
X104902000Y-109347000D03*
D12*
X103707000Y-98806000D03*
X106807000Y-98806000D03*
D19*
X75057000Y-76200000D03*
D18*
X101219000Y-81534000D03*
X101219000Y-84074000D03*
X101219000Y-86614000D03*
X101219000Y-89154000D03*
X101219000Y-91694000D03*
X101219000Y-94234000D03*
X101219000Y-96774000D03*
X101219000Y-99314000D03*
X101219000Y-101854000D03*
X98679000Y-101854000D03*
X96139000Y-101854000D03*
X93599000Y-101854000D03*
X91059000Y-101854000D03*
X88519000Y-101854000D03*
X85979000Y-101854000D03*
X85979000Y-99314000D03*
X85979000Y-96774000D03*
X85979000Y-94234000D03*
X85979000Y-91694000D03*
X85979000Y-89154000D03*
X85979000Y-86614000D03*
X85979000Y-84074000D03*
X85979000Y-81534000D03*
D20*
X99417000Y-93472000D03*
X98917000Y-93472000D03*
X98417000Y-93472000D03*
X97917000Y-93472000D03*
X97417000Y-93472000D03*
X97417000Y-97772000D03*
X97917000Y-97772000D03*
X98417000Y-97772000D03*
X98917000Y-97772000D03*
X99417000Y-97772000D03*
D21*
X81661000Y-92202000D03*
X78536000Y-92202000D03*
D22*
X70866000Y-85725000D03*
X70866000Y-83185000D03*
X70866000Y-80645000D03*
X70866000Y-78105000D03*
D23*
X81635000Y-97028000D03*
X78535000Y-97028000D03*
D13*
X108458000Y-78867000D03*
D14*
X110998000Y-78867000D03*
D23*
X81635000Y-94488000D03*
X78535000Y-94488000D03*
D12*
X103707000Y-91313000D03*
X106807000Y-91313000D03*
X103707000Y-93853000D03*
X106807000Y-93853000D03*
D20*
X99314000Y-83159000D03*
X98814000Y-83159000D03*
X98314000Y-83159000D03*
X97814000Y-83159000D03*
X97314000Y-83159000D03*
X97314000Y-87459000D03*
X97814000Y-87459000D03*
X98314000Y-87459000D03*
X98814000Y-87459000D03*
X99314000Y-87459000D03*
D12*
X103733000Y-101346000D03*
X106833000Y-101346000D03*
D24*
X95250000Y-94030000D03*
X95250000Y-97155000D03*
D12*
X103733000Y-83820000D03*
X106833000Y-83820000D03*
D21*
X81635000Y-99314000D03*
X78510000Y-99314000D03*
D12*
X103707000Y-86360000D03*
X106807000Y-86360000D03*
D23*
X76734000Y-94488000D03*
X73634000Y-94488000D03*
D22*
X70840000Y-97028000D03*
X70840000Y-94488000D03*
X70840000Y-91948000D03*
X70840000Y-89408000D03*
D25*
X73367500Y-100711000D03*
X76492500Y-100711000D03*
D26*
X85523000Y-76454000D03*
X79323000Y-76454000D03*
D27*
X81026000Y-85852000D03*
D28*
X81026000Y-83312000D03*
X81026000Y-80772000D03*
D23*
X76734000Y-97028000D03*
X73634000Y-97028000D03*
D29*
X78627000Y-80670000D03*
D30*
X76327000Y-80670000D03*
D31*
X76327000Y-86970000D03*
D30*
X74027000Y-80670000D03*
D32*
X83566000Y-86652500D03*
X83566000Y-83527500D03*
D33*
X92329000Y-96722000D03*
X92329000Y-99822000D03*
D21*
X106718500Y-81534000D03*
X103593500Y-81534000D03*
D19*
X75057000Y-109347000D03*
D27*
X92075000Y-105283000D03*
D28*
X89535000Y-105283000D03*
X86995000Y-105283000D03*
X84455000Y-105283000D03*
D27*
X95885000Y-105283000D03*
D28*
X98425000Y-105283000D03*
X100965000Y-105283000D03*
D22*
X70739000Y-108331000D03*
X70739000Y-105791000D03*
X70739000Y-103251000D03*
X70739000Y-100711000D03*
D24*
X95250000Y-83794000D03*
X95250000Y-86919000D03*
D19*
X104902000Y-76200000D03*
D12*
X103707000Y-104521000D03*
X106807000Y-104521000D03*
D34*
X82931000Y-94488000D03*
X82931000Y-97028000D03*
X105156000Y-81534000D03*
X70866000Y-76454000D03*
D35*
X70739000Y-99187000D03*
D34*
X82931000Y-92202000D03*
X95250000Y-92837000D03*
D35*
X77978000Y-101092000D03*
X81280000Y-76454000D03*
D34*
X95250000Y-82524000D03*
X99330490Y-85934301D03*
X82931000Y-98679000D03*
X72644000Y-89408000D03*
D35*
X78613000Y-78994000D03*
D34*
X72644000Y-91948000D03*
X97028000Y-96012000D03*
X93726000Y-95123000D03*
X97028000Y-85699000D03*
D35*
X72453500Y-102679500D03*
D34*
X93726000Y-86868000D03*
X78994000Y-90678000D03*
X80010000Y-90170000D03*
X91694000Y-88646000D03*
X83947000Y-88392000D03*
X72771000Y-83185000D03*
X83820000Y-90424000D03*
X72771000Y-86487000D03*
X90043000Y-90424000D03*
X90466365Y-98329151D03*
X72771000Y-106172000D03*
X72263000Y-108331000D03*
X94107000Y-98425000D03*
X96520000Y-89535000D03*
X98806000Y-88773000D03*
X91223500Y-90805000D03*
X91223500Y-94234000D03*
X92710000Y-91186000D03*
X92075000Y-103378000D03*
X98634299Y-99904299D03*
D35*
X72732500Y-80606500D03*
D34*
X102489000Y-104521000D03*
X98806000Y-85064000D03*
X98196831Y-95450198D03*
X99822000Y-85064000D03*
X99441000Y-95439934D03*
X83947000Y-92964000D03*
X102526795Y-82766205D03*
X96774000Y-82143000D03*
X102616000Y-86360000D03*
X97282000Y-88773000D03*
X102616000Y-88773000D03*
X102616000Y-91313000D03*
X97282000Y-90297000D03*
X102616000Y-92710000D03*
X97028000Y-92710000D03*
X102616000Y-96266000D03*
X95885000Y-99441000D03*
X102616000Y-98806000D03*
X102616000Y-101346000D03*
X97028000Y-99441000D03*
X90715000Y-104103000D03*
D36*
X90551000Y-106807000D02*
X92075000Y-105283000D01*
X83439000Y-106807000D02*
X90551000Y-106807000D01*
X82550000Y-105918000D02*
X83439000Y-106807000D01*
X76835000Y-105918000D02*
X82550000Y-105918000D01*
X73025000Y-102108000D02*
X76835000Y-105918000D01*
D37*
X87693500Y-97282000D02*
X86931500Y-98044000D01*
X85217000Y-98044000D02*
X84455000Y-98806000D01*
X84455000Y-98806000D02*
X84455000Y-105283000D01*
X87693500Y-95694500D02*
X87693500Y-97282000D01*
X86931500Y-98044000D02*
X85217000Y-98044000D01*
X89154000Y-94234000D02*
X87693500Y-95694500D01*
D38*
X73025000Y-102108000D02*
X73367500Y-101765500D01*
X71882000Y-103251000D02*
X73025000Y-102108000D01*
X78613000Y-78994000D02*
X78613000Y-80656000D01*
D37*
X95250000Y-82651000D02*
X95250000Y-82524000D01*
D36*
X81635000Y-97028000D02*
X82931000Y-97028000D01*
D39*
X95911000Y-84455000D02*
X95250000Y-83794000D01*
X98526268Y-85852000D02*
X99248189Y-85852000D01*
X98314000Y-83159000D02*
X98314000Y-84044000D01*
X97903000Y-84455000D02*
X95911000Y-84455000D01*
D36*
X82296000Y-99314000D02*
X81635000Y-99314000D01*
X70840000Y-89408000D02*
X72644000Y-89408000D01*
X82931000Y-98679000D02*
X82296000Y-99314000D01*
D39*
X95250000Y-83794000D02*
X95250000Y-82524000D01*
X99248189Y-85852000D02*
X99330490Y-85934301D01*
D36*
X76492500Y-100711000D02*
X77597000Y-100711000D01*
D38*
X78613000Y-80656000D02*
X78627000Y-80670000D01*
D39*
X98314000Y-84044000D02*
X97903000Y-84455000D01*
D36*
X81635000Y-94488000D02*
X82931000Y-94488000D01*
D38*
X70739000Y-100711000D02*
X70739000Y-99187000D01*
D36*
X83566000Y-83527500D02*
X84670500Y-83527500D01*
D37*
X95250000Y-94030000D02*
X95962000Y-94742000D01*
D36*
X103593500Y-81534000D02*
X105156000Y-81534000D01*
D37*
X98044000Y-94742000D02*
X98417000Y-94369000D01*
D36*
X84670500Y-83527500D02*
X85217000Y-84074000D01*
X85217000Y-84074000D02*
X86089000Y-84074000D01*
D37*
X95962000Y-94742000D02*
X98044000Y-94742000D01*
D36*
X81661000Y-92202000D02*
X82931000Y-92202000D01*
D39*
X97903000Y-85228732D02*
X98526268Y-85852000D01*
D37*
X95250000Y-94030000D02*
X95250000Y-92837000D01*
D36*
X77597000Y-100711000D02*
X77978000Y-101092000D01*
D38*
X79323000Y-76454000D02*
X81280000Y-76454000D01*
D39*
X97903000Y-84455000D02*
X97903000Y-85228732D01*
D38*
X70866000Y-78105000D02*
X70866000Y-76454000D01*
D37*
X98417000Y-94369000D02*
X98417000Y-93472000D01*
X95250000Y-96393000D02*
X95250000Y-97155000D01*
X98417000Y-97772000D02*
X98417000Y-96766000D01*
D36*
X93726000Y-86868000D02*
X91694000Y-86868000D01*
D37*
X97663000Y-96012000D02*
X97028000Y-96012000D01*
D38*
X85979000Y-86614000D02*
X89154000Y-86614000D01*
D37*
X97663000Y-85699000D02*
X98314000Y-86350000D01*
X95250000Y-86919000D02*
X95250000Y-86080000D01*
X98314000Y-86350000D02*
X98314000Y-87459000D01*
D38*
X81191500Y-89027000D02*
X78613000Y-89027000D01*
D36*
X95250000Y-97155000D02*
X94234000Y-97155000D01*
X72644000Y-91948000D02*
X74676000Y-91948000D01*
D37*
X97028000Y-85699000D02*
X97663000Y-85699000D01*
D36*
X109240000Y-106807000D02*
X111018000Y-108585000D01*
D38*
X78613000Y-89027000D02*
X75184000Y-92456000D01*
D36*
X93114000Y-96647000D02*
X93726000Y-96647000D01*
X92329000Y-96722000D02*
X93039000Y-96722000D01*
X93726000Y-96647000D02*
X93726000Y-95123000D01*
D38*
X73367500Y-100368500D02*
X73367500Y-100711000D01*
X70739000Y-103251000D02*
X71882000Y-103251000D01*
D37*
X95631000Y-96012000D02*
X97028000Y-96012000D01*
D36*
X93039000Y-96722000D02*
X93114000Y-96647000D01*
D38*
X83566000Y-86652500D02*
X81191500Y-89027000D01*
D37*
X95631000Y-96012000D02*
X95250000Y-96393000D01*
D36*
X93599000Y-106807000D02*
X109240000Y-106807000D01*
X94234000Y-97155000D02*
X93726000Y-96647000D01*
D38*
X83566000Y-86652500D02*
X83604500Y-86614000D01*
D36*
X91440000Y-86614000D02*
X89154000Y-86614000D01*
X95250000Y-86919000D02*
X93777000Y-86919000D01*
X70840000Y-91948000D02*
X72644000Y-91948000D01*
D38*
X83604500Y-86614000D02*
X85979000Y-86614000D01*
D36*
X74676000Y-91948000D02*
X75184000Y-92456000D01*
X91694000Y-86868000D02*
X91440000Y-86614000D01*
X93777000Y-86919000D02*
X93726000Y-86868000D01*
D37*
X98417000Y-96766000D02*
X97663000Y-96012000D01*
X95250000Y-86080000D02*
X95631000Y-85699000D01*
D38*
X75184000Y-92456000D02*
X75184000Y-98552000D01*
X73367500Y-101765500D02*
X73367500Y-100711000D01*
X75184000Y-98552000D02*
X73367500Y-100368500D01*
D36*
X92075000Y-105283000D02*
X93599000Y-106807000D01*
D37*
X95631000Y-85699000D02*
X97028000Y-85699000D01*
X83693000Y-97790000D02*
X84709000Y-96774000D01*
X78510000Y-100227000D02*
X78867000Y-100584000D01*
X83693000Y-99441000D02*
X83693000Y-97790000D01*
X84709000Y-96774000D02*
X85979000Y-96774000D01*
D39*
X78510000Y-99314000D02*
X78510000Y-97053000D01*
X76734000Y-97028000D02*
X78535000Y-97028000D01*
D37*
X78867000Y-100584000D02*
X82550000Y-100584000D01*
D39*
X78510000Y-97053000D02*
X78535000Y-97028000D01*
D37*
X78510000Y-99314000D02*
X78510000Y-100227000D01*
X82550000Y-100584000D02*
X83693000Y-99441000D01*
D39*
X80772000Y-95758000D02*
X83185000Y-95758000D01*
X84709000Y-94234000D02*
X85979000Y-94234000D01*
X78535000Y-92203000D02*
X78536000Y-92202000D01*
X76734000Y-94488000D02*
X78535000Y-94488000D01*
X78535000Y-94488000D02*
X78535000Y-92203000D01*
X78535000Y-94488000D02*
X79502000Y-94488000D01*
X83185000Y-95758000D02*
X84709000Y-94234000D01*
X79502000Y-94488000D02*
X80772000Y-95758000D01*
X83058000Y-90947000D02*
X79263000Y-90947000D01*
X83805000Y-91694000D02*
X83058000Y-90947000D01*
X85979000Y-91694000D02*
X83805000Y-91694000D01*
X79263000Y-90947000D02*
X78994000Y-90678000D01*
X85979000Y-89154000D02*
X83947000Y-89154000D01*
X82931000Y-90170000D02*
X80010000Y-90170000D01*
X83947000Y-89154000D02*
X82931000Y-90170000D01*
D38*
X82931000Y-81407000D02*
X82931000Y-77089000D01*
X81026000Y-83312000D02*
X82931000Y-81407000D01*
X83566000Y-76454000D02*
X85523000Y-76454000D01*
X85979000Y-78867000D02*
X85979000Y-81534000D01*
X85523000Y-78411000D02*
X85979000Y-78867000D01*
X88138000Y-81534000D02*
X90297000Y-79375000D01*
X82931000Y-77089000D02*
X83566000Y-76454000D01*
X90297000Y-79375000D02*
X105537000Y-79375000D01*
X85523000Y-76454000D02*
X85523000Y-78411000D01*
X110236000Y-81534000D02*
X110998000Y-80772000D01*
X85979000Y-81534000D02*
X88138000Y-81534000D01*
X105537000Y-79375000D02*
X106718500Y-80556500D01*
X106718500Y-81534000D02*
X110236000Y-81534000D01*
X106718500Y-80556500D02*
X106718500Y-81534000D01*
X110998000Y-80772000D02*
X110998000Y-78867000D01*
D37*
X102362000Y-102997000D02*
X106299000Y-102997000D01*
X106807000Y-103505000D02*
X106807000Y-104521000D01*
X106299000Y-102997000D02*
X106807000Y-103505000D01*
X83947000Y-88392000D02*
X84455000Y-87884000D01*
X101219000Y-101854000D02*
X102362000Y-102997000D01*
X90932000Y-87884000D02*
X91694000Y-88646000D01*
X84455000Y-87884000D02*
X90932000Y-87884000D01*
X70866000Y-83185000D02*
X72771000Y-83185000D01*
X98679000Y-101854000D02*
X99822000Y-102997000D01*
X92954695Y-98298000D02*
X90803604Y-98298000D01*
X94869000Y-101220396D02*
X93853000Y-100204396D01*
X94869000Y-102235000D02*
X94869000Y-101220396D01*
X93853000Y-100204396D02*
X93853000Y-99196304D01*
X70866000Y-85725000D02*
X72009000Y-85725000D01*
X93853000Y-99196304D02*
X92954695Y-98298000D01*
X83820000Y-90424000D02*
X90043000Y-90424000D01*
X99822000Y-104140000D02*
X100965000Y-105283000D01*
X97536000Y-102997000D02*
X95631000Y-102997000D01*
X99822000Y-102997000D02*
X99822000Y-104140000D01*
X90772453Y-98329151D02*
X90466365Y-98329151D01*
X98679000Y-101854000D02*
X97536000Y-102997000D01*
X90803604Y-98298000D02*
X90772453Y-98329151D01*
X72009000Y-85725000D02*
X72771000Y-86487000D01*
X95631000Y-102997000D02*
X94869000Y-102235000D01*
X71755000Y-105791000D02*
X70739000Y-105791000D01*
X72136000Y-106172000D02*
X71755000Y-105791000D01*
X72771000Y-106172000D02*
X72136000Y-106172000D01*
X70739000Y-108331000D02*
X72263000Y-108331000D01*
X94488000Y-100203000D02*
X94488000Y-98806000D01*
X97741000Y-100252000D02*
X96139000Y-101854000D01*
X91223500Y-90805000D02*
X92493500Y-89535000D01*
X91223500Y-94328500D02*
X91223500Y-95212500D01*
X91129000Y-94234000D02*
X91223500Y-94234000D01*
X97741000Y-99773000D02*
X97741000Y-100252000D01*
X98917000Y-97772000D02*
X98917000Y-98597000D01*
X92493500Y-89535000D02*
X96520000Y-89535000D01*
X90932000Y-97163173D02*
X91495327Y-97726500D01*
X90932000Y-95504000D02*
X90932000Y-97163173D01*
X91495327Y-97726500D02*
X93408500Y-97726500D01*
X98806000Y-87467000D02*
X98814000Y-87459000D01*
X91223500Y-95212500D02*
X90932000Y-95504000D01*
X94488000Y-98806000D02*
X94107000Y-98425000D01*
X91129000Y-94234000D02*
X91223500Y-94328500D01*
X98806000Y-88773000D02*
X98806000Y-87467000D01*
X96139000Y-101854000D02*
X94488000Y-100203000D01*
X93408500Y-97726500D02*
X94107000Y-98425000D01*
D39*
X98806000Y-88773000D02*
X98804000Y-88771000D01*
D37*
X98917000Y-98597000D02*
X97741000Y-99773000D01*
D39*
X98806000Y-88773000D02*
X98814000Y-88765000D01*
D37*
X89154000Y-94234000D02*
X91129000Y-94234000D01*
X92075000Y-103378000D02*
X93599000Y-101854000D01*
X92329000Y-100584000D02*
X92329000Y-99822000D01*
X97917000Y-91186000D02*
X92710000Y-91186000D01*
X99417000Y-99121598D02*
X99417000Y-97772000D01*
X99531000Y-89572000D02*
X98806000Y-90297000D01*
X98634299Y-99904299D02*
X99417000Y-99121598D01*
X92710000Y-91186000D02*
X92202000Y-91694000D01*
X99314000Y-87459000D02*
X99314000Y-88255695D01*
X98806000Y-90297000D02*
X97917000Y-91186000D01*
X93599000Y-101854000D02*
X92329000Y-100584000D01*
X99314000Y-88255695D02*
X99531000Y-88472695D01*
X92202000Y-91694000D02*
X89154000Y-91694000D01*
X99531000Y-88472695D02*
X99531000Y-89572000D01*
D38*
X74002000Y-80645000D02*
X74027000Y-80670000D01*
X72732500Y-80606500D02*
X72796000Y-80670000D01*
X72796000Y-80670000D02*
X74027000Y-80670000D01*
X72694000Y-80645000D02*
X72732500Y-80606500D01*
X70866000Y-80645000D02*
X72694000Y-80645000D01*
D39*
X70840000Y-97028000D02*
X73634000Y-97028000D01*
X70840000Y-94488000D02*
X73634000Y-94488000D01*
D37*
X103707000Y-104521000D02*
X102489000Y-104521000D01*
D38*
X79394280Y-82423000D02*
X81026000Y-80791280D01*
X80924000Y-80670000D02*
X81026000Y-80772000D01*
X76327000Y-82423000D02*
X79394280Y-82423000D01*
D36*
X76327000Y-81280000D02*
X76327000Y-80670000D01*
D38*
X81026000Y-80791280D02*
X81026000Y-80772000D01*
X76327000Y-82423000D02*
X76327000Y-80670000D01*
X76327000Y-86970000D02*
X76327000Y-82423000D01*
D37*
X106833000Y-83820000D02*
X110871000Y-83820000D01*
X106847000Y-86320000D02*
X110871000Y-86320000D01*
X106807000Y-86360000D02*
X106847000Y-86320000D01*
X106854000Y-88820000D02*
X110871000Y-88820000D01*
X106807000Y-88773000D02*
X106854000Y-88820000D01*
X106807000Y-91313000D02*
X106814000Y-91320000D01*
X106814000Y-91320000D02*
X110871000Y-91320000D01*
X98806000Y-85064000D02*
X98806000Y-83167000D01*
X98806000Y-83167000D02*
X98814000Y-83159000D01*
X98905029Y-94742000D02*
X98917000Y-94742000D01*
X98917000Y-94742000D02*
X98917000Y-93472000D01*
X98196831Y-95450198D02*
X98905029Y-94742000D01*
X99822000Y-85064000D02*
X99822000Y-85054695D01*
X99314000Y-84546695D02*
X99314000Y-83159000D01*
X99822000Y-85054695D02*
X99314000Y-84546695D01*
D39*
X99417000Y-95415934D02*
X99417000Y-93472000D01*
X99441000Y-95439934D02*
X99417000Y-95415934D01*
D37*
X91957305Y-92964000D02*
X93100305Y-91821000D01*
X83947000Y-92964000D02*
X91957305Y-92964000D01*
X100094000Y-86088000D02*
X101219000Y-84963000D01*
X98443000Y-91821000D02*
X100094000Y-90170000D01*
X101219000Y-84963000D02*
X101219000Y-84074000D01*
X100094000Y-90170000D02*
X100094000Y-86088000D01*
X93100305Y-91821000D02*
X98443000Y-91821000D01*
X106807000Y-93853000D02*
X106840000Y-93820000D01*
X106840000Y-93820000D02*
X110871000Y-93820000D01*
X106833000Y-96266000D02*
X106887000Y-96320000D01*
X106887000Y-96320000D02*
X110871000Y-96320000D01*
X106807000Y-98806000D02*
X106821000Y-98820000D01*
X106821000Y-98820000D02*
X110871000Y-98820000D01*
X106833000Y-101346000D02*
X106859000Y-101320000D01*
X106859000Y-101320000D02*
X110871000Y-101320000D01*
X97814000Y-82373000D02*
X97814000Y-83159000D01*
X102406000Y-82887000D02*
X100439000Y-82887000D01*
X99568000Y-82016000D02*
X98171000Y-82016000D01*
X100439000Y-82887000D02*
X99568000Y-82016000D01*
X102679205Y-82766205D02*
X103733000Y-83820000D01*
X98171000Y-82016000D02*
X97814000Y-82373000D01*
X102526795Y-82766205D02*
X102679205Y-82766205D01*
X102526795Y-82766205D02*
X102406000Y-82887000D01*
X97314000Y-82683000D02*
X97314000Y-83159000D01*
X103707000Y-86360000D02*
X102616000Y-86360000D01*
X96774000Y-82143000D02*
X97314000Y-82683000D01*
X97314000Y-88741000D02*
X97282000Y-88773000D01*
X97314000Y-87459000D02*
X97314000Y-88741000D01*
X103707000Y-88773000D02*
X102616000Y-88773000D01*
X103707000Y-91313000D02*
X102616000Y-91313000D01*
D39*
X98037000Y-89542000D02*
X98037000Y-88460268D01*
X98037000Y-88460268D02*
X97814000Y-88237268D01*
X97814000Y-88237268D02*
X97814000Y-87459000D01*
X97282000Y-90297000D02*
X98037000Y-89542000D01*
D37*
X103707000Y-93801000D02*
X102616000Y-92710000D01*
X100076000Y-92456000D02*
X100584000Y-92964000D01*
X103707000Y-93853000D02*
X103707000Y-93801000D01*
X100584000Y-92964000D02*
X101727000Y-92964000D01*
X97917000Y-92647000D02*
X98108000Y-92456000D01*
X98108000Y-92456000D02*
X100076000Y-92456000D01*
X97917000Y-93472000D02*
X97917000Y-92647000D01*
X101981000Y-92710000D02*
X102616000Y-92710000D01*
X101727000Y-92964000D02*
X101981000Y-92710000D01*
X97417000Y-93472000D02*
X97417000Y-93099000D01*
X103733000Y-96266000D02*
X102616000Y-96266000D01*
X97417000Y-93099000D02*
X97028000Y-92710000D01*
X97417000Y-97772000D02*
X97046000Y-97772000D01*
X96520000Y-98806000D02*
X95885000Y-99441000D01*
X103707000Y-98806000D02*
X102616000Y-98806000D01*
X96520000Y-98298000D02*
X96520000Y-98806000D01*
X97046000Y-97772000D02*
X96520000Y-98298000D01*
X97155000Y-99441000D02*
X97028000Y-99441000D01*
X103733000Y-101346000D02*
X102616000Y-101346000D01*
X97282000Y-99314000D02*
X97155000Y-99441000D01*
X97917000Y-97772000D02*
X97917000Y-98679000D01*
X97917000Y-98679000D02*
X97282000Y-99314000D01*
X88482000Y-104103000D02*
X87249000Y-102870000D01*
X87249000Y-102870000D02*
X87249000Y-100584000D01*
X90715000Y-104103000D02*
X88482000Y-104103000D01*
X87249000Y-100584000D02*
X85979000Y-99314000D01*
M02*
