M48
; DRILL file {KiCad 7.0.1} date Sun Apr  2 17:09:11 2023
; FORMAT={-:-/ absolute / inch / decimal}
; #@! TF.CreationDate,2023-04-02T17:09:11+02:00
; #@! TF.GenerationSoftware,Kicad,Pcbnew,7.0.1
; #@! TF.FileFunction,Plated,1,2,PTH
FMAT,2
INCH
; #@! TA.AperFunction,Plated,PTH,ViaDrill
T1C0.0157
; #@! TA.AperFunction,Plated,PTH,ViaDrill
T2C0.0236
; #@! TA.AperFunction,Plated,PTH,ComponentDrill
T3C0.0315
; #@! TA.AperFunction,Plated,PTH,ComponentDrill
T4C0.0374
; #@! TA.AperFunction,Plated,PTH,ComponentDrill
T5C0.0394
; #@! TA.AperFunction,Plated,PTH,ComponentDrill
T6C0.0866
%
G90
G05
T1
X2.79Y-3.01
X2.845Y-4.265
X2.86Y-3.52
X2.86Y-3.62
X2.865Y-3.275
X2.865Y-3.405
X2.865Y-4.18
X3.11Y-3.57
X3.15Y-3.55
X3.265Y-3.63
X3.265Y-3.72
X3.265Y-3.82
X3.265Y-3.885
X3.3Y-3.56
X3.305Y-3.48
X3.305Y-3.66
X3.545Y-3.56
X3.5617Y-3.8712
X3.5715Y-4.0985
X3.5915Y-3.575
X3.5915Y-3.71
X3.61Y-3.49
X3.625Y-4.07
X3.65Y-3.59
X3.69Y-3.42
X3.69Y-3.745
X3.705Y-3.875
X3.75Y-3.249
X3.75Y-3.655
X3.775Y-3.915
X3.8Y-3.525
X3.81Y-3.234
X3.82Y-3.374
X3.82Y-3.65
X3.82Y-3.78
X3.82Y-3.915
X3.83Y-3.495
X3.83Y-3.555
X3.866Y-3.7579
X3.8832Y-3.9332
X3.89Y-3.349
X3.89Y-3.495
X3.9106Y-3.3832
X3.915Y-3.7575
X3.93Y-3.349
X4.035Y-4.115
X4.0365Y-3.2585
X4.04Y-3.4
X4.04Y-3.495
X4.04Y-3.595
X4.04Y-3.65
X4.04Y-3.79
X4.04Y-3.89
X4.04Y-3.99
X4.14Y-3.21
T2
X2.785Y-3.905
X2.8525Y-4.0425
X2.8635Y-3.1735
X3.07Y-3.98
X3.095Y-3.11
X3.2Y-3.01
T3
X3.385Y-3.21
X3.385Y-3.31
X3.385Y-3.41
X3.385Y-3.51
X3.385Y-3.61
X3.385Y-3.71
X3.385Y-3.81
X3.385Y-3.91
X3.385Y-4.01
X3.485Y-4.01
X3.51Y-3.41
X3.51Y-3.51
X3.51Y-3.61
X3.51Y-3.71
X3.51Y-3.81
X3.51Y-3.91
X3.585Y-4.01
X3.685Y-4.01
X3.785Y-4.01
X3.885Y-4.01
X3.985Y-3.21
X3.985Y-3.31
X3.985Y-3.41
X3.985Y-3.51
X3.985Y-3.61
X3.985Y-3.71
X3.985Y-3.81
X3.985Y-3.91
X3.985Y-4.01
T4
X4.365Y-3.3
X4.365Y-3.3984
X4.365Y-3.4969
X4.365Y-3.5953
X4.365Y-3.6937
X4.365Y-3.7921
X4.365Y-3.8906
X4.365Y-3.989
X4.365Y-4.0874
T5
X3.19Y-3.18
X3.19Y-3.28
X3.19Y-3.38
X3.325Y-4.145
X3.425Y-4.145
X3.525Y-4.145
X3.625Y-4.145
X3.775Y-4.145
X3.875Y-4.145
X3.975Y-4.145
X4.27Y-3.105
X4.2708Y-4.275
T6
X2.955Y-3.0
X2.955Y-4.305
X4.13Y-3.0
X4.13Y-4.305
T0
M30
