G04 #@! TF.GenerationSoftware,KiCad,Pcbnew,7.0.1*
G04 #@! TF.CreationDate,2023-04-05T15:05:47+02:00*
G04 #@! TF.ProjectId,OXS_RP2040_Full,4f58535f-5250-4323-9034-305f46756c6c,rev?*
G04 #@! TF.SameCoordinates,Original*
G04 #@! TF.FileFunction,Legend,Bot*
G04 #@! TF.FilePolarity,Positive*
%FSLAX46Y46*%
G04 Gerber Fmt 4.6, Leading zero omitted, Abs format (unit mm)*
G04 Created by KiCad (PCBNEW 7.0.1) date 2023-04-05 15:05:47*
%MOMM*%
%LPD*%
G01*
G04 APERTURE LIST*
%ADD10C,0.120000*%
%ADD11C,0.150000*%
%ADD12C,0.010000*%
G04 APERTURE END LIST*
D10*
X73406000Y-83185000D02*
X73152000Y-83185000D01*
X73406000Y-83185000D02*
X73406000Y-86106000D01*
X73406000Y-86106000D02*
X72898000Y-86106000D01*
D11*
X77279523Y-85840000D02*
X77136666Y-85887619D01*
X77136666Y-85887619D02*
X76898571Y-85887619D01*
X76898571Y-85887619D02*
X76803333Y-85840000D01*
X76803333Y-85840000D02*
X76755714Y-85792380D01*
X76755714Y-85792380D02*
X76708095Y-85697142D01*
X76708095Y-85697142D02*
X76708095Y-85601904D01*
X76708095Y-85601904D02*
X76755714Y-85506666D01*
X76755714Y-85506666D02*
X76803333Y-85459047D01*
X76803333Y-85459047D02*
X76898571Y-85411428D01*
X76898571Y-85411428D02*
X77089047Y-85363809D01*
X77089047Y-85363809D02*
X77184285Y-85316190D01*
X77184285Y-85316190D02*
X77231904Y-85268571D01*
X77231904Y-85268571D02*
X77279523Y-85173333D01*
X77279523Y-85173333D02*
X77279523Y-85078095D01*
X77279523Y-85078095D02*
X77231904Y-84982857D01*
X77231904Y-84982857D02*
X77184285Y-84935238D01*
X77184285Y-84935238D02*
X77089047Y-84887619D01*
X77089047Y-84887619D02*
X76850952Y-84887619D01*
X76850952Y-84887619D02*
X76708095Y-84935238D01*
X75946190Y-85363809D02*
X75803333Y-85411428D01*
X75803333Y-85411428D02*
X75755714Y-85459047D01*
X75755714Y-85459047D02*
X75708095Y-85554285D01*
X75708095Y-85554285D02*
X75708095Y-85697142D01*
X75708095Y-85697142D02*
X75755714Y-85792380D01*
X75755714Y-85792380D02*
X75803333Y-85840000D01*
X75803333Y-85840000D02*
X75898571Y-85887619D01*
X75898571Y-85887619D02*
X76279523Y-85887619D01*
X76279523Y-85887619D02*
X76279523Y-84887619D01*
X76279523Y-84887619D02*
X75946190Y-84887619D01*
X75946190Y-84887619D02*
X75850952Y-84935238D01*
X75850952Y-84935238D02*
X75803333Y-84982857D01*
X75803333Y-84982857D02*
X75755714Y-85078095D01*
X75755714Y-85078095D02*
X75755714Y-85173333D01*
X75755714Y-85173333D02*
X75803333Y-85268571D01*
X75803333Y-85268571D02*
X75850952Y-85316190D01*
X75850952Y-85316190D02*
X75946190Y-85363809D01*
X75946190Y-85363809D02*
X76279523Y-85363809D01*
X75279523Y-84887619D02*
X75279523Y-85697142D01*
X75279523Y-85697142D02*
X75231904Y-85792380D01*
X75231904Y-85792380D02*
X75184285Y-85840000D01*
X75184285Y-85840000D02*
X75089047Y-85887619D01*
X75089047Y-85887619D02*
X74898571Y-85887619D01*
X74898571Y-85887619D02*
X74803333Y-85840000D01*
X74803333Y-85840000D02*
X74755714Y-85792380D01*
X74755714Y-85792380D02*
X74708095Y-85697142D01*
X74708095Y-85697142D02*
X74708095Y-84887619D01*
X74279523Y-85840000D02*
X74136666Y-85887619D01*
X74136666Y-85887619D02*
X73898571Y-85887619D01*
X73898571Y-85887619D02*
X73803333Y-85840000D01*
X73803333Y-85840000D02*
X73755714Y-85792380D01*
X73755714Y-85792380D02*
X73708095Y-85697142D01*
X73708095Y-85697142D02*
X73708095Y-85601904D01*
X73708095Y-85601904D02*
X73755714Y-85506666D01*
X73755714Y-85506666D02*
X73803333Y-85459047D01*
X73803333Y-85459047D02*
X73898571Y-85411428D01*
X73898571Y-85411428D02*
X74089047Y-85363809D01*
X74089047Y-85363809D02*
X74184285Y-85316190D01*
X74184285Y-85316190D02*
X74231904Y-85268571D01*
X74231904Y-85268571D02*
X74279523Y-85173333D01*
X74279523Y-85173333D02*
X74279523Y-85078095D01*
X74279523Y-85078095D02*
X74231904Y-84982857D01*
X74231904Y-84982857D02*
X74184285Y-84935238D01*
X74184285Y-84935238D02*
X74089047Y-84887619D01*
X74089047Y-84887619D02*
X73850952Y-84887619D01*
X73850952Y-84887619D02*
X73708095Y-84935238D01*
X75708094Y-87507619D02*
X75708094Y-86507619D01*
X75231904Y-87507619D02*
X75231904Y-86507619D01*
X75231904Y-86507619D02*
X74660476Y-87507619D01*
X74660476Y-87507619D02*
X74660476Y-86507619D01*
X74469523Y-99665619D02*
X74469523Y-100379904D01*
X74469523Y-100379904D02*
X74517142Y-100522761D01*
X74517142Y-100522761D02*
X74612380Y-100618000D01*
X74612380Y-100618000D02*
X74755237Y-100665619D01*
X74755237Y-100665619D02*
X74850475Y-100665619D01*
X73469523Y-100665619D02*
X74040951Y-100665619D01*
X73755237Y-100665619D02*
X73755237Y-99665619D01*
X73755237Y-99665619D02*
X73850475Y-99808476D01*
X73850475Y-99808476D02*
X73945713Y-99903714D01*
X73945713Y-99903714D02*
X74040951Y-99951333D01*
X72850475Y-99665619D02*
X72755237Y-99665619D01*
X72755237Y-99665619D02*
X72659999Y-99713238D01*
X72659999Y-99713238D02*
X72612380Y-99760857D01*
X72612380Y-99760857D02*
X72564761Y-99856095D01*
X72564761Y-99856095D02*
X72517142Y-100046571D01*
X72517142Y-100046571D02*
X72517142Y-100284666D01*
X72517142Y-100284666D02*
X72564761Y-100475142D01*
X72564761Y-100475142D02*
X72612380Y-100570380D01*
X72612380Y-100570380D02*
X72659999Y-100618000D01*
X72659999Y-100618000D02*
X72755237Y-100665619D01*
X72755237Y-100665619D02*
X72850475Y-100665619D01*
X72850475Y-100665619D02*
X72945713Y-100618000D01*
X72945713Y-100618000D02*
X72993332Y-100570380D01*
X72993332Y-100570380D02*
X73040951Y-100475142D01*
X73040951Y-100475142D02*
X73088570Y-100284666D01*
X73088570Y-100284666D02*
X73088570Y-100046571D01*
X73088570Y-100046571D02*
X73040951Y-99856095D01*
X73040951Y-99856095D02*
X72993332Y-99760857D01*
X72993332Y-99760857D02*
X72945713Y-99713238D01*
X72945713Y-99713238D02*
X72850475Y-99665619D01*
X92791619Y-97528142D02*
X92315428Y-97194809D01*
X92791619Y-96956714D02*
X91791619Y-96956714D01*
X91791619Y-96956714D02*
X91791619Y-97337666D01*
X91791619Y-97337666D02*
X91839238Y-97432904D01*
X91839238Y-97432904D02*
X91886857Y-97480523D01*
X91886857Y-97480523D02*
X91982095Y-97528142D01*
X91982095Y-97528142D02*
X92124952Y-97528142D01*
X92124952Y-97528142D02*
X92220190Y-97480523D01*
X92220190Y-97480523D02*
X92267809Y-97432904D01*
X92267809Y-97432904D02*
X92315428Y-97337666D01*
X92315428Y-97337666D02*
X92315428Y-96956714D01*
X92791619Y-98480523D02*
X92791619Y-97909095D01*
X92791619Y-98194809D02*
X91791619Y-98194809D01*
X91791619Y-98194809D02*
X91934476Y-98099571D01*
X91934476Y-98099571D02*
X92029714Y-98004333D01*
X92029714Y-98004333D02*
X92077333Y-97909095D01*
X91791619Y-99099571D02*
X91791619Y-99194809D01*
X91791619Y-99194809D02*
X91839238Y-99290047D01*
X91839238Y-99290047D02*
X91886857Y-99337666D01*
X91886857Y-99337666D02*
X91982095Y-99385285D01*
X91982095Y-99385285D02*
X92172571Y-99432904D01*
X92172571Y-99432904D02*
X92410666Y-99432904D01*
X92410666Y-99432904D02*
X92601142Y-99385285D01*
X92601142Y-99385285D02*
X92696380Y-99337666D01*
X92696380Y-99337666D02*
X92744000Y-99290047D01*
X92744000Y-99290047D02*
X92791619Y-99194809D01*
X92791619Y-99194809D02*
X92791619Y-99099571D01*
X92791619Y-99099571D02*
X92744000Y-99004333D01*
X92744000Y-99004333D02*
X92696380Y-98956714D01*
X92696380Y-98956714D02*
X92601142Y-98909095D01*
X92601142Y-98909095D02*
X92410666Y-98861476D01*
X92410666Y-98861476D02*
X92172571Y-98861476D01*
X92172571Y-98861476D02*
X91982095Y-98909095D01*
X91982095Y-98909095D02*
X91886857Y-98956714D01*
X91886857Y-98956714D02*
X91839238Y-99004333D01*
X91839238Y-99004333D02*
X91791619Y-99099571D01*
X109735857Y-82123619D02*
X110069190Y-81647428D01*
X110307285Y-82123619D02*
X110307285Y-81123619D01*
X110307285Y-81123619D02*
X109926333Y-81123619D01*
X109926333Y-81123619D02*
X109831095Y-81171238D01*
X109831095Y-81171238D02*
X109783476Y-81218857D01*
X109783476Y-81218857D02*
X109735857Y-81314095D01*
X109735857Y-81314095D02*
X109735857Y-81456952D01*
X109735857Y-81456952D02*
X109783476Y-81552190D01*
X109783476Y-81552190D02*
X109831095Y-81599809D01*
X109831095Y-81599809D02*
X109926333Y-81647428D01*
X109926333Y-81647428D02*
X110307285Y-81647428D01*
X108783476Y-82123619D02*
X109354904Y-82123619D01*
X109069190Y-82123619D02*
X109069190Y-81123619D01*
X109069190Y-81123619D02*
X109164428Y-81266476D01*
X109164428Y-81266476D02*
X109259666Y-81361714D01*
X109259666Y-81361714D02*
X109354904Y-81409333D01*
X108450142Y-81123619D02*
X107783476Y-81123619D01*
X107783476Y-81123619D02*
X108212047Y-82123619D01*
X75350666Y-99395619D02*
X75683999Y-98919428D01*
X75922094Y-99395619D02*
X75922094Y-98395619D01*
X75922094Y-98395619D02*
X75541142Y-98395619D01*
X75541142Y-98395619D02*
X75445904Y-98443238D01*
X75445904Y-98443238D02*
X75398285Y-98490857D01*
X75398285Y-98490857D02*
X75350666Y-98586095D01*
X75350666Y-98586095D02*
X75350666Y-98728952D01*
X75350666Y-98728952D02*
X75398285Y-98824190D01*
X75398285Y-98824190D02*
X75445904Y-98871809D01*
X75445904Y-98871809D02*
X75541142Y-98919428D01*
X75541142Y-98919428D02*
X75922094Y-98919428D01*
X75017332Y-98395619D02*
X74398285Y-98395619D01*
X74398285Y-98395619D02*
X74731618Y-98776571D01*
X74731618Y-98776571D02*
X74588761Y-98776571D01*
X74588761Y-98776571D02*
X74493523Y-98824190D01*
X74493523Y-98824190D02*
X74445904Y-98871809D01*
X74445904Y-98871809D02*
X74398285Y-98967047D01*
X74398285Y-98967047D02*
X74398285Y-99205142D01*
X74398285Y-99205142D02*
X74445904Y-99300380D01*
X74445904Y-99300380D02*
X74493523Y-99348000D01*
X74493523Y-99348000D02*
X74588761Y-99395619D01*
X74588761Y-99395619D02*
X74874475Y-99395619D01*
X74874475Y-99395619D02*
X74969713Y-99348000D01*
X74969713Y-99348000D02*
X75017332Y-99300380D01*
X81700666Y-90918380D02*
X81748285Y-90966000D01*
X81748285Y-90966000D02*
X81891142Y-91013619D01*
X81891142Y-91013619D02*
X81986380Y-91013619D01*
X81986380Y-91013619D02*
X82129237Y-90966000D01*
X82129237Y-90966000D02*
X82224475Y-90870761D01*
X82224475Y-90870761D02*
X82272094Y-90775523D01*
X82272094Y-90775523D02*
X82319713Y-90585047D01*
X82319713Y-90585047D02*
X82319713Y-90442190D01*
X82319713Y-90442190D02*
X82272094Y-90251714D01*
X82272094Y-90251714D02*
X82224475Y-90156476D01*
X82224475Y-90156476D02*
X82129237Y-90061238D01*
X82129237Y-90061238D02*
X81986380Y-90013619D01*
X81986380Y-90013619D02*
X81891142Y-90013619D01*
X81891142Y-90013619D02*
X81748285Y-90061238D01*
X81748285Y-90061238D02*
X81700666Y-90108857D01*
X80843523Y-90346952D02*
X80843523Y-91013619D01*
X81081618Y-89966000D02*
X81319713Y-90680285D01*
X81319713Y-90680285D02*
X80700666Y-90680285D01*
X73485333Y-87727619D02*
X73485333Y-88441904D01*
X73485333Y-88441904D02*
X73532952Y-88584761D01*
X73532952Y-88584761D02*
X73628190Y-88680000D01*
X73628190Y-88680000D02*
X73771047Y-88727619D01*
X73771047Y-88727619D02*
X73866285Y-88727619D01*
X73104380Y-87727619D02*
X72485333Y-87727619D01*
X72485333Y-87727619D02*
X72818666Y-88108571D01*
X72818666Y-88108571D02*
X72675809Y-88108571D01*
X72675809Y-88108571D02*
X72580571Y-88156190D01*
X72580571Y-88156190D02*
X72532952Y-88203809D01*
X72532952Y-88203809D02*
X72485333Y-88299047D01*
X72485333Y-88299047D02*
X72485333Y-88537142D01*
X72485333Y-88537142D02*
X72532952Y-88632380D01*
X72532952Y-88632380D02*
X72580571Y-88680000D01*
X72580571Y-88680000D02*
X72675809Y-88727619D01*
X72675809Y-88727619D02*
X72961523Y-88727619D01*
X72961523Y-88727619D02*
X73056761Y-88680000D01*
X73056761Y-88680000D02*
X73104380Y-88632380D01*
X100030619Y-91178142D02*
X99554428Y-90844809D01*
X100030619Y-90606714D02*
X99030619Y-90606714D01*
X99030619Y-90606714D02*
X99030619Y-90987666D01*
X99030619Y-90987666D02*
X99078238Y-91082904D01*
X99078238Y-91082904D02*
X99125857Y-91130523D01*
X99125857Y-91130523D02*
X99221095Y-91178142D01*
X99221095Y-91178142D02*
X99363952Y-91178142D01*
X99363952Y-91178142D02*
X99459190Y-91130523D01*
X99459190Y-91130523D02*
X99506809Y-91082904D01*
X99506809Y-91082904D02*
X99554428Y-90987666D01*
X99554428Y-90987666D02*
X99554428Y-90606714D01*
X100030619Y-92130523D02*
X100030619Y-91559095D01*
X100030619Y-91844809D02*
X99030619Y-91844809D01*
X99030619Y-91844809D02*
X99173476Y-91749571D01*
X99173476Y-91749571D02*
X99268714Y-91654333D01*
X99268714Y-91654333D02*
X99316333Y-91559095D01*
X99030619Y-92987666D02*
X99030619Y-92797190D01*
X99030619Y-92797190D02*
X99078238Y-92701952D01*
X99078238Y-92701952D02*
X99125857Y-92654333D01*
X99125857Y-92654333D02*
X99268714Y-92559095D01*
X99268714Y-92559095D02*
X99459190Y-92511476D01*
X99459190Y-92511476D02*
X99840142Y-92511476D01*
X99840142Y-92511476D02*
X99935380Y-92559095D01*
X99935380Y-92559095D02*
X99983000Y-92606714D01*
X99983000Y-92606714D02*
X100030619Y-92701952D01*
X100030619Y-92701952D02*
X100030619Y-92892428D01*
X100030619Y-92892428D02*
X99983000Y-92987666D01*
X99983000Y-92987666D02*
X99935380Y-93035285D01*
X99935380Y-93035285D02*
X99840142Y-93082904D01*
X99840142Y-93082904D02*
X99602047Y-93082904D01*
X99602047Y-93082904D02*
X99506809Y-93035285D01*
X99506809Y-93035285D02*
X99459190Y-92987666D01*
X99459190Y-92987666D02*
X99411571Y-92892428D01*
X99411571Y-92892428D02*
X99411571Y-92701952D01*
X99411571Y-92701952D02*
X99459190Y-92606714D01*
X99459190Y-92606714D02*
X99506809Y-92559095D01*
X99506809Y-92559095D02*
X99602047Y-92511476D01*
X108666619Y-93210142D02*
X108190428Y-92876809D01*
X108666619Y-92638714D02*
X107666619Y-92638714D01*
X107666619Y-92638714D02*
X107666619Y-93019666D01*
X107666619Y-93019666D02*
X107714238Y-93114904D01*
X107714238Y-93114904D02*
X107761857Y-93162523D01*
X107761857Y-93162523D02*
X107857095Y-93210142D01*
X107857095Y-93210142D02*
X107999952Y-93210142D01*
X107999952Y-93210142D02*
X108095190Y-93162523D01*
X108095190Y-93162523D02*
X108142809Y-93114904D01*
X108142809Y-93114904D02*
X108190428Y-93019666D01*
X108190428Y-93019666D02*
X108190428Y-92638714D01*
X107666619Y-93543476D02*
X107666619Y-94162523D01*
X107666619Y-94162523D02*
X108047571Y-93829190D01*
X108047571Y-93829190D02*
X108047571Y-93972047D01*
X108047571Y-93972047D02*
X108095190Y-94067285D01*
X108095190Y-94067285D02*
X108142809Y-94114904D01*
X108142809Y-94114904D02*
X108238047Y-94162523D01*
X108238047Y-94162523D02*
X108476142Y-94162523D01*
X108476142Y-94162523D02*
X108571380Y-94114904D01*
X108571380Y-94114904D02*
X108619000Y-94067285D01*
X108619000Y-94067285D02*
X108666619Y-93972047D01*
X108666619Y-93972047D02*
X108666619Y-93686333D01*
X108666619Y-93686333D02*
X108619000Y-93591095D01*
X108619000Y-93591095D02*
X108571380Y-93543476D01*
X108666619Y-95114904D02*
X108666619Y-94543476D01*
X108666619Y-94829190D02*
X107666619Y-94829190D01*
X107666619Y-94829190D02*
X107809476Y-94733952D01*
X107809476Y-94733952D02*
X107904714Y-94638714D01*
X107904714Y-94638714D02*
X107952333Y-94543476D01*
X91299380Y-82764333D02*
X91347000Y-82716714D01*
X91347000Y-82716714D02*
X91394619Y-82573857D01*
X91394619Y-82573857D02*
X91394619Y-82478619D01*
X91394619Y-82478619D02*
X91347000Y-82335762D01*
X91347000Y-82335762D02*
X91251761Y-82240524D01*
X91251761Y-82240524D02*
X91156523Y-82192905D01*
X91156523Y-82192905D02*
X90966047Y-82145286D01*
X90966047Y-82145286D02*
X90823190Y-82145286D01*
X90823190Y-82145286D02*
X90632714Y-82192905D01*
X90632714Y-82192905D02*
X90537476Y-82240524D01*
X90537476Y-82240524D02*
X90442238Y-82335762D01*
X90442238Y-82335762D02*
X90394619Y-82478619D01*
X90394619Y-82478619D02*
X90394619Y-82573857D01*
X90394619Y-82573857D02*
X90442238Y-82716714D01*
X90442238Y-82716714D02*
X90489857Y-82764333D01*
X90394619Y-83669095D02*
X90394619Y-83192905D01*
X90394619Y-83192905D02*
X90870809Y-83145286D01*
X90870809Y-83145286D02*
X90823190Y-83192905D01*
X90823190Y-83192905D02*
X90775571Y-83288143D01*
X90775571Y-83288143D02*
X90775571Y-83526238D01*
X90775571Y-83526238D02*
X90823190Y-83621476D01*
X90823190Y-83621476D02*
X90870809Y-83669095D01*
X90870809Y-83669095D02*
X90966047Y-83716714D01*
X90966047Y-83716714D02*
X91204142Y-83716714D01*
X91204142Y-83716714D02*
X91299380Y-83669095D01*
X91299380Y-83669095D02*
X91347000Y-83621476D01*
X91347000Y-83621476D02*
X91394619Y-83526238D01*
X91394619Y-83526238D02*
X91394619Y-83288143D01*
X91394619Y-83288143D02*
X91347000Y-83192905D01*
X91347000Y-83192905D02*
X91299380Y-83145286D01*
X109809619Y-85844142D02*
X109333428Y-85510809D01*
X109809619Y-85272714D02*
X108809619Y-85272714D01*
X108809619Y-85272714D02*
X108809619Y-85653666D01*
X108809619Y-85653666D02*
X108857238Y-85748904D01*
X108857238Y-85748904D02*
X108904857Y-85796523D01*
X108904857Y-85796523D02*
X109000095Y-85844142D01*
X109000095Y-85844142D02*
X109142952Y-85844142D01*
X109142952Y-85844142D02*
X109238190Y-85796523D01*
X109238190Y-85796523D02*
X109285809Y-85748904D01*
X109285809Y-85748904D02*
X109333428Y-85653666D01*
X109333428Y-85653666D02*
X109333428Y-85272714D01*
X108904857Y-86225095D02*
X108857238Y-86272714D01*
X108857238Y-86272714D02*
X108809619Y-86367952D01*
X108809619Y-86367952D02*
X108809619Y-86606047D01*
X108809619Y-86606047D02*
X108857238Y-86701285D01*
X108857238Y-86701285D02*
X108904857Y-86748904D01*
X108904857Y-86748904D02*
X109000095Y-86796523D01*
X109000095Y-86796523D02*
X109095333Y-86796523D01*
X109095333Y-86796523D02*
X109238190Y-86748904D01*
X109238190Y-86748904D02*
X109809619Y-86177476D01*
X109809619Y-86177476D02*
X109809619Y-86796523D01*
X109809619Y-87272714D02*
X109809619Y-87463190D01*
X109809619Y-87463190D02*
X109762000Y-87558428D01*
X109762000Y-87558428D02*
X109714380Y-87606047D01*
X109714380Y-87606047D02*
X109571523Y-87701285D01*
X109571523Y-87701285D02*
X109381047Y-87748904D01*
X109381047Y-87748904D02*
X109000095Y-87748904D01*
X109000095Y-87748904D02*
X108904857Y-87701285D01*
X108904857Y-87701285D02*
X108857238Y-87653666D01*
X108857238Y-87653666D02*
X108809619Y-87558428D01*
X108809619Y-87558428D02*
X108809619Y-87367952D01*
X108809619Y-87367952D02*
X108857238Y-87272714D01*
X108857238Y-87272714D02*
X108904857Y-87225095D01*
X108904857Y-87225095D02*
X109000095Y-87177476D01*
X109000095Y-87177476D02*
X109238190Y-87177476D01*
X109238190Y-87177476D02*
X109333428Y-87225095D01*
X109333428Y-87225095D02*
X109381047Y-87272714D01*
X109381047Y-87272714D02*
X109428666Y-87367952D01*
X109428666Y-87367952D02*
X109428666Y-87558428D01*
X109428666Y-87558428D02*
X109381047Y-87653666D01*
X109381047Y-87653666D02*
X109333428Y-87701285D01*
X109333428Y-87701285D02*
X109238190Y-87748904D01*
X84409619Y-96861333D02*
X83933428Y-96528000D01*
X84409619Y-96289905D02*
X83409619Y-96289905D01*
X83409619Y-96289905D02*
X83409619Y-96670857D01*
X83409619Y-96670857D02*
X83457238Y-96766095D01*
X83457238Y-96766095D02*
X83504857Y-96813714D01*
X83504857Y-96813714D02*
X83600095Y-96861333D01*
X83600095Y-96861333D02*
X83742952Y-96861333D01*
X83742952Y-96861333D02*
X83838190Y-96813714D01*
X83838190Y-96813714D02*
X83885809Y-96766095D01*
X83885809Y-96766095D02*
X83933428Y-96670857D01*
X83933428Y-96670857D02*
X83933428Y-96289905D01*
X83409619Y-97194667D02*
X83409619Y-97861333D01*
X83409619Y-97861333D02*
X84409619Y-97432762D01*
X80265166Y-101713380D02*
X80312785Y-101761000D01*
X80312785Y-101761000D02*
X80455642Y-101808619D01*
X80455642Y-101808619D02*
X80550880Y-101808619D01*
X80550880Y-101808619D02*
X80693737Y-101761000D01*
X80693737Y-101761000D02*
X80788975Y-101665761D01*
X80788975Y-101665761D02*
X80836594Y-101570523D01*
X80836594Y-101570523D02*
X80884213Y-101380047D01*
X80884213Y-101380047D02*
X80884213Y-101237190D01*
X80884213Y-101237190D02*
X80836594Y-101046714D01*
X80836594Y-101046714D02*
X80788975Y-100951476D01*
X80788975Y-100951476D02*
X80693737Y-100856238D01*
X80693737Y-100856238D02*
X80550880Y-100808619D01*
X80550880Y-100808619D02*
X80455642Y-100808619D01*
X80455642Y-100808619D02*
X80312785Y-100856238D01*
X80312785Y-100856238D02*
X80265166Y-100903857D01*
X79931832Y-100808619D02*
X79312785Y-100808619D01*
X79312785Y-100808619D02*
X79646118Y-101189571D01*
X79646118Y-101189571D02*
X79503261Y-101189571D01*
X79503261Y-101189571D02*
X79408023Y-101237190D01*
X79408023Y-101237190D02*
X79360404Y-101284809D01*
X79360404Y-101284809D02*
X79312785Y-101380047D01*
X79312785Y-101380047D02*
X79312785Y-101618142D01*
X79312785Y-101618142D02*
X79360404Y-101713380D01*
X79360404Y-101713380D02*
X79408023Y-101761000D01*
X79408023Y-101761000D02*
X79503261Y-101808619D01*
X79503261Y-101808619D02*
X79788975Y-101808619D01*
X79788975Y-101808619D02*
X79884213Y-101761000D01*
X79884213Y-101761000D02*
X79931832Y-101713380D01*
X77075380Y-82002333D02*
X77123000Y-81954714D01*
X77123000Y-81954714D02*
X77170619Y-81811857D01*
X77170619Y-81811857D02*
X77170619Y-81716619D01*
X77170619Y-81716619D02*
X77123000Y-81573762D01*
X77123000Y-81573762D02*
X77027761Y-81478524D01*
X77027761Y-81478524D02*
X76932523Y-81430905D01*
X76932523Y-81430905D02*
X76742047Y-81383286D01*
X76742047Y-81383286D02*
X76599190Y-81383286D01*
X76599190Y-81383286D02*
X76408714Y-81430905D01*
X76408714Y-81430905D02*
X76313476Y-81478524D01*
X76313476Y-81478524D02*
X76218238Y-81573762D01*
X76218238Y-81573762D02*
X76170619Y-81716619D01*
X76170619Y-81716619D02*
X76170619Y-81811857D01*
X76170619Y-81811857D02*
X76218238Y-81954714D01*
X76218238Y-81954714D02*
X76265857Y-82002333D01*
X76170619Y-82335667D02*
X76170619Y-83002333D01*
X76170619Y-83002333D02*
X77170619Y-82573762D01*
X99776619Y-80865142D02*
X99300428Y-80531809D01*
X99776619Y-80293714D02*
X98776619Y-80293714D01*
X98776619Y-80293714D02*
X98776619Y-80674666D01*
X98776619Y-80674666D02*
X98824238Y-80769904D01*
X98824238Y-80769904D02*
X98871857Y-80817523D01*
X98871857Y-80817523D02*
X98967095Y-80865142D01*
X98967095Y-80865142D02*
X99109952Y-80865142D01*
X99109952Y-80865142D02*
X99205190Y-80817523D01*
X99205190Y-80817523D02*
X99252809Y-80769904D01*
X99252809Y-80769904D02*
X99300428Y-80674666D01*
X99300428Y-80674666D02*
X99300428Y-80293714D01*
X99776619Y-81817523D02*
X99776619Y-81246095D01*
X99776619Y-81531809D02*
X98776619Y-81531809D01*
X98776619Y-81531809D02*
X98919476Y-81436571D01*
X98919476Y-81436571D02*
X99014714Y-81341333D01*
X99014714Y-81341333D02*
X99062333Y-81246095D01*
X99776619Y-82769904D02*
X99776619Y-82198476D01*
X99776619Y-82484190D02*
X98776619Y-82484190D01*
X98776619Y-82484190D02*
X98919476Y-82388952D01*
X98919476Y-82388952D02*
X99014714Y-82293714D01*
X99014714Y-82293714D02*
X99062333Y-82198476D01*
X73358333Y-78202619D02*
X73358333Y-78916904D01*
X73358333Y-78916904D02*
X73405952Y-79059761D01*
X73405952Y-79059761D02*
X73501190Y-79155000D01*
X73501190Y-79155000D02*
X73644047Y-79202619D01*
X73644047Y-79202619D02*
X73739285Y-79202619D01*
X72358333Y-79202619D02*
X72929761Y-79202619D01*
X72644047Y-79202619D02*
X72644047Y-78202619D01*
X72644047Y-78202619D02*
X72739285Y-78345476D01*
X72739285Y-78345476D02*
X72834523Y-78440714D01*
X72834523Y-78440714D02*
X72929761Y-78488333D01*
X96982619Y-91178142D02*
X96506428Y-90844809D01*
X96982619Y-90606714D02*
X95982619Y-90606714D01*
X95982619Y-90606714D02*
X95982619Y-90987666D01*
X95982619Y-90987666D02*
X96030238Y-91082904D01*
X96030238Y-91082904D02*
X96077857Y-91130523D01*
X96077857Y-91130523D02*
X96173095Y-91178142D01*
X96173095Y-91178142D02*
X96315952Y-91178142D01*
X96315952Y-91178142D02*
X96411190Y-91130523D01*
X96411190Y-91130523D02*
X96458809Y-91082904D01*
X96458809Y-91082904D02*
X96506428Y-90987666D01*
X96506428Y-90987666D02*
X96506428Y-90606714D01*
X96982619Y-92130523D02*
X96982619Y-91559095D01*
X96982619Y-91844809D02*
X95982619Y-91844809D01*
X95982619Y-91844809D02*
X96125476Y-91749571D01*
X96125476Y-91749571D02*
X96220714Y-91654333D01*
X96220714Y-91654333D02*
X96268333Y-91559095D01*
X96315952Y-92987666D02*
X96982619Y-92987666D01*
X95935000Y-92749571D02*
X96649285Y-92511476D01*
X96649285Y-92511476D02*
X96649285Y-93130523D01*
X108666619Y-98163142D02*
X108190428Y-97829809D01*
X108666619Y-97591714D02*
X107666619Y-97591714D01*
X107666619Y-97591714D02*
X107666619Y-97972666D01*
X107666619Y-97972666D02*
X107714238Y-98067904D01*
X107714238Y-98067904D02*
X107761857Y-98115523D01*
X107761857Y-98115523D02*
X107857095Y-98163142D01*
X107857095Y-98163142D02*
X107999952Y-98163142D01*
X107999952Y-98163142D02*
X108095190Y-98115523D01*
X108095190Y-98115523D02*
X108142809Y-98067904D01*
X108142809Y-98067904D02*
X108190428Y-97972666D01*
X108190428Y-97972666D02*
X108190428Y-97591714D01*
X107666619Y-98496476D02*
X107666619Y-99115523D01*
X107666619Y-99115523D02*
X108047571Y-98782190D01*
X108047571Y-98782190D02*
X108047571Y-98925047D01*
X108047571Y-98925047D02*
X108095190Y-99020285D01*
X108095190Y-99020285D02*
X108142809Y-99067904D01*
X108142809Y-99067904D02*
X108238047Y-99115523D01*
X108238047Y-99115523D02*
X108476142Y-99115523D01*
X108476142Y-99115523D02*
X108571380Y-99067904D01*
X108571380Y-99067904D02*
X108619000Y-99020285D01*
X108619000Y-99020285D02*
X108666619Y-98925047D01*
X108666619Y-98925047D02*
X108666619Y-98639333D01*
X108666619Y-98639333D02*
X108619000Y-98544095D01*
X108619000Y-98544095D02*
X108571380Y-98496476D01*
X107666619Y-99448857D02*
X107666619Y-100067904D01*
X107666619Y-100067904D02*
X108047571Y-99734571D01*
X108047571Y-99734571D02*
X108047571Y-99877428D01*
X108047571Y-99877428D02*
X108095190Y-99972666D01*
X108095190Y-99972666D02*
X108142809Y-100020285D01*
X108142809Y-100020285D02*
X108238047Y-100067904D01*
X108238047Y-100067904D02*
X108476142Y-100067904D01*
X108476142Y-100067904D02*
X108571380Y-100020285D01*
X108571380Y-100020285D02*
X108619000Y-99972666D01*
X108619000Y-99972666D02*
X108666619Y-99877428D01*
X108666619Y-99877428D02*
X108666619Y-99591714D01*
X108666619Y-99591714D02*
X108619000Y-99496476D01*
X108619000Y-99496476D02*
X108571380Y-99448857D01*
X108793619Y-103878142D02*
X108317428Y-103544809D01*
X108793619Y-103306714D02*
X107793619Y-103306714D01*
X107793619Y-103306714D02*
X107793619Y-103687666D01*
X107793619Y-103687666D02*
X107841238Y-103782904D01*
X107841238Y-103782904D02*
X107888857Y-103830523D01*
X107888857Y-103830523D02*
X107984095Y-103878142D01*
X107984095Y-103878142D02*
X108126952Y-103878142D01*
X108126952Y-103878142D02*
X108222190Y-103830523D01*
X108222190Y-103830523D02*
X108269809Y-103782904D01*
X108269809Y-103782904D02*
X108317428Y-103687666D01*
X108317428Y-103687666D02*
X108317428Y-103306714D01*
X108793619Y-104830523D02*
X108793619Y-104259095D01*
X108793619Y-104544809D02*
X107793619Y-104544809D01*
X107793619Y-104544809D02*
X107936476Y-104449571D01*
X107936476Y-104449571D02*
X108031714Y-104354333D01*
X108031714Y-104354333D02*
X108079333Y-104259095D01*
X107888857Y-105211476D02*
X107841238Y-105259095D01*
X107841238Y-105259095D02*
X107793619Y-105354333D01*
X107793619Y-105354333D02*
X107793619Y-105592428D01*
X107793619Y-105592428D02*
X107841238Y-105687666D01*
X107841238Y-105687666D02*
X107888857Y-105735285D01*
X107888857Y-105735285D02*
X107984095Y-105782904D01*
X107984095Y-105782904D02*
X108079333Y-105782904D01*
X108079333Y-105782904D02*
X108222190Y-105735285D01*
X108222190Y-105735285D02*
X108793619Y-105163857D01*
X108793619Y-105163857D02*
X108793619Y-105782904D01*
X108666619Y-83177142D02*
X108190428Y-82843809D01*
X108666619Y-82605714D02*
X107666619Y-82605714D01*
X107666619Y-82605714D02*
X107666619Y-82986666D01*
X107666619Y-82986666D02*
X107714238Y-83081904D01*
X107714238Y-83081904D02*
X107761857Y-83129523D01*
X107761857Y-83129523D02*
X107857095Y-83177142D01*
X107857095Y-83177142D02*
X107999952Y-83177142D01*
X107999952Y-83177142D02*
X108095190Y-83129523D01*
X108095190Y-83129523D02*
X108142809Y-83081904D01*
X108142809Y-83081904D02*
X108190428Y-82986666D01*
X108190428Y-82986666D02*
X108190428Y-82605714D01*
X107666619Y-83510476D02*
X107666619Y-84129523D01*
X107666619Y-84129523D02*
X108047571Y-83796190D01*
X108047571Y-83796190D02*
X108047571Y-83939047D01*
X108047571Y-83939047D02*
X108095190Y-84034285D01*
X108095190Y-84034285D02*
X108142809Y-84081904D01*
X108142809Y-84081904D02*
X108238047Y-84129523D01*
X108238047Y-84129523D02*
X108476142Y-84129523D01*
X108476142Y-84129523D02*
X108571380Y-84081904D01*
X108571380Y-84081904D02*
X108619000Y-84034285D01*
X108619000Y-84034285D02*
X108666619Y-83939047D01*
X108666619Y-83939047D02*
X108666619Y-83653333D01*
X108666619Y-83653333D02*
X108619000Y-83558095D01*
X108619000Y-83558095D02*
X108571380Y-83510476D01*
X107666619Y-84748571D02*
X107666619Y-84843809D01*
X107666619Y-84843809D02*
X107714238Y-84939047D01*
X107714238Y-84939047D02*
X107761857Y-84986666D01*
X107761857Y-84986666D02*
X107857095Y-85034285D01*
X107857095Y-85034285D02*
X108047571Y-85081904D01*
X108047571Y-85081904D02*
X108285666Y-85081904D01*
X108285666Y-85081904D02*
X108476142Y-85034285D01*
X108476142Y-85034285D02*
X108571380Y-84986666D01*
X108571380Y-84986666D02*
X108619000Y-84939047D01*
X108619000Y-84939047D02*
X108666619Y-84843809D01*
X108666619Y-84843809D02*
X108666619Y-84748571D01*
X108666619Y-84748571D02*
X108619000Y-84653333D01*
X108619000Y-84653333D02*
X108571380Y-84605714D01*
X108571380Y-84605714D02*
X108476142Y-84558095D01*
X108476142Y-84558095D02*
X108285666Y-84510476D01*
X108285666Y-84510476D02*
X108047571Y-84510476D01*
X108047571Y-84510476D02*
X107857095Y-84558095D01*
X107857095Y-84558095D02*
X107761857Y-84605714D01*
X107761857Y-84605714D02*
X107714238Y-84653333D01*
X107714238Y-84653333D02*
X107666619Y-84748571D01*
X97490619Y-80865142D02*
X97014428Y-80531809D01*
X97490619Y-80293714D02*
X96490619Y-80293714D01*
X96490619Y-80293714D02*
X96490619Y-80674666D01*
X96490619Y-80674666D02*
X96538238Y-80769904D01*
X96538238Y-80769904D02*
X96585857Y-80817523D01*
X96585857Y-80817523D02*
X96681095Y-80865142D01*
X96681095Y-80865142D02*
X96823952Y-80865142D01*
X96823952Y-80865142D02*
X96919190Y-80817523D01*
X96919190Y-80817523D02*
X96966809Y-80769904D01*
X96966809Y-80769904D02*
X97014428Y-80674666D01*
X97014428Y-80674666D02*
X97014428Y-80293714D01*
X97490619Y-81817523D02*
X97490619Y-81246095D01*
X97490619Y-81531809D02*
X96490619Y-81531809D01*
X96490619Y-81531809D02*
X96633476Y-81436571D01*
X96633476Y-81436571D02*
X96728714Y-81341333D01*
X96728714Y-81341333D02*
X96776333Y-81246095D01*
X96490619Y-82722285D02*
X96490619Y-82246095D01*
X96490619Y-82246095D02*
X96966809Y-82198476D01*
X96966809Y-82198476D02*
X96919190Y-82246095D01*
X96919190Y-82246095D02*
X96871571Y-82341333D01*
X96871571Y-82341333D02*
X96871571Y-82579428D01*
X96871571Y-82579428D02*
X96919190Y-82674666D01*
X96919190Y-82674666D02*
X96966809Y-82722285D01*
X96966809Y-82722285D02*
X97062047Y-82769904D01*
X97062047Y-82769904D02*
X97300142Y-82769904D01*
X97300142Y-82769904D02*
X97395380Y-82722285D01*
X97395380Y-82722285D02*
X97443000Y-82674666D01*
X97443000Y-82674666D02*
X97490619Y-82579428D01*
X97490619Y-82579428D02*
X97490619Y-82341333D01*
X97490619Y-82341333D02*
X97443000Y-82246095D01*
X97443000Y-82246095D02*
X97395380Y-82198476D01*
X84409619Y-94448333D02*
X83933428Y-94115000D01*
X84409619Y-93876905D02*
X83409619Y-93876905D01*
X83409619Y-93876905D02*
X83409619Y-94257857D01*
X83409619Y-94257857D02*
X83457238Y-94353095D01*
X83457238Y-94353095D02*
X83504857Y-94400714D01*
X83504857Y-94400714D02*
X83600095Y-94448333D01*
X83600095Y-94448333D02*
X83742952Y-94448333D01*
X83742952Y-94448333D02*
X83838190Y-94400714D01*
X83838190Y-94400714D02*
X83885809Y-94353095D01*
X83885809Y-94353095D02*
X83933428Y-94257857D01*
X83933428Y-94257857D02*
X83933428Y-93876905D01*
X83838190Y-95019762D02*
X83790571Y-94924524D01*
X83790571Y-94924524D02*
X83742952Y-94876905D01*
X83742952Y-94876905D02*
X83647714Y-94829286D01*
X83647714Y-94829286D02*
X83600095Y-94829286D01*
X83600095Y-94829286D02*
X83504857Y-94876905D01*
X83504857Y-94876905D02*
X83457238Y-94924524D01*
X83457238Y-94924524D02*
X83409619Y-95019762D01*
X83409619Y-95019762D02*
X83409619Y-95210238D01*
X83409619Y-95210238D02*
X83457238Y-95305476D01*
X83457238Y-95305476D02*
X83504857Y-95353095D01*
X83504857Y-95353095D02*
X83600095Y-95400714D01*
X83600095Y-95400714D02*
X83647714Y-95400714D01*
X83647714Y-95400714D02*
X83742952Y-95353095D01*
X83742952Y-95353095D02*
X83790571Y-95305476D01*
X83790571Y-95305476D02*
X83838190Y-95210238D01*
X83838190Y-95210238D02*
X83838190Y-95019762D01*
X83838190Y-95019762D02*
X83885809Y-94924524D01*
X83885809Y-94924524D02*
X83933428Y-94876905D01*
X83933428Y-94876905D02*
X84028666Y-94829286D01*
X84028666Y-94829286D02*
X84219142Y-94829286D01*
X84219142Y-94829286D02*
X84314380Y-94876905D01*
X84314380Y-94876905D02*
X84362000Y-94924524D01*
X84362000Y-94924524D02*
X84409619Y-95019762D01*
X84409619Y-95019762D02*
X84409619Y-95210238D01*
X84409619Y-95210238D02*
X84362000Y-95305476D01*
X84362000Y-95305476D02*
X84314380Y-95353095D01*
X84314380Y-95353095D02*
X84219142Y-95400714D01*
X84219142Y-95400714D02*
X84028666Y-95400714D01*
X84028666Y-95400714D02*
X83933428Y-95353095D01*
X83933428Y-95353095D02*
X83885809Y-95305476D01*
X83885809Y-95305476D02*
X83838190Y-95210238D01*
X83732666Y-78599380D02*
X83780285Y-78647000D01*
X83780285Y-78647000D02*
X83923142Y-78694619D01*
X83923142Y-78694619D02*
X84018380Y-78694619D01*
X84018380Y-78694619D02*
X84161237Y-78647000D01*
X84161237Y-78647000D02*
X84256475Y-78551761D01*
X84256475Y-78551761D02*
X84304094Y-78456523D01*
X84304094Y-78456523D02*
X84351713Y-78266047D01*
X84351713Y-78266047D02*
X84351713Y-78123190D01*
X84351713Y-78123190D02*
X84304094Y-77932714D01*
X84304094Y-77932714D02*
X84256475Y-77837476D01*
X84256475Y-77837476D02*
X84161237Y-77742238D01*
X84161237Y-77742238D02*
X84018380Y-77694619D01*
X84018380Y-77694619D02*
X83923142Y-77694619D01*
X83923142Y-77694619D02*
X83780285Y-77742238D01*
X83780285Y-77742238D02*
X83732666Y-77789857D01*
X83161237Y-78123190D02*
X83256475Y-78075571D01*
X83256475Y-78075571D02*
X83304094Y-78027952D01*
X83304094Y-78027952D02*
X83351713Y-77932714D01*
X83351713Y-77932714D02*
X83351713Y-77885095D01*
X83351713Y-77885095D02*
X83304094Y-77789857D01*
X83304094Y-77789857D02*
X83256475Y-77742238D01*
X83256475Y-77742238D02*
X83161237Y-77694619D01*
X83161237Y-77694619D02*
X82970761Y-77694619D01*
X82970761Y-77694619D02*
X82875523Y-77742238D01*
X82875523Y-77742238D02*
X82827904Y-77789857D01*
X82827904Y-77789857D02*
X82780285Y-77885095D01*
X82780285Y-77885095D02*
X82780285Y-77932714D01*
X82780285Y-77932714D02*
X82827904Y-78027952D01*
X82827904Y-78027952D02*
X82875523Y-78075571D01*
X82875523Y-78075571D02*
X82970761Y-78123190D01*
X82970761Y-78123190D02*
X83161237Y-78123190D01*
X83161237Y-78123190D02*
X83256475Y-78170809D01*
X83256475Y-78170809D02*
X83304094Y-78218428D01*
X83304094Y-78218428D02*
X83351713Y-78313666D01*
X83351713Y-78313666D02*
X83351713Y-78504142D01*
X83351713Y-78504142D02*
X83304094Y-78599380D01*
X83304094Y-78599380D02*
X83256475Y-78647000D01*
X83256475Y-78647000D02*
X83161237Y-78694619D01*
X83161237Y-78694619D02*
X82970761Y-78694619D01*
X82970761Y-78694619D02*
X82875523Y-78647000D01*
X82875523Y-78647000D02*
X82827904Y-78599380D01*
X82827904Y-78599380D02*
X82780285Y-78504142D01*
X82780285Y-78504142D02*
X82780285Y-78313666D01*
X82780285Y-78313666D02*
X82827904Y-78218428D01*
X82827904Y-78218428D02*
X82875523Y-78170809D01*
X82875523Y-78170809D02*
X82970761Y-78123190D01*
X108666619Y-88130142D02*
X108190428Y-87796809D01*
X108666619Y-87558714D02*
X107666619Y-87558714D01*
X107666619Y-87558714D02*
X107666619Y-87939666D01*
X107666619Y-87939666D02*
X107714238Y-88034904D01*
X107714238Y-88034904D02*
X107761857Y-88082523D01*
X107761857Y-88082523D02*
X107857095Y-88130142D01*
X107857095Y-88130142D02*
X107999952Y-88130142D01*
X107999952Y-88130142D02*
X108095190Y-88082523D01*
X108095190Y-88082523D02*
X108142809Y-88034904D01*
X108142809Y-88034904D02*
X108190428Y-87939666D01*
X108190428Y-87939666D02*
X108190428Y-87558714D01*
X107761857Y-88511095D02*
X107714238Y-88558714D01*
X107714238Y-88558714D02*
X107666619Y-88653952D01*
X107666619Y-88653952D02*
X107666619Y-88892047D01*
X107666619Y-88892047D02*
X107714238Y-88987285D01*
X107714238Y-88987285D02*
X107761857Y-89034904D01*
X107761857Y-89034904D02*
X107857095Y-89082523D01*
X107857095Y-89082523D02*
X107952333Y-89082523D01*
X107952333Y-89082523D02*
X108095190Y-89034904D01*
X108095190Y-89034904D02*
X108666619Y-88463476D01*
X108666619Y-88463476D02*
X108666619Y-89082523D01*
X108095190Y-89653952D02*
X108047571Y-89558714D01*
X108047571Y-89558714D02*
X107999952Y-89511095D01*
X107999952Y-89511095D02*
X107904714Y-89463476D01*
X107904714Y-89463476D02*
X107857095Y-89463476D01*
X107857095Y-89463476D02*
X107761857Y-89511095D01*
X107761857Y-89511095D02*
X107714238Y-89558714D01*
X107714238Y-89558714D02*
X107666619Y-89653952D01*
X107666619Y-89653952D02*
X107666619Y-89844428D01*
X107666619Y-89844428D02*
X107714238Y-89939666D01*
X107714238Y-89939666D02*
X107761857Y-89987285D01*
X107761857Y-89987285D02*
X107857095Y-90034904D01*
X107857095Y-90034904D02*
X107904714Y-90034904D01*
X107904714Y-90034904D02*
X107999952Y-89987285D01*
X107999952Y-89987285D02*
X108047571Y-89939666D01*
X108047571Y-89939666D02*
X108095190Y-89844428D01*
X108095190Y-89844428D02*
X108095190Y-89653952D01*
X108095190Y-89653952D02*
X108142809Y-89558714D01*
X108142809Y-89558714D02*
X108190428Y-89511095D01*
X108190428Y-89511095D02*
X108285666Y-89463476D01*
X108285666Y-89463476D02*
X108476142Y-89463476D01*
X108476142Y-89463476D02*
X108571380Y-89511095D01*
X108571380Y-89511095D02*
X108619000Y-89558714D01*
X108619000Y-89558714D02*
X108666619Y-89653952D01*
X108666619Y-89653952D02*
X108666619Y-89844428D01*
X108666619Y-89844428D02*
X108619000Y-89939666D01*
X108619000Y-89939666D02*
X108571380Y-89987285D01*
X108571380Y-89987285D02*
X108476142Y-90034904D01*
X108476142Y-90034904D02*
X108285666Y-90034904D01*
X108285666Y-90034904D02*
X108190428Y-89987285D01*
X108190428Y-89987285D02*
X108142809Y-89939666D01*
X108142809Y-89939666D02*
X108095190Y-89844428D01*
X109809619Y-95623142D02*
X109333428Y-95289809D01*
X109809619Y-95051714D02*
X108809619Y-95051714D01*
X108809619Y-95051714D02*
X108809619Y-95432666D01*
X108809619Y-95432666D02*
X108857238Y-95527904D01*
X108857238Y-95527904D02*
X108904857Y-95575523D01*
X108904857Y-95575523D02*
X109000095Y-95623142D01*
X109000095Y-95623142D02*
X109142952Y-95623142D01*
X109142952Y-95623142D02*
X109238190Y-95575523D01*
X109238190Y-95575523D02*
X109285809Y-95527904D01*
X109285809Y-95527904D02*
X109333428Y-95432666D01*
X109333428Y-95432666D02*
X109333428Y-95051714D01*
X108809619Y-95956476D02*
X108809619Y-96575523D01*
X108809619Y-96575523D02*
X109190571Y-96242190D01*
X109190571Y-96242190D02*
X109190571Y-96385047D01*
X109190571Y-96385047D02*
X109238190Y-96480285D01*
X109238190Y-96480285D02*
X109285809Y-96527904D01*
X109285809Y-96527904D02*
X109381047Y-96575523D01*
X109381047Y-96575523D02*
X109619142Y-96575523D01*
X109619142Y-96575523D02*
X109714380Y-96527904D01*
X109714380Y-96527904D02*
X109762000Y-96480285D01*
X109762000Y-96480285D02*
X109809619Y-96385047D01*
X109809619Y-96385047D02*
X109809619Y-96099333D01*
X109809619Y-96099333D02*
X109762000Y-96004095D01*
X109762000Y-96004095D02*
X109714380Y-95956476D01*
X108904857Y-96956476D02*
X108857238Y-97004095D01*
X108857238Y-97004095D02*
X108809619Y-97099333D01*
X108809619Y-97099333D02*
X108809619Y-97337428D01*
X108809619Y-97337428D02*
X108857238Y-97432666D01*
X108857238Y-97432666D02*
X108904857Y-97480285D01*
X108904857Y-97480285D02*
X109000095Y-97527904D01*
X109000095Y-97527904D02*
X109095333Y-97527904D01*
X109095333Y-97527904D02*
X109238190Y-97480285D01*
X109238190Y-97480285D02*
X109809619Y-96908857D01*
X109809619Y-96908857D02*
X109809619Y-97527904D01*
X109809619Y-100703142D02*
X109333428Y-100369809D01*
X109809619Y-100131714D02*
X108809619Y-100131714D01*
X108809619Y-100131714D02*
X108809619Y-100512666D01*
X108809619Y-100512666D02*
X108857238Y-100607904D01*
X108857238Y-100607904D02*
X108904857Y-100655523D01*
X108904857Y-100655523D02*
X109000095Y-100703142D01*
X109000095Y-100703142D02*
X109142952Y-100703142D01*
X109142952Y-100703142D02*
X109238190Y-100655523D01*
X109238190Y-100655523D02*
X109285809Y-100607904D01*
X109285809Y-100607904D02*
X109333428Y-100512666D01*
X109333428Y-100512666D02*
X109333428Y-100131714D01*
X108809619Y-101036476D02*
X108809619Y-101655523D01*
X108809619Y-101655523D02*
X109190571Y-101322190D01*
X109190571Y-101322190D02*
X109190571Y-101465047D01*
X109190571Y-101465047D02*
X109238190Y-101560285D01*
X109238190Y-101560285D02*
X109285809Y-101607904D01*
X109285809Y-101607904D02*
X109381047Y-101655523D01*
X109381047Y-101655523D02*
X109619142Y-101655523D01*
X109619142Y-101655523D02*
X109714380Y-101607904D01*
X109714380Y-101607904D02*
X109762000Y-101560285D01*
X109762000Y-101560285D02*
X109809619Y-101465047D01*
X109809619Y-101465047D02*
X109809619Y-101179333D01*
X109809619Y-101179333D02*
X109762000Y-101084095D01*
X109762000Y-101084095D02*
X109714380Y-101036476D01*
X109142952Y-102512666D02*
X109809619Y-102512666D01*
X108762000Y-102274571D02*
X109476285Y-102036476D01*
X109476285Y-102036476D02*
X109476285Y-102655523D01*
X109809619Y-90543142D02*
X109333428Y-90209809D01*
X109809619Y-89971714D02*
X108809619Y-89971714D01*
X108809619Y-89971714D02*
X108809619Y-90352666D01*
X108809619Y-90352666D02*
X108857238Y-90447904D01*
X108857238Y-90447904D02*
X108904857Y-90495523D01*
X108904857Y-90495523D02*
X109000095Y-90543142D01*
X109000095Y-90543142D02*
X109142952Y-90543142D01*
X109142952Y-90543142D02*
X109238190Y-90495523D01*
X109238190Y-90495523D02*
X109285809Y-90447904D01*
X109285809Y-90447904D02*
X109333428Y-90352666D01*
X109333428Y-90352666D02*
X109333428Y-89971714D01*
X108904857Y-90924095D02*
X108857238Y-90971714D01*
X108857238Y-90971714D02*
X108809619Y-91066952D01*
X108809619Y-91066952D02*
X108809619Y-91305047D01*
X108809619Y-91305047D02*
X108857238Y-91400285D01*
X108857238Y-91400285D02*
X108904857Y-91447904D01*
X108904857Y-91447904D02*
X109000095Y-91495523D01*
X109000095Y-91495523D02*
X109095333Y-91495523D01*
X109095333Y-91495523D02*
X109238190Y-91447904D01*
X109238190Y-91447904D02*
X109809619Y-90876476D01*
X109809619Y-90876476D02*
X109809619Y-91495523D01*
X108809619Y-91828857D02*
X108809619Y-92495523D01*
X108809619Y-92495523D02*
X109809619Y-92066952D01*
X75324666Y-93299619D02*
X75657999Y-92823428D01*
X75896094Y-93299619D02*
X75896094Y-92299619D01*
X75896094Y-92299619D02*
X75515142Y-92299619D01*
X75515142Y-92299619D02*
X75419904Y-92347238D01*
X75419904Y-92347238D02*
X75372285Y-92394857D01*
X75372285Y-92394857D02*
X75324666Y-92490095D01*
X75324666Y-92490095D02*
X75324666Y-92632952D01*
X75324666Y-92632952D02*
X75372285Y-92728190D01*
X75372285Y-92728190D02*
X75419904Y-92775809D01*
X75419904Y-92775809D02*
X75515142Y-92823428D01*
X75515142Y-92823428D02*
X75896094Y-92823428D01*
X74467523Y-92632952D02*
X74467523Y-93299619D01*
X74705618Y-92252000D02*
X74943713Y-92966285D01*
X74943713Y-92966285D02*
X74324666Y-92966285D01*
D10*
X72236071Y-108711000D02*
X71781929Y-108711000D01*
X72236071Y-107951000D02*
X71781929Y-107951000D01*
X72236071Y-106171000D02*
X71781929Y-106171000D01*
X72236071Y-105411000D02*
X71781929Y-105411000D01*
X72236071Y-103631000D02*
X71781929Y-103631000D01*
X72236071Y-102871000D02*
X71781929Y-102871000D01*
X72169000Y-101091000D02*
X71781929Y-101091000D01*
X72169000Y-100331000D02*
X71781929Y-100331000D01*
X72009000Y-100711000D02*
X72009000Y-99441000D01*
X72009000Y-99441000D02*
X70739000Y-99441000D01*
X69696071Y-108711000D02*
X69299000Y-108711000D01*
X69696071Y-107951000D02*
X69299000Y-107951000D01*
X69696071Y-106171000D02*
X69299000Y-106171000D01*
X69696071Y-105411000D02*
X69299000Y-105411000D01*
X69696071Y-103631000D02*
X69299000Y-103631000D01*
X69696071Y-102871000D02*
X69299000Y-102871000D01*
X69696071Y-101091000D02*
X69299000Y-101091000D01*
X69696071Y-100331000D02*
X69299000Y-100331000D01*
X69299000Y-109661000D02*
X66639000Y-109661000D01*
X69299000Y-107061000D02*
X66639000Y-107061000D01*
X69299000Y-104521000D02*
X66639000Y-104521000D01*
X69299000Y-101981000D02*
X66639000Y-101981000D01*
X69299000Y-99381000D02*
X69299000Y-109661000D01*
X66639000Y-109661000D02*
X66639000Y-99381000D01*
X66639000Y-107951000D02*
X60639000Y-107951000D01*
X66639000Y-105411000D02*
X60639000Y-105411000D01*
X66639000Y-102871000D02*
X60639000Y-102871000D01*
X66639000Y-100991000D02*
X60639000Y-100991000D01*
X66639000Y-100871000D02*
X60639000Y-100871000D01*
X66639000Y-100751000D02*
X60639000Y-100751000D01*
X66639000Y-100631000D02*
X60639000Y-100631000D01*
X66639000Y-100511000D02*
X60639000Y-100511000D01*
X66639000Y-100391000D02*
X60639000Y-100391000D01*
X66639000Y-100331000D02*
X60639000Y-100331000D01*
X66639000Y-99381000D02*
X69299000Y-99381000D01*
X60639000Y-108711000D02*
X66639000Y-108711000D01*
X60639000Y-107951000D02*
X60639000Y-108711000D01*
X60639000Y-106171000D02*
X66639000Y-106171000D01*
X60639000Y-105411000D02*
X60639000Y-106171000D01*
X60639000Y-103631000D02*
X66639000Y-103631000D01*
X60639000Y-102871000D02*
X60639000Y-103631000D01*
X60639000Y-101091000D02*
X66639000Y-101091000D01*
X60639000Y-100331000D02*
X60639000Y-101091000D01*
X95017000Y-97443936D02*
X95017000Y-98898064D01*
X93197000Y-97443936D02*
X93197000Y-98898064D01*
X104555936Y-80624000D02*
X106010064Y-80624000D01*
X104555936Y-82444000D02*
X106010064Y-82444000D01*
X75885064Y-97938000D02*
X74430936Y-97938000D01*
X75885064Y-96118000D02*
X74430936Y-96118000D01*
X80809752Y-93112000D02*
X79387248Y-93112000D01*
X80809752Y-91292000D02*
X79387248Y-91292000D01*
X72363071Y-97408000D02*
X71908929Y-97408000D01*
X72363071Y-96648000D02*
X71908929Y-96648000D01*
X72363071Y-94868000D02*
X71908929Y-94868000D01*
X72363071Y-94108000D02*
X71908929Y-94108000D01*
X72363071Y-92328000D02*
X71908929Y-92328000D01*
X72363071Y-91568000D02*
X71908929Y-91568000D01*
X72296000Y-89788000D02*
X71908929Y-89788000D01*
X72296000Y-89028000D02*
X71908929Y-89028000D01*
X72136000Y-89408000D02*
X72136000Y-88138000D01*
X72136000Y-88138000D02*
X70866000Y-88138000D01*
X69823071Y-97408000D02*
X69426000Y-97408000D01*
X69823071Y-96648000D02*
X69426000Y-96648000D01*
X69823071Y-94868000D02*
X69426000Y-94868000D01*
X69823071Y-94108000D02*
X69426000Y-94108000D01*
X69823071Y-92328000D02*
X69426000Y-92328000D01*
X69823071Y-91568000D02*
X69426000Y-91568000D01*
X69823071Y-89788000D02*
X69426000Y-89788000D01*
X69823071Y-89028000D02*
X69426000Y-89028000D01*
X69426000Y-98358000D02*
X66766000Y-98358000D01*
X69426000Y-95758000D02*
X66766000Y-95758000D01*
X69426000Y-93218000D02*
X66766000Y-93218000D01*
X69426000Y-90678000D02*
X66766000Y-90678000D01*
X69426000Y-88078000D02*
X69426000Y-98358000D01*
X66766000Y-98358000D02*
X66766000Y-88078000D01*
X66766000Y-96648000D02*
X60766000Y-96648000D01*
X66766000Y-94108000D02*
X60766000Y-94108000D01*
X66766000Y-91568000D02*
X60766000Y-91568000D01*
X66766000Y-89688000D02*
X60766000Y-89688000D01*
X66766000Y-89568000D02*
X60766000Y-89568000D01*
X66766000Y-89448000D02*
X60766000Y-89448000D01*
X66766000Y-89328000D02*
X60766000Y-89328000D01*
X66766000Y-89208000D02*
X60766000Y-89208000D01*
X66766000Y-89088000D02*
X60766000Y-89088000D01*
X66766000Y-89028000D02*
X60766000Y-89028000D01*
X66766000Y-88078000D02*
X69426000Y-88078000D01*
X60766000Y-97408000D02*
X66766000Y-97408000D01*
X60766000Y-96648000D02*
X60766000Y-97408000D01*
X60766000Y-94868000D02*
X66766000Y-94868000D01*
X60766000Y-94108000D02*
X60766000Y-94868000D01*
X60766000Y-92328000D02*
X66766000Y-92328000D01*
X60766000Y-91568000D02*
X60766000Y-92328000D01*
X60766000Y-89788000D02*
X66766000Y-89788000D01*
X60766000Y-89028000D02*
X60766000Y-89788000D01*
X98404000Y-96358064D02*
X98404000Y-94903936D01*
X100224000Y-96358064D02*
X100224000Y-94903936D01*
X106010064Y-94763000D02*
X104555936Y-94763000D01*
X106010064Y-92943000D02*
X104555936Y-92943000D01*
X88244000Y-83642252D02*
X88244000Y-82219748D01*
X90064000Y-83642252D02*
X90064000Y-82219748D01*
X106036064Y-87270000D02*
X104581936Y-87270000D01*
X106036064Y-85450000D02*
X104581936Y-85450000D01*
D12*
X82290971Y-111602822D02*
X78770178Y-111602822D01*
X78770178Y-110735198D01*
X82290971Y-110735198D01*
X82290971Y-111602822D01*
G36*
X82290971Y-111602822D02*
G01*
X78770178Y-111602822D01*
X78770178Y-110735198D01*
X82290971Y-110735198D01*
X82290971Y-111602822D01*
G37*
X81259894Y-106057575D02*
X81259894Y-106060718D01*
X81260388Y-106073668D01*
X81266819Y-106095411D01*
X81285123Y-106113851D01*
X81320830Y-106135801D01*
X81352174Y-106155854D01*
X81399893Y-106194356D01*
X81443138Y-106237579D01*
X81476219Y-106279627D01*
X81493442Y-106314604D01*
X81497662Y-106328081D01*
X81505480Y-106337334D01*
X81508116Y-106340454D01*
X81529662Y-106345696D01*
X81569314Y-106346782D01*
X81637109Y-106346782D01*
X81637109Y-106459951D01*
X81477577Y-106459951D01*
X81462682Y-106637732D01*
X81460682Y-106662037D01*
X81456023Y-106722880D01*
X81452731Y-106772389D01*
X81451092Y-106805992D01*
X81451390Y-106819116D01*
X81455724Y-106815343D01*
X81475496Y-106795676D01*
X81509679Y-106760818D01*
X81556541Y-106712576D01*
X81614354Y-106652757D01*
X81681387Y-106583167D01*
X81755912Y-106505615D01*
X81836197Y-106421907D01*
X81920513Y-106333849D01*
X82007130Y-106243250D01*
X82094319Y-106151915D01*
X82180349Y-106061653D01*
X82263492Y-105974269D01*
X82342016Y-105891572D01*
X82414192Y-105815368D01*
X82478291Y-105747463D01*
X82532583Y-105689666D01*
X82629592Y-105586040D01*
X82630034Y-105674315D01*
X82630475Y-105762589D01*
X82029938Y-106394158D01*
X81429401Y-107025726D01*
X81417396Y-107169674D01*
X81369365Y-107745635D01*
X81360876Y-107847791D01*
X81350343Y-107975612D01*
X81340621Y-108094767D01*
X81331898Y-108202914D01*
X81324358Y-108297713D01*
X81318187Y-108376819D01*
X81313573Y-108437892D01*
X81310700Y-108478590D01*
X81309754Y-108496570D01*
X81312251Y-108504808D01*
X81323471Y-108522599D01*
X81344751Y-108549411D01*
X81355021Y-108561129D01*
X81377225Y-108586466D01*
X81422023Y-108634986D01*
X81480281Y-108696192D01*
X81553129Y-108771307D01*
X81641703Y-108861550D01*
X81747134Y-108968145D01*
X81816492Y-109038093D01*
X81913179Y-109135658D01*
X82009526Y-109232941D01*
X82102638Y-109327014D01*
X82189618Y-109414950D01*
X82267569Y-109493820D01*
X82333596Y-109560699D01*
X82384802Y-109612658D01*
X82585514Y-109816620D01*
X82549058Y-109854671D01*
X82540460Y-109863245D01*
X82515095Y-109884297D01*
X82497695Y-109892723D01*
X82484071Y-109885530D01*
X82458743Y-109863944D01*
X82428379Y-109832995D01*
X82409896Y-109813448D01*
X82375427Y-109777752D01*
X82326712Y-109727684D01*
X82265469Y-109665001D01*
X82193420Y-109591457D01*
X82112285Y-109508810D01*
X82023784Y-109418815D01*
X81929637Y-109323228D01*
X81831565Y-109223805D01*
X81289161Y-108674343D01*
X81267066Y-108959746D01*
X81262250Y-109020662D01*
X81255216Y-109102548D01*
X81248872Y-109164569D01*
X81242748Y-109209987D01*
X81236373Y-109242062D01*
X81229277Y-109264052D01*
X81220991Y-109279219D01*
X81209393Y-109300416D01*
X81199850Y-109339386D01*
X81197010Y-109395531D01*
X81197010Y-109477773D01*
X80970674Y-109477773D01*
X80970674Y-109301733D01*
X80125082Y-109301733D01*
X80076203Y-109357262D01*
X80062836Y-109371722D01*
X79990388Y-109429813D01*
X79908532Y-109465576D01*
X79819900Y-109477773D01*
X79741692Y-109471306D01*
X79653233Y-109444047D01*
X79577507Y-109395328D01*
X79562748Y-109381403D01*
X79525864Y-109336328D01*
X79493503Y-109283819D01*
X79470297Y-109232061D01*
X79460879Y-109189239D01*
X79460697Y-109183023D01*
X79459342Y-109160246D01*
X79455800Y-109144513D01*
X79448390Y-109137068D01*
X79435431Y-109139156D01*
X79415243Y-109152020D01*
X79386145Y-109176905D01*
X79346456Y-109215053D01*
X79294496Y-109267710D01*
X79228584Y-109336119D01*
X79147040Y-109421524D01*
X79103604Y-109467112D01*
X79031000Y-109543441D01*
X78962309Y-109615808D01*
X78900223Y-109681366D01*
X78847434Y-109737274D01*
X78806634Y-109780686D01*
X78780515Y-109808758D01*
X78709119Y-109886436D01*
X78620863Y-109798416D01*
X79166690Y-109226287D01*
X79201105Y-109190188D01*
X79323546Y-109061272D01*
X79428651Y-108949754D01*
X79516736Y-108855288D01*
X79588116Y-108777529D01*
X79638588Y-108721174D01*
X79845247Y-108721174D01*
X79846872Y-108734434D01*
X79847156Y-108735819D01*
X79860698Y-108767228D01*
X79887748Y-108781863D01*
X79971129Y-108813063D01*
X80045418Y-108865038D01*
X80103846Y-108933791D01*
X80143890Y-109016315D01*
X80163026Y-109109606D01*
X80169364Y-109188565D01*
X81118838Y-109188565D01*
X81125458Y-109160273D01*
X81126629Y-109153329D01*
X81130268Y-109122281D01*
X81135234Y-109072081D01*
X81141157Y-109006727D01*
X81147669Y-108930219D01*
X81154401Y-108846555D01*
X81176724Y-108561129D01*
X80875826Y-108255565D01*
X80820636Y-108199704D01*
X80753109Y-108131888D01*
X80692529Y-108071643D01*
X80641021Y-108021052D01*
X80600710Y-107982200D01*
X80573722Y-107957170D01*
X80562182Y-107948046D01*
X80554444Y-107952405D01*
X80531395Y-107972241D01*
X80496709Y-108005375D01*
X80453487Y-108048820D01*
X80404832Y-108099587D01*
X80392140Y-108113051D01*
X80335229Y-108173275D01*
X80267414Y-108244864D01*
X80193800Y-108322437D01*
X80119493Y-108400611D01*
X80049599Y-108474005D01*
X80045401Y-108478409D01*
X79980420Y-108546785D01*
X79930836Y-108599732D01*
X79894688Y-108639767D01*
X79870016Y-108669411D01*
X79854858Y-108691181D01*
X79847256Y-108707595D01*
X79845247Y-108721174D01*
X79638588Y-108721174D01*
X79643105Y-108716131D01*
X79682019Y-108670748D01*
X79705173Y-108641035D01*
X79712882Y-108626644D01*
X79712883Y-108626559D01*
X79711825Y-108608624D01*
X79708737Y-108568421D01*
X79703858Y-108508687D01*
X79697432Y-108432158D01*
X79689700Y-108341569D01*
X79680905Y-108239657D01*
X79671287Y-108129159D01*
X79661091Y-108012811D01*
X79650556Y-107893348D01*
X79639926Y-107773507D01*
X79629442Y-107656025D01*
X79619346Y-107543637D01*
X79609881Y-107439081D01*
X79601288Y-107345091D01*
X79593809Y-107264405D01*
X79587687Y-107199759D01*
X79583162Y-107153888D01*
X79580478Y-107129530D01*
X79575067Y-107088732D01*
X79704253Y-107088732D01*
X79705908Y-107119653D01*
X79709549Y-107171653D01*
X79714995Y-107242487D01*
X79722063Y-107329911D01*
X79730570Y-107431681D01*
X79740335Y-107545552D01*
X79751174Y-107669279D01*
X79762907Y-107800618D01*
X79772079Y-107901908D01*
X79783566Y-108027526D01*
X79794322Y-108143762D01*
X79804131Y-108248380D01*
X79812781Y-108339140D01*
X79820057Y-108413804D01*
X79825746Y-108470134D01*
X79829634Y-108505891D01*
X79831506Y-108518837D01*
X79837188Y-108514826D01*
X79858020Y-108495138D01*
X79891872Y-108461322D01*
X79936412Y-108415837D01*
X79989310Y-108361146D01*
X80048236Y-108299710D01*
X80110858Y-108233990D01*
X80174848Y-108166449D01*
X80237874Y-108099547D01*
X80297606Y-108035746D01*
X80351713Y-107977507D01*
X80397865Y-107927292D01*
X80433733Y-107887563D01*
X80456984Y-107860780D01*
X80463778Y-107851477D01*
X80645601Y-107851477D01*
X80921305Y-108126968D01*
X80988726Y-108194224D01*
X81052267Y-108257162D01*
X81101490Y-108305100D01*
X81138196Y-108339594D01*
X81164190Y-108362199D01*
X81181276Y-108374471D01*
X81191256Y-108377966D01*
X81195935Y-108374238D01*
X81197116Y-108364844D01*
X81197873Y-108349749D01*
X81200601Y-108310883D01*
X81205108Y-108251895D01*
X81211179Y-108175473D01*
X81218596Y-108084305D01*
X81227142Y-107981080D01*
X81236602Y-107868483D01*
X81246758Y-107749205D01*
X81255723Y-107644077D01*
X81265066Y-107533351D01*
X81273443Y-107432814D01*
X81280653Y-107344943D01*
X81286496Y-107272215D01*
X81290769Y-107217110D01*
X81293273Y-107182104D01*
X81293805Y-107169674D01*
X81293384Y-107169908D01*
X81281509Y-107181350D01*
X81255130Y-107208198D01*
X81216570Y-107248018D01*
X81168153Y-107298372D01*
X81112203Y-107356828D01*
X81051042Y-107420948D01*
X80986995Y-107488298D01*
X80922385Y-107556443D01*
X80859535Y-107622948D01*
X80800768Y-107685377D01*
X80748409Y-107741295D01*
X80647533Y-107849406D01*
X80645601Y-107851477D01*
X80463778Y-107851477D01*
X80465290Y-107849406D01*
X80457148Y-107838383D01*
X80433478Y-107811999D01*
X80396478Y-107772527D01*
X80348350Y-107722191D01*
X80291296Y-107663217D01*
X80227520Y-107597830D01*
X80159222Y-107528255D01*
X80088605Y-107456716D01*
X80017871Y-107385438D01*
X79949222Y-107316647D01*
X79884861Y-107252566D01*
X79826989Y-107195422D01*
X79777810Y-107147439D01*
X79739524Y-107110841D01*
X79714334Y-107087854D01*
X79704442Y-107080703D01*
X79704253Y-107088732D01*
X79575067Y-107088732D01*
X79573390Y-107076089D01*
X79298297Y-107076089D01*
X79298140Y-106975495D01*
X79398891Y-106975495D01*
X79480624Y-106975495D01*
X79487895Y-106975489D01*
X79528950Y-106974613D01*
X79551277Y-106970867D01*
X79560529Y-106962270D01*
X79562357Y-106946840D01*
X79554306Y-106924159D01*
X79526730Y-106886428D01*
X79480624Y-106837179D01*
X79398891Y-106756172D01*
X79398891Y-106975495D01*
X79298140Y-106975495D01*
X79297968Y-106865471D01*
X79297639Y-106654852D01*
X78845914Y-106195891D01*
X78394189Y-105736931D01*
X78393570Y-105649848D01*
X78392951Y-105562767D01*
X78934769Y-106111952D01*
X78987137Y-106164998D01*
X79095803Y-106274772D01*
X79188709Y-106368114D01*
X79267055Y-106446173D01*
X79332043Y-106510097D01*
X79384872Y-106561035D01*
X79426743Y-106600135D01*
X79458855Y-106628548D01*
X79482410Y-106647420D01*
X79498608Y-106657901D01*
X79508649Y-106661139D01*
X79525579Y-106660158D01*
X79535084Y-106652996D01*
X79536723Y-106633401D01*
X79532782Y-106595124D01*
X79530065Y-106571025D01*
X79526284Y-106530744D01*
X79524760Y-106503961D01*
X79524015Y-106494728D01*
X79516746Y-106484839D01*
X79496668Y-106481562D01*
X79457689Y-106482992D01*
X79447737Y-106483553D01*
X79407898Y-106482921D01*
X79379560Y-106474167D01*
X79359586Y-106459951D01*
X79642852Y-106459951D01*
X79647013Y-106507104D01*
X79648935Y-106528498D01*
X79654924Y-106586909D01*
X79660826Y-106625381D01*
X79667727Y-106647912D01*
X79676712Y-106658498D01*
X79688870Y-106661139D01*
X79699801Y-106662937D01*
X79707050Y-106671530D01*
X79711100Y-106691505D01*
X79712863Y-106727450D01*
X79713248Y-106783952D01*
X79713248Y-106906766D01*
X79753447Y-106946840D01*
X79851565Y-107044654D01*
X79989881Y-107182542D01*
X79989881Y-107076089D01*
X80744337Y-107076089D01*
X80744337Y-107315000D01*
X80125831Y-107315000D01*
X80335592Y-107531906D01*
X80375770Y-107573334D01*
X80431328Y-107630200D01*
X80479570Y-107679082D01*
X80517971Y-107717441D01*
X80544003Y-107742741D01*
X80555140Y-107752442D01*
X80559373Y-107749767D01*
X80579224Y-107731782D01*
X80613451Y-107698481D01*
X80660227Y-107651712D01*
X80717724Y-107593325D01*
X80784112Y-107525169D01*
X80857564Y-107449094D01*
X80936251Y-107366950D01*
X81015341Y-107283943D01*
X81092871Y-107202136D01*
X81155746Y-107135083D01*
X81205502Y-107081007D01*
X81243678Y-107038129D01*
X81271811Y-107004673D01*
X81291440Y-106978861D01*
X81304101Y-106958914D01*
X81311334Y-106943056D01*
X81314675Y-106929509D01*
X81315561Y-106922910D01*
X81319488Y-106886548D01*
X81324459Y-106833018D01*
X81329927Y-106768421D01*
X81335344Y-106698862D01*
X81337181Y-106674635D01*
X81342488Y-106609178D01*
X81347548Y-106552717D01*
X81351863Y-106510618D01*
X81354934Y-106488243D01*
X81360955Y-106459951D01*
X79642852Y-106459951D01*
X79359586Y-106459951D01*
X79351630Y-106454289D01*
X79346820Y-106450104D01*
X79307482Y-106399427D01*
X79291903Y-106346782D01*
X79632698Y-106346782D01*
X81047221Y-106346782D01*
X81259881Y-106346782D01*
X81316908Y-106346782D01*
X81333993Y-106346662D01*
X81359308Y-106344462D01*
X81366616Y-106337334D01*
X81360943Y-106322508D01*
X81359267Y-106319682D01*
X81340448Y-106297944D01*
X81313183Y-106273820D01*
X81285987Y-106254254D01*
X81267371Y-106246188D01*
X81265697Y-106247463D01*
X81261544Y-106264976D01*
X81259881Y-106296485D01*
X81259881Y-106346782D01*
X81047221Y-106346782D01*
X81043526Y-106256095D01*
X81039832Y-106165407D01*
X80964386Y-106150252D01*
X80926551Y-106143379D01*
X80863368Y-106133756D01*
X80804065Y-106126496D01*
X80719188Y-106117893D01*
X80719188Y-106221040D01*
X80140773Y-106221040D01*
X80140773Y-106130122D01*
X80068471Y-106138753D01*
X79957998Y-106157249D01*
X79846816Y-106190691D01*
X79754850Y-106237324D01*
X79680542Y-106297786D01*
X79632698Y-106346782D01*
X79291903Y-106346782D01*
X79290172Y-106340934D01*
X79295474Y-106279575D01*
X79323975Y-106220297D01*
X79326733Y-106216606D01*
X79364822Y-106184851D01*
X79414476Y-106166067D01*
X79468002Y-106161071D01*
X79517707Y-106170678D01*
X79555900Y-106195704D01*
X79568831Y-106208480D01*
X79581428Y-106211576D01*
X79599467Y-106201998D01*
X79629928Y-106178082D01*
X79639274Y-106170731D01*
X79711430Y-106124339D01*
X79719497Y-106120446D01*
X80241367Y-106120446D01*
X80618594Y-106120446D01*
X80618594Y-106057575D01*
X80241367Y-106057575D01*
X80241367Y-106120446D01*
X79719497Y-106120446D01*
X79796915Y-106083084D01*
X79887767Y-106049936D01*
X79976027Y-106027868D01*
X80053736Y-106019852D01*
X80061991Y-106019788D01*
X80107879Y-106015321D01*
X80133079Y-106002795D01*
X80140773Y-105980784D01*
X80141676Y-105973849D01*
X80146615Y-105967885D01*
X80158611Y-105963519D01*
X80180680Y-105960503D01*
X80215836Y-105958590D01*
X80267094Y-105957530D01*
X80337471Y-105957077D01*
X80429980Y-105956980D01*
X80516660Y-105957150D01*
X80590332Y-105957834D01*
X80644265Y-105959215D01*
X80681288Y-105961470D01*
X80704230Y-105964778D01*
X80715920Y-105969320D01*
X80719188Y-105975272D01*
X80729937Y-105989888D01*
X80760055Y-105999215D01*
X80771582Y-106000847D01*
X80810886Y-106006591D01*
X80863188Y-106014378D01*
X80920376Y-106023003D01*
X80951916Y-106027393D01*
X80998074Y-106032148D01*
X81030641Y-106033295D01*
X81044023Y-106030495D01*
X81046308Y-106028671D01*
X81067405Y-106024165D01*
X81105355Y-106021029D01*
X81154048Y-106019852D01*
X81259881Y-106019852D01*
X81259894Y-106057575D01*
G36*
X81259894Y-106057575D02*
G01*
X81259894Y-106060718D01*
X81260388Y-106073668D01*
X81266819Y-106095411D01*
X81285123Y-106113851D01*
X81320830Y-106135801D01*
X81352174Y-106155854D01*
X81399893Y-106194356D01*
X81443138Y-106237579D01*
X81476219Y-106279627D01*
X81493442Y-106314604D01*
X81497662Y-106328081D01*
X81505480Y-106337334D01*
X81508116Y-106340454D01*
X81529662Y-106345696D01*
X81569314Y-106346782D01*
X81637109Y-106346782D01*
X81637109Y-106459951D01*
X81477577Y-106459951D01*
X81462682Y-106637732D01*
X81460682Y-106662037D01*
X81456023Y-106722880D01*
X81452731Y-106772389D01*
X81451092Y-106805992D01*
X81451390Y-106819116D01*
X81455724Y-106815343D01*
X81475496Y-106795676D01*
X81509679Y-106760818D01*
X81556541Y-106712576D01*
X81614354Y-106652757D01*
X81681387Y-106583167D01*
X81755912Y-106505615D01*
X81836197Y-106421907D01*
X81920513Y-106333849D01*
X82007130Y-106243250D01*
X82094319Y-106151915D01*
X82180349Y-106061653D01*
X82263492Y-105974269D01*
X82342016Y-105891572D01*
X82414192Y-105815368D01*
X82478291Y-105747463D01*
X82532583Y-105689666D01*
X82629592Y-105586040D01*
X82630034Y-105674315D01*
X82630475Y-105762589D01*
X82029938Y-106394158D01*
X81429401Y-107025726D01*
X81417396Y-107169674D01*
X81369365Y-107745635D01*
X81360876Y-107847791D01*
X81350343Y-107975612D01*
X81340621Y-108094767D01*
X81331898Y-108202914D01*
X81324358Y-108297713D01*
X81318187Y-108376819D01*
X81313573Y-108437892D01*
X81310700Y-108478590D01*
X81309754Y-108496570D01*
X81312251Y-108504808D01*
X81323471Y-108522599D01*
X81344751Y-108549411D01*
X81355021Y-108561129D01*
X81377225Y-108586466D01*
X81422023Y-108634986D01*
X81480281Y-108696192D01*
X81553129Y-108771307D01*
X81641703Y-108861550D01*
X81747134Y-108968145D01*
X81816492Y-109038093D01*
X81913179Y-109135658D01*
X82009526Y-109232941D01*
X82102638Y-109327014D01*
X82189618Y-109414950D01*
X82267569Y-109493820D01*
X82333596Y-109560699D01*
X82384802Y-109612658D01*
X82585514Y-109816620D01*
X82549058Y-109854671D01*
X82540460Y-109863245D01*
X82515095Y-109884297D01*
X82497695Y-109892723D01*
X82484071Y-109885530D01*
X82458743Y-109863944D01*
X82428379Y-109832995D01*
X82409896Y-109813448D01*
X82375427Y-109777752D01*
X82326712Y-109727684D01*
X82265469Y-109665001D01*
X82193420Y-109591457D01*
X82112285Y-109508810D01*
X82023784Y-109418815D01*
X81929637Y-109323228D01*
X81831565Y-109223805D01*
X81289161Y-108674343D01*
X81267066Y-108959746D01*
X81262250Y-109020662D01*
X81255216Y-109102548D01*
X81248872Y-109164569D01*
X81242748Y-109209987D01*
X81236373Y-109242062D01*
X81229277Y-109264052D01*
X81220991Y-109279219D01*
X81209393Y-109300416D01*
X81199850Y-109339386D01*
X81197010Y-109395531D01*
X81197010Y-109477773D01*
X80970674Y-109477773D01*
X80970674Y-109301733D01*
X80125082Y-109301733D01*
X80076203Y-109357262D01*
X80062836Y-109371722D01*
X79990388Y-109429813D01*
X79908532Y-109465576D01*
X79819900Y-109477773D01*
X79741692Y-109471306D01*
X79653233Y-109444047D01*
X79577507Y-109395328D01*
X79562748Y-109381403D01*
X79525864Y-109336328D01*
X79493503Y-109283819D01*
X79470297Y-109232061D01*
X79460879Y-109189239D01*
X79460697Y-109183023D01*
X79459342Y-109160246D01*
X79455800Y-109144513D01*
X79448390Y-109137068D01*
X79435431Y-109139156D01*
X79415243Y-109152020D01*
X79386145Y-109176905D01*
X79346456Y-109215053D01*
X79294496Y-109267710D01*
X79228584Y-109336119D01*
X79147040Y-109421524D01*
X79103604Y-109467112D01*
X79031000Y-109543441D01*
X78962309Y-109615808D01*
X78900223Y-109681366D01*
X78847434Y-109737274D01*
X78806634Y-109780686D01*
X78780515Y-109808758D01*
X78709119Y-109886436D01*
X78620863Y-109798416D01*
X79166690Y-109226287D01*
X79201105Y-109190188D01*
X79323546Y-109061272D01*
X79428651Y-108949754D01*
X79516736Y-108855288D01*
X79588116Y-108777529D01*
X79638588Y-108721174D01*
X79845247Y-108721174D01*
X79846872Y-108734434D01*
X79847156Y-108735819D01*
X79860698Y-108767228D01*
X79887748Y-108781863D01*
X79971129Y-108813063D01*
X80045418Y-108865038D01*
X80103846Y-108933791D01*
X80143890Y-109016315D01*
X80163026Y-109109606D01*
X80169364Y-109188565D01*
X81118838Y-109188565D01*
X81125458Y-109160273D01*
X81126629Y-109153329D01*
X81130268Y-109122281D01*
X81135234Y-109072081D01*
X81141157Y-109006727D01*
X81147669Y-108930219D01*
X81154401Y-108846555D01*
X81176724Y-108561129D01*
X80875826Y-108255565D01*
X80820636Y-108199704D01*
X80753109Y-108131888D01*
X80692529Y-108071643D01*
X80641021Y-108021052D01*
X80600710Y-107982200D01*
X80573722Y-107957170D01*
X80562182Y-107948046D01*
X80554444Y-107952405D01*
X80531395Y-107972241D01*
X80496709Y-108005375D01*
X80453487Y-108048820D01*
X80404832Y-108099587D01*
X80392140Y-108113051D01*
X80335229Y-108173275D01*
X80267414Y-108244864D01*
X80193800Y-108322437D01*
X80119493Y-108400611D01*
X80049599Y-108474005D01*
X80045401Y-108478409D01*
X79980420Y-108546785D01*
X79930836Y-108599732D01*
X79894688Y-108639767D01*
X79870016Y-108669411D01*
X79854858Y-108691181D01*
X79847256Y-108707595D01*
X79845247Y-108721174D01*
X79638588Y-108721174D01*
X79643105Y-108716131D01*
X79682019Y-108670748D01*
X79705173Y-108641035D01*
X79712882Y-108626644D01*
X79712883Y-108626559D01*
X79711825Y-108608624D01*
X79708737Y-108568421D01*
X79703858Y-108508687D01*
X79697432Y-108432158D01*
X79689700Y-108341569D01*
X79680905Y-108239657D01*
X79671287Y-108129159D01*
X79661091Y-108012811D01*
X79650556Y-107893348D01*
X79639926Y-107773507D01*
X79629442Y-107656025D01*
X79619346Y-107543637D01*
X79609881Y-107439081D01*
X79601288Y-107345091D01*
X79593809Y-107264405D01*
X79587687Y-107199759D01*
X79583162Y-107153888D01*
X79580478Y-107129530D01*
X79575067Y-107088732D01*
X79704253Y-107088732D01*
X79705908Y-107119653D01*
X79709549Y-107171653D01*
X79714995Y-107242487D01*
X79722063Y-107329911D01*
X79730570Y-107431681D01*
X79740335Y-107545552D01*
X79751174Y-107669279D01*
X79762907Y-107800618D01*
X79772079Y-107901908D01*
X79783566Y-108027526D01*
X79794322Y-108143762D01*
X79804131Y-108248380D01*
X79812781Y-108339140D01*
X79820057Y-108413804D01*
X79825746Y-108470134D01*
X79829634Y-108505891D01*
X79831506Y-108518837D01*
X79837188Y-108514826D01*
X79858020Y-108495138D01*
X79891872Y-108461322D01*
X79936412Y-108415837D01*
X79989310Y-108361146D01*
X80048236Y-108299710D01*
X80110858Y-108233990D01*
X80174848Y-108166449D01*
X80237874Y-108099547D01*
X80297606Y-108035746D01*
X80351713Y-107977507D01*
X80397865Y-107927292D01*
X80433733Y-107887563D01*
X80456984Y-107860780D01*
X80463778Y-107851477D01*
X80645601Y-107851477D01*
X80921305Y-108126968D01*
X80988726Y-108194224D01*
X81052267Y-108257162D01*
X81101490Y-108305100D01*
X81138196Y-108339594D01*
X81164190Y-108362199D01*
X81181276Y-108374471D01*
X81191256Y-108377966D01*
X81195935Y-108374238D01*
X81197116Y-108364844D01*
X81197873Y-108349749D01*
X81200601Y-108310883D01*
X81205108Y-108251895D01*
X81211179Y-108175473D01*
X81218596Y-108084305D01*
X81227142Y-107981080D01*
X81236602Y-107868483D01*
X81246758Y-107749205D01*
X81255723Y-107644077D01*
X81265066Y-107533351D01*
X81273443Y-107432814D01*
X81280653Y-107344943D01*
X81286496Y-107272215D01*
X81290769Y-107217110D01*
X81293273Y-107182104D01*
X81293805Y-107169674D01*
X81293384Y-107169908D01*
X81281509Y-107181350D01*
X81255130Y-107208198D01*
X81216570Y-107248018D01*
X81168153Y-107298372D01*
X81112203Y-107356828D01*
X81051042Y-107420948D01*
X80986995Y-107488298D01*
X80922385Y-107556443D01*
X80859535Y-107622948D01*
X80800768Y-107685377D01*
X80748409Y-107741295D01*
X80647533Y-107849406D01*
X80645601Y-107851477D01*
X80463778Y-107851477D01*
X80465290Y-107849406D01*
X80457148Y-107838383D01*
X80433478Y-107811999D01*
X80396478Y-107772527D01*
X80348350Y-107722191D01*
X80291296Y-107663217D01*
X80227520Y-107597830D01*
X80159222Y-107528255D01*
X80088605Y-107456716D01*
X80017871Y-107385438D01*
X79949222Y-107316647D01*
X79884861Y-107252566D01*
X79826989Y-107195422D01*
X79777810Y-107147439D01*
X79739524Y-107110841D01*
X79714334Y-107087854D01*
X79704442Y-107080703D01*
X79704253Y-107088732D01*
X79575067Y-107088732D01*
X79573390Y-107076089D01*
X79298297Y-107076089D01*
X79298140Y-106975495D01*
X79398891Y-106975495D01*
X79480624Y-106975495D01*
X79487895Y-106975489D01*
X79528950Y-106974613D01*
X79551277Y-106970867D01*
X79560529Y-106962270D01*
X79562357Y-106946840D01*
X79554306Y-106924159D01*
X79526730Y-106886428D01*
X79480624Y-106837179D01*
X79398891Y-106756172D01*
X79398891Y-106975495D01*
X79298140Y-106975495D01*
X79297968Y-106865471D01*
X79297639Y-106654852D01*
X78845914Y-106195891D01*
X78394189Y-105736931D01*
X78393570Y-105649848D01*
X78392951Y-105562767D01*
X78934769Y-106111952D01*
X78987137Y-106164998D01*
X79095803Y-106274772D01*
X79188709Y-106368114D01*
X79267055Y-106446173D01*
X79332043Y-106510097D01*
X79384872Y-106561035D01*
X79426743Y-106600135D01*
X79458855Y-106628548D01*
X79482410Y-106647420D01*
X79498608Y-106657901D01*
X79508649Y-106661139D01*
X79525579Y-106660158D01*
X79535084Y-106652996D01*
X79536723Y-106633401D01*
X79532782Y-106595124D01*
X79530065Y-106571025D01*
X79526284Y-106530744D01*
X79524760Y-106503961D01*
X79524015Y-106494728D01*
X79516746Y-106484839D01*
X79496668Y-106481562D01*
X79457689Y-106482992D01*
X79447737Y-106483553D01*
X79407898Y-106482921D01*
X79379560Y-106474167D01*
X79359586Y-106459951D01*
X79642852Y-106459951D01*
X79647013Y-106507104D01*
X79648935Y-106528498D01*
X79654924Y-106586909D01*
X79660826Y-106625381D01*
X79667727Y-106647912D01*
X79676712Y-106658498D01*
X79688870Y-106661139D01*
X79699801Y-106662937D01*
X79707050Y-106671530D01*
X79711100Y-106691505D01*
X79712863Y-106727450D01*
X79713248Y-106783952D01*
X79713248Y-106906766D01*
X79753447Y-106946840D01*
X79851565Y-107044654D01*
X79989881Y-107182542D01*
X79989881Y-107076089D01*
X80744337Y-107076089D01*
X80744337Y-107315000D01*
X80125831Y-107315000D01*
X80335592Y-107531906D01*
X80375770Y-107573334D01*
X80431328Y-107630200D01*
X80479570Y-107679082D01*
X80517971Y-107717441D01*
X80544003Y-107742741D01*
X80555140Y-107752442D01*
X80559373Y-107749767D01*
X80579224Y-107731782D01*
X80613451Y-107698481D01*
X80660227Y-107651712D01*
X80717724Y-107593325D01*
X80784112Y-107525169D01*
X80857564Y-107449094D01*
X80936251Y-107366950D01*
X81015341Y-107283943D01*
X81092871Y-107202136D01*
X81155746Y-107135083D01*
X81205502Y-107081007D01*
X81243678Y-107038129D01*
X81271811Y-107004673D01*
X81291440Y-106978861D01*
X81304101Y-106958914D01*
X81311334Y-106943056D01*
X81314675Y-106929509D01*
X81315561Y-106922910D01*
X81319488Y-106886548D01*
X81324459Y-106833018D01*
X81329927Y-106768421D01*
X81335344Y-106698862D01*
X81337181Y-106674635D01*
X81342488Y-106609178D01*
X81347548Y-106552717D01*
X81351863Y-106510618D01*
X81354934Y-106488243D01*
X81360955Y-106459951D01*
X79642852Y-106459951D01*
X79359586Y-106459951D01*
X79351630Y-106454289D01*
X79346820Y-106450104D01*
X79307482Y-106399427D01*
X79291903Y-106346782D01*
X79632698Y-106346782D01*
X81047221Y-106346782D01*
X81259881Y-106346782D01*
X81316908Y-106346782D01*
X81333993Y-106346662D01*
X81359308Y-106344462D01*
X81366616Y-106337334D01*
X81360943Y-106322508D01*
X81359267Y-106319682D01*
X81340448Y-106297944D01*
X81313183Y-106273820D01*
X81285987Y-106254254D01*
X81267371Y-106246188D01*
X81265697Y-106247463D01*
X81261544Y-106264976D01*
X81259881Y-106296485D01*
X81259881Y-106346782D01*
X81047221Y-106346782D01*
X81043526Y-106256095D01*
X81039832Y-106165407D01*
X80964386Y-106150252D01*
X80926551Y-106143379D01*
X80863368Y-106133756D01*
X80804065Y-106126496D01*
X80719188Y-106117893D01*
X80719188Y-106221040D01*
X80140773Y-106221040D01*
X80140773Y-106130122D01*
X80068471Y-106138753D01*
X79957998Y-106157249D01*
X79846816Y-106190691D01*
X79754850Y-106237324D01*
X79680542Y-106297786D01*
X79632698Y-106346782D01*
X79291903Y-106346782D01*
X79290172Y-106340934D01*
X79295474Y-106279575D01*
X79323975Y-106220297D01*
X79326733Y-106216606D01*
X79364822Y-106184851D01*
X79414476Y-106166067D01*
X79468002Y-106161071D01*
X79517707Y-106170678D01*
X79555900Y-106195704D01*
X79568831Y-106208480D01*
X79581428Y-106211576D01*
X79599467Y-106201998D01*
X79629928Y-106178082D01*
X79639274Y-106170731D01*
X79711430Y-106124339D01*
X79719497Y-106120446D01*
X80241367Y-106120446D01*
X80618594Y-106120446D01*
X80618594Y-106057575D01*
X80241367Y-106057575D01*
X80241367Y-106120446D01*
X79719497Y-106120446D01*
X79796915Y-106083084D01*
X79887767Y-106049936D01*
X79976027Y-106027868D01*
X80053736Y-106019852D01*
X80061991Y-106019788D01*
X80107879Y-106015321D01*
X80133079Y-106002795D01*
X80140773Y-105980784D01*
X80141676Y-105973849D01*
X80146615Y-105967885D01*
X80158611Y-105963519D01*
X80180680Y-105960503D01*
X80215836Y-105958590D01*
X80267094Y-105957530D01*
X80337471Y-105957077D01*
X80429980Y-105956980D01*
X80516660Y-105957150D01*
X80590332Y-105957834D01*
X80644265Y-105959215D01*
X80681288Y-105961470D01*
X80704230Y-105964778D01*
X80715920Y-105969320D01*
X80719188Y-105975272D01*
X80729937Y-105989888D01*
X80760055Y-105999215D01*
X80771582Y-106000847D01*
X80810886Y-106006591D01*
X80863188Y-106014378D01*
X80920376Y-106023003D01*
X80951916Y-106027393D01*
X80998074Y-106032148D01*
X81030641Y-106033295D01*
X81044023Y-106030495D01*
X81046308Y-106028671D01*
X81067405Y-106024165D01*
X81105355Y-106021029D01*
X81154048Y-106019852D01*
X81259881Y-106019852D01*
X81259894Y-106057575D01*
G37*
D10*
X80838064Y-97938000D02*
X79383936Y-97938000D01*
X80838064Y-96118000D02*
X79383936Y-96118000D01*
X80809752Y-100224000D02*
X79387248Y-100224000D01*
X80809752Y-98404000D02*
X79387248Y-98404000D01*
X75713000Y-81457748D02*
X75713000Y-82880252D01*
X73893000Y-81457748D02*
X73893000Y-82880252D01*
X96118000Y-86045064D02*
X96118000Y-84590936D01*
X97938000Y-86045064D02*
X97938000Y-84590936D01*
X72363071Y-86105000D02*
X71908929Y-86105000D01*
X72363071Y-85345000D02*
X71908929Y-85345000D01*
X72363071Y-83565000D02*
X71908929Y-83565000D01*
X72363071Y-82805000D02*
X71908929Y-82805000D01*
X72363071Y-81025000D02*
X71908929Y-81025000D01*
X72363071Y-80265000D02*
X71908929Y-80265000D01*
X72296000Y-78485000D02*
X71908929Y-78485000D01*
X72296000Y-77725000D02*
X71908929Y-77725000D01*
X72136000Y-78105000D02*
X72136000Y-76835000D01*
X72136000Y-76835000D02*
X70866000Y-76835000D01*
X69823071Y-86105000D02*
X69426000Y-86105000D01*
X69823071Y-85345000D02*
X69426000Y-85345000D01*
X69823071Y-83565000D02*
X69426000Y-83565000D01*
X69823071Y-82805000D02*
X69426000Y-82805000D01*
X69823071Y-81025000D02*
X69426000Y-81025000D01*
X69823071Y-80265000D02*
X69426000Y-80265000D01*
X69823071Y-78485000D02*
X69426000Y-78485000D01*
X69823071Y-77725000D02*
X69426000Y-77725000D01*
X69426000Y-87055000D02*
X66766000Y-87055000D01*
X69426000Y-84455000D02*
X66766000Y-84455000D01*
X69426000Y-81915000D02*
X66766000Y-81915000D01*
X69426000Y-79375000D02*
X66766000Y-79375000D01*
X69426000Y-76775000D02*
X69426000Y-87055000D01*
X66766000Y-87055000D02*
X66766000Y-76775000D01*
X66766000Y-85345000D02*
X60766000Y-85345000D01*
X66766000Y-82805000D02*
X60766000Y-82805000D01*
X66766000Y-80265000D02*
X60766000Y-80265000D01*
X66766000Y-78385000D02*
X60766000Y-78385000D01*
X66766000Y-78265000D02*
X60766000Y-78265000D01*
X66766000Y-78145000D02*
X60766000Y-78145000D01*
X66766000Y-78025000D02*
X60766000Y-78025000D01*
X66766000Y-77905000D02*
X60766000Y-77905000D01*
X66766000Y-77785000D02*
X60766000Y-77785000D01*
X66766000Y-77725000D02*
X60766000Y-77725000D01*
X66766000Y-76775000D02*
X69426000Y-76775000D01*
X60766000Y-86105000D02*
X66766000Y-86105000D01*
X60766000Y-85345000D02*
X60766000Y-86105000D01*
X60766000Y-83565000D02*
X66766000Y-83565000D01*
X60766000Y-82805000D02*
X60766000Y-83565000D01*
X60766000Y-81025000D02*
X66766000Y-81025000D01*
X60766000Y-80265000D02*
X60766000Y-81025000D01*
X60766000Y-78485000D02*
X66766000Y-78485000D01*
X60766000Y-77725000D02*
X60766000Y-78485000D01*
D12*
X85747829Y-110790097D02*
X85807753Y-110812355D01*
X85832673Y-110829080D01*
X85857910Y-110853043D01*
X85875912Y-110883526D01*
X85887858Y-110925023D01*
X85894930Y-110982032D01*
X85898308Y-111059047D01*
X85899171Y-111160565D01*
X85899002Y-111213027D01*
X85898153Y-111284715D01*
X85896711Y-111341925D01*
X85894814Y-111379809D01*
X85892597Y-111393514D01*
X85878172Y-111388981D01*
X85849054Y-111376670D01*
X85848181Y-111376272D01*
X85833060Y-111368356D01*
X85822891Y-111357495D01*
X85816691Y-111338471D01*
X85813478Y-111306069D01*
X85812270Y-111255071D01*
X85812086Y-111180261D01*
X85811714Y-111132804D01*
X85807750Y-111043615D01*
X85798673Y-110978287D01*
X85783524Y-110933393D01*
X85761345Y-110905507D01*
X85731175Y-110891203D01*
X85726990Y-110890206D01*
X85670480Y-110889427D01*
X85626410Y-110914744D01*
X85595972Y-110965502D01*
X85590544Y-110980175D01*
X85578171Y-111012649D01*
X85571905Y-111027572D01*
X85559036Y-111025516D01*
X85530933Y-111014357D01*
X85504721Y-110995927D01*
X85492771Y-110961098D01*
X85496336Y-110936151D01*
X85518235Y-110885547D01*
X85553644Y-110838128D01*
X85595052Y-110805334D01*
X85612400Y-110797752D01*
X85678089Y-110785076D01*
X85747829Y-110790097D01*
G36*
X85747829Y-110790097D02*
G01*
X85807753Y-110812355D01*
X85832673Y-110829080D01*
X85857910Y-110853043D01*
X85875912Y-110883526D01*
X85887858Y-110925023D01*
X85894930Y-110982032D01*
X85898308Y-111059047D01*
X85899171Y-111160565D01*
X85899002Y-111213027D01*
X85898153Y-111284715D01*
X85896711Y-111341925D01*
X85894814Y-111379809D01*
X85892597Y-111393514D01*
X85878172Y-111388981D01*
X85849054Y-111376670D01*
X85848181Y-111376272D01*
X85833060Y-111368356D01*
X85822891Y-111357495D01*
X85816691Y-111338471D01*
X85813478Y-111306069D01*
X85812270Y-111255071D01*
X85812086Y-111180261D01*
X85811714Y-111132804D01*
X85807750Y-111043615D01*
X85798673Y-110978287D01*
X85783524Y-110933393D01*
X85761345Y-110905507D01*
X85731175Y-110891203D01*
X85726990Y-110890206D01*
X85670480Y-110889427D01*
X85626410Y-110914744D01*
X85595972Y-110965502D01*
X85590544Y-110980175D01*
X85578171Y-111012649D01*
X85571905Y-111027572D01*
X85559036Y-111025516D01*
X85530933Y-111014357D01*
X85504721Y-110995927D01*
X85492771Y-110961098D01*
X85496336Y-110936151D01*
X85518235Y-110885547D01*
X85553644Y-110838128D01*
X85595052Y-110805334D01*
X85612400Y-110797752D01*
X85678089Y-110785076D01*
X85747829Y-110790097D01*
G37*
X89696020Y-110756822D02*
X89763810Y-110788680D01*
X89819366Y-110843770D01*
X89830881Y-110861016D01*
X89840432Y-110880562D01*
X89847206Y-110905198D01*
X89851819Y-110939711D01*
X89854888Y-110988889D01*
X89857029Y-111057519D01*
X89858859Y-111150389D01*
X89863404Y-111408007D01*
X89825225Y-111393491D01*
X89790268Y-111380156D01*
X89764097Y-111367323D01*
X89747013Y-111350780D01*
X89737086Y-111325465D01*
X89732386Y-111286316D01*
X89730982Y-111228268D01*
X89730943Y-111146261D01*
X89730744Y-111080895D01*
X89729559Y-111018173D01*
X89726729Y-110975334D01*
X89721609Y-110947220D01*
X89713553Y-110928675D01*
X89701914Y-110914543D01*
X89673303Y-110894600D01*
X89625239Y-110887083D01*
X89577688Y-110906079D01*
X89574550Y-110908511D01*
X89564769Y-110919748D01*
X89557553Y-110937770D01*
X89552299Y-110967026D01*
X89548402Y-111011962D01*
X89545256Y-111077028D01*
X89542257Y-111166670D01*
X89535000Y-111406697D01*
X89473314Y-111379044D01*
X89411629Y-111351391D01*
X89411629Y-111132246D01*
X89411884Y-111072711D01*
X89414086Y-110989892D01*
X89419661Y-110928227D01*
X89429941Y-110882748D01*
X89446258Y-110848484D01*
X89469943Y-110820466D01*
X89502328Y-110793723D01*
X89548907Y-110766780D01*
X89622287Y-110749191D01*
X89696020Y-110756822D01*
G36*
X89696020Y-110756822D02*
G01*
X89763810Y-110788680D01*
X89819366Y-110843770D01*
X89830881Y-110861016D01*
X89840432Y-110880562D01*
X89847206Y-110905198D01*
X89851819Y-110939711D01*
X89854888Y-110988889D01*
X89857029Y-111057519D01*
X89858859Y-111150389D01*
X89863404Y-111408007D01*
X89825225Y-111393491D01*
X89790268Y-111380156D01*
X89764097Y-111367323D01*
X89747013Y-111350780D01*
X89737086Y-111325465D01*
X89732386Y-111286316D01*
X89730982Y-111228268D01*
X89730943Y-111146261D01*
X89730744Y-111080895D01*
X89729559Y-111018173D01*
X89726729Y-110975334D01*
X89721609Y-110947220D01*
X89713553Y-110928675D01*
X89701914Y-110914543D01*
X89673303Y-110894600D01*
X89625239Y-110887083D01*
X89577688Y-110906079D01*
X89574550Y-110908511D01*
X89564769Y-110919748D01*
X89557553Y-110937770D01*
X89552299Y-110967026D01*
X89548402Y-111011962D01*
X89545256Y-111077028D01*
X89542257Y-111166670D01*
X89535000Y-111406697D01*
X89473314Y-111379044D01*
X89411629Y-111351391D01*
X89411629Y-111132246D01*
X89411884Y-111072711D01*
X89414086Y-110989892D01*
X89419661Y-110928227D01*
X89429941Y-110882748D01*
X89446258Y-110848484D01*
X89469943Y-110820466D01*
X89502328Y-110793723D01*
X89548907Y-110766780D01*
X89622287Y-110749191D01*
X89696020Y-110756822D01*
G37*
X87872691Y-110805467D02*
X87877273Y-110808003D01*
X87914704Y-110837057D01*
X87948170Y-110874410D01*
X87954007Y-110882852D01*
X87965165Y-110902553D01*
X87973136Y-110925935D01*
X87978618Y-110958067D01*
X87982307Y-111004019D01*
X87984899Y-111068859D01*
X87987092Y-111157657D01*
X87987402Y-111172669D01*
X87988400Y-111269999D01*
X87986994Y-111338934D01*
X87983164Y-111379948D01*
X87976889Y-111393514D01*
X87957898Y-111389452D01*
X87925638Y-111377144D01*
X87918041Y-111373545D01*
X87906176Y-111365398D01*
X87897994Y-111352004D01*
X87892643Y-111328608D01*
X87889269Y-111290455D01*
X87887019Y-111232790D01*
X87885040Y-111150857D01*
X87884498Y-111126907D01*
X87882403Y-111051266D01*
X87879683Y-110998328D01*
X87875515Y-110963075D01*
X87869079Y-110940487D01*
X87859550Y-110925544D01*
X87846106Y-110913227D01*
X87806305Y-110891634D01*
X87757341Y-110887476D01*
X87713529Y-110903999D01*
X87682008Y-110938210D01*
X87669914Y-110987114D01*
X87669578Y-111000407D01*
X87662972Y-111024472D01*
X87643470Y-111028144D01*
X87605283Y-111013813D01*
X87596438Y-111009217D01*
X87572534Y-110982186D01*
X87572061Y-110941994D01*
X87594836Y-110886409D01*
X87615727Y-110856117D01*
X87669142Y-110813084D01*
X87735074Y-110788755D01*
X87805574Y-110785443D01*
X87872691Y-110805467D01*
G36*
X87872691Y-110805467D02*
G01*
X87877273Y-110808003D01*
X87914704Y-110837057D01*
X87948170Y-110874410D01*
X87954007Y-110882852D01*
X87965165Y-110902553D01*
X87973136Y-110925935D01*
X87978618Y-110958067D01*
X87982307Y-111004019D01*
X87984899Y-111068859D01*
X87987092Y-111157657D01*
X87987402Y-111172669D01*
X87988400Y-111269999D01*
X87986994Y-111338934D01*
X87983164Y-111379948D01*
X87976889Y-111393514D01*
X87957898Y-111389452D01*
X87925638Y-111377144D01*
X87918041Y-111373545D01*
X87906176Y-111365398D01*
X87897994Y-111352004D01*
X87892643Y-111328608D01*
X87889269Y-111290455D01*
X87887019Y-111232790D01*
X87885040Y-111150857D01*
X87884498Y-111126907D01*
X87882403Y-111051266D01*
X87879683Y-110998328D01*
X87875515Y-110963075D01*
X87869079Y-110940487D01*
X87859550Y-110925544D01*
X87846106Y-110913227D01*
X87806305Y-110891634D01*
X87757341Y-110887476D01*
X87713529Y-110903999D01*
X87682008Y-110938210D01*
X87669914Y-110987114D01*
X87669578Y-111000407D01*
X87662972Y-111024472D01*
X87643470Y-111028144D01*
X87605283Y-111013813D01*
X87596438Y-111009217D01*
X87572534Y-110982186D01*
X87572061Y-110941994D01*
X87594836Y-110886409D01*
X87615727Y-110856117D01*
X87669142Y-110813084D01*
X87735074Y-110788755D01*
X87805574Y-110785443D01*
X87872691Y-110805467D01*
G37*
X88943543Y-110588444D02*
X88990714Y-110608342D01*
X88990714Y-111005509D01*
X88990519Y-111108498D01*
X88989998Y-111201141D01*
X88989199Y-111279700D01*
X88988172Y-111340439D01*
X88986963Y-111379623D01*
X88985623Y-111393514D01*
X88985099Y-111393468D01*
X88967287Y-111388420D01*
X88934823Y-111377580D01*
X88889114Y-111361646D01*
X88889114Y-111157173D01*
X88888824Y-111076832D01*
X88887474Y-111018562D01*
X88884369Y-110978909D01*
X88878812Y-110952618D01*
X88870107Y-110934436D01*
X88857556Y-110919107D01*
X88848999Y-110910955D01*
X88802728Y-110888375D01*
X88751728Y-110890375D01*
X88704993Y-110917073D01*
X88698189Y-110923698D01*
X88687293Y-110937456D01*
X88679836Y-110955642D01*
X88675169Y-110983177D01*
X88672642Y-111024981D01*
X88671602Y-111085973D01*
X88671400Y-111171073D01*
X88671303Y-111214234D01*
X88670674Y-111285224D01*
X88669556Y-111342076D01*
X88668063Y-111379828D01*
X88666309Y-111393514D01*
X88665785Y-111393468D01*
X88647973Y-111388420D01*
X88615509Y-111377580D01*
X88569800Y-111361646D01*
X88569823Y-111156237D01*
X88569857Y-111137951D01*
X88571778Y-111042626D01*
X88577678Y-110970543D01*
X88589001Y-110916813D01*
X88607187Y-110876549D01*
X88633679Y-110844861D01*
X88669918Y-110816861D01*
X88705263Y-110799333D01*
X88761773Y-110785785D01*
X88817356Y-110785015D01*
X88860086Y-110798195D01*
X88863298Y-110800015D01*
X88873205Y-110799820D01*
X88879975Y-110784572D01*
X88884861Y-110749613D01*
X88889114Y-110690289D01*
X88896371Y-110568547D01*
X88943543Y-110588444D01*
G36*
X88943543Y-110588444D02*
G01*
X88990714Y-110608342D01*
X88990714Y-111005509D01*
X88990519Y-111108498D01*
X88989998Y-111201141D01*
X88989199Y-111279700D01*
X88988172Y-111340439D01*
X88986963Y-111379623D01*
X88985623Y-111393514D01*
X88985099Y-111393468D01*
X88967287Y-111388420D01*
X88934823Y-111377580D01*
X88889114Y-111361646D01*
X88889114Y-111157173D01*
X88888824Y-111076832D01*
X88887474Y-111018562D01*
X88884369Y-110978909D01*
X88878812Y-110952618D01*
X88870107Y-110934436D01*
X88857556Y-110919107D01*
X88848999Y-110910955D01*
X88802728Y-110888375D01*
X88751728Y-110890375D01*
X88704993Y-110917073D01*
X88698189Y-110923698D01*
X88687293Y-110937456D01*
X88679836Y-110955642D01*
X88675169Y-110983177D01*
X88672642Y-111024981D01*
X88671602Y-111085973D01*
X88671400Y-111171073D01*
X88671303Y-111214234D01*
X88670674Y-111285224D01*
X88669556Y-111342076D01*
X88668063Y-111379828D01*
X88666309Y-111393514D01*
X88665785Y-111393468D01*
X88647973Y-111388420D01*
X88615509Y-111377580D01*
X88569800Y-111361646D01*
X88569823Y-111156237D01*
X88569857Y-111137951D01*
X88571778Y-111042626D01*
X88577678Y-110970543D01*
X88589001Y-110916813D01*
X88607187Y-110876549D01*
X88633679Y-110844861D01*
X88669918Y-110816861D01*
X88705263Y-110799333D01*
X88761773Y-110785785D01*
X88817356Y-110785015D01*
X88860086Y-110798195D01*
X88863298Y-110800015D01*
X88873205Y-110799820D01*
X88879975Y-110784572D01*
X88884861Y-110749613D01*
X88889114Y-110690289D01*
X88896371Y-110568547D01*
X88943543Y-110588444D01*
G37*
X86918941Y-110788282D02*
X86950774Y-110800758D01*
X86987743Y-110817602D01*
X86987743Y-111304196D01*
X86941812Y-111350127D01*
X86931320Y-111360427D01*
X86902255Y-111383320D01*
X86872943Y-111390735D01*
X86829326Y-111387321D01*
X86811568Y-111385114D01*
X86765767Y-111380445D01*
X86733743Y-111378585D01*
X86724244Y-111378869D01*
X86685274Y-111381948D01*
X86638160Y-111387321D01*
X86623085Y-111389168D01*
X86585110Y-111389893D01*
X86557325Y-111378429D01*
X86525674Y-111350127D01*
X86479743Y-111304196D01*
X86479743Y-111044055D01*
X86480101Y-110967180D01*
X86481216Y-110893886D01*
X86482952Y-110835850D01*
X86485167Y-110797663D01*
X86487721Y-110783914D01*
X86488256Y-110783951D01*
X86506808Y-110790793D01*
X86538153Y-110805868D01*
X86580608Y-110827822D01*
X86584604Y-111056240D01*
X86588600Y-111284657D01*
X86675686Y-111284657D01*
X86679657Y-111034286D01*
X86680916Y-110966227D01*
X86682718Y-110893482D01*
X86684671Y-110835730D01*
X86686612Y-110797648D01*
X86688377Y-110783914D01*
X86688885Y-110783962D01*
X86706482Y-110789015D01*
X86738834Y-110799849D01*
X86784543Y-110815783D01*
X86784765Y-111035706D01*
X86784988Y-111073909D01*
X86786531Y-111148146D01*
X86789292Y-111210145D01*
X86792977Y-111254308D01*
X86797292Y-111275041D01*
X86812732Y-111286131D01*
X86844241Y-111289556D01*
X86878886Y-111284657D01*
X86882857Y-111034286D01*
X86884278Y-110970663D01*
X86887225Y-110895356D01*
X86891079Y-110836286D01*
X86895542Y-110797718D01*
X86900317Y-110783914D01*
X86918941Y-110788282D01*
G36*
X86918941Y-110788282D02*
G01*
X86950774Y-110800758D01*
X86987743Y-110817602D01*
X86987743Y-111304196D01*
X86941812Y-111350127D01*
X86931320Y-111360427D01*
X86902255Y-111383320D01*
X86872943Y-111390735D01*
X86829326Y-111387321D01*
X86811568Y-111385114D01*
X86765767Y-111380445D01*
X86733743Y-111378585D01*
X86724244Y-111378869D01*
X86685274Y-111381948D01*
X86638160Y-111387321D01*
X86623085Y-111389168D01*
X86585110Y-111389893D01*
X86557325Y-111378429D01*
X86525674Y-111350127D01*
X86479743Y-111304196D01*
X86479743Y-111044055D01*
X86480101Y-110967180D01*
X86481216Y-110893886D01*
X86482952Y-110835850D01*
X86485167Y-110797663D01*
X86487721Y-110783914D01*
X86488256Y-110783951D01*
X86506808Y-110790793D01*
X86538153Y-110805868D01*
X86580608Y-110827822D01*
X86584604Y-111056240D01*
X86588600Y-111284657D01*
X86675686Y-111284657D01*
X86679657Y-111034286D01*
X86680916Y-110966227D01*
X86682718Y-110893482D01*
X86684671Y-110835730D01*
X86686612Y-110797648D01*
X86688377Y-110783914D01*
X86688885Y-110783962D01*
X86706482Y-110789015D01*
X86738834Y-110799849D01*
X86784543Y-110815783D01*
X86784765Y-111035706D01*
X86784988Y-111073909D01*
X86786531Y-111148146D01*
X86789292Y-111210145D01*
X86792977Y-111254308D01*
X86797292Y-111275041D01*
X86812732Y-111286131D01*
X86844241Y-111289556D01*
X86878886Y-111284657D01*
X86882857Y-111034286D01*
X86884278Y-110970663D01*
X86887225Y-110895356D01*
X86891079Y-110836286D01*
X86895542Y-110797718D01*
X86900317Y-110783914D01*
X86918941Y-110788282D01*
G37*
X91530678Y-111069192D02*
X91530714Y-111074200D01*
X91530701Y-111089935D01*
X91529914Y-111160119D01*
X91527210Y-111209022D01*
X91521606Y-111243178D01*
X91512119Y-111269124D01*
X91497768Y-111293397D01*
X91494237Y-111298433D01*
X91456878Y-111338143D01*
X91414311Y-111368092D01*
X91392452Y-111377810D01*
X91313908Y-111394020D01*
X91236231Y-111383535D01*
X91164645Y-111347707D01*
X91104374Y-111287887D01*
X91099286Y-111279873D01*
X91082730Y-111233342D01*
X91071573Y-111168552D01*
X91066160Y-111093727D01*
X91066768Y-111024513D01*
X91213248Y-111024513D01*
X91214402Y-111120399D01*
X91214866Y-111126569D01*
X91221629Y-111179478D01*
X91233671Y-111213029D01*
X91254005Y-111236016D01*
X91288097Y-111257548D01*
X91321814Y-111258680D01*
X91356543Y-111233857D01*
X91362584Y-111227325D01*
X91374417Y-111207779D01*
X91381404Y-111179386D01*
X91384727Y-111135430D01*
X91385571Y-111069192D01*
X91384125Y-111007150D01*
X91376907Y-110948042D01*
X91362006Y-110910686D01*
X91337636Y-110891152D01*
X91302008Y-110885514D01*
X91288440Y-110886635D01*
X91250430Y-110907194D01*
X91225312Y-110953299D01*
X91213248Y-111024513D01*
X91066768Y-111024513D01*
X91066833Y-111017096D01*
X91073937Y-110946882D01*
X91087815Y-110891312D01*
X91105649Y-110854301D01*
X91155855Y-110796733D01*
X91223885Y-110760962D01*
X91307158Y-110748665D01*
X91329398Y-110749331D01*
X91394891Y-110762947D01*
X91448687Y-110797249D01*
X91498057Y-110856338D01*
X91500995Y-110860722D01*
X91514287Y-110884299D01*
X91522932Y-110910949D01*
X91527904Y-110947159D01*
X91530174Y-110999413D01*
X91530678Y-111069192D01*
G36*
X91530678Y-111069192D02*
G01*
X91530714Y-111074200D01*
X91530701Y-111089935D01*
X91529914Y-111160119D01*
X91527210Y-111209022D01*
X91521606Y-111243178D01*
X91512119Y-111269124D01*
X91497768Y-111293397D01*
X91494237Y-111298433D01*
X91456878Y-111338143D01*
X91414311Y-111368092D01*
X91392452Y-111377810D01*
X91313908Y-111394020D01*
X91236231Y-111383535D01*
X91164645Y-111347707D01*
X91104374Y-111287887D01*
X91099286Y-111279873D01*
X91082730Y-111233342D01*
X91071573Y-111168552D01*
X91066160Y-111093727D01*
X91066768Y-111024513D01*
X91213248Y-111024513D01*
X91214402Y-111120399D01*
X91214866Y-111126569D01*
X91221629Y-111179478D01*
X91233671Y-111213029D01*
X91254005Y-111236016D01*
X91288097Y-111257548D01*
X91321814Y-111258680D01*
X91356543Y-111233857D01*
X91362584Y-111227325D01*
X91374417Y-111207779D01*
X91381404Y-111179386D01*
X91384727Y-111135430D01*
X91385571Y-111069192D01*
X91384125Y-111007150D01*
X91376907Y-110948042D01*
X91362006Y-110910686D01*
X91337636Y-110891152D01*
X91302008Y-110885514D01*
X91288440Y-110886635D01*
X91250430Y-110907194D01*
X91225312Y-110953299D01*
X91213248Y-111024513D01*
X91066768Y-111024513D01*
X91066833Y-111017096D01*
X91073937Y-110946882D01*
X91087815Y-110891312D01*
X91105649Y-110854301D01*
X91155855Y-110796733D01*
X91223885Y-110760962D01*
X91307158Y-110748665D01*
X91329398Y-110749331D01*
X91394891Y-110762947D01*
X91448687Y-110797249D01*
X91498057Y-110856338D01*
X91500995Y-110860722D01*
X91514287Y-110884299D01*
X91522932Y-110910949D01*
X91527904Y-110947159D01*
X91530174Y-110999413D01*
X91530678Y-111069192D01*
G37*
X85404628Y-111045247D02*
X85405590Y-111091622D01*
X85405307Y-111130305D01*
X85401762Y-111206521D01*
X85392483Y-111262294D01*
X85375375Y-111303613D01*
X85348344Y-111336467D01*
X85309292Y-111366846D01*
X85284445Y-111380660D01*
X85244615Y-111389965D01*
X85188665Y-111389230D01*
X85157385Y-111386283D01*
X85119653Y-111377283D01*
X85089494Y-111357720D01*
X85054408Y-111321267D01*
X85049720Y-111315943D01*
X85018177Y-111274969D01*
X85003128Y-111239283D01*
X84999286Y-111196966D01*
X84999286Y-111134779D01*
X85042742Y-111151182D01*
X85074424Y-111170356D01*
X85101962Y-111215347D01*
X85107711Y-111229752D01*
X85139855Y-111270546D01*
X85183611Y-111291081D01*
X85231254Y-111289235D01*
X85275057Y-111262886D01*
X85290111Y-111246455D01*
X85303763Y-111221667D01*
X85299493Y-111199144D01*
X85274916Y-111175964D01*
X85227651Y-111149202D01*
X85155314Y-111115934D01*
X85006543Y-111050816D01*
X85002595Y-110986308D01*
X85004079Y-110945220D01*
X85101010Y-110945220D01*
X85108368Y-110970657D01*
X85141848Y-110997814D01*
X85202614Y-111028714D01*
X85212669Y-111033190D01*
X85260751Y-111054017D01*
X85296726Y-111068665D01*
X85313444Y-111074200D01*
X85315977Y-111070126D01*
X85316993Y-111045247D01*
X85313369Y-111005257D01*
X85304242Y-110966152D01*
X85275773Y-110916884D01*
X85234678Y-110889122D01*
X85185590Y-110885364D01*
X85133144Y-110908109D01*
X85118609Y-110919481D01*
X85101010Y-110945220D01*
X85004079Y-110945220D01*
X85004338Y-110938064D01*
X85026281Y-110877096D01*
X85053979Y-110843497D01*
X85111405Y-110805966D01*
X85179527Y-110787006D01*
X85249947Y-110788507D01*
X85314267Y-110812355D01*
X85328426Y-110821513D01*
X85360904Y-110849849D01*
X85383116Y-110885695D01*
X85396804Y-110934384D01*
X85403715Y-111001249D01*
X85404628Y-111045247D01*
G36*
X85404628Y-111045247D02*
G01*
X85405590Y-111091622D01*
X85405307Y-111130305D01*
X85401762Y-111206521D01*
X85392483Y-111262294D01*
X85375375Y-111303613D01*
X85348344Y-111336467D01*
X85309292Y-111366846D01*
X85284445Y-111380660D01*
X85244615Y-111389965D01*
X85188665Y-111389230D01*
X85157385Y-111386283D01*
X85119653Y-111377283D01*
X85089494Y-111357720D01*
X85054408Y-111321267D01*
X85049720Y-111315943D01*
X85018177Y-111274969D01*
X85003128Y-111239283D01*
X84999286Y-111196966D01*
X84999286Y-111134779D01*
X85042742Y-111151182D01*
X85074424Y-111170356D01*
X85101962Y-111215347D01*
X85107711Y-111229752D01*
X85139855Y-111270546D01*
X85183611Y-111291081D01*
X85231254Y-111289235D01*
X85275057Y-111262886D01*
X85290111Y-111246455D01*
X85303763Y-111221667D01*
X85299493Y-111199144D01*
X85274916Y-111175964D01*
X85227651Y-111149202D01*
X85155314Y-111115934D01*
X85006543Y-111050816D01*
X85002595Y-110986308D01*
X85004079Y-110945220D01*
X85101010Y-110945220D01*
X85108368Y-110970657D01*
X85141848Y-110997814D01*
X85202614Y-111028714D01*
X85212669Y-111033190D01*
X85260751Y-111054017D01*
X85296726Y-111068665D01*
X85313444Y-111074200D01*
X85315977Y-111070126D01*
X85316993Y-111045247D01*
X85313369Y-111005257D01*
X85304242Y-110966152D01*
X85275773Y-110916884D01*
X85234678Y-110889122D01*
X85185590Y-110885364D01*
X85133144Y-110908109D01*
X85118609Y-110919481D01*
X85101010Y-110945220D01*
X85004079Y-110945220D01*
X85004338Y-110938064D01*
X85026281Y-110877096D01*
X85053979Y-110843497D01*
X85111405Y-110805966D01*
X85179527Y-110787006D01*
X85249947Y-110788507D01*
X85314267Y-110812355D01*
X85328426Y-110821513D01*
X85360904Y-110849849D01*
X85383116Y-110885695D01*
X85396804Y-110934384D01*
X85403715Y-111001249D01*
X85404628Y-111045247D01*
G37*
X87495542Y-111084647D02*
X87495698Y-111088714D01*
X87494537Y-111145313D01*
X87486345Y-111222462D01*
X87468519Y-111280276D01*
X87438975Y-111324422D01*
X87395625Y-111360568D01*
X87354332Y-111381463D01*
X87284987Y-111393090D01*
X87215736Y-111380377D01*
X87153145Y-111344945D01*
X87103779Y-111288418D01*
X87097818Y-111277995D01*
X87089945Y-111259733D01*
X87084106Y-111236429D01*
X87079999Y-111204085D01*
X87077325Y-111158704D01*
X87075781Y-111096287D01*
X87075734Y-111090748D01*
X87176429Y-111090748D01*
X87176772Y-111143577D01*
X87178942Y-111191362D01*
X87184307Y-111222209D01*
X87194217Y-111242935D01*
X87210021Y-111260356D01*
X87213724Y-111263705D01*
X87261299Y-111288419D01*
X87311635Y-111285890D01*
X87358517Y-111256288D01*
X87372477Y-111240953D01*
X87384160Y-111220622D01*
X87390686Y-111192514D01*
X87393524Y-111149550D01*
X87394143Y-111084647D01*
X87393837Y-111035122D01*
X87391722Y-110986782D01*
X87386390Y-110955587D01*
X87376460Y-110934647D01*
X87360550Y-110917073D01*
X87351204Y-110909159D01*
X87302776Y-110887843D01*
X87252040Y-110891198D01*
X87207987Y-110919107D01*
X87198504Y-110930173D01*
X87186939Y-110951009D01*
X87180252Y-110980106D01*
X87177173Y-111024381D01*
X87176429Y-111090748D01*
X87075734Y-111090748D01*
X87075067Y-111012837D01*
X87074883Y-110904358D01*
X87074829Y-110567601D01*
X87122000Y-110587362D01*
X87134472Y-110592770D01*
X87154324Y-110604985D01*
X87165687Y-110623482D01*
X87171933Y-110655829D01*
X87176429Y-110709593D01*
X87180535Y-110757866D01*
X87185963Y-110789557D01*
X87193739Y-110801383D01*
X87205457Y-110798212D01*
X87235318Y-110787067D01*
X87288684Y-110784304D01*
X87346093Y-110794625D01*
X87395625Y-110816861D01*
X87422876Y-110837443D01*
X87457865Y-110877600D01*
X87480274Y-110929086D01*
X87492190Y-110997568D01*
X87495542Y-111084647D01*
G36*
X87495542Y-111084647D02*
G01*
X87495698Y-111088714D01*
X87494537Y-111145313D01*
X87486345Y-111222462D01*
X87468519Y-111280276D01*
X87438975Y-111324422D01*
X87395625Y-111360568D01*
X87354332Y-111381463D01*
X87284987Y-111393090D01*
X87215736Y-111380377D01*
X87153145Y-111344945D01*
X87103779Y-111288418D01*
X87097818Y-111277995D01*
X87089945Y-111259733D01*
X87084106Y-111236429D01*
X87079999Y-111204085D01*
X87077325Y-111158704D01*
X87075781Y-111096287D01*
X87075734Y-111090748D01*
X87176429Y-111090748D01*
X87176772Y-111143577D01*
X87178942Y-111191362D01*
X87184307Y-111222209D01*
X87194217Y-111242935D01*
X87210021Y-111260356D01*
X87213724Y-111263705D01*
X87261299Y-111288419D01*
X87311635Y-111285890D01*
X87358517Y-111256288D01*
X87372477Y-111240953D01*
X87384160Y-111220622D01*
X87390686Y-111192514D01*
X87393524Y-111149550D01*
X87394143Y-111084647D01*
X87393837Y-111035122D01*
X87391722Y-110986782D01*
X87386390Y-110955587D01*
X87376460Y-110934647D01*
X87360550Y-110917073D01*
X87351204Y-110909159D01*
X87302776Y-110887843D01*
X87252040Y-110891198D01*
X87207987Y-110919107D01*
X87198504Y-110930173D01*
X87186939Y-110951009D01*
X87180252Y-110980106D01*
X87177173Y-111024381D01*
X87176429Y-111090748D01*
X87075734Y-111090748D01*
X87075067Y-111012837D01*
X87074883Y-110904358D01*
X87074829Y-110567601D01*
X87122000Y-110587362D01*
X87134472Y-110592770D01*
X87154324Y-110604985D01*
X87165687Y-110623482D01*
X87171933Y-110655829D01*
X87176429Y-110709593D01*
X87180535Y-110757866D01*
X87185963Y-110789557D01*
X87193739Y-110801383D01*
X87205457Y-110798212D01*
X87235318Y-110787067D01*
X87288684Y-110784304D01*
X87346093Y-110794625D01*
X87395625Y-110816861D01*
X87422876Y-110837443D01*
X87457865Y-110877600D01*
X87480274Y-110929086D01*
X87492190Y-110997568D01*
X87495542Y-111084647D01*
G37*
X90421767Y-110981748D02*
X90427299Y-111033055D01*
X90422684Y-111143078D01*
X90420078Y-111166387D01*
X90400660Y-111249352D01*
X90365573Y-111312448D01*
X90312212Y-111360808D01*
X90309196Y-111362804D01*
X90241362Y-111391185D01*
X90170535Y-111393711D01*
X90102289Y-111372097D01*
X90042196Y-111328062D01*
X89995829Y-111263322D01*
X89995050Y-111261761D01*
X89979643Y-111221558D01*
X89968357Y-111175866D01*
X89962370Y-111132972D01*
X89962861Y-111101160D01*
X89971007Y-111088714D01*
X89978244Y-111089471D01*
X90012851Y-111103235D01*
X90052078Y-111128546D01*
X90085448Y-111157845D01*
X90102483Y-111183572D01*
X90120192Y-111218471D01*
X90156485Y-111250212D01*
X90198630Y-111262886D01*
X90214077Y-111259221D01*
X90244569Y-111240774D01*
X90271128Y-111215166D01*
X90282486Y-111191934D01*
X90282482Y-111191848D01*
X90269596Y-111181179D01*
X90235241Y-111161933D01*
X90184593Y-111136813D01*
X90122829Y-111108524D01*
X90122489Y-111108374D01*
X90055388Y-111078498D01*
X90010411Y-111056973D01*
X89983145Y-111040437D01*
X89969178Y-111025531D01*
X89964097Y-111008893D01*
X89963490Y-110987162D01*
X89967712Y-110946013D01*
X90111000Y-110946013D01*
X90125791Y-110958949D01*
X90162644Y-110978333D01*
X90163725Y-110978881D01*
X90207205Y-110999587D01*
X90246102Y-111016105D01*
X90270778Y-111023093D01*
X90280676Y-111013753D01*
X90282486Y-110981748D01*
X90274966Y-110941915D01*
X90248897Y-110905717D01*
X90211154Y-110886950D01*
X90169077Y-110888845D01*
X90130005Y-110914632D01*
X90114647Y-110932451D01*
X90111000Y-110946013D01*
X89967712Y-110946013D01*
X89968833Y-110935086D01*
X89995251Y-110864335D01*
X90039473Y-110808735D01*
X90096697Y-110770239D01*
X90162120Y-110750797D01*
X90230937Y-110752359D01*
X90298347Y-110776878D01*
X90359544Y-110826302D01*
X90393450Y-110875212D01*
X90417806Y-110945027D01*
X90421767Y-110981748D01*
G36*
X90421767Y-110981748D02*
G01*
X90427299Y-111033055D01*
X90422684Y-111143078D01*
X90420078Y-111166387D01*
X90400660Y-111249352D01*
X90365573Y-111312448D01*
X90312212Y-111360808D01*
X90309196Y-111362804D01*
X90241362Y-111391185D01*
X90170535Y-111393711D01*
X90102289Y-111372097D01*
X90042196Y-111328062D01*
X89995829Y-111263322D01*
X89995050Y-111261761D01*
X89979643Y-111221558D01*
X89968357Y-111175866D01*
X89962370Y-111132972D01*
X89962861Y-111101160D01*
X89971007Y-111088714D01*
X89978244Y-111089471D01*
X90012851Y-111103235D01*
X90052078Y-111128546D01*
X90085448Y-111157845D01*
X90102483Y-111183572D01*
X90120192Y-111218471D01*
X90156485Y-111250212D01*
X90198630Y-111262886D01*
X90214077Y-111259221D01*
X90244569Y-111240774D01*
X90271128Y-111215166D01*
X90282486Y-111191934D01*
X90282482Y-111191848D01*
X90269596Y-111181179D01*
X90235241Y-111161933D01*
X90184593Y-111136813D01*
X90122829Y-111108524D01*
X90122489Y-111108374D01*
X90055388Y-111078498D01*
X90010411Y-111056973D01*
X89983145Y-111040437D01*
X89969178Y-111025531D01*
X89964097Y-111008893D01*
X89963490Y-110987162D01*
X89967712Y-110946013D01*
X90111000Y-110946013D01*
X90125791Y-110958949D01*
X90162644Y-110978333D01*
X90163725Y-110978881D01*
X90207205Y-110999587D01*
X90246102Y-111016105D01*
X90270778Y-111023093D01*
X90280676Y-111013753D01*
X90282486Y-110981748D01*
X90274966Y-110941915D01*
X90248897Y-110905717D01*
X90211154Y-110886950D01*
X90169077Y-110888845D01*
X90130005Y-110914632D01*
X90114647Y-110932451D01*
X90111000Y-110946013D01*
X89967712Y-110946013D01*
X89968833Y-110935086D01*
X89995251Y-110864335D01*
X90039473Y-110808735D01*
X90096697Y-110770239D01*
X90162120Y-110750797D01*
X90230937Y-110752359D01*
X90298347Y-110776878D01*
X90359544Y-110826302D01*
X90393450Y-110875212D01*
X90417806Y-110945027D01*
X90421767Y-110981748D01*
G37*
X88354483Y-110799569D02*
X88404376Y-110828661D01*
X88426325Y-110851327D01*
X88468504Y-110919082D01*
X88482714Y-110992950D01*
X88482714Y-111043770D01*
X88435999Y-111024128D01*
X88403692Y-111004308D01*
X88378231Y-110963160D01*
X88375616Y-110954675D01*
X88347478Y-110911451D01*
X88305067Y-110888103D01*
X88256370Y-110887100D01*
X88209373Y-110910914D01*
X88202357Y-110917056D01*
X88178893Y-110943745D01*
X88175019Y-110967014D01*
X88192768Y-110989862D01*
X88234179Y-111015287D01*
X88301286Y-111046288D01*
X88305824Y-111048252D01*
X88380322Y-111082990D01*
X88431203Y-111113763D01*
X88462525Y-111144488D01*
X88478343Y-111179082D01*
X88482714Y-111221462D01*
X88476986Y-111268446D01*
X88448062Y-111328585D01*
X88397178Y-111371788D01*
X88360374Y-111384759D01*
X88308434Y-111391856D01*
X88257999Y-111390340D01*
X88221983Y-111379632D01*
X88218158Y-111376966D01*
X88207998Y-111358337D01*
X88215048Y-111325505D01*
X88227297Y-111299735D01*
X88246939Y-111289006D01*
X88284191Y-111289539D01*
X88335908Y-111286462D01*
X88369701Y-111265212D01*
X88381114Y-111225877D01*
X88381104Y-111224747D01*
X88374187Y-111201913D01*
X88350659Y-111180963D01*
X88304914Y-111156815D01*
X88242704Y-111127741D01*
X88201499Y-111111925D01*
X88177712Y-111112944D01*
X88166597Y-111133837D01*
X88163408Y-111177641D01*
X88163400Y-111247393D01*
X88163044Y-111290452D01*
X88161413Y-111343626D01*
X88158761Y-111380022D01*
X88155422Y-111393514D01*
X88154530Y-111393423D01*
X88135237Y-111386110D01*
X88103284Y-111370678D01*
X88059124Y-111347842D01*
X88064371Y-111142078D01*
X88064736Y-111128432D01*
X88068904Y-111032651D01*
X88076268Y-110960462D01*
X88088330Y-110907058D01*
X88106593Y-110867633D01*
X88132560Y-110837380D01*
X88167733Y-110811493D01*
X88168384Y-110811087D01*
X88225256Y-110789968D01*
X88291033Y-110786400D01*
X88354483Y-110799569D01*
G36*
X88354483Y-110799569D02*
G01*
X88404376Y-110828661D01*
X88426325Y-110851327D01*
X88468504Y-110919082D01*
X88482714Y-110992950D01*
X88482714Y-111043770D01*
X88435999Y-111024128D01*
X88403692Y-111004308D01*
X88378231Y-110963160D01*
X88375616Y-110954675D01*
X88347478Y-110911451D01*
X88305067Y-110888103D01*
X88256370Y-110887100D01*
X88209373Y-110910914D01*
X88202357Y-110917056D01*
X88178893Y-110943745D01*
X88175019Y-110967014D01*
X88192768Y-110989862D01*
X88234179Y-111015287D01*
X88301286Y-111046288D01*
X88305824Y-111048252D01*
X88380322Y-111082990D01*
X88431203Y-111113763D01*
X88462525Y-111144488D01*
X88478343Y-111179082D01*
X88482714Y-111221462D01*
X88476986Y-111268446D01*
X88448062Y-111328585D01*
X88397178Y-111371788D01*
X88360374Y-111384759D01*
X88308434Y-111391856D01*
X88257999Y-111390340D01*
X88221983Y-111379632D01*
X88218158Y-111376966D01*
X88207998Y-111358337D01*
X88215048Y-111325505D01*
X88227297Y-111299735D01*
X88246939Y-111289006D01*
X88284191Y-111289539D01*
X88335908Y-111286462D01*
X88369701Y-111265212D01*
X88381114Y-111225877D01*
X88381104Y-111224747D01*
X88374187Y-111201913D01*
X88350659Y-111180963D01*
X88304914Y-111156815D01*
X88242704Y-111127741D01*
X88201499Y-111111925D01*
X88177712Y-111112944D01*
X88166597Y-111133837D01*
X88163408Y-111177641D01*
X88163400Y-111247393D01*
X88163044Y-111290452D01*
X88161413Y-111343626D01*
X88158761Y-111380022D01*
X88155422Y-111393514D01*
X88154530Y-111393423D01*
X88135237Y-111386110D01*
X88103284Y-111370678D01*
X88059124Y-111347842D01*
X88064371Y-111142078D01*
X88064736Y-111128432D01*
X88068904Y-111032651D01*
X88076268Y-110960462D01*
X88088330Y-110907058D01*
X88106593Y-110867633D01*
X88132560Y-110837380D01*
X88167733Y-110811493D01*
X88168384Y-110811087D01*
X88225256Y-110789968D01*
X88291033Y-110786400D01*
X88354483Y-110799569D01*
G37*
X90973528Y-111067603D02*
X90974815Y-111140524D01*
X90976252Y-111252000D01*
X90976651Y-111284339D01*
X90977929Y-111392455D01*
X90978185Y-111475186D01*
X90976634Y-111535426D01*
X90972490Y-111576073D01*
X90964964Y-111600023D01*
X90953271Y-111610171D01*
X90936624Y-111609414D01*
X90914236Y-111600648D01*
X90885321Y-111586769D01*
X90879142Y-111583808D01*
X90853413Y-111569311D01*
X90839976Y-111552065D01*
X90834834Y-111523308D01*
X90833990Y-111474283D01*
X90833952Y-111386257D01*
X90743276Y-111386257D01*
X90687498Y-111383815D01*
X90643640Y-111373908D01*
X90607218Y-111353886D01*
X90604503Y-111351929D01*
X90567546Y-111318869D01*
X90541826Y-111278931D01*
X90525606Y-111226657D01*
X90517148Y-111156588D01*
X90515083Y-111077430D01*
X90659857Y-111077430D01*
X90659882Y-111090697D01*
X90661261Y-111150584D01*
X90665687Y-111189732D01*
X90674461Y-111215153D01*
X90688886Y-111233857D01*
X90689784Y-111234750D01*
X90725237Y-111258952D01*
X90759596Y-111256567D01*
X90798403Y-111227260D01*
X90807895Y-111217244D01*
X90821876Y-111196708D01*
X90829760Y-111169997D01*
X90833245Y-111129499D01*
X90834029Y-111067603D01*
X90833350Y-111030130D01*
X90825983Y-110961980D01*
X90809168Y-110917330D01*
X90781234Y-110892926D01*
X90740509Y-110885514D01*
X90723350Y-110887094D01*
X90693660Y-110902766D01*
X90674031Y-110937691D01*
X90663188Y-110994901D01*
X90659857Y-111077430D01*
X90515083Y-111077430D01*
X90514714Y-111063267D01*
X90515253Y-110995169D01*
X90517707Y-110943587D01*
X90523158Y-110907816D01*
X90532686Y-110881015D01*
X90547371Y-110856338D01*
X90560852Y-110837480D01*
X90609799Y-110786568D01*
X90665256Y-110758918D01*
X90734928Y-110750165D01*
X90814664Y-110758890D01*
X90883595Y-110790185D01*
X90938113Y-110845381D01*
X90942223Y-110851224D01*
X90951808Y-110866753D01*
X90959151Y-110884498D01*
X90964612Y-110908290D01*
X90968550Y-110941958D01*
X90971323Y-110989333D01*
X90973292Y-111054245D01*
X90973528Y-111067603D01*
G36*
X90973528Y-111067603D02*
G01*
X90974815Y-111140524D01*
X90976252Y-111252000D01*
X90976651Y-111284339D01*
X90977929Y-111392455D01*
X90978185Y-111475186D01*
X90976634Y-111535426D01*
X90972490Y-111576073D01*
X90964964Y-111600023D01*
X90953271Y-111610171D01*
X90936624Y-111609414D01*
X90914236Y-111600648D01*
X90885321Y-111586769D01*
X90879142Y-111583808D01*
X90853413Y-111569311D01*
X90839976Y-111552065D01*
X90834834Y-111523308D01*
X90833990Y-111474283D01*
X90833952Y-111386257D01*
X90743276Y-111386257D01*
X90687498Y-111383815D01*
X90643640Y-111373908D01*
X90607218Y-111353886D01*
X90604503Y-111351929D01*
X90567546Y-111318869D01*
X90541826Y-111278931D01*
X90525606Y-111226657D01*
X90517148Y-111156588D01*
X90515083Y-111077430D01*
X90659857Y-111077430D01*
X90659882Y-111090697D01*
X90661261Y-111150584D01*
X90665687Y-111189732D01*
X90674461Y-111215153D01*
X90688886Y-111233857D01*
X90689784Y-111234750D01*
X90725237Y-111258952D01*
X90759596Y-111256567D01*
X90798403Y-111227260D01*
X90807895Y-111217244D01*
X90821876Y-111196708D01*
X90829760Y-111169997D01*
X90833245Y-111129499D01*
X90834029Y-111067603D01*
X90833350Y-111030130D01*
X90825983Y-110961980D01*
X90809168Y-110917330D01*
X90781234Y-110892926D01*
X90740509Y-110885514D01*
X90723350Y-110887094D01*
X90693660Y-110902766D01*
X90674031Y-110937691D01*
X90663188Y-110994901D01*
X90659857Y-111077430D01*
X90515083Y-111077430D01*
X90514714Y-111063267D01*
X90515253Y-110995169D01*
X90517707Y-110943587D01*
X90523158Y-110907816D01*
X90532686Y-110881015D01*
X90547371Y-110856338D01*
X90560852Y-110837480D01*
X90609799Y-110786568D01*
X90665256Y-110758918D01*
X90734928Y-110750165D01*
X90814664Y-110758890D01*
X90883595Y-110790185D01*
X90938113Y-110845381D01*
X90942223Y-110851224D01*
X90951808Y-110866753D01*
X90959151Y-110884498D01*
X90964612Y-110908290D01*
X90968550Y-110941958D01*
X90971323Y-110989333D01*
X90973292Y-111054245D01*
X90973528Y-111067603D01*
G37*
X86232495Y-110785220D02*
X86263599Y-110793121D01*
X86292559Y-110812817D01*
X86329831Y-110849484D01*
X86353801Y-110875378D01*
X86378770Y-110908997D01*
X86390031Y-110940506D01*
X86392657Y-110980485D01*
X86392657Y-111045917D01*
X86348035Y-111022842D01*
X86312673Y-110994724D01*
X86288451Y-110956848D01*
X86284291Y-110946551D01*
X86252594Y-110906637D01*
X86208554Y-110886624D01*
X86160531Y-110888572D01*
X86116886Y-110914543D01*
X86098420Y-110935635D01*
X86087663Y-110962619D01*
X86099178Y-110986634D01*
X86134981Y-111010791D01*
X86197090Y-111038199D01*
X86206515Y-111041985D01*
X86263058Y-111066759D01*
X86311580Y-111091189D01*
X86342451Y-111110486D01*
X86373371Y-111144953D01*
X86393927Y-111199957D01*
X86391744Y-111258983D01*
X86367424Y-111314845D01*
X86321568Y-111360355D01*
X86284438Y-111379727D01*
X86212711Y-111393292D01*
X86172852Y-111391462D01*
X86135953Y-111381568D01*
X86121797Y-111360806D01*
X86127091Y-111326613D01*
X86128631Y-111322092D01*
X86140842Y-111298116D01*
X86161174Y-111289042D01*
X86199908Y-111289649D01*
X86227257Y-111290474D01*
X86259257Y-111283392D01*
X86281182Y-111262219D01*
X86293670Y-111236152D01*
X86295062Y-111208845D01*
X86294998Y-111208685D01*
X86278807Y-111193930D01*
X86244155Y-111172457D01*
X86199321Y-111148458D01*
X86152582Y-111126125D01*
X86112217Y-111109652D01*
X86086504Y-111103229D01*
X86082679Y-111109518D01*
X86077864Y-111139115D01*
X86074566Y-111187447D01*
X86073343Y-111248372D01*
X86073058Y-111290542D01*
X86071718Y-111343653D01*
X86069528Y-111380025D01*
X86066769Y-111393514D01*
X86052344Y-111388981D01*
X86023226Y-111376670D01*
X85986257Y-111359826D01*
X85986257Y-111143721D01*
X85986493Y-111088327D01*
X85988729Y-111004207D01*
X85994423Y-110941800D01*
X86004903Y-110896358D01*
X86021497Y-110863133D01*
X86045531Y-110837378D01*
X86078333Y-110814344D01*
X86120124Y-110795335D01*
X86197287Y-110783914D01*
X86232495Y-110785220D01*
G36*
X86232495Y-110785220D02*
G01*
X86263599Y-110793121D01*
X86292559Y-110812817D01*
X86329831Y-110849484D01*
X86353801Y-110875378D01*
X86378770Y-110908997D01*
X86390031Y-110940506D01*
X86392657Y-110980485D01*
X86392657Y-111045917D01*
X86348035Y-111022842D01*
X86312673Y-110994724D01*
X86288451Y-110956848D01*
X86284291Y-110946551D01*
X86252594Y-110906637D01*
X86208554Y-110886624D01*
X86160531Y-110888572D01*
X86116886Y-110914543D01*
X86098420Y-110935635D01*
X86087663Y-110962619D01*
X86099178Y-110986634D01*
X86134981Y-111010791D01*
X86197090Y-111038199D01*
X86206515Y-111041985D01*
X86263058Y-111066759D01*
X86311580Y-111091189D01*
X86342451Y-111110486D01*
X86373371Y-111144953D01*
X86393927Y-111199957D01*
X86391744Y-111258983D01*
X86367424Y-111314845D01*
X86321568Y-111360355D01*
X86284438Y-111379727D01*
X86212711Y-111393292D01*
X86172852Y-111391462D01*
X86135953Y-111381568D01*
X86121797Y-111360806D01*
X86127091Y-111326613D01*
X86128631Y-111322092D01*
X86140842Y-111298116D01*
X86161174Y-111289042D01*
X86199908Y-111289649D01*
X86227257Y-111290474D01*
X86259257Y-111283392D01*
X86281182Y-111262219D01*
X86293670Y-111236152D01*
X86295062Y-111208845D01*
X86294998Y-111208685D01*
X86278807Y-111193930D01*
X86244155Y-111172457D01*
X86199321Y-111148458D01*
X86152582Y-111126125D01*
X86112217Y-111109652D01*
X86086504Y-111103229D01*
X86082679Y-111109518D01*
X86077864Y-111139115D01*
X86074566Y-111187447D01*
X86073343Y-111248372D01*
X86073058Y-111290542D01*
X86071718Y-111343653D01*
X86069528Y-111380025D01*
X86066769Y-111393514D01*
X86052344Y-111388981D01*
X86023226Y-111376670D01*
X85986257Y-111359826D01*
X85986257Y-111143721D01*
X85986493Y-111088327D01*
X85988729Y-111004207D01*
X85994423Y-110941800D01*
X86004903Y-110896358D01*
X86021497Y-110863133D01*
X86045531Y-110837378D01*
X86078333Y-110814344D01*
X86120124Y-110795335D01*
X86197287Y-110783914D01*
X86232495Y-110785220D01*
G37*
X88378933Y-106081371D02*
X88454856Y-106081865D01*
X88509491Y-106083135D01*
X88546500Y-106085547D01*
X88569547Y-106089467D01*
X88582296Y-106095262D01*
X88588411Y-106103299D01*
X88591556Y-106113943D01*
X88591646Y-106114325D01*
X88596814Y-106139347D01*
X88606209Y-106187681D01*
X88618867Y-106254260D01*
X88633825Y-106334014D01*
X88650119Y-106421875D01*
X88651448Y-106429064D01*
X88667691Y-106514340D01*
X88682805Y-106589242D01*
X88695808Y-106649219D01*
X88705715Y-106689717D01*
X88711544Y-106706184D01*
X88711575Y-106706210D01*
X88729943Y-106715320D01*
X88767640Y-106730457D01*
X88816543Y-106748358D01*
X88819297Y-106749330D01*
X88881817Y-106772959D01*
X88954543Y-106802595D01*
X89022294Y-106832062D01*
X89133703Y-106882626D01*
X89380399Y-106714160D01*
X89397775Y-106702311D01*
X89472202Y-106651947D01*
X89538614Y-106607612D01*
X89593039Y-106571916D01*
X89631506Y-106547471D01*
X89650042Y-106536889D01*
X89662743Y-106539315D01*
X89691579Y-106558110D01*
X89736143Y-106595330D01*
X89797670Y-106652020D01*
X89877398Y-106729227D01*
X89884532Y-106736255D01*
X89947796Y-106799222D01*
X90003990Y-106856268D01*
X90049677Y-106903817D01*
X90081414Y-106938297D01*
X90095764Y-106956131D01*
X90095810Y-106956217D01*
X90097633Y-106969795D01*
X90090910Y-106991820D01*
X90073946Y-107025304D01*
X90045044Y-107073261D01*
X90002508Y-107138704D01*
X89944644Y-107224645D01*
X89934783Y-107239151D01*
X89884913Y-107312635D01*
X89840905Y-107377687D01*
X89805380Y-107430417D01*
X89780959Y-107466936D01*
X89770264Y-107483356D01*
X89769458Y-107486834D01*
X89774518Y-107512785D01*
X89789677Y-107555159D01*
X89812463Y-107606728D01*
X89843429Y-107674170D01*
X89878004Y-107754195D01*
X89907366Y-107826629D01*
X89914645Y-107845377D01*
X89933710Y-107893246D01*
X89947715Y-107926596D01*
X89954041Y-107939114D01*
X89961025Y-107940050D01*
X89992413Y-107945461D01*
X90043787Y-107954806D01*
X90109802Y-107967069D01*
X90185113Y-107981232D01*
X90264375Y-107996280D01*
X90342243Y-108011195D01*
X90413370Y-108024961D01*
X90472412Y-108036562D01*
X90514022Y-108044980D01*
X90532857Y-108049199D01*
X90535980Y-108050389D01*
X90543591Y-108056805D01*
X90549254Y-108070465D01*
X90553251Y-108094999D01*
X90555866Y-108134038D01*
X90557384Y-108191213D01*
X90558086Y-108270154D01*
X90558257Y-108374492D01*
X90558257Y-108691799D01*
X90482057Y-108706839D01*
X90472840Y-108708642D01*
X90423891Y-108717980D01*
X90356205Y-108730669D01*
X90277478Y-108745273D01*
X90195400Y-108760355D01*
X90163078Y-108766422D01*
X90090855Y-108781181D01*
X90030666Y-108795137D01*
X89988040Y-108806952D01*
X89968510Y-108815287D01*
X89959660Y-108828905D01*
X89943548Y-108864938D01*
X89927065Y-108911572D01*
X89921263Y-108929034D01*
X89899906Y-108986358D01*
X89872359Y-109054201D01*
X89843107Y-109121355D01*
X89827463Y-109156430D01*
X89805174Y-109208822D01*
X89789857Y-109248058D01*
X89784162Y-109267563D01*
X89784478Y-109269036D01*
X89795281Y-109289729D01*
X89819638Y-109329665D01*
X89855081Y-109384972D01*
X89899136Y-109451781D01*
X89949332Y-109526220D01*
X90114501Y-109768623D01*
X89897503Y-109985983D01*
X89876516Y-110006899D01*
X89812342Y-110069505D01*
X89754990Y-110123495D01*
X89707820Y-110165826D01*
X89674192Y-110193457D01*
X89657467Y-110203343D01*
X89639303Y-110195821D01*
X89601265Y-110174227D01*
X89547726Y-110141151D01*
X89482884Y-110099191D01*
X89410940Y-110050943D01*
X89340275Y-110003291D01*
X89276526Y-109961328D01*
X89224513Y-109928165D01*
X89188279Y-109906378D01*
X89171867Y-109898543D01*
X89170905Y-109898614D01*
X89149103Y-109906338D01*
X89110440Y-109924323D01*
X89062612Y-109949013D01*
X89062110Y-109949284D01*
X88998587Y-109981099D01*
X88955060Y-109996642D01*
X88928052Y-109996685D01*
X88914090Y-109982000D01*
X88908180Y-109967544D01*
X88892229Y-109928831D01*
X88867660Y-109869316D01*
X88835779Y-109792165D01*
X88797893Y-109700541D01*
X88755310Y-109597607D01*
X88709337Y-109486526D01*
X88667667Y-109385472D01*
X88625268Y-109281780D01*
X88587756Y-109189119D01*
X88556388Y-109110642D01*
X88532425Y-109049500D01*
X88517123Y-109008843D01*
X88511743Y-108991825D01*
X88522018Y-108976219D01*
X88550563Y-108950162D01*
X88590971Y-108919887D01*
X88687979Y-108840684D01*
X88774793Y-108739475D01*
X88838322Y-108628116D01*
X88878177Y-108509893D01*
X88893965Y-108388095D01*
X88885296Y-108266010D01*
X88851778Y-108146925D01*
X88793021Y-108034129D01*
X88708632Y-107930911D01*
X88664631Y-107890713D01*
X88559211Y-107819638D01*
X88446410Y-107773301D01*
X88329525Y-107750599D01*
X88211853Y-107750428D01*
X88096690Y-107771687D01*
X87987335Y-107813270D01*
X87887083Y-107874076D01*
X87799233Y-107953001D01*
X87727080Y-108048941D01*
X87673922Y-108160795D01*
X87643057Y-108287457D01*
X87637392Y-108348507D01*
X87645185Y-108480776D01*
X87680284Y-108606266D01*
X87741649Y-108722759D01*
X87828243Y-108828039D01*
X87939029Y-108919887D01*
X87977931Y-108948930D01*
X88007104Y-108975272D01*
X88018257Y-108991800D01*
X88013810Y-109006209D01*
X87999378Y-109044815D01*
X87976173Y-109104201D01*
X87945452Y-109181215D01*
X87908474Y-109272703D01*
X87866496Y-109375516D01*
X87820778Y-109486502D01*
X87779178Y-109587072D01*
X87736222Y-109690947D01*
X87697829Y-109783819D01*
X87665305Y-109862525D01*
X87639958Y-109923899D01*
X87623095Y-109964779D01*
X87616025Y-109982000D01*
X87615943Y-109982204D01*
X87601798Y-109996745D01*
X87574659Y-109996579D01*
X87531023Y-109980927D01*
X87467388Y-109949013D01*
X87462379Y-109946326D01*
X87415125Y-109922150D01*
X87377811Y-109905037D01*
X87358133Y-109898543D01*
X87342005Y-109906218D01*
X87305959Y-109927871D01*
X87254092Y-109960928D01*
X87190445Y-110002810D01*
X87119060Y-110050943D01*
X87048724Y-110098131D01*
X86983670Y-110140267D01*
X86929820Y-110173578D01*
X86891374Y-110195469D01*
X86872534Y-110203343D01*
X86869325Y-110202343D01*
X86846954Y-110186584D01*
X86808733Y-110154033D01*
X86758021Y-110107733D01*
X86698181Y-110050726D01*
X86632571Y-109986058D01*
X86415648Y-109768772D01*
X86584601Y-109520253D01*
X86753553Y-109271733D01*
X86702183Y-109160595D01*
X86702031Y-109160266D01*
X86671183Y-109089418D01*
X86639661Y-109010523D01*
X86614266Y-108940600D01*
X86610423Y-108929322D01*
X86591047Y-108876967D01*
X86573574Y-108836283D01*
X86561388Y-108815287D01*
X86556426Y-108812322D01*
X86526634Y-108802375D01*
X86476047Y-108789505D01*
X86410194Y-108775053D01*
X86334600Y-108760355D01*
X86311957Y-108756210D01*
X86230038Y-108741116D01*
X86153600Y-108726899D01*
X86090337Y-108714995D01*
X86047943Y-108706839D01*
X85971743Y-108691799D01*
X85971743Y-108374492D01*
X85971760Y-108335476D01*
X85972082Y-108240292D01*
X85973033Y-108169255D01*
X85974896Y-108118734D01*
X85977955Y-108085098D01*
X85982494Y-108064718D01*
X85988795Y-108053962D01*
X85997143Y-108049199D01*
X86005224Y-108047270D01*
X86038172Y-108040445D01*
X86090736Y-108030022D01*
X86157569Y-108017018D01*
X86233328Y-108002449D01*
X86312665Y-107987333D01*
X86390237Y-107972685D01*
X86460698Y-107959523D01*
X86518702Y-107948863D01*
X86558904Y-107941721D01*
X86575959Y-107939114D01*
X86577112Y-107937541D01*
X86586385Y-107917119D01*
X86602432Y-107878045D01*
X86622635Y-107826629D01*
X86650672Y-107757353D01*
X86685186Y-107677290D01*
X86717538Y-107606728D01*
X86724952Y-107590889D01*
X86745755Y-107541293D01*
X86758219Y-107503038D01*
X86759863Y-107483356D01*
X86759015Y-107481962D01*
X86745548Y-107461420D01*
X86718850Y-107421516D01*
X86681539Y-107366140D01*
X86636234Y-107299177D01*
X86585552Y-107224517D01*
X86528445Y-107139692D01*
X86485607Y-107073800D01*
X86456460Y-107025478D01*
X86439317Y-106991733D01*
X86432495Y-106969572D01*
X86434306Y-106956002D01*
X86434915Y-106954984D01*
X86451297Y-106935210D01*
X86484695Y-106899175D01*
X86531671Y-106850451D01*
X86588786Y-106792612D01*
X86652603Y-106729227D01*
X86718802Y-106664905D01*
X86783648Y-106604447D01*
X86831299Y-106563655D01*
X86862990Y-106541484D01*
X86879958Y-106536889D01*
X86882175Y-106537921D01*
X86905524Y-106551837D01*
X86947912Y-106579030D01*
X87005369Y-106616889D01*
X87073923Y-106662803D01*
X87149601Y-106714160D01*
X87396298Y-106882626D01*
X87507706Y-106832062D01*
X87510943Y-106830597D01*
X87579343Y-106800965D01*
X87651907Y-106771493D01*
X87713457Y-106748358D01*
X87713729Y-106748262D01*
X87762595Y-106730367D01*
X87800212Y-106715253D01*
X87818457Y-106706184D01*
X87818752Y-106705855D01*
X87824946Y-106687282D01*
X87835139Y-106645045D01*
X87848348Y-106583696D01*
X87863590Y-106507789D01*
X87879881Y-106421875D01*
X87880449Y-106418796D01*
X87896713Y-106331128D01*
X87911608Y-106251741D01*
X87924171Y-106185701D01*
X87933438Y-106138079D01*
X87938444Y-106113943D01*
X87938764Y-106112605D01*
X87942060Y-106102273D01*
X87948738Y-106094506D01*
X87962462Y-106088940D01*
X87986895Y-106085207D01*
X88025702Y-106082942D01*
X88082546Y-106081778D01*
X88161090Y-106081348D01*
X88265000Y-106081286D01*
X88278056Y-106081286D01*
X88378933Y-106081371D01*
G36*
X88378933Y-106081371D02*
G01*
X88454856Y-106081865D01*
X88509491Y-106083135D01*
X88546500Y-106085547D01*
X88569547Y-106089467D01*
X88582296Y-106095262D01*
X88588411Y-106103299D01*
X88591556Y-106113943D01*
X88591646Y-106114325D01*
X88596814Y-106139347D01*
X88606209Y-106187681D01*
X88618867Y-106254260D01*
X88633825Y-106334014D01*
X88650119Y-106421875D01*
X88651448Y-106429064D01*
X88667691Y-106514340D01*
X88682805Y-106589242D01*
X88695808Y-106649219D01*
X88705715Y-106689717D01*
X88711544Y-106706184D01*
X88711575Y-106706210D01*
X88729943Y-106715320D01*
X88767640Y-106730457D01*
X88816543Y-106748358D01*
X88819297Y-106749330D01*
X88881817Y-106772959D01*
X88954543Y-106802595D01*
X89022294Y-106832062D01*
X89133703Y-106882626D01*
X89380399Y-106714160D01*
X89397775Y-106702311D01*
X89472202Y-106651947D01*
X89538614Y-106607612D01*
X89593039Y-106571916D01*
X89631506Y-106547471D01*
X89650042Y-106536889D01*
X89662743Y-106539315D01*
X89691579Y-106558110D01*
X89736143Y-106595330D01*
X89797670Y-106652020D01*
X89877398Y-106729227D01*
X89884532Y-106736255D01*
X89947796Y-106799222D01*
X90003990Y-106856268D01*
X90049677Y-106903817D01*
X90081414Y-106938297D01*
X90095764Y-106956131D01*
X90095810Y-106956217D01*
X90097633Y-106969795D01*
X90090910Y-106991820D01*
X90073946Y-107025304D01*
X90045044Y-107073261D01*
X90002508Y-107138704D01*
X89944644Y-107224645D01*
X89934783Y-107239151D01*
X89884913Y-107312635D01*
X89840905Y-107377687D01*
X89805380Y-107430417D01*
X89780959Y-107466936D01*
X89770264Y-107483356D01*
X89769458Y-107486834D01*
X89774518Y-107512785D01*
X89789677Y-107555159D01*
X89812463Y-107606728D01*
X89843429Y-107674170D01*
X89878004Y-107754195D01*
X89907366Y-107826629D01*
X89914645Y-107845377D01*
X89933710Y-107893246D01*
X89947715Y-107926596D01*
X89954041Y-107939114D01*
X89961025Y-107940050D01*
X89992413Y-107945461D01*
X90043787Y-107954806D01*
X90109802Y-107967069D01*
X90185113Y-107981232D01*
X90264375Y-107996280D01*
X90342243Y-108011195D01*
X90413370Y-108024961D01*
X90472412Y-108036562D01*
X90514022Y-108044980D01*
X90532857Y-108049199D01*
X90535980Y-108050389D01*
X90543591Y-108056805D01*
X90549254Y-108070465D01*
X90553251Y-108094999D01*
X90555866Y-108134038D01*
X90557384Y-108191213D01*
X90558086Y-108270154D01*
X90558257Y-108374492D01*
X90558257Y-108691799D01*
X90482057Y-108706839D01*
X90472840Y-108708642D01*
X90423891Y-108717980D01*
X90356205Y-108730669D01*
X90277478Y-108745273D01*
X90195400Y-108760355D01*
X90163078Y-108766422D01*
X90090855Y-108781181D01*
X90030666Y-108795137D01*
X89988040Y-108806952D01*
X89968510Y-108815287D01*
X89959660Y-108828905D01*
X89943548Y-108864938D01*
X89927065Y-108911572D01*
X89921263Y-108929034D01*
X89899906Y-108986358D01*
X89872359Y-109054201D01*
X89843107Y-109121355D01*
X89827463Y-109156430D01*
X89805174Y-109208822D01*
X89789857Y-109248058D01*
X89784162Y-109267563D01*
X89784478Y-109269036D01*
X89795281Y-109289729D01*
X89819638Y-109329665D01*
X89855081Y-109384972D01*
X89899136Y-109451781D01*
X89949332Y-109526220D01*
X90114501Y-109768623D01*
X89897503Y-109985983D01*
X89876516Y-110006899D01*
X89812342Y-110069505D01*
X89754990Y-110123495D01*
X89707820Y-110165826D01*
X89674192Y-110193457D01*
X89657467Y-110203343D01*
X89639303Y-110195821D01*
X89601265Y-110174227D01*
X89547726Y-110141151D01*
X89482884Y-110099191D01*
X89410940Y-110050943D01*
X89340275Y-110003291D01*
X89276526Y-109961328D01*
X89224513Y-109928165D01*
X89188279Y-109906378D01*
X89171867Y-109898543D01*
X89170905Y-109898614D01*
X89149103Y-109906338D01*
X89110440Y-109924323D01*
X89062612Y-109949013D01*
X89062110Y-109949284D01*
X88998587Y-109981099D01*
X88955060Y-109996642D01*
X88928052Y-109996685D01*
X88914090Y-109982000D01*
X88908180Y-109967544D01*
X88892229Y-109928831D01*
X88867660Y-109869316D01*
X88835779Y-109792165D01*
X88797893Y-109700541D01*
X88755310Y-109597607D01*
X88709337Y-109486526D01*
X88667667Y-109385472D01*
X88625268Y-109281780D01*
X88587756Y-109189119D01*
X88556388Y-109110642D01*
X88532425Y-109049500D01*
X88517123Y-109008843D01*
X88511743Y-108991825D01*
X88522018Y-108976219D01*
X88550563Y-108950162D01*
X88590971Y-108919887D01*
X88687979Y-108840684D01*
X88774793Y-108739475D01*
X88838322Y-108628116D01*
X88878177Y-108509893D01*
X88893965Y-108388095D01*
X88885296Y-108266010D01*
X88851778Y-108146925D01*
X88793021Y-108034129D01*
X88708632Y-107930911D01*
X88664631Y-107890713D01*
X88559211Y-107819638D01*
X88446410Y-107773301D01*
X88329525Y-107750599D01*
X88211853Y-107750428D01*
X88096690Y-107771687D01*
X87987335Y-107813270D01*
X87887083Y-107874076D01*
X87799233Y-107953001D01*
X87727080Y-108048941D01*
X87673922Y-108160795D01*
X87643057Y-108287457D01*
X87637392Y-108348507D01*
X87645185Y-108480776D01*
X87680284Y-108606266D01*
X87741649Y-108722759D01*
X87828243Y-108828039D01*
X87939029Y-108919887D01*
X87977931Y-108948930D01*
X88007104Y-108975272D01*
X88018257Y-108991800D01*
X88013810Y-109006209D01*
X87999378Y-109044815D01*
X87976173Y-109104201D01*
X87945452Y-109181215D01*
X87908474Y-109272703D01*
X87866496Y-109375516D01*
X87820778Y-109486502D01*
X87779178Y-109587072D01*
X87736222Y-109690947D01*
X87697829Y-109783819D01*
X87665305Y-109862525D01*
X87639958Y-109923899D01*
X87623095Y-109964779D01*
X87616025Y-109982000D01*
X87615943Y-109982204D01*
X87601798Y-109996745D01*
X87574659Y-109996579D01*
X87531023Y-109980927D01*
X87467388Y-109949013D01*
X87462379Y-109946326D01*
X87415125Y-109922150D01*
X87377811Y-109905037D01*
X87358133Y-109898543D01*
X87342005Y-109906218D01*
X87305959Y-109927871D01*
X87254092Y-109960928D01*
X87190445Y-110002810D01*
X87119060Y-110050943D01*
X87048724Y-110098131D01*
X86983670Y-110140267D01*
X86929820Y-110173578D01*
X86891374Y-110195469D01*
X86872534Y-110203343D01*
X86869325Y-110202343D01*
X86846954Y-110186584D01*
X86808733Y-110154033D01*
X86758021Y-110107733D01*
X86698181Y-110050726D01*
X86632571Y-109986058D01*
X86415648Y-109768772D01*
X86584601Y-109520253D01*
X86753553Y-109271733D01*
X86702183Y-109160595D01*
X86702031Y-109160266D01*
X86671183Y-109089418D01*
X86639661Y-109010523D01*
X86614266Y-108940600D01*
X86610423Y-108929322D01*
X86591047Y-108876967D01*
X86573574Y-108836283D01*
X86561388Y-108815287D01*
X86556426Y-108812322D01*
X86526634Y-108802375D01*
X86476047Y-108789505D01*
X86410194Y-108775053D01*
X86334600Y-108760355D01*
X86311957Y-108756210D01*
X86230038Y-108741116D01*
X86153600Y-108726899D01*
X86090337Y-108714995D01*
X86047943Y-108706839D01*
X85971743Y-108691799D01*
X85971743Y-108374492D01*
X85971760Y-108335476D01*
X85972082Y-108240292D01*
X85973033Y-108169255D01*
X85974896Y-108118734D01*
X85977955Y-108085098D01*
X85982494Y-108064718D01*
X85988795Y-108053962D01*
X85997143Y-108049199D01*
X86005224Y-108047270D01*
X86038172Y-108040445D01*
X86090736Y-108030022D01*
X86157569Y-108017018D01*
X86233328Y-108002449D01*
X86312665Y-107987333D01*
X86390237Y-107972685D01*
X86460698Y-107959523D01*
X86518702Y-107948863D01*
X86558904Y-107941721D01*
X86575959Y-107939114D01*
X86577112Y-107937541D01*
X86586385Y-107917119D01*
X86602432Y-107878045D01*
X86622635Y-107826629D01*
X86650672Y-107757353D01*
X86685186Y-107677290D01*
X86717538Y-107606728D01*
X86724952Y-107590889D01*
X86745755Y-107541293D01*
X86758219Y-107503038D01*
X86759863Y-107483356D01*
X86759015Y-107481962D01*
X86745548Y-107461420D01*
X86718850Y-107421516D01*
X86681539Y-107366140D01*
X86636234Y-107299177D01*
X86585552Y-107224517D01*
X86528445Y-107139692D01*
X86485607Y-107073800D01*
X86456460Y-107025478D01*
X86439317Y-106991733D01*
X86432495Y-106969572D01*
X86434306Y-106956002D01*
X86434915Y-106954984D01*
X86451297Y-106935210D01*
X86484695Y-106899175D01*
X86531671Y-106850451D01*
X86588786Y-106792612D01*
X86652603Y-106729227D01*
X86718802Y-106664905D01*
X86783648Y-106604447D01*
X86831299Y-106563655D01*
X86862990Y-106541484D01*
X86879958Y-106536889D01*
X86882175Y-106537921D01*
X86905524Y-106551837D01*
X86947912Y-106579030D01*
X87005369Y-106616889D01*
X87073923Y-106662803D01*
X87149601Y-106714160D01*
X87396298Y-106882626D01*
X87507706Y-106832062D01*
X87510943Y-106830597D01*
X87579343Y-106800965D01*
X87651907Y-106771493D01*
X87713457Y-106748358D01*
X87713729Y-106748262D01*
X87762595Y-106730367D01*
X87800212Y-106715253D01*
X87818457Y-106706184D01*
X87818752Y-106705855D01*
X87824946Y-106687282D01*
X87835139Y-106645045D01*
X87848348Y-106583696D01*
X87863590Y-106507789D01*
X87879881Y-106421875D01*
X87880449Y-106418796D01*
X87896713Y-106331128D01*
X87911608Y-106251741D01*
X87924171Y-106185701D01*
X87933438Y-106138079D01*
X87938444Y-106113943D01*
X87938764Y-106112605D01*
X87942060Y-106102273D01*
X87948738Y-106094506D01*
X87962462Y-106088940D01*
X87986895Y-106085207D01*
X88025702Y-106082942D01*
X88082546Y-106081778D01*
X88161090Y-106081348D01*
X88265000Y-106081286D01*
X88278056Y-106081286D01*
X88378933Y-106081371D01*
G37*
D10*
X96118000Y-96358064D02*
X96118000Y-94903936D01*
X97938000Y-96358064D02*
X97938000Y-94903936D01*
X106010064Y-99716000D02*
X104555936Y-99716000D01*
X106010064Y-97896000D02*
X104555936Y-97896000D01*
X104555936Y-103611000D02*
X106010064Y-103611000D01*
X104555936Y-105431000D02*
X106010064Y-105431000D01*
X105984064Y-84730000D02*
X104529936Y-84730000D01*
X105984064Y-82910000D02*
X104529936Y-82910000D01*
X100224000Y-84616936D02*
X100224000Y-86071064D01*
X98404000Y-84616936D02*
X98404000Y-86071064D01*
X80838064Y-95398000D02*
X79383936Y-95398000D01*
X80838064Y-93578000D02*
X79383936Y-93578000D01*
X82656000Y-82079752D02*
X82656000Y-80657248D01*
X84476000Y-82079752D02*
X84476000Y-80657248D01*
X105984064Y-89683000D02*
X104529936Y-89683000D01*
X105984064Y-87863000D02*
X104529936Y-87863000D01*
X106010064Y-97176000D02*
X104555936Y-97176000D01*
X106010064Y-95356000D02*
X104555936Y-95356000D01*
X106010064Y-102256000D02*
X104555936Y-102256000D01*
X106010064Y-100436000D02*
X104555936Y-100436000D01*
X105984064Y-92223000D02*
X104529936Y-92223000D01*
X105984064Y-90403000D02*
X104529936Y-90403000D01*
X75885064Y-95398000D02*
X74430936Y-95398000D01*
X75885064Y-93578000D02*
X74430936Y-93578000D01*
M02*
